<?xml version="1.0" encoding="utf-8"?>
<!-- Generator: Adobe Illustrator 24.0.0, SVG Export Plug-In . SVG Version: 6.00 Build 0)  -->
<svg version="1.1" id="Layer_1" xmlns="http://www.w3.org/2000/svg" xmlns:xlink="http://www.w3.org/1999/xlink" x="0px" y="0px"
	 viewBox="0 0 1200 1200" style="enable-background:new 0 0 1200 1200;" xml:space="preserve">
<style type="text/css">
	.st0{fill:#BE9A71;}
	.st1{fill:#D9A993;}
	.st2{fill:#683A32;}
	.st3{fill:#FFFFFF;}
	.st4{fill:#F78C8B;}
	.st5{fill:#1D1D1B;}
	.st6{fill:#FDAC49;}
	.st7{fill:#191919;}
	.st8{fill:#333333;}
	.st9{fill:#14192C;}
	.st10{fill:#3E3D4F;}
	.st11{fill:#A15225;}
	.st12{fill:#895834;}
	.st13{fill:#1A0A14;}
	.st14{fill:#672E28;}
	.st15{fill:#111B1D;}
	.st16{fill:#EBEBEB;}
	.st17{fill:#494859;}
	.st18{fill:#2F2627;}
	.st19{fill:#C7B6AC;}
	.st20{fill:#E2D9D4;}
	.st21{fill:#D6CDCA;}
	.st22{fill:#674043;}
	.st23{fill:#3D3834;}
	.st24{fill:#E4DACE;}
	.st25{fill:#554E46;}
	.st26{fill:#E8E8E8;}
	.st27{fill:#AEE9FA;}
	.st28{fill:#4D4D4D;}
	.st29{fill:#FDFDFD;}
	.st30{fill:#FAAF5E;}
	.st31{fill:#F8FCFC;}
	.st32{fill:#DBCFB5;}
	.st33{fill:#6D6D6D;}
	.st34{fill:#C69C6D;}
	.st35{fill:#F0B965;}
	.st36{fill:#DA7B45;}
	.st37{fill:#FAE7D6;}
	.st38{fill:#FDF8F2;}
	.st39{fill:#E2C4AA;}
	.st40{fill:#BC8571;}
	.st41{fill:#2F322A;}
	.st42{fill:#444741;}
	.st43{fill:#46282D;}
	.st44{fill:#986858;}
	.st45{fill:#F0C7A2;}
	.st46{fill:#FCE9C8;}
	.st47{fill:#808080;}
	.st48{fill:#4E4E4E;}
	.st49{fill:#E8CBA9;}
	.st50{fill:#956B50;}
</style>
<g>
	<path class="st5" d="M1108.2,802.8H142.5c-4.6,0-8.3-4.8-8.3-10.7s3.7-10.7,8.3-10.7h965.7c4.6,0,8.3,4.8,8.3,10.7
		S1112.8,802.8,1108.2,802.8z"/>
	<path class="st3" d="M428.6,736.2c45.8,72-8.6,88-8.6,88c-12.1,42.8-54,23.3-54,23.3C330.8,862,313.2,824,313.2,824
		c-41.9,1.5-37.2-59.2-22.2-84.1C307.4,713,395,683.4,428.6,736.2z"/>
	<path class="st5" d="M435.6,731.8c-7.1-11.3-17.4-20.3-29.6-25.8c-11.5-5-24-7.5-36.6-7.3c-34.2,0-73.3,17-85.6,37
		c-6.4,11.6-10.4,24.3-11.5,37.5c-1.6,15.9,0.7,30.4,6.5,40.6c5.8,10.9,17,17.9,29.3,18.5c5.4,8.8,19.2,26.8,42.2,26.8l0,0
		c5.3,0,10.5-0.9,15.5-2.6c6.7,2.4,13.8,3.7,20.9,3.8c19.1,0,33.2-10.5,39.9-29.8c11.7-5.1,20.8-14.6,25.5-26.5
		C459.4,784.7,453.9,760.4,435.6,731.8z M436.8,798c-2.5,6.5-7.1,11.9-13.1,15.4c-2.5-4.9-5.7-9.4-9.4-13.4
		c-3.3-3.2-8.6-3.1-11.7,0.2c-3.2,3.3-3.1,8.6,0.2,11.7c3.2,3.9,5.9,8.1,8,12.6l0.2,0.4c-4.4,12.6-12.4,18.7-24.3,18.7
		c-4.2-0.1-8.3-0.7-12.4-1.9c0.3-5.1,0.2-10.2-0.2-15.3c-0.3-4.6-4.3-8-8.9-7.7c-4.6,0.3-8,4.3-7.7,8.9c0,0.3,0.1,0.6,0.1,0.9
		c0.3,4.3,0.3,8.6,0,13c-2.4,0.6-4.9,1-7.3,1l0,0c-14,0-23.4-11.6-27.5-17.9c3.3-5.2,6.9-12.7,5.2-19.1c-1.7-4.3-6.5-6.4-10.7-4.7
		c-3.4,1.3-5.5,4.7-5.3,8.3c-0.7,2.4-1.8,4.6-3.2,6.6c-6.6-0.4-12.5-4.2-15.5-10c-8.8-15.7-4.7-45.9,4.7-61.4
		c7.4-12.1,38.1-29,71.4-29c16.4,0,38.7,4.4,52.1,25.4C436.6,764.2,441.9,784.1,436.8,798L436.8,798z"/>
	<path class="st3" d="M792,736.2c-45.8,72,8.6,88,8.6,88c12.1,42.8,54,23.3,54,23.3c35.3,14.4,52.9-23.6,52.9-23.6
		c41.9,1.5,37.2-59.2,22.2-84.1C913.2,713,825.6,683.4,792,736.2z"/>
	<path class="st5" d="M948.2,773.2c-1.2-13.1-5.1-25.9-11.5-37.4c-12.2-20.1-51.4-37-85.6-37c-12.6-0.2-25.1,2.3-36.6,7.3
		c-12.2,5.5-22.5,14.4-29.6,25.8c-18.3,28.7-23.8,53-16.6,72.3c4.7,11.8,13.8,21.4,25.5,26.5c6.8,19.2,20.8,29.8,39.9,29.8
		c7.1-0.1,14.1-1.4,20.8-3.8c5,1.7,10.2,2.6,15.5,2.6l0,0c23,0,36.8-18,42.2-26.8c12.3-0.6,23.5-7.6,29.3-18.5
		C947.5,803.6,949.8,789.2,948.2,773.2z M927.3,805.7c-3.1,5.8-9,9.6-15.5,10c-1.4-2-2.5-4.3-3.2-6.6c1-4.5-1.9-8.9-6.4-9.8
		c-4.4-0.9-8.8,1.8-9.8,6.3c-1.6,6.4,2,13.9,5.2,19.1c-4.1,6.3-13.5,17.9-27.5,17.9l0,0c-2.5,0-4.9-0.3-7.3-1c-0.3-4.3-0.3-8.6,0-13
		c0.6-4.5-2.6-8.7-7.2-9.3c-4.5-0.6-8.7,2.6-9.3,7.2l0,0c-0.4,5.1-0.5,10.2-0.2,15.3c-4,1.2-8.1,1.9-12.3,1.9
		c-12,0-19.9-6.2-24.3-18.7l0.2-0.4c2.1-4.5,4.8-8.7,8-12.6c3.3-3.2,3.4-8.4,0.2-11.7c-3.2-3.3-8.4-3.4-11.7-0.2
		c-3.7,4-6.9,8.5-9.4,13.4c-6-3.5-10.6-8.9-13.1-15.4c-5.2-13.9,0-33.8,15.1-57.4c13.4-20.9,35.7-25.4,52.1-25.4
		c33.3,0,64,16.9,71.4,29C931.9,759.8,936,790,927.3,805.7L927.3,805.7z"/>
	<path class="st3" d="M422.3,632.3c-10.2-15.7-47.1-42.3-55.2-69.3c-7.1-23.3-4.9-36.8-7.4-60.6c-2.4-22.5-20.9-59.8-27-110.5
		c-3.9-32.3,0-110.9,61.4-112.5c3.6-0.1,7.2,0.2,10.8,0.9c65.4,11.9,129.4,141.8,134.9,154.6c5.7,13.5,14.3,14.6,20.9,14.6
		c6.6,0,37.6-4,60.4-3.6c34.5,0.6,50.1,2.1,59.9,2.5c9.8,0.4,15.3-2.3,19.6-20.9c6.9-29.4,44.5-114.2,95.5-147.1
		c12.8-8.3,26.5-13.3,40.8-13.3c57.8,0,53.9,87,49.7,116.2c-8.6,59.7-26.4,69.6-31.4,96.8c-5,27.2-2.4,46.9-8.9,64.5
		c-8.4,22.6-32.7,43.1-50.4,67L422.3,632.3z"/>
	<path class="st5" d="M893.5,325.7c-1.2-9.9-3.6-19.5-7.1-28.8c-1.9-4.8-4.2-9.4-7.1-13.6c-3-4.4-6.6-8.3-10.8-11.6
		c-4.2-3.3-9-5.9-14.2-7.6c-5-1.7-10.2-2.5-15.5-2.6h-1.9h-2.1c-1.3,0.1-2.7,0.2-4,0.4c-1.3,0.2-2.6,0.5-3.8,0.7l-3.7,0.9
		c-4.7,1.4-9.4,3.2-13.9,5.2c-8.8,4.1-17.2,9.1-24.9,15c-1.9,1.5-2.2,4.2-0.8,6c1.4,1.8,3.9,2.2,5.7,1l0,0c7.6-4.9,15.6-9.1,24-12.4
		c8.2-3.3,17-6.1,24.8-5.7c8.2,0.2,16,3.2,22.3,8.4c3,2.7,5.7,5.8,7.9,9.2c2.3,3.5,4.3,7.3,5.8,11.3c3.2,8.3,5.3,16.9,6.3,25.7
		c1.2,9,1.7,18,1.5,27.1c-0.1,9.1-0.8,18.2-1.9,27.2c-1.3,9-3,18-5.2,26.9c-2.2,8.8-5,17.4-8.4,25.8c-3.4,8.4-7.9,16.4-11.8,25.3
		c-2.1,4.6-3.7,9.3-5,14.2c-0.6,2.4-1.1,5-1.5,7.4s-0.7,4.8-1,7.2c-1.2,9.6-1.7,19.2-2.3,28.4c-0.2,8.9-1.6,17.7-4.3,26.2
		c-3.2,8.2-7.7,15.9-13.3,22.7c-10.7,13.9-23.3,27.2-34,42.1l-44.8,1.5L702,611c-31.1,1.4-62.3,2.8-93.4,4.5s-62.3,3.2-93.4,5
		c-30,1.6-60,3.5-90,5.4c-2.3-3-4.6-5.5-7-8c-3.1-3.3-6.3-6.4-9.5-9.5c-6.3-6.2-12.5-12.3-18.1-18.8c-5.6-6.2-10.5-13-14.6-20.3
		c-0.9-1.7-1.8-3.5-2.5-5.4c-0.4-0.9-0.6-1.8-0.9-2.6l-0.9-3c-1.1-4.1-2-8.2-2.6-12.3c-1.2-8.5-2-17.1-2.2-25.7
		c-0.2-4.4-0.5-8.9-0.9-13.4c-0.2-2.3-0.3-4.4-0.7-6.9c-0.4-2.5-0.7-4.7-1.2-7c-2-9.1-4.7-17.5-7.3-26c-2.6-8.5-5.1-16.8-7.4-25.2
		s-4.3-16.9-6-25.4c-1.8-8.5-2.9-17-4.1-25.6c-1.8-16.9-1-33.9,2.1-50.6c1.6-8.1,4.1-16,7.6-23.6c3.3-7.3,8-13.9,13.8-19.4
		c5.9-5.3,13-9,20.7-10.8c3.9-1,7.9-1.5,11.9-1.6c4.1,0,8.2,0.3,12.3,0.8h0.3c2.7,0.4,5.3-1.5,5.7-4.2c0.4-2.7-1.5-5.3-4.2-5.7
		c-4.6-0.8-9.3-1.2-14-1.3c-4.8,0-9.6,0.4-14.3,1.4c-9.6,1.9-18.5,6.3-25.9,12.7c-7.2,6.4-13,14.2-17.1,22.8c-4,8.4-7,17.3-8.8,26.4
		c-1.8,8.9-2.9,18-3.3,27.1c-0.4,9.1-0.1,18.3,0.9,27.4c2.2,17.8,5.9,35.5,10.8,52.8c2.5,8.6,5.2,17.1,7.9,25.5
		c2.6,8.4,5.2,16.8,7.2,24.9c1.6,8.4,2.4,16.8,2.6,25.4c0.2,9.1,1,18.1,2.3,27.1c0.8,4.6,1.8,9.1,3,13.5l0.9,3.3
		c0.4,1.2,0.8,2.4,1.2,3.5c0.9,2.3,1.9,4.5,3,6.7c4.5,8.2,9.9,15.8,16.1,22.7c6,6.9,12.3,13.1,18.6,19.4c3.1,3.1,6.2,6.2,9.1,9.3
		c2.9,2.9,5.5,6,7.9,9.3l0,0l0,0c1.2,1.8,3.3,2.9,5.5,2.7c31.1-1.5,62.3-3,93.4-4.7c31.1-1.8,62.3-3.5,93.4-5.2
		c31.1-1.8,62.2-3.8,93.3-5.8l46.6-3.2l46.6-3.6h0.2c1.2-0.1,2.3-0.7,3-1.7l0,0c5.6-7.2,11.8-14.1,18.1-20.9
		c6.3-6.8,12.7-13.8,18.7-21.3c6.4-7.6,11.6-16.1,15.4-25.3c3.2-9.4,5.1-19.1,5.5-29c0.8-9.4,1.4-18.6,2.8-27.6
		c0.6-4.4,1.5-8.8,2.6-13.1c1.2-4.2,2.7-8.2,4.5-12.2c3.6-8.1,8.2-16.6,11.9-25.6c3.7-8.9,6.7-18.2,9-27.6
		c2.3-9.3,4.1-18.7,5.4-28.2c1.3-9.5,2-19.2,2.1-28.8C895.6,344.9,894.9,335.2,893.5,325.7z"/>
	<path class="st6" d="M806.4,649.4c-0.5-12.2-1.9-24.3-4.2-36.3c-2.3-12-5.5-23.8-9.6-35.2l-1.6-4.3l-1.7-4.2
		c-1.1-2.9-2.4-5.6-3.7-8.5c-1-2-2-3.9-3-5.9c0.8,0,1.6,0,2.5-0.2c4.9-0.7,9.8-2.1,14.3-4.2c3-1.3,4.3-4.8,3-7.8
		c-0.6-1.3-1.7-2.4-3-3l0,0c-3.8-1.8-7.4-4-10.9-6.4c-3.6-2.5-7-5.2-10.3-8.1c-3.4-3-6.7-6.3-9.8-9.7c1.9-0.1,3.7-0.2,5.6-0.5
		c6.2-1,12.2-2.7,18-5.2l0,0c2.8-1.3,4-4.7,2.7-7.5c-0.7-1.5-2-2.6-3.6-3c-4.1-1.2-8-3.1-11.5-5.7c-1.9-1.2-3.7-2.6-5.6-4.2
		c-1.8-1.5-3.6-3-5.2-4.7c-3.5-3.3-6.7-6.8-9.8-10.5c-3-3.6-5.7-7.5-8.1-11.5c-2.3-3.7-4-7.7-5.1-11.9c-0.2-0.9-0.3-1.9-0.3-2.8
		c0-1,0-2.2,0.1-3.3c0.2-2.3,0.4-4.7,0.7-7.2c1.2-9.7,2.9-19.5,4.6-29.2c3.6-19.5,7.9-38.9,12.5-58.1c2.4-9.6,5-19.2,7.9-28.5
		c1.5-4.7,3.1-9.3,4.8-13.8c0.9-2.3,1.8-4.4,2.8-6.5c0.5-1,1-2.1,1.6-2.9c0.3-0.4,0.5-0.9,0.8-1.3l0.8-1l0.5-0.8
		c1.5-1.8,1.3-4.4-0.5-5.9c-1.8-1.5-4.4-1.3-5.9,0.5l0,0l0,0c-8.6,7.4-16.6,15.5-23.8,24.2c-3.5,4.4-7.1,8.8-10.3,13.4
		c-3.2,4.6-6.4,9.3-9.5,14c-6,9.5-11.7,19.2-16.7,29.3c-5.1,10-9.8,20.3-13.9,30.8c-1,2.6-2.1,5.2-3,8l-1.3,4l-1.3,4.1
		c-0.9,2.6-1.6,5.7-2.3,8.4c-0.6,2.5-1.2,4.9-2.1,7.2c-0.7,2-1.6,3.9-2.8,5.6c-0.7,1.1-1.8,1.9-3.1,2.2c-0.9,0.2-1.7,0.3-2.6,0.3
		c-1,0-2.2,0-3.6,0l-8.3-0.4c-11.1-0.7-22.2-1.1-33.3-1.4l-16.7-0.4c-5.7,0-11.4,0-17,0.3c-11.2,0.5-22.3,1.4-33.4,2.4
		c-2.6,0.3-5.5,0.5-8.1,0.7c-2.2,0.2-4.5,0.1-6.7-0.3c-1.7-0.3-3.4-1-4.8-2.1c-1.5-1.2-2.8-2.7-3.8-4.4c-0.5-0.9-1.1-1.9-1.5-3
		l-1.7-3.8c-1.2-2.6-2.4-5.2-3.7-7.6c-2.5-5-5.1-10-7.9-14.9c-5.2-9.8-10.8-19.5-16.8-29c-11.7-19.2-25-37.4-39.7-54.4
		c-7.5-8.5-15.6-16.5-24.4-23.7c-8.8-7.4-18.7-13.5-29.3-18.1c-0.4-0.2-0.9-0.3-1.3-0.3l-0.7-0.6c-1.9-1.4-4.6-1.1-6,0.8
		c-1.4,1.9-1.1,4.6,0.8,6l0,0l0,0c4.2,3.3,7.9,7.1,11.2,11.3c3.4,4.3,6.6,8.8,9.6,13.4c5.9,9.4,11.1,19.3,15.7,29.4
		c9.1,20.4,16.4,41.6,21.6,63.3c2.7,10.7,4.6,21.7,5.7,32.7c0.3,2.6,0.4,5.4,0.5,8.1c0,1.3,0,2.7,0,4c0,1.1-0.2,2.1-0.4,3.2
		c-1.2,5-3,9.8-5.5,14.2c-5.2,9.6-11.2,18.8-18.1,27.3c-3.4,4.3-7,8.6-10.7,12.6c-3.5,4-7.4,7.7-11.5,11l0,0c-2.7,2.1-3.2,6-1.1,8.7
		c1.4,1.8,3.6,2.7,5.8,2.3c4-0.6,8-0.9,12-1c0.1,0,0.2,0,0.2,0c-3.6,4-7.4,7.9-11.3,11.5c-6.7,6.3-14.1,11.9-22,16.7
		c-1.8,1.1-3,3.1-3.1,5.2c-0.1,3.5,2.7,6.4,6.2,6.5c0,0,0,0,0,0c5.2,0,10.5,0.3,16.1,0.2h1.8l-1.9,3.6c-2.8,5.7-5.2,11.4-7.5,17.2
		c-4.5,11.6-8.2,23.5-11,35.7c-2.9,12.2-4.5,24.7-4.7,37.2c-0.1,12.7,1.9,25.4,5.9,37.4c4.1,12,10,23.2,17.6,33.4
		c7.4,10.3,16,19.6,25.6,27.7c9.6,8.2,20.3,15.1,31.8,20.4c11.5,5.5,23.7,9.4,36.3,11.5h0.2c0.3,0,0.6,0,0.8,0l43.2-1.8
		c14.4-0.6,28.8-0.9,43.2-1.2c14.4-0.3,28.8,0.5,43.3,1s28.8,0,43.2-0.2l0,0c0.5,0,1.1-0.1,1.6-0.3c11.9-3.8,23.2-9.3,33.6-16.2
		c10.4-6.7,19.9-14.5,28.6-23.3c8.8-8.8,16.3-18.8,22.4-29.6c6.2-10.9,10.5-22.8,13-35.1c0.4-1.5,0.5-3.1,0.8-4.6
		c0.3-1.5,0.5-3.1,0.6-4.7l0.4-4.7l0.2-4.6c0-3.1,0.3-6.1,0.3-9.2L806.4,649.4z"/>
	<path class="st5" d="M499.7,638.9c0-15.7,12.5-21.1,22.9-21.1c11.2,0.1,20.3,9.2,20.4,20.4c0,11.1-6.4,22.2-20.4,22.2
		C511.7,660.4,499.7,653.4,499.7,638.9z"/>
	<path class="st5" d="M683.4,638.9c0-15.7,12.5-21.1,22.9-21.1c11.2,0.1,20.3,9.2,20.4,20.4c0,11.1-6.4,22.2-20.4,22.2
		C695.4,660.4,683.4,653.4,683.4,638.9z"/>
	<path class="st3" d="M651.6,680.5c23.8,2.8,63.9,48.7,63.9,77.2c0,23.3-27.8,58.5-94.4,58.5s-100.4-26.6-100.4-58.5
		c0-37.4,47.7-77.3,68.8-79.8L651.6,680.5z"/>
	<path class="st5" d="M721.3,753.9c-0.6-5.4-1.9-10.7-3.8-15.7c-3.8-9.6-8.9-18.6-15.2-26.8c-6.1-8.2-13.1-15.8-20.9-22.4
		c-4-3.4-8.3-6.4-12.9-9c-2.3-1.4-4.8-2.6-7.3-3.7c-1.3-0.5-2.7-0.9-4.2-1.2h-0.7c-0.8-1.3-1.8-2.5-3-3.5c-1.8-1.8-3.9-3.2-6.2-4.4
		c-8.1-3.9-16.9-5.8-25.9-5.6c-4.2,0-8.4,0.2-12.6,0.7c-4.4,0.5-8.8,1.4-13,2.7c-2.3,0.8-4.6,1.9-6.7,3.2c-1.6,1-3.1,2.3-4.4,3.8
		c-4.1,1.1-8.1,2.8-11.9,4.8c-4.6,2.4-8.9,5.2-13.1,8.4c-8.2,6.1-15.6,13.1-22.2,20.9c-6.8,7.8-12.3,16.6-16.5,26
		c-2.1,4.9-3.7,10-4.6,15.2c-0.3,1.3-0.4,2.6-0.5,4c-0.2,1.3-0.3,2.7-0.3,4.1v2c0,0.7,0,1.4,0.2,2l0.3,4.1
		c1.6,10.8,6.6,20.8,14.3,28.5c3.7,3.7,7.7,7,12.2,9.8c4.3,2.8,8.8,5.2,13.6,7.2c9.3,3.9,19,6.7,29,8.4c9.8,1.7,19.7,2.7,29.7,3
		c2.5,0,4.9,0.2,7.5,0.2l7.5-0.2h3.7l3.7-0.4l7.5-0.7c10-1.3,19.9-3.7,29.4-7.1c9.7-3.6,18.7-8.9,26.7-15.5c4-3.4,7.7-7.3,10.9-11.5
		c3.2-4.4,5.8-9.2,7.6-14.4l0.7-2c0.2-0.7,0.3-1.4,0.5-2c0.3-1.4,0.7-2.7,0.8-4.2l0.4-4.3C721.5,756.9,721.5,755.4,721.3,753.9z
		 M709.3,761c0,1-0.4,2-0.5,3c-0.1,0.5-0.2,1-0.3,1.5l-0.5,1.5c-1.3,4.1-3.3,8-5.7,11.5l-2,2.6c-0.6,0.9-1.3,1.8-2.1,2.6
		c-1.5,1.7-3,3.3-4.7,4.8c-6.9,6.1-14.7,10.9-23.2,14.4c-8.7,3.4-17.8,5.9-27,7.3l-7,0.8l-3.5,0.4l-3.6,0.1l-7.1,0.3
		c-2.4,0-4.8,0-7.2,0c-9.5-0.1-19-1-28.4-2.6c-9.3-1.7-18.3-4.4-26.9-8.1c-4.2-1.8-8.3-4-12.1-6.6c-3.7-2.5-7.2-5.5-10.2-8.8
		c-6-6.4-9.8-14.5-10.9-23.2c-0.6-8.8,1.2-17.6,5.2-25.4c4-8.2,9.2-15.9,15.3-22.7c6.2-6.9,13.1-13.1,20.6-18.6
		c3.7-2.7,7.5-5.1,11.5-7.2c1.1-0.5,2.1-1,3.2-1.5c0.4,1.6,0.9,3.1,1.5,4.7c3.1,7.9,7.5,15.2,13.1,21.6c2.7,3.2,5.7,6.2,9,9
		c1.7,1.4,3.5,2.7,5.4,3.9c1.6,1,3.4,1.8,5.2,2.4l-2.6,18.3v0.3l0,0c-0.3,4.3-2.3,8.3-5.6,11.1c-1.6,1.4-3.6,2.4-5.6,2.9
		c-1.1,0.3-2.1,0.4-3.2,0.5c-1.3,0.1-2.6,0.1-3.9,0c-5.1-0.2-10.1-1.7-14.5-4.4c-4.3-2.7-7.8-6.6-10-11.2l0,0
		c-1-2.2-3.5-3.1-5.7-2.2c-2.2,1-3.1,3.5-2.2,5.7c2.6,6.3,7,11.7,12.5,15.7c5.6,3.9,12.1,6.3,18.8,7c1.6,0.2,3.3,0.3,5,0.4
		c0.9,0,1.9,0,2.8,0s1.9-0.2,2.8-0.4c3.7-0.8,7.3-2.3,10.3-4.6c2.1-1.5,4-3.4,5.5-5.4c1.7,1.8,3.6,3.3,5.6,4.6
		c5.9,3.7,12.7,5.7,19.7,5.7c3.6,0,7.1-0.6,10.5-1.9c3.2-1.3,6.2-3,8.9-5.2c5.2-4.2,9.2-9.7,11.7-15.9c1-2.2,0-4.7-2.2-5.7
		s-4.7,0-5.7,2.2v0.2c-2.2,4.6-5.6,8.6-9.7,11.6c-3.7,2.9-8.4,4.3-13.1,4.1c-4.8-0.3-9.5-1.9-13.4-4.7c-3.5-2.3-5.8-5.9-6.6-10v-0.1
		l-0.8-18.6l0.7-0.2c2.3-0.8,4.4-2,6.3-3.5c3.5-2.6,6.6-5.5,9.5-8.8c5.6-6.2,10.1-13.3,13.5-20.9c0.9-1.9,1.7-3.9,2.3-6
		c1.4,0.6,2.8,1.4,4.1,2.2c3.8,2.3,7.5,4.9,10.9,7.9c7,6,13.4,12.7,19.1,20c5.7,7.2,10.4,15.1,14.1,23.6c1.7,4,2.8,8.1,3.4,12.4
		c0,1,0.2,2,0.2,3L709.3,761z"/>
</g>
</svg>
