<?xml version="1.0" encoding="utf-8"?>
<!-- Generator: Adobe Illustrator 24.0.0, SVG Export Plug-In . SVG Version: 6.00 Build 0)  -->
<svg version="1.1" id="Layer_1" xmlns="http://www.w3.org/2000/svg" xmlns:xlink="http://www.w3.org/1999/xlink" x="0px" y="0px"
	 viewBox="0 0 1200 1200" style="enable-background:new 0 0 1200 1200;" xml:space="preserve">
<style type="text/css">
	.st0{fill:#BE9A71;}
	.st1{fill:#D9A993;}
	.st2{fill:#683A32;}
	.st3{fill:#FFFFFF;}
	.st4{fill:#F78C8B;}
	.st5{fill:#1D1D1B;}
	.st6{fill:#FDAC49;}
	.st7{fill:#191919;}
	.st8{fill:#333333;}
	.st9{fill:#14192C;}
	.st10{fill:#3E3D4F;}
	.st11{fill:#A15225;}
	.st12{fill:#895834;}
	.st13{fill:#1A0A14;}
	.st14{fill:#672E28;}
	.st15{fill:#111B1D;}
	.st16{fill:#EBEBEB;}
	.st17{fill:#494859;}
	.st18{fill:#2F2627;}
	.st19{fill:#C7B6AC;}
	.st20{fill:#E2D9D4;}
	.st21{fill:#D6CDCA;}
	.st22{fill:#674043;}
	.st23{fill:#3D3834;}
	.st24{fill:#E4DACE;}
	.st25{fill:#554E46;}
	.st26{fill:#E8E8E8;}
	.st27{fill:#AEE9FA;}
	.st28{fill:#4D4D4D;}
	.st29{fill:#FDFDFD;}
	.st30{fill:#FAAF5E;}
	.st31{fill:#F8FCFC;}
	.st32{fill:#DBCFB5;}
	.st33{fill:#6D6D6D;}
	.st34{fill:#C69C6D;}
	.st35{fill:#F0B965;}
	.st36{fill:#DA7B45;}
	.st37{fill:#FAE7D6;}
	.st38{fill:#FDF8F2;}
	.st39{fill:#E2C4AA;}
	.st40{fill:#BC8571;}
	.st41{fill:#2F322A;}
	.st42{fill:#444741;}
	.st43{fill:#46282D;}
	.st44{fill:#986858;}
	.st45{fill:#F0C7A2;}
	.st46{fill:#FCE9C8;}
	.st47{fill:#808080;}
	.st48{fill:#4E4E4E;}
	.st49{fill:#E8CBA9;}
	.st50{fill:#956B50;}
</style>
<g>
	<path class="st5" d="M1019.3,772H235.5c-3.7,0-6.7-3.9-6.7-8.7s3-8.7,6.7-8.7h783.8c3.7,0,6.7,3.9,6.7,8.7S1023,772,1019.3,772z"/>
	<path class="st3" d="M467.8,717.9c37.2,58.3-7,71.4-7,71.4c-9.8,34.7-43.8,18.9-43.8,18.9c-28.6,11.7-42.9-19.1-42.9-19.1
		c-33.9,1.2-30.2-48.1-18-68.3C369.4,699.1,440.5,675.1,467.8,717.9z"/>
	<path class="st5" d="M473.5,714.3c-5.8-9.2-14.1-16.4-24-20.9c-9.3-4.1-19.5-6.1-29.7-6c-27.8,0-59.6,13.8-69.5,30.1
		c-5.2,9.4-8.4,19.7-9.3,30.4c-1.3,12.9,0.6,24.6,5.3,33c4.7,8.8,13.8,14.5,23.8,15c4.4,7.1,15.6,21.8,34.3,21.8l0,0
		c4.3,0,8.5-0.7,12.5-2.1c5.4,2,11.2,3,16.9,3.1c15.5,0,26.9-8.5,32.4-24.2c9.5-4.1,16.9-11.9,20.7-21.5
		C492.8,757.3,488.3,737.6,473.5,714.3z M474.4,768.1c-2,5.2-5.7,9.6-10.6,12.5c-2-3.9-4.6-7.6-7.6-10.9c-2.7-2.5-7-2.3-9.5,0.4
		c-2.4,2.6-2.4,6.7,0.2,9.3c2.6,3.1,4.8,6.5,6.5,10.2l0.2,0.4c-3.6,10.2-10,15.2-19.7,15.2c-3.4,0-6.8-0.6-10-1.5
		c0.2-4.1,0.2-8.3-0.1-12.4c-0.5-3.7-3.8-6.3-7.5-5.8s-6.3,3.8-5.8,7.5c0.2,3.5,0.2,7.1,0,10.6c-1.9,0.5-3.9,0.8-6,0.8l0,0
		c-11.4,0-19.1-9.4-22.3-14.6c2.7-4.2,5.6-10.3,4.2-15.5c-0.9-3.6-4.6-5.8-8.2-4.9c-3.5,0.9-5.6,4.3-5,7.8c-0.6,1.9-1.4,3.8-2.6,5.4
		c-5.4-0.3-10.2-3.4-12.7-8.2c-7.1-12.7-3.8-37.2,3.8-49.8c6-9.8,30.9-23.6,57.9-23.6c13.3,0,31.4,3.6,42.4,20.6
		C474.3,740.7,478.5,756.8,474.4,768.1L474.4,768.1z"/>
	<path class="st3" d="M762.7,717.9c-37.2,58.3,7,71.4,7,71.4c9.8,34.7,43.8,18.9,43.8,18.9c28.6,11.7,42.9-19.1,42.9-19.1
		c33.9,1.2,30.2-48.1,18-68.3C861.1,699.1,790,675.1,762.7,717.9z"/>
	<path class="st5" d="M889.5,748c-0.9-10.7-4.1-21.1-9.3-30.4c-9.9-16.3-41.7-30.1-69.5-30.1c-10.2-0.2-20.3,1.9-29.7,6
		c-9.9,4.4-18.2,11.7-24,20.9c-14.8,23.3-19.3,43-13.5,58.7c3.8,9.6,11.2,17.3,20.7,21.5c5.5,15.6,16.9,24.2,32.4,24.2
		c5.8-0.1,11.5-1.1,16.9-3.1c4,1.4,8.3,2.1,12.5,2.1l0,0c18.7,0,29.9-14.6,34.3-21.8c10-0.5,19-6.2,23.7-15
		C888.9,772.6,890.7,760.9,889.5,748z M872.5,774.3c-2.5,4.8-7.3,7.9-12.7,8.2c-1.1-1.6-2-3.5-2.6-5.4c0.7-3.7-1.7-7.2-5.4-7.9
		c-3.5-0.7-6.9,1.5-7.8,5c-1.3,5.2,1.6,11.2,4.2,15.5c-3.3,5.1-10.9,14.6-22.3,14.6l0,0c-2,0-4-0.3-6-0.8c-0.2-3.5-0.2-7.1,0-10.6
		c0.5-3.7-2.1-7.1-5.8-7.5c-3.7-0.5-7.1,2.1-7.5,5.8c-0.3,4.1-0.4,8.3-0.1,12.4c-3.3,1-6.6,1.5-10,1.5c-9.7,0-16.2-5-19.7-15.2
		l0.2-0.4c1.7-3.7,3.9-7.1,6.5-10.2c2.6-2.7,2.6-6.9-0.1-9.5c-2.6-2.5-6.6-2.6-9.3-0.2c-3,3.3-5.6,6.9-7.6,10.9
		c-4.9-2.8-8.6-7.2-10.6-12.5c-4.2-11.3,0-27.5,12.3-46.6c10.8-16.9,29-20.6,42.4-20.6c27,0,52,13.7,58,23.6
		C876.2,737.1,879.6,761.6,872.5,774.3L872.5,774.3z"/>
	<path class="st3" d="M802.5,596.9c0.8,58.9-40.4,95.8-51.2,106.8c0.3-9.6-2-17.6-6.2-32.6c-6.2,41.4-45.9,85.6-65.5,94.9
		c0.9-10.8,2.1-17.8-2.1-35.1c-6.2,15-22.6,40.8-54,60.3c-33.4-15.6-57.9-48.4-61.6-62.9c-8.9,12.1-13,22.4-18.7,39.1
		c-23.3-16.4-54.9-60.3-55.5-96.6c-5.1,3.4-15,15-19.8,33.1c-16.7-25.2-24.1-64.6-19.4-92.7c64.8-22.9,151.9-78.2,159.6-233.8
		c14.2,0,31.6-0.2,45-0.4C658.3,530.5,730.3,580.7,802.5,596.9z"/>
	<path class="st3" d="M845.2,328.9c-1.9,37.2-16.7,82.1-35.6,102.5l-0.1,0.1c-0.6-0.6-1.1-1.1-1.7-1.7c-13.1-12.7-53.1-42.7-59.6-48
		c-6.4-5.3-11.5-9.8-9.4-19.6c1.1-5.1,1.9-10.6,19.6-47.2c17.8-36.6,43.8-84.2,60.9-86C850.5,241.4,846.5,303,845.2,328.9z"/>
	<path class="st3" d="M519.2,352.7c5.7,13.4,4.5,22.9-3,32.9c-12,16-37.4,25.7-60.1,55.9c-1.2,1.6-2.4,3.2-3.4,4.6
		c-18.5-22.2-43.4-96.4-43.4-151.2c0-44,7.6-60.1,18.7-66l0,0C439.5,225.9,513.8,339.9,519.2,352.7z"/>
	<path class="st6" d="M610.1,375.3c0.7,0.6,1,1.5,1,2.4c-0.2,6.9-0.5,13.8-1.1,20.7c-0.6,6.9-1.3,13.7-2.3,20.6
		c-2,13.7-4.9,27.3-8.6,40.7c-7.5,26.9-19.7,52.4-36,75.1c-16.7,22.6-37.6,41.7-61.6,56.2c-11.9,7.2-24.4,13.4-37.4,18.5
		c-12.9,5.1-26.1,9.2-39.6,12.5h-0.1c-1.7,0.4-3.4-0.6-3.8-2.3c-0.2-0.9,0-1.8,0.4-2.5l0,0c3.6-6.2,7.4-12.3,10.8-18.5
		c1.7-3.1,3.2-6.2,4.7-9.3l-1.8,0.4c-4.1,0.8-8.2,1.4-12.2,1.9c-8.1,0.9-16.2,1.3-24.3,1.3H398c-1.7,0-3.2-1.3-3.2-3.1
		c0,0,0-0.1,0-0.1c0-0.9,0.4-1.7,1-2.3l0,0c3.6-3.6,7-7.3,10.1-11.2c3.1-3.8,5.9-7.9,8.5-12.1c3.8-6.4,7-13.2,9.7-20.2
		c-3.2,0.3-6.5,0.3-9.7,0.2c-3-0.2-6-0.6-9-1.3c-2.9-0.7-5.7-1.6-8.5-2.7h-0.2c-1.6-0.6-2.4-2.4-1.8-4c0.3-0.7,0.8-1.3,1.4-1.6l0,0
		c9.6-6,18.7-12.9,27.1-20.5c5.4-4.9,10.5-10.3,15.1-16c-2.5,0-5-0.1-7.5-0.4c-3.3-0.4-6.5-1.2-9.6-2.3c-3.1-1.1-6.1-2.6-8.9-4.5
		l0,0c-1.5-1-1.9-3-0.9-4.5c0.2-0.3,0.5-0.6,0.9-0.8l0,0l4.1-3.1l4-3.2c2.6-2.1,5.1-4.4,7.4-6.8c4.6-4.8,8.7-10.1,12.2-15.8
		c3.7-5.8,7.5-11.8,11.7-17.6c4.2-5.8,8.9-11.3,14-16.4c10-10.3,21.9-18.6,32.9-26.8c5.4-3.8,10.2-8.3,14.4-13.4
		c1.9-2.4,3.4-5.1,4.4-8c1-2.8,1.3-5.8,1.1-8.7c-0.3-3.1-1-6.2-2.1-9.1c-0.3-0.7-0.6-1.5-0.9-2.3c-0.2-0.4-0.3-0.7-0.4-1l-0.5-1.1
		c-0.7-1.4-1.6-2.9-2.5-4.4c-3.4-5.9-7.1-11.8-10.8-17.7c-7.5-11.7-15.1-23.3-23-34.8c-7.9-11.5-15.9-22.8-24.2-33.9
		c-4.2-5.5-8.5-11-12.7-16.2c-2.1-2.6-4.5-5.1-6.7-7.6c-1.1-1.2-2.3-2.4-3.4-3.5c-0.6-0.5-1.1-1-1.7-1.5c-0.5-0.4-1.1-0.8-1.3-0.9
		l-0.9-0.7c-1.3-1-1.5-2.9-0.5-4.2c0.1-0.1,0.2-0.2,0.3-0.3c0.3-1,1-1.9,2-2.4c1.4-0.7,2.8-1.3,4.2-1.7c1.5-0.4,3-0.7,4.5-0.8
		c3-0.3,6-0.2,8.9,0.3c5.6,1.1,11,3.2,15.9,6.2c4.7,2.8,9.1,6.1,13.2,9.7c4.1,3.5,7.9,7.3,11.5,11.2c14.4,15.7,26.4,33,37.7,50.7
		c5.6,8.8,11.1,17.7,16.5,26.7c5.3,9,10.4,18.2,15.6,26.9c0.7,1.1,1.3,2.1,2,3.2l1,1.5l1.1,1.5c1.4,1.9,2.9,3.8,4.6,5.5
		c3,3.3,6.8,5.7,11,7.2c1,0.3,2,0.5,3.1,0.7c0.6,0,1.1,0.1,1.6,0.1h0.8h1l7.8,0.1l15.6,0.3l0,0C608.2,373.7,609.4,374.3,610.1,375.3
		z M876.2,525.2L876.2,525.2c-11.7-7.5-22.6-16.1-32.6-25.6c-4.9-4.8-9.6-9.8-13.9-15.2c-1.7-2.1-3.2-4.2-4.7-6.4
		c2.1,0.3,4.4,0.6,6.6,0.8c6.4,0.5,12.7,0.3,19.1-0.5c1.8-0.2,3-1.8,2.8-3.6c-0.1-0.8-0.5-1.5-1.1-2.1l0,0c-5-4.2-9.7-8.8-14.2-13.5
		c-4.4-4.8-8.6-9.9-12.5-15.1c-4.1-5.5-8.5-10.8-13.2-15.8c-4.8-4.9-9.9-9.4-15.3-13.7c-10.4-8.6-21.1-16.7-31.8-24.7l-8-6
		c-2.7-2.1-5.3-4-7.8-6c-2.3-1.7-4.3-3.8-6-6.2c-1.2-2.1-1.7-4.6-1.3-7.1c0.2-1.2,0.6-3.1,0.9-4.5c0.4-1.4,0.8-3,1.4-4.5
		c1.1-3,2.3-6.1,3.6-9.1c2.6-6.1,5.4-12.1,8.2-18.1c5.7-12,11.5-24,17.8-35.7c6.2-11.7,12.8-23.3,20.1-34.3
		c3.6-5.4,7.5-10.6,11.7-15.5c2.1-2.3,4.3-4.5,6.6-6.6c1.8-1.6,3.9-2.9,6.2-3.8c0.3-0.1,0.7-0.2,1-0.3h0.1c1.7-0.4,2.7-2.2,2.2-3.8
		c-0.1-0.3-0.2-0.6-0.4-0.8c-0.3-1.2-1.2-2.1-2.4-2.6c-2.6-1-5.3-1.6-8.1-2c-2.9-0.3-5.9-0.1-8.8,0.6c-5.3,1.4-10.3,3.7-14.7,6.8
		c-4.2,2.9-8.3,6.2-12,9.7c-3.7,3.5-7.2,7.1-10.6,10.9c-12.9,15.1-24.7,31.2-35.1,48.1c-5.4,8.3-10.6,16.7-15.7,25.1l-3.8,6.2
		c-1.2,1.9-2.6,4.1-4,6.1c-2.7,4-5.4,8.1-8.2,12c-2.8,3.9-5.7,7.7-8.8,11.3c-2.9,3.5-6.2,6.7-9.8,9.4c-1.6,1.2-3.3,2.1-5.2,2.8
		c-0.9,0.3-1.7,0.4-2.6,0.5c-1.1,0.1-2.3,0.2-3.5,0.2c-4.8,0.3-9.7,0.5-14.6,0.7c-1.4,0.1-2.6,0.8-3.3,2c-0.5,0.6-0.8,1.3-0.8,2.1
		c0.1,26.7,3.2,53.4,9.2,79.5c5.9,26.4,16.7,51.5,31.9,74c15.6,22.5,36.6,40.7,61,53c12.1,6,24.8,10.8,37.9,14.2
		c13,3.3,26.3,5.5,39.7,6.7c1.8,0.2,3.3-1.1,3.5-2.9c0.1-1-0.3-2-1.1-2.7l0,0c-5.4-4.5-9.9-10-13.4-16.1c-1.6-3-2.9-6.1-4-9.3
		l1.7,0.6c4.1,1.4,8.2,2.4,12.5,2.9c8.2,1,16.4,1.4,24.7,1c0.9,0,1.8-0.5,2.4-1.2c1.1-1.4,1-3.4-0.4-4.5c0,0,0,0,0,0l0,0
		c-4.4-3.8-8.4-8-12-12.5c-3.7-4.6-7.1-9.4-10.2-14.3c-3.7-5.9-7.1-12.1-9.9-18.5c0.8,0.4,1.7,0.7,2.5,1.1
		c5.3,2.1,10.8,3.7,16.4,4.6c5.6,1,11.3,1.4,16.9,1.1c5.7-0.2,11.4-1.3,16.8-3.2c1.7-0.6,2.6-2.4,2-4
		C877.4,526.2,876.9,525.6,876.2,525.2L876.2,525.2z"/>
	<path class="st5" d="M529.2,496.6c0-10.8,8.7-14.6,15.9-14.6c7.8,0.1,14,6.4,14.1,14.1c0,7.7-4.4,15.4-14.1,15.4
		C537.6,511.6,529.2,506.7,529.2,496.6z"/>
	<path class="st5" d="M706.5,496.6c0-10.8,8.7-14.6,15.9-14.6c7.8,0.1,14,6.4,14.1,14.1c0,7.7-4.4,15.4-14.1,15.4
		C714.9,511.6,706.6,506.7,706.5,496.6z"/>
	<path class="st6" d="M653,616.8c1.5,11,1.8,22,0.9,33c-1.8,19.3-11.9,34.9-29.2,34.4s-26.3-14.6-28-26.1c-1.8-14.3-0.4-28.9,4-42.7
		l0,0c13-3.6,22.8-13.9,24.6-22.2C628.6,606,640,616.8,653,616.8z"/>
	<path class="st5" d="M698.6,572.5c-1.6-0.8-3.4-0.2-4.2,1.4l0,0c-3.8,7.3-8.4,14.1-13.7,20.4c-5,6.2-11,11.3-17.9,15.2
		c-3.1,1.6-6.6,2.5-10.1,2.6c-0.9,0-1.7-0.1-2.6-0.2c-0.9-0.1-1.7-0.3-2.5-0.5c-1.7-0.5-3.4-1.1-4.9-2c-3.2-1.8-6.1-4.2-8.5-7
		c-1.7-1.9-3.1-4.1-4.2-6.4c0.9-0.4,1.8-0.9,2.6-1.4c1.8-1.2,3.4-2.6,4.9-4.2c2.7-2.9,5.1-6.1,7.2-9.4c4.2-6.5,7.6-13.5,10.4-20.8
		c0.7-1.8,1.3-3.7,1.8-5.7c0.6-2.1,0.9-4.3,1.1-6.5c0.1-2.6-0.5-5.3-1.6-7.6c-0.3-0.6-0.7-1.2-1.1-1.8c-0.4-0.6-0.9-1.1-1.4-1.7
		l-1.6-1.4c-0.6-0.4-1.1-0.7-1.7-1.1c-4-2-8.3-3.1-12.7-3.3c-4-0.4-7.8-0.4-11.6-0.4s-7.6,0.1-11.6,0.5c-4.3,0.3-8.5,1.4-12.5,3.1
		c-2.4,1.2-4.5,3-6,5.1c-0.4,0.6-0.7,1.2-1.1,1.8c-0.3,0.7-0.5,1.3-0.7,2c-0.2,0.6-0.3,1.3-0.4,2c-0.1,0.6-0.2,1.3-0.2,2
		c0,2.2,0.3,4.5,0.8,6.7c0.5,2,1,3.9,1.7,5.8c2.6,7.4,5.9,14.4,10.1,21c2.1,3.4,4.5,6.6,7.2,9.5c1.4,1.6,3,3,4.8,4.2
		c0.8,0.6,1.7,1.1,2.6,1.5c-0.3,0.6-0.7,1.1-1,1.6c-1.1,1.5-2.4,3-3.8,4.2c-2.8,2.7-6,4.9-9.4,6.7c-3.4,1.7-7.1,2.9-10.9,3.4
		c-0.9,0.2-1.9,0.3-2.8,0.3c-0.9,0.1-1.8,0.1-2.7,0c-1.7-0.1-3.4-0.5-5.1-1c-3.5-1.3-6.8-3.2-9.7-5.7c-3.1-2.5-5.9-5.4-8.5-8.5
		c-2.6-3.2-4.9-6.5-6.9-10.1c-1-1.7-1.9-3.6-2.8-5.4c-0.8-1.7-1.4-3.4-1.8-5.2v-0.3c-0.2-1.8-1.8-3-3.5-2.8s-3,1.8-2.8,3.5l0,0
		c0.1,2.5,0.6,5,1.4,7.4c0.7,2.2,1.6,4.3,2.5,6.4c1.9,4.2,4.3,8.1,7,11.8c2.7,3.8,5.9,7.3,9.4,10.3c3.7,3.3,8,5.8,12.6,7.5
		c2.5,0.8,5,1.3,7.6,1.5c1.3,0.1,2.5,0.1,3.8,0c0.7,0,1.4,0,2.1-0.2c-0.3,1.2-0.7,2.4-1,3.6c-0.8,3.5-1.5,7.1-1.9,10.6
		c-1,7.3-1.1,14.6-0.4,21.9c0.8,8,4.2,15.6,9.7,21.5c5.7,6.1,13.5,9.7,21.8,10.1c4.2,0.2,8.3-0.4,12.3-1.8c3.9-1.5,7.5-3.8,10.4-6.8
		c2.7-2.9,5-6.2,6.8-9.8c1.7-3.5,3-7.1,3.8-10.8c0.5-1.8,0.7-3.7,1-5.5c0.3-1.9,0.4-3.7,0.5-5.5c0.2-3.6,0.2-7.2,0.1-10.8
		c-0.1-3.6-0.3-7.2-0.7-10.7c-0.2-1.9-0.4-3.9-0.7-5.8c3.5-0.5,6.8-1.6,9.9-3.3c4.2-2.2,8-4.9,11.4-8.1c3.3-3.1,6.3-6.4,9.1-10
		c5.4-7.1,9.7-14.9,12.7-23.3C700.7,574.9,700,573.2,698.6,572.5z M650.5,637.7c0,3.4-0.3,6.8-0.6,10.2c-0.1,1.7-0.4,3.3-0.6,4.9
		c-0.2,1.6-0.6,3.2-1.1,4.7c-1.4,6-4.4,11.6-8.6,16.2c-4,4.1-9.7,6.2-15.4,5.7c-5.9-0.2-11.5-2.8-15.5-7c-2.1-2.2-3.8-4.6-5.1-7.3
		c-0.3-0.7-0.6-1.4-0.9-2.1s-0.5-1.4-0.7-2.1c-0.2-0.7-0.4-1.4-0.6-2.1l-0.2-1.1l-0.2-1.2c-0.9-6.6-1.1-13.3-0.6-19.9
		c0.4-5.7,1.2-11.3,2.5-16.8c5.9-1.9,11.3-5.1,15.8-9.3c-0.6,3.6-1.1,7.3-1.5,11c-0.4,4.4-0.5,8.8-0.3,13.3c0.1,4.6,0.7,9.1,2,13.5
		c0.3,1.8,1.9,3,3.6,2.7s3-1.9,2.7-3.6v-0.2c0-4,0.3-8.1,0.6-12.3c0.3-4.2,0.6-8.4,1-12.6l1-12.7l0.1-1.8c2.7,3.9,6.1,7.2,10.1,9.6
		c3.7,2.3,7.8,3.7,12.1,4.2C650.6,626.8,650.7,632.3,650.5,637.7z"/>
	<path class="st5" d="M449.4,448.3c-10.4-15.9-18.9-32.9-25.2-50.8c-3.2-8.9-6.1-17.9-8.5-27c-2.4-9.1-4.6-18.3-6.4-27.5
		c-1.8-9.2-3.1-18.7-3.9-28.1c-0.4-4.7-0.7-9.5-0.8-14.3c-0.1-4.8,0-9.5,0-14.2c0.2-9.6,1.2-19.2,2.9-28.6c0.9-4.9,2.2-9.6,4-14.2
		c1.8-4.9,4.7-9.4,8.3-13.2c1.6-1.5,4.1-1.4,5.6,0.2c1.4,1.5,1.4,3.8,0.1,5.3l0,0c-2.6,3.1-4.6,6.7-5.9,10.6
		c-1.4,4.1-2.4,8.4-3.1,12.7c-1.3,9-2,18.1-2.1,27.1c0,4.6,0,9.2,0,13.7s0.4,9.1,0.8,13.7c0.8,9.1,2.1,18.2,3.7,27.2
		c1.6,9,3.8,18,6.2,26.8c2.4,8.9,5.1,17.7,8.2,26.3c1.5,4.2,3.2,8.6,4.9,12.9c1.7,4.3,3.5,8.5,5.4,12.7c3.8,8.3,8,16.4,12.7,24.3
		l0,0c1,2,0.2,4.4-1.8,5.3c-1.7,0.8-3.7,0.4-4.9-1.1L449.4,448.3z M849.8,278.6c-0.9-9.1-2.8-18-5.8-26.6c-1.6-4.5-3.7-8.7-6.4-12.7
		c-2.7-4.1-6.1-7.6-10.1-10.4c-1.9-1.1-4.3-0.5-5.4,1.4c-0.9,1.6-0.6,3.7,0.8,4.9l0,0c6.2,4.8,10.1,12.1,12.5,19.8
		c2.5,8,4.1,16.2,4.8,24.5c1.3,17.1,1.3,34.3,0,51.4c-0.7,8.5-1.9,16.8-3.8,25.1c-1.8,8.3-4.1,16.6-6.8,24.7
		c-2.6,8.1-5.6,16.1-9,23.9c-0.8,2-1.7,3.9-2.6,5.8c-0.9,1.9-1.9,3.8-2.8,5.7c-1.9,3.8-4.1,7.4-6.4,10.9v0.1
		c-1.1,1.9-0.5,4.3,1.5,5.4c1.7,1,3.9,0.6,5.1-1c5.2-7.3,9.8-15.1,13.6-23.3c3.8-8,7.1-16.3,9.9-24.7c2.8-8.4,5.2-17,7.1-25.7
		c1.9-8.7,3.2-17.6,3.9-26.5C850.8,314.1,851.7,296.5,849.8,278.6L849.8,278.6z M802.6,593.4c-2-0.1-3.6,1.5-3.7,3.4v0.1
		c-0.3,9.9-1.6,19.6-3.9,29.2c-2.5,9.5-6,18.8-10.4,27.5c-4.5,8.8-9.9,17.2-15.9,25c-3,3.9-6.1,7.8-9.5,11.5
		c-1.4,1.6-2.9,3.3-4.4,4.9v-0.3c-0.2-2.9-0.6-5.8-1.1-8.7c-0.5-2.8-1.2-5.6-1.9-8.3l-2.1-8.1c-0.7-2.5-3.3-4-5.9-3.3
		c-1.8,0.5-3.1,2-3.4,3.8l0,0c-1.6,9.3-4.4,18.4-8.5,26.9c-4,8.7-8.7,17.1-14.1,25c-5.4,8-11.4,15.6-18,22.7
		c-4.9,5.4-10.3,10.4-16.2,14.7c0-0.8,0.2-1.5,0.3-2.3c0.3-3.1,0.4-6.2,0.4-9.3c-0.2-6.2-1-12.3-2.2-18.3c-0.3-1.5-1.3-2.8-2.7-3.4
		c-2.4-1-5.1,0-6.2,2.4c0,0,0,0,0,0l-0.1,0.3l0,0c-2.5,6.1-5.5,12-9.2,17.5c-3.6,5.6-7.6,10.9-12,15.9c-4.4,5-9.1,9.7-14.2,14.1
		c-4.6,4-9.5,7.7-14.6,11.1c-5.9-3.1-11.6-6.6-16.9-10.6c-5.9-4.4-11.3-9.2-16.4-14.5c-5.1-5.2-9.7-10.8-13.9-16.8
		c-2.1-2.9-4-6-5.7-9.1c-1.6-2.9-2.9-6-3.8-9.3l0,0c-0.3-1.1-0.9-2.1-1.9-2.8c-2.1-1.5-5.1-0.9-6.5,1.2l0,0
		c-4.3,6.2-7.9,12.9-10.8,19.9c-2.2,5.5-4.1,11-5.8,16.5c-5.9-5-11.4-10.6-16.4-16.6c-5.9-7.3-11.3-15-15.9-23.2
		c-4.7-8-8.7-16.4-11.8-25.2c-3.1-8.5-4.8-17.5-5-26.6v-0.1c0-1-0.3-1.9-0.9-2.7c-1.5-2.1-4.4-2.6-6.5-1.1l0,0
		c-1.5,1.2-3,2.5-4.2,3.9c-1.2,1.4-2.4,2.8-3.4,4.2c-2.1,2.8-3.9,5.8-5.5,8.9c-1.6,3.1-3,6.2-4.2,9.4c-0.3,0.8-0.5,1.5-0.7,2.3
		c-2.4-4.7-4.5-9.6-6.4-14.6c-2.6-7.4-4.7-14.9-6.2-22.6c-1.5-7.7-2.5-15.5-2.9-23.3c-0.5-7.8-0.3-15.6,0.5-23.3l0,0
		c0.2-2-1.3-3.7-3.3-3.8c-1.8-0.1-3.3,1-3.8,2.7c-1.6,8.2-2.3,16.5-1.9,24.8c0.3,8.3,1.4,16.5,3.1,24.6c1.7,8.1,4.1,16,7.2,23.7
		c3.1,7.7,7,15.1,11.8,21.9l0,0c0.4,0.6,1,1,1.7,1.2c1.7,0.5,3.5-0.4,4-2.1v-0.1c1-3,2.1-5.9,3.3-8.8c1.3-2.8,2.8-5.6,4.4-8.2
		c1.6-2.5,3.3-4.9,5.2-7.1c1.1,6.7,2.9,13.2,5.3,19.6c3.5,9.2,7.9,18,13.2,26.3c5.2,8.3,11,16.1,17.5,23.4
		c6.4,7.5,13.6,14.2,21.6,19.9l0,0c0.2,0.2,0.5,0.3,0.8,0.4c1.6,0.6,3.4-0.2,4-1.8c0,0,0,0,0,0v-0.2c2.6-6.7,5.2-13.4,8.3-19.7
		c1.9-3.7,3.9-7.3,6.2-10.8l1.6,2.9c2,3.4,4.2,6.6,6.5,9.8c4.7,6.2,9.8,12,15.4,17.3c5.5,5.4,11.5,10.3,17.8,14.7
		c6.3,4.4,13,8.2,20.1,11.5l0,0c0.9,0.5,2,0.4,2.9-0.1l0,0c6-3.6,11.7-7.6,17.2-12c5.5-4.4,10.7-9.2,15.5-14.3
		c4.8-5.1,9.3-10.6,13.3-16.4c1.6-2.3,3.1-4.6,4.5-7c0.3,1.4,0.5,2.9,0.6,4.2c0.3,2.8,0.4,5.6,0.4,8.5c0,2.9-0.2,5.8-0.3,8.8l0,0
		c0,0.5,0.1,1.1,0.3,1.6c0.7,1.6,2.6,2.3,4.2,1.6c4.7-2.3,9.1-5.1,13.2-8.4c2-1.6,3.9-3.2,5.8-4.9c1.9-1.7,3.7-3.4,5.5-5.2
		c7.2-7.1,13.7-14.8,19.6-23c5.9-8.2,11.1-17,15.4-26.2c1.8-3.9,3.5-7.9,4.9-12c0.6,2.2,1.2,4.4,1.6,6.7c0.5,2.5,0.9,5.1,1.2,7.7
		l0,0v0.1c0,0.7,0.3,1.4,0.8,2c1.2,1.3,3.3,1.4,4.6,0.2c3.7-3.4,7.5-6.9,11.1-10.6c3.6-3.7,7.1-7.6,10.4-11.6
		c6.7-8.1,12.4-16.9,17.1-26.2c4.8-9.4,8.4-19.3,10.9-29.5c2.3-10.3,3.3-20.7,3-31.2C806,595,804.5,593.5,802.6,593.4z M615.2,382.7
		c2.6,0.5,5.2,0.7,7.8,0.8c2.6,0,5.2,0,7.8-0.2c2.6-0.2,5.3,0,7.9-0.3c2.7-0.2,5.4-0.7,8-1.4c2.1-0.7,3.3-3,2.6-5.1
		c-0.5-1.5-1.8-2.6-3.4-2.8h-0.1c-2.5-0.2-5-0.3-7.5-0.3c-2.5,0-5.1,0.3-7.6,0.3c-2.6,0-5.1,0-7.7,0.1c-2.6,0.1-5.2,0.4-7.7,0.9l0,0
		c-2.2,0.4-3.6,2.5-3.2,4.7C612.3,381.1,613.6,382.4,615.2,382.7L615.2,382.7z"/>
</g>
</svg>
