<?xml version="1.0" encoding="utf-8"?>
<!-- Generator: Adobe Illustrator 24.0.0, SVG Export Plug-In . SVG Version: 6.00 Build 0)  -->
<svg version="1.1" id="Layer_1" xmlns="http://www.w3.org/2000/svg" xmlns:xlink="http://www.w3.org/1999/xlink" x="0px" y="0px"
	 viewBox="0 0 1200 1200" style="enable-background:new 0 0 1200 1200;" xml:space="preserve">
<style type="text/css">
	.st0{fill:#BE9A71;}
	.st1{fill:#D9A993;}
	.st2{fill:#683A32;}
	.st3{fill:#FFFFFF;}
	.st4{fill:#F78C8B;}
	.st5{fill:#1D1D1B;}
	.st6{fill:#FDAC49;}
	.st7{fill:#191919;}
	.st8{fill:#333333;}
	.st9{fill:#14192C;}
	.st10{fill:#3E3D4F;}
	.st11{fill:#A15225;}
	.st12{fill:#895834;}
	.st13{fill:#1A0A14;}
	.st14{fill:#672E28;}
	.st15{fill:#111B1D;}
	.st16{fill:#EBEBEB;}
	.st17{fill:#494859;}
	.st18{fill:#2F2627;}
	.st19{fill:#C7B6AC;}
	.st20{fill:#E2D9D4;}
	.st21{fill:#D6CDCA;}
	.st22{fill:#674043;}
	.st23{fill:#3D3834;}
	.st24{fill:#E4DACE;}
	.st25{fill:#554E46;}
	.st26{fill:#E8E8E8;}
	.st27{fill:#AEE9FA;}
	.st28{fill:#4D4D4D;}
	.st29{fill:#FDFDFD;}
	.st30{fill:#FAAF5E;}
	.st31{fill:#F8FCFC;}
	.st32{fill:#DBCFB5;}
	.st33{fill:#6D6D6D;}
	.st34{fill:#C69C6D;}
	.st35{fill:#F0B965;}
	.st36{fill:#DA7B45;}
	.st37{fill:#FAE7D6;}
	.st38{fill:#FDF8F2;}
	.st39{fill:#E2C4AA;}
	.st40{fill:#BC8571;}
	.st41{fill:#2F322A;}
	.st42{fill:#444741;}
	.st43{fill:#46282D;}
	.st44{fill:#986858;}
	.st45{fill:#F0C7A2;}
	.st46{fill:#FCE9C8;}
	.st47{fill:#808080;}
	.st48{fill:#4E4E4E;}
	.st49{fill:#E8CBA9;}
	.st50{fill:#956B50;}
</style>
<g>
	<path class="st50" d="M760.1,510.3C758.5,371.9,713.6,340,713.6,340c-18.4,2.9-51.9,64-64.3,88c-17.7-3.3-35.7-4.6-53.6-3.6
		c-18.1-1-36.1,0.4-54,3.8c-12.5-24-45.9-85.3-64.3-88.2c0,0-45.1,32.1-46.5,171.1c-41.9,77.4-31.1,178.6-31.1,178.6h392
		C791.6,689.7,802.3,587.7,760.1,510.3z"/>
	<path class="st3" d="M740.3,526.1c-4.8-29.4-14.6-59.5-34.2-67.8c0,0-3.6,0-18.6,22.5c-6.7-2.7-15.2-4.2-25.9-4
		c-3.8,0-7.7,0.4-11.3,1c0.2-1.9-0.6-3.8-1.7-5.2c-4-4-13.1-1.2-20.6,6.1c-5.8,5.8-8.8,12.7-7.9,17.3c-0.4,1.2-0.8,2.3-1,3.5
		c-5.8-1.7-11.5-2.9-17.5-3.5c0-0.6,0-1.2,0-1.7c0-1.2,0-2.3-0.2-3.3c-0.2-1.2-0.2-2.3-0.4-3.5c-0.2-2.3-0.6-4.6-0.8-6.9
		c-0.2-2.3-0.4-4.6-0.6-6.9c-0.2-2.3-0.4-4.6-0.6-6.7s-0.4-4.2-0.6-6.3c-0.2-1.9-0.4-3.8-0.6-5.6c-0.2-1.7-0.4-3.5-0.6-4.8
		c-0.2-1.5-0.4-2.7-0.4-3.6c-0.2-2.1-0.4-3.3-0.4-3.3c0-0.2-0.2-0.4-0.4-0.4c-0.2,0-0.6,0.2-0.6,0.4c0,0-0.2,1.2-0.4,3.3
		c-0.2,1-0.2,2.3-0.4,3.6c-0.2,1.5-0.4,3.1-0.6,4.8s-0.4,3.6-0.6,5.6s-0.4,4.2-0.6,6.3s-0.4,4.4-0.6,6.7s-0.4,4.6-0.6,6.9
		c-0.2,2.3-0.4,4.6-0.8,6.9c-0.2,1.2-0.2,2.3-0.4,3.5c0,1.2-0.2,2.3-0.2,3.3c0,0.6,0,1.2,0,1.7c-6,0.4-11.9,1.3-17.7,3.1
		c-0.2-1-0.6-1.9-1-2.9c1-4.6-2.1-11.5-7.9-17.3c-7.3-7.3-16.5-10.2-20.6-6.1c-1.3,1.3-1.9,3.3-1.7,5.2c-3.8-0.6-7.5-0.8-11.3-1
		c-12.3-0.4-21.5,1.7-28.4,5c-15.7-23.4-19.4-23.4-19.4-23.4c-20.2,8.6-30,40.7-34.6,71.1c-49.2,47.6-32.5,158.8-32.5,158.8h359.9
		C776.2,688.2,793.9,571.8,740.3,526.1z"/>
	<path class="st2" d="M687.9,562.6l-0.6-0.4c-0.4-0.2-1.2-0.6-1.9-1c-0.8-0.4-1.9-1.2-3.1-1.7c-1.2-0.6-2.5-1.5-4-2.7
		c-3.5-2.5-6.9-5.2-10-8.1c-4.2-3.8-7.9-8.1-11.3-12.7c-4-5.6-7.1-11.7-9.4-18.1l-1-2.3c-0.2-0.4-0.4-0.8-0.4-1.2l-0.6-1
		c-0.2-0.4-0.4-0.8-0.6-1l-0.6-1.2c-0.4-0.8-0.8-1.3-1.3-2.1c-1.9-2.7-4.2-5-6.7-7.1c-2.7-2.1-5.8-4-8.8-5.6
		c-3.3-1.5-6.7-2.9-10.2-3.8c-3.6-1-7.3-1.9-11.1-2.5c-1.9-0.4-3.8-0.6-5.8-0.8c-1.9-0.2-3.8-0.2-5.6-0.2h-1.3h-1.3
		c-1,0-1.9,0-2.9,0.2c-1.9,0.2-3.8,0.4-5.8,0.8c-3.6,0.6-7.5,1.3-11.1,2.5c-3.5,1-6.9,2.3-10.2,3.8c-1.5,0.8-3.1,1.7-4.6,2.5
		l-1.2,0.8c-0.4,0.2-0.8,0.4-1.2,0.8c-0.8,0.6-1.3,1-2.1,1.5c-2.5,2.1-4.8,4.4-6.7,7.3c-0.4,0.8-1,1.3-1.3,2.1l-0.6,1
		c-0.2,0.4-0.4,0.8-0.6,1.2l-0.6,1.2c-0.2,0.4-0.4,0.8-0.6,1.2l-0.4,1.2l-0.2,0.6v0.2v0.2l0,0l-0.2,0.4c-0.2,0.8-0.6,1.5-1,2.5
		l-1.2,2.5l-1.2,2.5c-0.4,0.8-0.8,1.5-1.2,2.3c-1.5,2.9-3.3,5.8-5.2,8.3c-3.3,4.6-7.1,8.8-11.3,12.7c-3.3,2.9-6.5,5.6-10,8.1
		c-1.5,1-2.7,1.9-4,2.7s-2.1,1.3-3.1,1.7c-1,0.4-1.5,0.8-1.9,1l-0.8,0.4c0,0,0.8-0.6,2.3-1.7c1.5-1.2,3.5-3.1,6-5.6
		c3.1-2.9,6-6,8.6-9.2c1.5-1.9,3.1-3.8,4.6-6.1c1.7-2.3,3.1-4.6,4.6-7.1c1.5-2.7,2.9-5.4,4-8.1c0.2-0.8,0.6-1.5,1-2.1l0.8-2.3
		l0.8-2.3c0.2-0.8,0.4-1.7,0.8-2.5l0.2-0.6l0.2-0.8l0.4-1.3c0.2-0.4,0.4-1,0.6-1.3l0.6-1.3c0.2-0.4,0.4-1,0.6-1.3l0.6-1.3
		c0.4-1,1-1.7,1.5-2.7c2.1-3.5,4.8-6.7,7.9-9.4c0.8-0.8,1.5-1.3,2.5-2.1c1-0.8,1.7-1.2,2.5-1.9c1.7-1.2,3.5-2.3,5.4-3.3
		c1.9-1,3.8-1.9,5.8-2.7c1.9-0.8,3.8-1.5,6-2.1c1-0.4,2.1-0.6,3.1-1c1-0.4,2.1-0.6,3.1-0.8c2.1-0.6,4-1,6.1-1.2s4.2-0.6,6.3-0.8
		c1.2-0.2,2.1-0.2,3.3-0.2h1.7h1.5c2.1,0,4.4,0.2,6.5,0.4s4.2,0.4,6.3,0.8c2.1,0.4,4.2,0.8,6.1,1.2c1,0.2,2.1,0.6,3.1,0.8
		s1.9,0.6,3.1,1c1.9,0.6,4,1.3,6,2.1c1.9,0.8,3.8,1.7,5.8,2.7c1.9,1,3.6,2.1,5.4,3.3c0.8,0.6,1.7,1.2,2.5,1.9s1.7,1.3,2.5,2.1
		c3.1,2.7,5.8,6,7.9,9.4c0.6,1,1,1.7,1.5,2.7l0.6,1.3c0.2,0.4,0.4,1,0.6,1.3l0.6,1.5c0.2,0.4,0.4,1,0.6,1.3l0.8,2.7l0.6,2.3l0.8,2.3
		l0.8,2.3l1,2.1c1.2,2.7,2.5,5.4,4,8.1c1.3,2.5,2.9,4.8,4.6,7.1c1.5,2.1,3.1,4.2,4.6,6.1c2.7,3.3,5.6,6.3,8.6,9.2
		c2.5,2.5,4.6,4.2,6,5.6C687.1,562,687.9,562.6,687.9,562.6z"/>
	<path class="st2" d="M942.9,694.5H239.4c-2.7,0-5-2.3-5-5c0-2.7,2.3-5,5-5h703.5c2.7,0,5,2.3,5,5
		C947.9,692.2,945.6,694.5,942.9,694.5z"/>
	<path class="st2" d="M794.8,610c-2.7-24.4-8.5-48.6-16.7-71.6c-3.6-10-8.1-19.8-13.1-29.4c-1.7-138.3-46.7-171.7-48.6-173
		c-1-0.8-2.3-1.2-3.6-1c-6.7,1-14.2,6.9-23.6,18.4c-8.5,10.8-16.1,22.1-23,34c-7.7,12.9-14.8,25.7-19.6,35
		c-16.7-2.9-33.8-3.8-50.9-3.1c-17.1-0.8-34.4,0.2-51.3,3.1c-4.8-9.2-11.7-22.1-19.6-35c-6.9-11.9-14.6-23.2-23-34
		c-9.4-11.5-16.9-17.5-23.6-18.4c-1.3-0.2-2.5,0.2-3.6,0.8c-1.9,1.3-47.1,35-48.6,173.8c-4.8,9.2-9,18.6-12.7,28.4
		c-8.3,23.2-14,47.2-16.7,71.6c-3.3,26.5-3.8,53.4-1.7,80.3c0.4,2.7,2.9,4.6,5.6,4.2c2.7-0.4,4.4-2.7,4.2-5.4
		c-2.1-25.9-1.5-52,1.7-78c3.3-27.3,10.6-61.8,26.7-93.3l2.9-5.4c6.9-12.7,15.2-24.6,25-35.1c32.1-34.2,77.2-50.3,133.9-48
		c0.2,0,0.4,0,0.6,0h0.4c0.2,0,0.4,0,0.6,0c56.7-2.3,101.8,13.8,133.9,48c9.6,10.4,18.1,22.1,24.8,34.6l3.5,6.3
		c15.9,31.3,23.2,65.9,26.5,93c3.3,25.9,3.8,52,1.7,78.2c0,1,0,1.7,0.4,2.5c0.8,0,1.3-0.2,2.1-0.2c0.2,0,0.6,0,0.8,0
		c1.2,0,2.1,0.2,3.3,0.2c0.8,0,1.3,0.2,2.1,0.4h0.2c0.6-0.6,1-1.3,1-2.1C798.7,663.4,798.1,636.5,794.8,610z M453.7,470.4
		c-6.5,6.9-12.3,14.2-17.5,22.1c2.5-58.8,13.1-95.1,22.1-115.6c8.3-19,16.7-28.2,20.2-31.5c5,2.1,16.3,11.3,37.8,47.1
		c6.9,11.7,13.4,23.2,18.1,32.1C503.5,431.4,475.4,447.5,453.7,470.4z M737.6,470.4c-21.7-23-48.8-38.4-81.1-45.9
		c4.6-8.8,10.9-20.4,18.1-31.9c21.5-35.7,32.8-44.9,37.8-47.1c3.5,3.3,11.5,12.1,19.6,30.3c9.2,20.7,20.2,57,22.7,116
		C749.5,484.2,743.9,477.1,737.6,470.4z"/>
	<path class="st3" d="M426.5,699.1c0,0,6.5,18.4,22.9,8.6c16.3-9.8,12.9-27.5,9.8-37.6s-17.3-50.5-66.5-43.4s-57.6,47.6-53,75.7
		c4.6,28,26.5,19.8,26.5,19.8c8.1-2.1,13.8-9.6,13.6-18.1c0,0,2.9,27.3,27.7,19.6C432.2,716,425.7,703.9,426.5,699.1z"/>
	<path class="st2" d="M399.2,730.3L399.2,730.3c-8.1,0-15.6-4.2-19.4-11.1c-3.1,3.8-7.5,6.7-12.3,8.1c-2.7,1-5.6,1.3-8.5,1.3
		c-5.2,0-10.4-1.7-14.4-5c-5.2-4.2-8.5-10.9-10-20.2c-1.7-10-3.8-35.3,11.3-56.1c10.2-13.8,25.5-22.3,45.9-25.4c4-0.6,7.9-1,11.9-1
		c18.6,0,34,6.7,45.3,20.4c6.7,8.1,11.7,17.3,14.6,27.5c2.3,6.7,3.1,13.8,2.5,20.9c-1,9.4-6.3,17.7-14.6,22.3
		c-3.5,2.3-7.5,3.5-11.5,3.6c-3.5,0-6.9-1.2-9.8-3.1c-2.1,5.6-7.5,11.7-21.5,16.1C405.9,729.7,402.4,730.3,399.2,730.3z
		 M379.8,699.3c2.5,0,4.6,1.9,4.8,4.4c0,0.8,2.1,16.5,14.6,16.5l0,0c2.3,0,4.6-0.4,6.7-1.2c16.5-5.2,15.9-11.1,15.6-16.3
		c-0.2-1.5-0.2-3.1,0-4.6c0.4-2.7,2.9-4.6,5.6-4.2c1.9,0.2,3.5,1.5,4,3.5c0,0,3.1,8.3,9.2,8.3c2.3-0.2,4.6-1,6.5-2.1
		c10-6,12.5-16.1,7.7-32.1c-3.6-12.3-15.7-40.7-50.5-40.7c-3.5,0-7.1,0.2-10.6,0.8c-17.7,2.5-30.7,9.8-39.4,21.3
		c-13.1,17.7-10.9,39.9-9.6,48.6c1.9,11.1,6.7,16.9,14.6,16.9c1.7,0,3.6-0.2,5.4-0.8c0.2,0,0.4-0.2,0.6-0.2c6-1.5,10-7.1,9.8-13.3
		c0-2.7,2.1-4.8,4.6-5L379.8,699.3z"/>
	<path class="st3" d="M842.7,688.4c9.6-111.4-35.3-91.4-35.3-91.4s5.6-16.1-14.2-21.5c-19.8-5.4-23.2,13.1-23.2,13.1s-5-11.1-24-6.9
		c-19,4.2-13.8,28.6-13.8,28.6c-42.1-6.5-11.5,78.2-11.5,78.2H842.7z"/>
	<path class="st2" d="M842.7,693.2H720.5c-1.9,0-3.6-1.3-4.4-3.1c-3.3-9.6-6-19.4-8.1-29.4c-4.4-22.1-3.6-37.6,2.5-46.7
		c3.6-5.6,9.8-8.8,16.3-8.8c-0.6-6.5,1-12.9,4-18.6c3.1-5,8.3-8.5,14-9.6c2.9-0.8,6-1,9-1.2c5.2-0.2,10.2,1.3,14.4,4.2
		c3.6-6.5,10.6-10.6,18.1-10.4c2.7,0,5.4,0.4,7.9,1.2c7.9,2.1,13.3,6.1,16.1,11.9c1.3,2.5,2.1,5.4,2.1,8.3c0.8,0,1.3,0,2.1,0
		c7.5,0,14.6,3.3,19.4,9c12.5,14.2,17.1,44.2,13.1,88.9C847.1,691.5,845.2,693.2,842.7,693.2z M723.8,683.6h114.7
		c3.6-49.2-3.8-69.1-11.1-77.2c-4.4-5.4-11.7-7.5-18.2-5c-1.7,0.8-3.6,0.4-5-1s-1.7-3.5-1.2-5.2c0.8-2.7,0.6-5.8-0.6-8.5
		c-1.7-3.1-5-5.4-10.4-6.9c-1.7-0.6-3.6-0.8-5.6-0.8c-9.6,0-11.7,9.2-12.1,10.4c-0.4,2.1-2.1,3.6-4,3.8c-2.1,0.2-4-1-4.6-2.9
		c-0.4-0.6-3.1-5.2-11.7-5.2c-2.3,0-4.8,0.4-7.1,0.8c-5.8,1.3-9.2,5.2-10.4,11.7c-0.6,3.6-0.6,7.5,0.2,11.1c0.4,1.5-0.2,3.1-1.2,4.2
		c-1,1.2-2.5,1.7-4,1.5c-1.2-0.2-2.5-0.2-3.6-0.2c-3.8-0.4-7.5,1.5-9.8,4.6c-4.4,6.5-4.8,20.6-1,39.4
		C719,667.1,721.1,675.3,723.8,683.6L723.8,683.6z"/>
	<path class="st4" d="M739.7,629.2c1,5.4-2.7,10.6-7.9,11.5c-5.4,0.8-10.4-2.9-11.1-8.1c0,0,0,0,0-0.2c-1-5.4,2.7-10.6,7.9-11.5
		C734,620.2,738.9,623.7,739.7,629.2C739.7,629,739.7,629.2,739.7,629.2z M753.7,611.4c5.4-1,8.8-6.1,7.9-11.5
		c-0.8-5.4-5.8-9-11.1-8.3c0,0,0,0-0.2,0c-5.4,1-8.8,6.1-7.9,11.5C743.2,608.5,748.2,612.1,753.7,611.4
		C753.5,611.4,753.5,611.4,753.7,611.4L753.7,611.4z M789.6,605.2c5.4-1,8.8-6.1,7.9-11.5c-0.8-5.4-5.8-9-11.1-8.3c0,0,0,0-0.2,0
		c-5.4,1-8.8,6.1-7.9,11.5C779.3,602.1,784.1,606,789.6,605.2C789.5,605.2,789.5,605.2,789.6,605.2L789.6,605.2z M822.5,613.3
		c-0.8-5.4-5.8-9-10.9-8.3c0,0,0,0-0.2,0c-5.4,1-8.8,6.1-7.9,11.5c0.8,5.4,5.6,9,10.9,8.3h0.2C820,623.8,823.5,618.7,822.5,613.3z
		 M773.1,615c-15.7,2.7-25.4,23.8-23.2,36.5c2.1,12.7,15.2,12.5,30.7,9.6c15.6-2.9,28-6.9,26.1-19.6
		C804.8,628.8,788.9,612.3,773.1,615z"/>
	<circle class="st2" cx="523.4" cy="505" r="18.4"/>
	<circle class="st2" cx="668.3" cy="505" r="18.4"/>
	<path class="st2" d="M696.1,588.7c-0.2,0.4-0.4,1.2-0.6,1.9c-0.8,2.5-1.9,4.8-3.1,7.1c-1.9,3.5-4.4,6.3-7.3,8.8
		c-3.8,3.1-8.3,5-13.1,5.6c-2.7,0.4-5.6,0.4-8.3,0.2l-2.1-0.2h-0.2l0,0h-0.2h-0.6l-1.2-0.2c-0.8-0.2-1.5-0.4-2.3-0.4l-1.2-0.2
		l-1.2-0.2c-2.9-0.8-5.8-1.9-8.5-3.5c-2.9-1.5-5.4-3.5-7.9-5.6c-1.2-1.2-2.5-2.3-3.8-3.6c-1.3-1.3-2.7-2.5-4.2-3.8
		c-1.5-1.3-3.1-2.5-4.8-3.6c-1.7-1.2-3.5-2.3-5.4-3.3c-1.9-1-3.8-1.7-6-2.5c-1-0.4-1.9-0.6-3.1-1l-1.5-0.4l-0.8-0.2l-0.8-0.2
		c-2.3-0.4-4.8-0.8-7.3-1v-11.7c20.2-4,35.9-31.3,35.9-44.6c0-14.4-18.2-20.9-40.9-20.9c-22.7,0-40.9,6.3-40.9,20.7
		c0,13.4,15.7,40.7,35.9,44.6v11.7c-6.7,0.4-13.4,2.1-19.6,5.2c-1.9,1-3.6,2.1-5.4,3.3c-1.7,1.2-3.3,2.5-4.8,3.8
		c-1.5,1.3-2.9,2.7-4.2,3.8c-1.3,1.2-2.5,2.5-3.8,3.6c-2.5,2.1-5,4-7.9,5.6c-2.7,1.5-5.6,2.7-8.5,3.5l-1.2,0.2
		c-0.4,0-0.8,0.2-1.2,0.2c-0.8,0.2-1.5,0.4-2.3,0.4l-2.1,0.4l-2.3,0.2c-0.4,0-0.8,0-1.2,0h-1c-0.8,0-1.3,0-2.1,0h-1h-1
		c-0.6,0-1.3-0.2-1.9-0.2c-4.8-0.6-9.4-2.5-13.1-5.6c-2.9-2.5-5.4-5.6-7.3-8.8c-1.3-2.3-2.3-4.6-3.1-7.1c-0.2-0.8-0.4-1.5-0.6-1.9
		c-0.2-0.4-0.2-0.6-0.2-0.6s0,0.2,0,0.8c0,0.4,0,1.2,0.2,2.1c0.4,2.7,1,5.2,1.9,7.7c0.6,1.7,1.5,3.6,2.5,5.2c1.2,2.1,2.5,3.8,4,5.6
		c0.2,0.2,0.6,0.6,0.8,0.8c0.8,8.1,5.4,34.4,34.8,49.7c0,0.4-0.2,0.8-0.2,1.2c-1.7,10.6-2.5,25.9,4,39.9c6,12.7,19.8,27.7,52.2,27.7
		c32.5,0,46.3-15,52.2-27.7c6.5-14,5.8-29.4,4-39.9c0-0.4-0.2-0.8-0.2-1.2c29.2-15.4,34-41.1,34.8-49.6c0.2-0.2,0.6-0.6,0.8-0.8
		c1.5-1.7,3.1-3.6,4.2-5.8c1-1.7,1.7-3.5,2.5-5.2c1-2.5,1.5-5,1.9-7.7c0.2-1,0.2-1.5,0.2-2.1c0-0.6,0-0.8,0-0.8
		S696.3,588.3,696.1,588.7z M639.6,696.8c-6.9,14.6-21.5,22.1-43.4,22.1s-36.5-7.5-43.4-22.1c-4.6-10-5.2-21.9-3.5-32.8
		c12.1,4.6,27.5,7.5,46.9,7.5c19.6,0,34.8-2.9,46.9-7.5C644.8,674.9,644.3,687,639.6,696.8z"/>
	<path class="st4" d="M637.2,634.4c-13.6-16.5-40.9,0-40.9,0l0,0c0,0-27.1-16.5-40.9,0c-13.8,16.5-29.4,89.5,40.9,89.5
		S650.8,650.7,637.2,634.4z"/>
	<path class="st2" d="M601.2,634.4l-5,76.6l-5-76.6c0-2.7,2.1-5,5-5c2.5,0,4.6,1.9,5,4.4C601.2,633.8,601.2,634,601.2,634.4z"/>
</g>
</svg>
