<?xml version="1.0" encoding="utf-8"?>
<!-- Generator: Adobe Illustrator 24.0.0, SVG Export Plug-In . SVG Version: 6.00 Build 0)  -->
<svg version="1.1" id="Layer_1" xmlns="http://www.w3.org/2000/svg" xmlns:xlink="http://www.w3.org/1999/xlink" x="0px" y="0px"
	 viewBox="0 0 1200 1200" style="enable-background:new 0 0 1200 1200;" xml:space="preserve">
<style type="text/css">
	.st0{fill:#BE9A71;}
	.st1{fill:#D9A993;}
	.st2{fill:#683A32;}
	.st3{fill:#FFFFFF;}
	.st4{fill:#F78C8B;}
	.st5{fill:#1D1D1B;}
	.st6{fill:#FDAC49;}
	.st7{fill:#191919;}
	.st8{fill:#333333;}
	.st9{fill:#14192C;}
	.st10{fill:#3E3D4F;}
	.st11{fill:#A15225;}
	.st12{fill:#895834;}
	.st13{fill:#1A0A14;}
	.st14{fill:#672E28;}
	.st15{fill:#111B1D;}
	.st16{fill:#EBEBEB;}
	.st17{fill:#494859;}
	.st18{fill:#2F2627;}
	.st19{fill:#C7B6AC;}
	.st20{fill:#E2D9D4;}
	.st21{fill:#D6CDCA;}
	.st22{fill:#674043;}
	.st23{fill:#3D3834;}
	.st24{fill:#E4DACE;}
	.st25{fill:#554E46;}
	.st26{fill:#E8E8E8;}
	.st27{fill:#AEE9FA;}
	.st28{fill:#4D4D4D;}
	.st29{fill:#FDFDFD;}
	.st30{fill:#FAAF5E;}
	.st31{fill:#F8FCFC;}
	.st32{fill:#DBCFB5;}
	.st33{fill:#6D6D6D;}
	.st34{fill:#C69C6D;}
	.st35{fill:#F0B965;}
	.st36{fill:#DA7B45;}
	.st37{fill:#FAE7D6;}
	.st38{fill:#FDF8F2;}
	.st39{fill:#E2C4AA;}
	.st40{fill:#BC8571;}
	.st41{fill:#2F322A;}
	.st42{fill:#444741;}
	.st43{fill:#46282D;}
	.st44{fill:#986858;}
	.st45{fill:#F0C7A2;}
	.st46{fill:#FCE9C8;}
	.st47{fill:#808080;}
	.st48{fill:#4E4E4E;}
	.st49{fill:#E8CBA9;}
	.st50{fill:#956B50;}
</style>
<g>
	<path class="st9" d="M952.6,766.2H104.7c-4.1,0-7.3-4.1-7.3-9.4s3.2-9.4,7.3-9.4h847.8c4.1,0,7.3,4.1,7.3,9.4
		S956.7,766.2,952.6,766.2z"/>
	<path class="st3" d="M356.1,707.8c40.1,63-7.6,77.2-7.6,77.2c-10.5,37.6-47.4,20.4-47.4,20.4c-30.9,12.6-46.5-20.6-46.5-20.6
		c-36.7,1.4-32.8-52-19.5-73.8C249.5,687.4,326.5,661.5,356.1,707.8z"/>
	<path class="st9" d="M362.1,703.9c-6.2-9.9-15.4-17.9-25.9-22.7c-10.1-4.4-21.1-6.6-32.1-6.4c-30,0-64.4,14.9-75.2,32.5
		c-5.7,10.1-9.2,21.3-10.1,33c-1.4,14,0.7,26.6,5.7,35.7c5,9.6,14.9,15.8,25.7,16.3c4.8,7.8,17,23.6,37.1,23.6l0,0
		c4.6,0,9.2-0.7,13.5-2.3c6,2.1,12.1,3.2,18.3,3.4c16.7,0,29.1-9.2,35.1-26.1c10.3-4.6,18.3-12.8,22.5-23.1
		C383.1,750.4,378.1,728.9,362.1,703.9z M363.2,762.1c-2.1,5.7-6.2,10.3-11.5,13.5c-2.3-4.4-5-8.2-8.2-11.7c-3-2.7-7.6-2.5-10.3,0.5
		c-2.5,2.7-2.5,7.3,0.2,10.1c2.7,3.4,5.3,7.1,7.1,11l0.2,0.5c-3.9,11-10.8,16.5-21.3,16.5c-3.7,0-7.3-0.7-10.8-1.6
		c0.2-4.4,0.2-8.9-0.2-13.5c-0.5-3.9-4.1-6.9-8.2-6.4c-4.1,0.5-6.9,4.1-6.4,8.2c0.2,3.9,0.2,7.6,0,11.5c-2.1,0.5-4.4,0.9-6.4,0.9
		l0,0c-12.4,0-20.6-10.3-24.1-15.8c3-4.6,6-11.2,4.6-16.7c-0.9-3.9-5-6.2-8.9-5.3c-3.7,0.9-6.2,4.6-5.5,8.5
		c-0.7,2.1-1.6,4.1-2.7,5.7c-5.7-0.2-11-3.7-13.7-8.9c-7.8-13.7-4.1-40.3,4.1-53.8c6.4-10.5,33.5-25.4,62.6-25.4
		c14.4,0,33.9,3.9,45.8,22.2C363,732.3,367.5,749.7,363.2,762.1L363.2,762.1z"/>
	<path class="st3" d="M675.1,707.8c-40.3,63,7.6,77.2,7.6,77.2c10.5,37.6,47.4,20.4,47.4,20.4c30.9,12.6,46.5-20.6,46.5-20.6
		c36.7,1.4,32.8-52,19.5-73.8C781.4,687.4,704.4,661.5,675.1,707.8z"/>
	<path class="st9" d="M812.1,740.1c-0.9-11.5-4.4-22.7-10.1-33c-10.8-17.6-45.1-32.5-75.2-32.5c-11-0.2-22,2.1-32.1,6.4
		c-10.8,4.8-19.7,12.6-25.9,22.7c-16,25.2-20.9,46.5-14.7,63.5c4.1,10.3,12.1,18.8,22.5,23.1c6,17,18.3,26.1,35.1,26.1
		c6.2,0,12.4-1.1,18.3-3.4c4.4,1.6,8.9,2.3,13.5,2.3l0,0c20.2,0,32.3-15.8,37.1-23.6c10.8-0.5,20.6-6.6,25.7-16.3
		C811.6,766.9,813.5,754.3,812.1,740.1z M793.8,768.8c-2.7,5.3-8,8.5-13.7,8.9c-1.1-1.8-2.1-3.7-2.7-5.7c0.7-3.9-1.8-7.8-5.7-8.5
		c-3.9-0.7-7.6,1.6-8.5,5.5c-1.4,5.5,1.8,12.1,4.6,16.7c-3.7,5.5-11.7,15.8-24.1,15.8l0,0c-2.1,0-4.4-0.2-6.4-0.9
		c-0.2-3.9-0.2-7.6,0-11.5c0.5-3.9-2.3-7.6-6.4-8.2s-7.6,2.3-8.2,6.4c-0.2,4.4-0.5,8.9-0.2,13.5c-3.4,1.1-7.1,1.6-10.8,1.6
		c-10.5,0-17.4-5.5-21.3-16.5l0.2-0.5c1.8-3.9,4.1-7.6,7.1-11c2.7-3,2.7-7.6,0-10.3c-2.7-2.7-7.1-2.7-10.1-0.2
		c-3.2,3.4-6,7.6-8.2,11.7c-5.3-3-9.4-7.8-11.5-13.5c-4.6-12.4,0-29.8,13.3-50.4c11.7-18.3,31.4-22.2,45.8-22.2
		c29.3,0,56.1,14.9,62.8,25.4C797.9,728.4,801.6,755,793.8,768.8L793.8,768.8z"/>
	<path class="st10" d="M563.5,336.8c0,0,52.5-104,63.7-165.7S654.4-1.6,670,78.8c2.1,10.8-5.5,59.8,9.9,102.4s46.1,181,41,199.8
		c-5,18.8-30.7,46.1-59.8,83.6C632,502.3,563.5,336.8,563.5,336.8z"/>
	<path class="st11" d="M624,428c11-14,23.6-26.8,34.8-40.6c21.8-26.8,16.3-54.5,11.9-86.2c-3-20.4-9.6-74.2-33-28.6
		c-8.7,17.2-15.8,35.3-24.1,52.7c-8.2,18.1-19.5,35.1-32.8,50c9.9,20.4,22.5,44.7,35.5,63.9C618.9,435.3,621,431.7,624,428z"/>
	<path class="st10" d="M470,336.8c0,0-52.5-104-63.7-165.7S379-1.6,363.4,78.8c-2.1,10.8,5.5,59.8-9.9,102.4
		c-15.4,42.6-46.1,181-41,199.8c5,18.8,30.7,46.1,59.8,83.6C401.5,502.3,470,336.8,470,336.8z"/>
	<path class="st11" d="M409.7,428c-11-14-23.6-26.8-34.8-40.6c-21.8-26.8-16.3-54.5-11.9-86.2c2.7-20.4,9.6-74.2,33-28.6
		c8.7,17.2,15.8,35.3,24.1,52.7c8.2,18.1,19.5,35.1,32.8,50c-9.9,20.4-22.5,44.7-35.5,63.9C414.8,435.3,412.7,431.7,409.7,428z"/>
	<path class="st10" d="M642.1,374.6c-11.9-23.6-59.1-42.2-92.3-52.5c-22.2-6.9-45.8-6.9-68.1,0c-33.2,10.3-80.4,28.9-92.3,52.5
		c-18.6,36.9-36.2,86.2-36,134.3c0.5,47.2,25.4,139.8,53.4,175.1c5.5,20.2,9.4,40.8,11.5,61.6c3.2,31.6,24.5,71.7,78.6,55.9
		c12.4-3.4,25.4-3.4,37.6,0c54.1,15.6,75.4-24.3,78.6-55.9c2.1-20.9,6-41.5,11.5-61.6c28.2-35.3,53.2-127.9,53.4-175.1
		C678.3,460.8,660.6,411.5,642.1,374.6z"/>
	<path class="st12" d="M662.7,527.2c-8.7-11.9-23.8,62.3-46.7,57.3c-46.3-9.9-57.5,52.9-101.3,52.9c-29.6,0-54.1-65.3-98.5-58
		c-17.9,3-46.1-75.6-48.1-55.9c-1.6,14.4-1.1,47.2,21.5,130.4c4.6,10.5,10.5,20.6,17.2,29.8c5.5,20.2,9.4,40.8,11.5,61.6
		c3.2,31.6,24.5,48.1,78.4,32.5c12.4-3.7,25.7-3.7,38,0c54.1,15.6,75.2-0.9,78.6-32.5c2.1-20.9,6-41.5,11.5-61.6
		c8-10.1,15.8-25.2,22.7-42.4C663.4,584.7,667.7,534.1,662.7,527.2z"/>
	<path class="st13" d="M565.5,481.2c0,0,17-27.5,36.2-24.5c19.2,3,30.9,18.6,30.9,18.6s-12.1,35.5-33.5,35.5
		S565.5,481.2,565.5,481.2z"/>
	<path class="st14" d="M622.8,483.7c0,13.1-10.5,23.8-23.8,23.8c-13.1,0-23.8-10.5-23.8-23.8c0-13.1,10.5-23.8,23.8-23.8
		C612.1,459.9,622.8,470.4,622.8,483.7L622.8,483.7z"/>
	<path class="st15" d="M613,483.7c0,7.8-6.4,14.2-14.2,14.2c-7.8,0-14.2-6.4-14.2-14.2c0-7.8,6.4-14.2,14.2-14.2
		C606.6,469.5,613,475.9,613,483.7L613,483.7z"/>
	<path class="st16" d="M618.7,473.8c0,5.5-4.4,9.9-9.9,9.9s-9.9-4.4-9.9-9.9c0-5.5,4.4-9.9,9.9-9.9
		C614.3,464,618.7,468.3,618.7,473.8L618.7,473.8z"/>
	<path class="st13" d="M463.8,481.2c0,0-17-27.5-36.2-24.5c-19.2,3-30.9,18.6-30.9,18.6s12.4,35.5,33.5,35.5
		S463.8,481.2,463.8,481.2z"/>
	<circle class="st14" cx="430.3" cy="483.7" r="23.8"/>
	<path class="st15" d="M444.5,483.7c0,7.8-6.4,14-14.2,14c-7.8,0-14-6.4-14-14.2c0-7.8,6.4-14,14-14
		C438.1,469.5,444.5,475.9,444.5,483.7L444.5,483.7z"/>
	<path class="st16" d="M450,473.8c0,5.5-4.4,9.9-9.9,9.9s-9.9-4.4-9.9-9.9c0-5.5,4.4-9.9,9.9-9.9C445.7,464,450,468.3,450,473.8z"/>
	<path class="st12" d="M482.6,448.6c-1.8,6.2-9.2,9.4-16.3,7.1s-11.2-8.9-9.4-15.1c1.8-6.2,9.2-9.2,16.3-7.1
		C480.3,435.6,484.4,442.7,482.6,448.6z"/>
	<path class="st12" d="M548.8,448.6c1.8,6.2,9.2,9.4,16.3,7.1c7.1-2.3,11.2-8.9,9.4-15.1c-1.8-6.2-9.2-9.2-16.3-7.1
		S546.7,442.7,548.8,448.6z"/>
	<path class="st17" d="M545.6,518.1c-11.2-15.1-30.9-3-30.9-3s-19.7-12.1-30.9,3c-11.2,15.1-46.3,76.3-39.2,103.6
		c-0.9,39,46.5,98.8,70.3,98.8l0,0c23.6,0,70.1-57.3,70.1-98.8C584.8,588.4,557.1,533.6,545.6,518.1z"/>
	<path class="st9" d="M563.5,740.1c-8.5-4.6-17.4-15.8-26.1-29.8c21.3-16.3,43.3-49.3,43.3-73.1c0-3.2-15.1-22-28-23.4
		c-19-2.3-56.8-0.2-76.1,0.2c-17.6,0.5-27.7,18.6-27.7,23.1c0,23.8,22,56.6,43.1,72.9c-9.4,14.7-19,26.4-28,30.9
		c-25.9,13.1-47.9-6.6-47.9-6.6c45.6,51.6,82.5,25,98.5-7.8c16,32.8,52.9,59.3,98.5,7.8C613.2,734.6,590.3,754.8,563.5,740.1z"/>
	<path class="st7" d="M566,654c0,9.2-11.9,22.9-22.2,22.9s-18.8-7.3-18.8-16.5s8.5-16.5,18.8-16.5S566,644.8,566,654z"/>
	<path class="st7" d="M463.3,654c0,9.2,11.9,22.9,22.2,22.9s18.8-7.3,18.8-16.5s-8.5-16.5-18.8-16.5S463.3,644.8,463.3,654z"/>
</g>
</svg>
