<?xml version="1.0" encoding="utf-8"?>
<!-- Generator: Adobe Illustrator 24.0.0, SVG Export Plug-In . SVG Version: 6.00 Build 0)  -->
<svg version="1.1" id="Layer_1" xmlns="http://www.w3.org/2000/svg" xmlns:xlink="http://www.w3.org/1999/xlink" x="0px" y="0px"
	 viewBox="0 0 1200 1200" style="enable-background:new 0 0 1200 1200;" xml:space="preserve">
<style type="text/css">
	.st0{fill:#BE9A71;}
	.st1{fill:#D9A993;}
	.st2{fill:#683A32;}
	.st3{fill:#FFFFFF;}
	.st4{fill:#F78C8B;}
	.st5{fill:#1D1D1B;}
	.st6{fill:#FDAC49;}
	.st7{fill:#191919;}
	.st8{fill:#333333;}
	.st9{fill:#14192C;}
	.st10{fill:#3E3D4F;}
	.st11{fill:#A15225;}
	.st12{fill:#895834;}
	.st13{fill:#1A0A14;}
	.st14{fill:#672E28;}
	.st15{fill:#111B1D;}
	.st16{fill:#EBEBEB;}
	.st17{fill:#494859;}
	.st18{fill:#2F2627;}
	.st19{fill:#C7B6AC;}
	.st20{fill:#E2D9D4;}
	.st21{fill:#D6CDCA;}
	.st22{fill:#674043;}
	.st23{fill:#3D3834;}
	.st24{fill:#E4DACE;}
	.st25{fill:#554E46;}
	.st26{fill:#E8E8E8;}
	.st27{fill:#AEE9FA;}
	.st28{fill:#4D4D4D;}
	.st29{fill:#FDFDFD;}
	.st30{fill:#FAAF5E;}
	.st31{fill:#F8FCFC;}
	.st32{fill:#DBCFB5;}
	.st33{fill:#6D6D6D;}
	.st34{fill:#C69C6D;}
	.st35{fill:#F0B965;}
	.st36{fill:#DA7B45;}
	.st37{fill:#FAE7D6;}
	.st38{fill:#FDF8F2;}
	.st39{fill:#E2C4AA;}
	.st40{fill:#BC8571;}
	.st41{fill:#2F322A;}
	.st42{fill:#444741;}
	.st43{fill:#46282D;}
	.st44{fill:#986858;}
	.st45{fill:#F0C7A2;}
	.st46{fill:#FCE9C8;}
	.st47{fill:#808080;}
	.st48{fill:#4E4E4E;}
	.st49{fill:#E8CBA9;}
	.st50{fill:#956B50;}
</style>
<g>
	<path class="st8" d="M345.3,407.3c-38.8,40.7-7.2,89.2-2.9,163.2c4.6,80.8,54.6,88.7,54.6,88.7l145.7-116.5
		C458.7,377.4,383.9,366.6,345.3,407.3z"/>
	<path class="st3" d="M393.5,406.6c-64.5-7-56.6,80.3-36.7,142.4c12.9,40-7.9,67.3,48.4,92s17-22.5,17-22.5s54.4-45.5,82.4-59.2
		C533,545.8,462,414,393.5,406.6z"/>
	<path class="st8" d="M853.4,407.3c-38.8-40.7-113.4-30-197.5,135.4L801.6,659c0,0,50.1-7.9,54.6-88.7
		C860.6,496.5,892,448.3,853.4,407.3z"/>
	<path class="st3" d="M805.2,406.6C736.7,414,666,545.8,694,559.3c28,13.7,82.4,59.2,82.4,59.2s-39.1,47.2,17.3,22.5
		s35.5-52,48.4-92C861.6,486.9,869.5,399.6,805.2,406.6z"/>
	<path class="st8" d="M805.2,718.4c-13.4-44.1,18.2-65.9-26.4-134.2s-179.3-55.6-179.3-55.6s-134.7-12.7-179.3,55.6
		s-12.9,90.4-26.4,134.2c-13.4,43.9-6.5,123.4,22,168.2h366.9C811.5,841.8,818.7,762.5,805.2,718.4z"/>
	<path class="st3" d="M763.5,760.8h-0.2c0,0-37.9,14.1-46-4.3c-6.7-14.9-5-77.7-64.2-104c-34-98.3,9.8-122.2,9.8-122.2l-0.2-0.7
		c-20.9-2.2-42.2-2.6-63-1c-20.9-1.4-41.7-1.2-62.6,1l-0.2,0.7c0,0,43.9,24,10.1,122c-59.9,26.4-58.2,89.4-65,104.3
		c-8.4,18.5-46,4.3-46,4.3c-54.6-20.4-44.8,53-44.6,54.6l1.9,10.1c4.8,22.8,12.5,44.3,23,61.1h366.7c12.9-20.4,21.6-47.7,25.6-75.7
		C809.8,794.9,810.3,743.3,763.5,760.8z"/>
	<path class="st7" d="M878.6,452.1c-0.5-18.2-7.9-35.7-20.6-48.9c-16.3-17.3-36.7-24.4-59.2-21.1c-31.9,4.6-81.5,33.3-139.5,141.2
		c-19.9-1.9-39.8-2.2-59.7-0.7c-19.9-1.4-40-1.2-59.9,0.7c-58-107.9-107.6-136.4-139.5-141.2c-22.5-3.4-42.9,4.1-59.2,21.1
		c-12.9,13.2-20.1,30.7-20.6,48.9c-0.7,17,2.9,35,7,55.8c4.6,20.9,7.7,41.9,9.1,63c0.7,17.3,4.3,34.3,11,50.1
		c4.6,10.8,11.5,20.6,20.1,28.8c6.5,6,13.9,10.5,22,13.7c0.2,4.3,0.5,8.4,1,12.5c1.2,13.2,2.4,25.6-2.4,40.7
		c-7,22.5-8.6,54.2-4.8,86.3c4.1,34.3,13.9,65.2,27.8,87c1.9,2.9,5.8,3.6,8.6,1.7c2.6-1.9,3.6-5.5,1.9-8.4
		c-28.3-44.8-34.3-121.8-21.6-163c5.3-17.5,4.1-31.6,2.9-45.5c-1.9-22.5-4.1-45.8,22.8-87c21.8-33.3,67.3-45.8,101.6-50.6
		c23.7-3.1,47.7-3.8,71.7-2.2h1.2c1.4-0.2,131.3-11.5,173.3,53c26.8,41.2,24.9,64.5,22.8,87c-1.2,13.9-2.4,28.3,2.9,45.5
		c12.7,41.2,7,118.2-21.6,163c-1.9,2.9-1,6.7,1.9,8.6l0,0c1,0.7,2.2,1,3.4,1c2.2,0,4.1-1.2,5.3-2.9c13.9-21.8,23.7-52.7,27.8-87
		c3.8-32.4,2.2-63.8-4.8-86.3c-4.6-15.1-3.6-27.6-2.4-40.7c0.2-4.1,0.7-8.1,1-12.5c8.1-3.1,15.6-7.7,21.8-13.7
		c8.6-8.1,15.3-18,20.1-28.8c6.7-15.8,10.3-32.8,11-50.1c1.4-21.3,4.6-42.2,9.1-63C875.9,487.1,879.3,469.1,878.6,452.1z M464.4,541
		c-22,9.8-38.6,23.2-49.6,39.8c-19.2,29.5-24.7,51.1-25.9,69c-13.4-6.5-37.6-25.6-40.5-79.6c-1.7-21.8-4.8-43.4-9.3-64.7
		c-7.9-39.8-13.4-68.3,10.5-93.7c9.3-9.8,25.2-20.9,48.2-17.5c19.9,2.9,41,15.6,62.8,37.6c21.8,22,43.6,53.2,65.2,92.5h-0.2
		C504.7,527.4,484.1,532.9,464.4,541z M859.4,505.6c-4.6,21.3-7.7,42.9-9.3,64.7c-1.7,30.9-10.8,55.1-26.4,69.7
		c-4.1,3.8-8.9,7.2-13.9,9.8c-1-18-6.7-39.5-25.9-68.8c-10.8-16.5-27.6-30-49.4-39.8c-19.7-8.4-40.3-13.7-61.4-16.3h-0.5
		c21.6-39.3,43.4-70.5,65.2-92.5s42.9-34.8,62.8-37.6c23-3.4,39.1,7.7,48.2,17.5C872.8,437,867.3,465.8,859.4,505.6z"/>
	<path class="st7" d="M435.7,760.8c4.6,1.2,9.3,2.4,14.1,2.9c4.8,0.7,9.6,1,14.1,0.5c2.4-0.2,4.6-0.7,6.7-1.4
		c1.9-0.7,3.8-1.7,5.5-3.1l0.5-0.5c0.2-0.2,0.2-0.5,0.5-0.5l0.5-0.5c0.2-0.2,0.2-0.5,0.5-0.7l0.5-0.7c0.2-0.2,0.2-0.5,0.2-0.7
		l0.2-0.7l0.2-0.7c0.2-0.5,0.2-1,0.5-1.4c0.2-0.5,0.2-1.2,0.5-1.7c0.2-1.2,0.5-2.2,0.7-3.4c0.7-4.8,1.4-9.6,2.4-14.4
		c1-4.8,1.9-9.6,3.1-14.6c0.7-2.4,1.2-4.8,1.9-7.2s1.4-4.8,2.4-7.2s1.9-4.8,2.9-7c0.5-1.2,1-2.4,1.4-3.4c0.5-1,1.2-2.4,1.7-3.4
		c2.4-4.6,5-8.9,8.1-12.9c6.2-8.4,13.7-15.6,22-21.6c4.3-2.9,8.6-5.5,13.2-7.9s9.3-4.3,14.1-6c4.8-1.7,9.8-3.1,14.6-4.1
		c5-1.2,9.8-1.9,14.9-2.6c5-0.7,10.1-1,15.1-1.4h0.7c5,0.2,10.1,0.7,15.1,1.4c5,0.7,10.1,1.4,14.9,2.6c5,1.2,9.8,2.4,14.6,4.1
		c4.8,1.7,9.6,3.6,14.1,5.8c4.6,2.4,9.1,5,13.2,7.9c4.3,2.9,8.1,6.2,12,9.8c3.6,3.6,7.2,7.4,10.1,11.7c3.1,4.1,5.8,8.4,8.1,12.9
		c2.4,4.6,4.3,9.1,6.2,13.9c1,2.4,1.7,4.8,2.4,7.2c0.7,2.4,1.4,4.8,1.9,7.2c1.2,4.8,2.2,9.6,3.1,14.6c1,4.8,1.4,9.6,2.4,14.4
		c0.2,2.2,1,4.6,1.4,6.7l0.2,0.2v0.2l0,0c0,0-0.2-0.2,0,0l0,0l0.5,0.7c0.2,0.2,0.2,0.5,0.5,0.7l0.2,0.5c0.2,0.2,0.2,0.2,0.2,0.5
		l0.5,0.5c0.2,0.2,0.2,0.5,0.5,0.5l0.5,0.5c1.7,1.4,3.4,2.4,5.5,3.1c2.2,0.7,4.3,1.2,6.7,1.4c4.8,0.5,9.6,0.2,14.1-0.5
		c4.8-0.7,9.6-1.7,14.1-2.9c-2.2,1-4.6,1.9-7,2.6s-4.8,1.4-7,2.2c-4.8,1.2-9.8,1.9-14.6,2.2c-2.6,0-5.3-0.2-7.7-0.7
		c-2.6-0.5-5.3-1.7-7.4-3.4l-1-0.7c-0.2-0.2-0.5-0.5-0.7-0.7l-0.7-0.7c-0.2-0.2-0.5-0.5-0.7-1l-0.7-1c-0.2-0.2-0.2-0.5-0.5-0.7
		l-0.5-0.7l0,0c0,0.2-0.2-0.2-0.2-0.2l0,0l-0.2-0.2l-0.2-0.5c-1-2.4-1.7-4.8-2.4-7.4c-1.2-4.8-2.2-9.6-3.4-14.1
		c-1.2-4.6-2.4-9.3-3.8-13.9c-0.7-2.2-1.4-4.6-2.4-6.7c-1-2.2-1.7-4.3-2.6-6.5c-1.9-4.3-3.8-8.4-6.2-12.5s-5-7.7-7.9-11.5
		c-2.9-3.6-6-7-9.3-10.1c-6.7-6.2-14.4-11.3-22.8-15.1c-4.1-1.9-8.4-3.6-12.9-5c-4.3-1.4-8.9-2.6-13.4-3.6s-9.1-1.7-13.9-2.4
		c-4.8-0.7-9.3-1-14.1-1.2h0.7c-4.8,0.2-9.3,0.7-14.1,1.2c-4.8,0.5-9.3,1.4-13.9,2.4s-9.1,2.2-13.4,3.6c-4.3,1.4-8.6,3.1-12.9,5
		c-4.1,1.9-8.1,4.1-12,6.7c-3.8,2.4-7.4,5.3-10.8,8.4s-6.5,6.5-9.3,10.1c-2.9,3.6-5.5,7.4-7.9,11.5c-2.4,4.1-4.6,8.1-6.2,12.5
		c-1.9,4.3-3.4,8.6-5,13.2c-1.7,4.6-2.6,9.1-3.8,13.9c-1.2,4.8-2.2,9.3-3.4,14.1c-0.2,1.2-0.7,2.4-1,3.6l-0.7,1.9
		c-0.2,0.5-0.5,1.4-0.7,1.9l-0.2,0.5v0.2l0,0c0,0,0,0.2,0,0l0,0l-0.5,1c-0.2,0.2-0.2,0.7-0.5,1l-0.7,1c-0.2,0.2-0.5,0.5-0.7,1
		l-0.7,0.7c-0.2,0.2-0.5,0.5-0.7,0.7l-1,0.7c-2.2,1.7-4.8,2.9-7.4,3.4c-2.6,0.5-5,0.7-7.7,0.7c-5,0-9.8-0.7-14.6-2.2
		c-2.4-0.7-4.8-1.2-7-2.2C440,762.3,438.1,762,435.7,760.8z"/>
	<circle class="st7" cx="701.7" cy="654.7" r="23.5"/>
	<circle class="st3" cx="708.4" cy="644.1" r="6.2"/>
	<circle class="st7" cx="497.3" cy="654.7" r="23.5"/>
	<circle class="st3" cx="504.2" cy="644.1" r="6.2"/>
	<path class="st7" d="M1047.5,892.6H149.3c-3.4,0.2-6.5-2.4-6.7-6c-0.2-3.6,2.4-6.5,6-6.7c0.2,0,0.5,0,0.7,0h898.3
		c3.4-0.2,6.5,2.4,6.7,6c0.2,3.6-2.4,6.5-6,6.7C1048,892.6,1047.8,892.6,1047.5,892.6z"/>
	<path class="st3" d="M382.5,899.1c0,0,5.3,21.8,31.2,8.6c25.9-13.2,17-115.3-76.5-100.2c-93.5,15.1-65.9,102.1-55.8,114.3
		c7.4,9.1,41.7,11.3,41.7-16.5c0,0-2.9,24.9,32.4,24.9S382.5,899.1,382.5,899.1z"/>
	<path class="st7" d="M355.4,936.7c-14.4,0-25.2-3.8-31.9-11.7l-0.5-0.7c-5.3,6.2-13.7,9.8-24,9.8c-9.6,0-18.5-3.4-22.5-8.4
		c-3.8-4.6-8.6-15.6-11.5-30c-2.2-11.7-3.6-29.5,3.1-47c4.3-11.7,12.2-22.3,22.3-29.7c11.7-8.9,27.1-14.9,45.8-18
		c6.2-1,12.7-1.7,19.2-1.7c20.9,0,38.3,6,51.8,18.2c11.5,10.5,19.7,24.2,23,39.5c6,24.9,0,48.9-13.7,55.8c-5.5,3.1-11.5,4.8-17.7,5
		c-3.6,0-7.2-0.7-10.5-2.4c-1,3.6-2.6,6.7-4.8,9.6C377.4,932.9,368.1,936.7,355.4,936.7z M329.2,907.3c0.2,6.5,4.1,16.8,26.1,16.8
		c8.9,0,14.9-2.2,18.2-6.5c5.3-6.7,2.9-17,2.9-17.3l0,0c-0.7-3.4,1.7-6.7,5-7.4c3.1-0.5,6.2,1.2,7.2,4.3l0,0c1,4.8,5.3,8.1,10.1,8.1
		c4.3-0.2,8.4-1.4,12-3.6c7.2-3.6,12-21.8,7.2-41.7c-2.6-11.3-15.3-47.9-62.8-47.9c-5.8,0-11.5,0.5-17.3,1.4
		c-30.7,5-50.3,18.2-58.2,39.5c-10.1,26.8,1.4,58.7,6.2,64.5c1.2,1.4,6.2,3.8,12.9,3.8c6.7,0,17-1.9,17.7-14.6c0-0.7,0-1.7,0-2.4
		c0.5-3.4,3.6-6,7-5.5c3.1,0.5,5.5,3.1,5.5,6.2C329.2,906.1,329.2,906.8,329.2,907.3z"/>
	<path class="st3" d="M816.5,899.1c0,0-5.3,21.8-31.2,8.6c-25.9-13.2-17-115.3,76.7-100.2c93.7,15.1,65.9,102.1,55.8,114.3
		c-7.4,9.1-41.7,11.3-41.7-16.5c0,0,2.6,24.9-32.4,24.9C808.8,930.3,816.5,899.1,816.5,899.1z"/>
	<path class="st7" d="M843.6,936.7c-12.7,0-22.3-3.8-28-11.3c-2.2-2.9-3.8-6-4.8-9.6c-3.4,1.7-6.7,2.4-10.5,2.4
		c-6.2-0.2-12.2-1.9-17.7-5c-13.9-7-19.7-31.2-13.7-55.8c3.4-15.1,11.5-29,23-39.5c13.7-12,31.2-18.2,51.8-18.2
		c6.5,0,12.9,0.5,19.2,1.7c18.7,3.1,34,9.1,45.8,18c10.1,7.7,18,18,22.3,29.7c6.5,17.5,5.3,35.2,3.1,47c-2.6,14.4-7.7,25.4-11.5,30
		c-4.1,5-12.9,8.4-22.5,8.4l0,0c-10.3,0-18.7-3.6-24-9.8c-0.2,0.2-0.2,0.5-0.5,0.7C869,932.9,858.2,936.7,843.6,936.7z M816.5,892.6
		c0.5,0,1,0,1.4,0.2c3.4,0.7,5.3,4.1,4.6,7.4l0,0c0,0-2.4,10.5,2.9,17.3c3.4,4.3,9.6,6.5,18.2,6.5c22,0,25.9-10.5,26.1-16.8
		c0-0.7,0-1.2,0-1.9c0-3.4,2.9-6.2,6.5-6.2c3.1,0,5.8,2.4,6.2,5.5c0,0.7,0,1.7,0,2.4c0.7,12.7,11.5,14.6,17.7,14.6
		c6.2,0,11.5-2.2,12.9-3.8c4.8-6,16.5-37.6,6.2-64.5c-8.1-21.3-27.6-34.8-58.2-39.5c-5.8-1-11.5-1.4-17.3-1.4
		c-47.5,0-59.9,36.7-62.8,47.9c-4.8,19.9,0,38.1,7.2,41.7c3.6,2.2,7.7,3.4,12,3.6c4.8,0,9.1-3.4,10.3-8.1l0,0
		C811,894.8,813.6,892.6,816.5,892.6z"/>
	<path class="st7" d="M767.4,776.2c-3.1,3.1-6.5,6.2-9.8,9.3c-3.4,2.9-6.7,5.8-10.3,8.6c-3.6,2.6-7.2,5.3-10.8,7.7l-2.9,1.7
		l-2.9,1.7c-1,0.5-1.9,1-2.9,1.7c-0.5,0.2-1,0.5-1.4,0.7l-1.4,0.7c-1.9,1-3.8,1.9-6,2.9s-4.1,1.7-6,2.4c-1,0.2-1.9,0.7-3.1,1l-3.1,1
		l-3.1,0.7c-0.5,0.2-1,0.2-1.4,0.2l-1.7,0.2l-1.4,0.2l-1.7,0.2l-1.4,0.2h-0.7h-0.7h-3.1l-3.1-0.2h-0.7h-0.2h-0.2h-0.5l-1.7-0.2
		l-1.7-0.2l-1.7-0.2c-1-0.2-2.2-0.2-3.1-0.5l-3.1-0.7c-4.3-0.7-8.4-1.9-12.7-3.1c-4.1-1.2-8.1-2.6-12.2-4.3
		c-4.1-1.7-7.9-3.6-11.7-5.5c-3.8-2.2-7.4-4.3-11-6.7s-6.7-5-9.8-7.9c-0.7-0.7-1.4-1.4-2.2-2.2c-0.7-0.7-1.4-1.4-2.2-2.2l-1-1.2
		l-0.5-0.5l-0.5-0.7l-1-1.2l-1-1.2l-0.5-0.7c-0.2-0.2-0.2-0.5-0.5-0.7l-0.7-1.2c-0.5-0.7-1-1.7-1.2-2.4c-0.7-1.4-1.2-2.9-1.4-4.6
		l-2.4-36.7c30.7-2.2,54.9-31.4,54.9-48.4c0-17.7-26.4-32.1-58.7-32.1c-32.4,0-58.7,14.4-58.7,32.1c0,17,24.2,46.3,54.9,48.4
		l-2.4,36.7c-0.2,1.4-0.7,3.1-1.4,4.6c-0.2,0.7-1,1.7-1.2,2.4l-0.7,1.2c0,0.2-0.2,0.5-0.5,0.7l-0.5,0.7c-2.4,3.4-5,6.2-8.1,9.1
		c-3.1,2.9-6.5,5.5-10.1,7.9c-3.6,2.4-7.2,4.8-11,6.7c-3.8,2.2-7.7,3.8-11.7,5.5c-4.1,1.7-8.1,3.1-12.2,4.3
		c-4.1,1.2-8.4,2.4-12.7,3.1l-3.1,0.5c-1,0.2-2.2,0.2-3.1,0.5c-1,0.2-2.2,0.2-3.1,0.5l-1.2,0.5h-0.5h-0.2h-1h-3.1h-2.9h-0.7H503
		l-1.4-0.2l-1.7-0.2l-1.4-0.2l-1.7-0.2c-0.5,0-1-0.2-1.4-0.2l-3.1-0.7c-1-0.2-2.2-0.7-3.1-1c-1-0.2-1.9-0.7-3.1-1
		c-1.9-0.7-4.1-1.4-6-2.4c-1.9-1-4.1-1.9-6-2.9l-1.4-0.7c-0.5-0.2-1-0.5-1.4-0.7c-1-0.5-1.9-1-2.9-1.7l-2.9-1.7
		c-1-0.5-1.9-1.2-2.9-1.9c-3.6-2.4-7.4-5-10.8-7.7c-3.6-2.6-7-5.5-10.3-8.6c-3.4-2.9-6.7-6-9.8-9.3c-3.1-3.1-6.2-6.5-9.3-9.8
		c2.4,3.8,5,7.4,7.9,11c2.9,3.6,5.8,7,8.9,10.5c3.1,3.4,6.2,6.7,9.6,9.8c3.4,3.1,6.7,6.2,10.5,9.1c2.4,1.9,4.8,3.6,7.4,5.3
		c8.6,16.8,40.5,61.4,133,61.4s124.4-44.8,133-61.4c2.6-1.7,5-3.4,7.4-5.3c3.6-2.9,7.2-5.8,10.5-9.1c3.4-3.4,6.5-6.5,9.6-9.8
		s6-7,8.9-10.5s5.5-7.2,7.9-11C773.6,769.9,770.5,773.1,767.4,776.2z"/>
	<path class="st4" d="M653.3,830.3c-26.1-18.2-53.9-3.4-53.9-3.4s-27.8-14.9-53.9,3.4c-26.1,18.5-30.9,99.2,53.9,99.2
		S679.4,848.8,653.3,830.3z"/>
	<path class="st7" d="M599.4,935.8L599.4,935.8c-20.4,0-37.4-4.6-50.3-13.2c-11.3-7.7-19.7-18.7-23.5-31.6
		c-3.8-12.2-4.1-25.4-1-37.9c3.1-12.2,9.3-22.3,17.3-27.8c9.6-6.7,20.9-10.3,32.6-10.3c8.6,0,17,1.7,24.9,5c7.9-3.4,16.3-5,24.9-5
		c11.7,0,23,3.6,32.6,10.3c7.9,5.5,14.1,15.6,17.3,27.8c3.1,12.5,2.9,25.6-1,37.9c-4.1,12.9-12.2,24-23.5,31.6
		C636.7,931.5,619.7,935.8,599.4,935.8L599.4,935.8z M574.4,827.5c-9.1,0-18,2.9-25.4,7.9c-10.8,7.7-18.2,30.7-11.5,51.5
		c7.4,23.2,29.2,36.2,61.8,36.2l0,0c32.6,0,54.4-12.9,61.8-36.2c6.7-21.1-0.7-44.1-11.7-51.5c-7.4-5.3-16.3-8.1-25.4-7.9
		c-7.7,0-15.1,1.7-22,5c-1.9,1-4.1,1-6,0C589.5,829.1,582.1,827.5,574.4,827.5z"/>
	<path class="st7" d="M605.8,827l-6.2,80.5l-6.2-80.5c-0.5-3.4,2.2-6.7,5.5-7c3.4-0.2,6.7,2.2,7,5.5c0,0.2,0,0.2,0,0.5
		C605.8,826.3,605.8,826.7,605.8,827z"/>
</g>
</svg>
