<?xml version="1.0" encoding="utf-8"?>
<!-- Generator: Adobe Illustrator 24.0.0, SVG Export Plug-In . SVG Version: 6.00 Build 0)  -->
<svg version="1.1" id="Layer_1" xmlns="http://www.w3.org/2000/svg" xmlns:xlink="http://www.w3.org/1999/xlink" x="0px" y="0px"
	 viewBox="0 0 1200 1200" style="enable-background:new 0 0 1200 1200;" xml:space="preserve">
<style type="text/css">
	.st0{fill:#BE9A71;}
	.st1{fill:#D9A993;}
	.st2{fill:#683A32;}
	.st3{fill:#FFFFFF;}
	.st4{fill:#F78C8B;}
	.st5{fill:#1D1D1B;}
	.st6{fill:#FDAC49;}
	.st7{fill:#191919;}
	.st8{fill:#333333;}
	.st9{fill:#14192C;}
	.st10{fill:#3E3D4F;}
	.st11{fill:#A15225;}
	.st12{fill:#895834;}
	.st13{fill:#1A0A14;}
	.st14{fill:#672E28;}
	.st15{fill:#111B1D;}
	.st16{fill:#EBEBEB;}
	.st17{fill:#494859;}
	.st18{fill:#2F2627;}
	.st19{fill:#C7B6AC;}
	.st20{fill:#E2D9D4;}
	.st21{fill:#D6CDCA;}
	.st22{fill:#674043;}
	.st23{fill:#3D3834;}
	.st24{fill:#E4DACE;}
	.st25{fill:#554E46;}
	.st26{fill:#E8E8E8;}
	.st27{fill:#AEE9FA;}
	.st28{fill:#4D4D4D;}
	.st29{fill:#FDFDFD;}
	.st30{fill:#FAAF5E;}
	.st31{fill:#F8FCFC;}
	.st32{fill:#DBCFB5;}
	.st33{fill:#6D6D6D;}
	.st34{fill:#C69C6D;}
	.st35{fill:#F0B965;}
	.st36{fill:#DA7B45;}
	.st37{fill:#FAE7D6;}
	.st38{fill:#FDF8F2;}
	.st39{fill:#E2C4AA;}
	.st40{fill:#BC8571;}
	.st41{fill:#2F322A;}
	.st42{fill:#444741;}
	.st43{fill:#46282D;}
	.st44{fill:#986858;}
	.st45{fill:#F0C7A2;}
	.st46{fill:#FCE9C8;}
	.st47{fill:#808080;}
	.st48{fill:#4E4E4E;}
	.st49{fill:#E8CBA9;}
	.st50{fill:#956B50;}
</style>
<g>
	<path class="st3" d="M495,440.3c-2.5,15.6-4.9,31.8,8,39.4c2.8,1.7,6,2.7,9.3,2.7c11.8,0,20.4-13.1,25.8-22.9
		c2.2-3.9,5.1-7.4,8.5-10.3c9.2-8.9,14.2-16.2,5.5-44.3v-0.3c-0.6-1.5-14.8-37.5-37.7-37.5c-2.8,0-5.6,0.6-8.3,1.6
		c-15.3,5.9-12.9,25.5-10.8,42.5c1.2,6.8,1.5,13.7,1.1,20.5C495.8,434.6,495.4,437.5,495,440.3z"/>
	<path class="st3" d="M783.2,449.2c3.4,2.9,6.2,6.4,8.5,10.3c5.4,9.9,14,22.9,25.8,22.9c3.3,0,6.5-1,9.2-2.7
		c12.9-7.6,10.4-23.8,8-39.4c-0.5-2.8-0.9-5.7-1.3-8.6c-0.4-6.9,0-13.8,1.1-20.5c2.1-17.2,4.5-36.6-10.8-42.5
		c-2.6-1-5.4-1.6-8.3-1.6c-22.9,0-37.1,35.9-37.7,37.5c0,0,0,0.2,0,0.3C769,432.9,774,440.3,783.2,449.2z"/>
	<path class="st3" d="M551.1,535c-12.1,1.8-19.2,17.3-19,31.2c0.2,12.9,6.2,21.6,15.6,22.8c1.4,0.2,2.7,0.3,4.1,0.3l0,0
		c18.5,0,28.5-15.6,28.9-16.3c0.5-0.8,0.7-1.7,0.6-2.5c-0.5-5.8-1.7-11.6-3.8-17.1c-5.8-15.3-15.6-18.6-22.7-18.6
		C553.6,534.7,552.3,534.8,551.1,535z M574.7,570c-1.9,2.5-9.9,12.7-22.9,12.7l0,0c-1.1,0-2.2-0.1-3.3-0.2c-7.1-0.9-9.8-9-9.9-16.3
		c-0.1-10.8,5-23.3,13.4-24.6c0.9-0.1,1.9-0.2,2.9-0.2C571.1,541.3,574.2,565.3,574.7,570L574.7,570z"/>
	<path class="st3" d="M778,589.2c1.4,0,2.8-0.1,4.1-0.3c9.5-1.2,15.5-9.9,15.6-22.8c0.2-13.9-6.9-29.4-19-31.2
		c-1.3-0.2-2.6-0.3-3.8-0.3c-7.1,0-16.9,3.2-22.7,18.6c-2,5.5-3.3,11.2-3.7,17.1c-0.1,0.9,0.2,1.8,0.6,2.5
		C749.4,573.5,759.4,589.2,778,589.2z M774.9,541.3c1,0,1.9,0.1,2.9,0.2c8.5,1.2,13.5,13.7,13.4,24.6c0,7.3-2.7,15.4-9.8,16.3
		c-1.1,0.1-2.2,0.2-3.3,0.2c-13,0-21.1-10-22.9-12.7C755.5,565.3,758.6,541.3,774.9,541.3z"/>
	<path class="st3" d="M836,687c0.3-1.7,5.6-40.3-42.3-56.8c-38.7-13.3-57.7-30-73-43.5c-16.3-14.3-28-24.7-55.8-24.7
		s-39.5,10.4-55.8,24.7c-15.3,13.5-34.4,30.3-73,43.5c-48.2,16.6-42.4,56.4-42.3,56.8c0.1,0.7,0,1.4-0.2,2c2,8.9,5.6,17.4,10.5,25.1
		c23.6,36.7,77.7,55.4,160.8,55.4s137.3-18.7,160.8-55.5c4.9-7.7,8.4-16.1,10.5-25C835.9,688.4,835.9,687.7,836,687z"/>
	<path class="st3" d="M620.1,566.6c11.3-7.9,24.1-13.1,44.8-13.1s33.5,5.1,44.7,13.1c-0.5-11.7,4.7-24.1,9.7-36.2
		c6-14.4,12.2-29.3,9.2-42.8c-3-13.5-19.8-20.4-33.1-23.5c-10-2.2-20.3-3.3-30.6-3.3h-0.2c-10.2,0-20.4,1.1-30.3,3.3
		c-13.4,3.1-30,9.6-33.1,23.5c-3.1,13.9,3.2,28.4,9.2,42.8C615.4,542.6,620.6,555,620.1,566.6z"/>
	<path class="st3" d="M664.6,703.6c-12.7,2.4-19.1,9-21.7,12.7c6.7,3.9,14.3,5.9,22.1,5.9c11.2-0.2,21.8-4.9,29.5-13
		C685.5,703.9,674.9,701.9,664.6,703.6z"/>
	<path class="st3" d="M679.7,597.2c3.6,0,6.5-1.8,6.6-3.9v-0.2c0-2.2-3-4.1-6.6-4.1c-0.7,0-1.3,0.1-2,0.2c-2.5,0.5-4.6,2.1-4.6,3.9
		C673.1,595.3,676,597.2,679.7,597.2z"/>
	<path class="st3" d="M551.6,547.7c-2.5,0-4.7,3-4.7,6.6s2.1,6.6,4.7,6.6s4.7-3,4.7-6.6S554.2,547.7,551.6,547.7z"/>
	<path class="st3" d="M771.8,560.9c2.5,0,4.7-3,4.7-6.6s-2.1-6.6-4.7-6.6s-4.7,3-4.7,6.6S769.2,560.9,771.8,560.9z"/>
	<path class="st7" d="M552,541.5c-8.4,1.2-13.5,13.7-13.4,24.6c0,7.3,2.7,15.4,9.9,16.3c1.1,0.1,2.2,0.2,3.3,0.2l0,0
		c13,0,21.1-10,22.9-12.7c-0.5-4.7-3.6-28.7-19.8-28.7C553.9,541.2,552.9,541.3,552,541.5z M551.6,560.9c-2.5,0-4.7-3-4.7-6.6
		s2.1-6.6,4.7-6.6s4.7,3,4.7,6.6S554.2,560.9,551.6,560.9z"/>
	<path class="st7" d="M778,582.6c1.1,0,2.2-0.1,3.3-0.2c7.1-0.9,9.8-9,9.8-16.3c0.2-10.8-4.9-23.3-13.4-24.6
		c-0.9-0.2-1.9-0.2-2.9-0.2c-16.2,0-19.4,24-19.8,28.7C756.9,572.6,765,582.6,778,582.6z M771.8,547.7c2.5,0,4.7,3,4.7,6.6
		s-2.1,6.6-4.7,6.6s-4.7-3-4.7-6.6S769.2,547.7,771.8,547.7L771.8,547.7z"/>
	<path class="st7" d="M609.1,629.5c0-3.5,2.9-6.4,6.4-6.4c3.5,0,6.4,2.9,6.4,6.4c0,3.5-2.9,6.4-6.4,6.4S609.1,633.1,609.1,629.5
		C609.1,629.5,609.1,629.5,609.1,629.5z M634.8,654.6c3.5,0,6.4-2.9,6.4-6.4s-2.9-6.4-6.4-6.4c-3.5,0-6.4,2.9-6.4,6.4
		S631.3,654.6,634.8,654.6L634.8,654.6z M610.9,669.9c3.5,0,6.5-2.8,6.5-6.3c0-3.5-2.8-6.5-6.3-6.5c-3.5,0-6.4,2.8-6.5,6.3
		c0,3.5,2.8,6.4,6.3,6.4V669.9z M592.2,650.6c3.5,0,6.4-2.9,6.4-6.4c0-3.5-2.9-6.4-6.4-6.4c-3.5,0-6.4,2.9-6.4,6.4
		C585.8,647.8,588.7,650.6,592.2,650.6C592.2,650.6,592.2,650.6,592.2,650.6z"/>
	<path class="st7" d="M707.7,629.5c0-3.5,2.9-6.4,6.4-6.4c3.5,0,6.4,2.9,6.4,6.4c0,3.5-2.9,6.4-6.4,6.4S707.7,633.1,707.7,629.5
		C707.7,629.5,707.7,629.5,707.7,629.5z M688.6,648.1c0,3.5,2.9,6.4,6.4,6.4c3.5,0,6.4-2.9,6.4-6.4c0-3.5-2.9-6.4-6.4-6.4
		C691.4,641.7,688.6,644.5,688.6,648.1C688.6,648.1,688.6,648.1,688.6,648.1z M712.5,663.4c0,3.5,2.9,6.4,6.4,6.4
		c3.5,0,6.4-2.9,6.4-6.4c0-3.5-2.9-6.4-6.4-6.4c-3.5-0.1-6.5,2.8-6.5,6.3c0,0,0,0.1,0,0.1H712.5z M737.6,650.6
		c3.5,0,6.4-2.9,6.4-6.4c0-3.5-2.9-6.4-6.4-6.4c-3.5,0-6.4,2.9-6.4,6.4c0,3.5,2.8,6.4,6.3,6.4H737.6z"/>
	<path class="st7" d="M865.2,453.2c-2.1-13.9-4.4-28.3-3.7-40.7c0.1-2.5,0.3-5.2,0.6-8.1c1.7-22.9,4.3-57.5-19.5-71.3l-0.3-0.2
		c-16.9-7.9-33.1-8.1-47.8-0.7c-38.4,19.3-56.3,84.4-60.6,102.1c-22.6-5.2-45.8-7.7-69-7.5c-23.2-0.2-46.4,2.3-69.1,7.5
		c-4.3-17.8-22.2-82.8-60.6-102.1c-14.8-7.4-30.9-7.2-47.8,0.7l-0.3,0.2c-23.8,13.7-21.2,48.4-19.5,71.3c0.2,2.9,0.4,5.7,0.6,8.1
		c0.6,12.4-1.6,26.8-3.7,40.7c-2.7,17.6-5.5,35.7-2.7,50.9c3,16.9,12.3,28,28.4,34.4c-3.8,26.2-3,53,2.2,78.9
		c-3.8,9-22.7,58.6,4.5,101.1c25.2,39.4,81.7,59.4,168.1,59.4s142.8-20,168.1-59.4c27.2-42.4,8.3-92.1,4.5-101.1l0,0
		c0-0.3,0-0.6,0.2-0.9l0,0c0-0.4,0.2-0.7,0.2-1.1v-0.2c0-0.4,0.2-0.8,0.3-1.3v-0.2c0-0.5,0.2-1,0.3-1.5v-0.2c0-0.6,0.2-1.1,0.3-1.8
		l0,0c0-0.6,0.2-1.3,0.3-2l0,0c0-0.7,0.2-1.4,0.3-2.1V606c0-0.7,0.2-1.4,0.3-2.2c0-0.1,0-0.2,0-0.4l0.3-2.3v-0.4l0.3-2.5v-0.4
		c0.1-0.9,0.2-1.8,0.3-2.7v-0.3c0.2-1.9,0.4-3.9,0.5-6v-0.3c0-1,0-2,0.2-3v-0.4c0-1,0.1-2,0.2-3.1v-0.5c0-1,0-2.1,0.1-3.2v-0.5
		c0-1.1,0-2.2,0-3.3v-0.5c0-1.1,0-2.3,0-3.5v-0.3c0-1.2,0-2.4,0-3.6v-0.2c0-1.2,0-2.5,0-3.7c0,0,0-0.3,0-0.4c0-1.2,0-2.4-0.2-3.6
		c0-0.2,0-0.4,0-0.6l-0.2-3.6c0-0.2,0-0.4,0-0.6l-0.3-3.7v-0.6c0-1.2-0.3-2.5-0.4-3.7c0-0.2,0-0.3,0-0.5c-0.2-1.3-0.3-2.5-0.5-3.9
		v-0.2c-0.1-1-0.3-2-0.5-3c16.1-6.2,25.5-17.5,28.4-34.4C870.7,488.9,867.9,470.8,865.2,453.2z M752.2,553.3
		c5.9-15.3,15.6-18.6,22.7-18.6c1.3,0,2.6,0.1,3.8,0.3c12.1,1.8,19.2,17.3,19,31.2c-0.2,12.9-6.1,21.6-15.6,22.8
		c-1.4,0.2-2.7,0.3-4.1,0.3c-18.5,0-28.5-15.6-28.9-16.3c-0.5-0.8-0.7-1.7-0.6-2.5C749,564.5,750.2,558.7,752.2,553.3z M601.2,487.7
		c3.1-13.9,19.7-20.4,33.1-23.5c10-2.2,20.1-3.3,30.3-3.3h0.2c10.3,0,20.5,1.1,30.6,3.3c13.4,3.1,30.1,9.6,33.1,23.5
		s-3.2,28.4-9.2,42.8c-5.1,12.1-10.2,24.5-9.7,36.2c-11.3-7.9-24.1-13.1-44.7-13.1c-20.6,0-33.5,5.1-44.8,13.1
		c0.5-11.7-4.6-24.1-9.7-36.2C604.4,516,598.2,501.1,601.2,487.7z M577.5,553.3c2,5.5,3.3,11.2,3.8,17.1c0.1,0.9-0.2,1.8-0.6,2.5
		c-0.4,0.7-10.4,16.3-28.9,16.3l0,0c-1.4,0-2.8-0.1-4.1-0.3c-9.5-1.2-15.5-9.9-15.6-22.8c-0.2-13.9,6.9-29.4,19-31.2
		c1.3-0.2,2.5-0.3,3.8-0.3C562,534.7,571.7,537.9,577.5,553.3L577.5,553.3z M495,411.3c-2.1-17.2-4.5-36.6,10.8-42.5
		c2.6-1,5.4-1.6,8.3-1.6c22.9,0,37.1,35.9,37.7,37.5v0.3c8.7,28,3.7,35.5-5.5,44.3c-3.4,3-6.2,6.4-8.5,10.3
		c-5.4,9.9-14,22.9-25.8,22.9c-3.3-0.1-6.5-1-9.3-2.7c-12.9-7.6-10.4-23.8-8-39.4c0.4-2.8,0.9-5.7,1.2-8.6
		C496.5,424.9,496.2,418,495,411.3z M836.3,689c-2,8.9-5.6,17.3-10.5,25c-23.6,36.8-77.7,55.5-160.8,55.5s-137.2-18.6-160.8-55.4
		c-4.9-7.7-8.5-16.2-10.5-25.1c0.2-0.6,0.3-1.3,0.2-2c0-0.4-5.9-40.2,42.3-56.8c38.7-13.3,57.7-30,73-43.5
		c16.3-14.3,28-24.7,55.8-24.7c27.8,0,39.5,10.4,55.8,24.7c15.3,13.5,34.4,30.3,73,43.5c47.9,16.5,42.6,55.1,42.3,56.8
		C836,687.7,836,688.4,836.3,689z M826.9,479.7c-2.8,1.7-6,2.7-9.2,2.7c-11.8,0-20.4-13.1-25.8-22.9c-2.2-3.9-5.1-7.4-8.5-10.3
		c-9.2-8.9-14.2-16.2-5.5-44.3c0,0,0-0.2,0-0.3c0.6-1.5,14.8-37.5,37.7-37.5c2.8,0,5.6,0.5,8.3,1.6c15.3,5.9,13,25.5,10.8,42.5
		c-1.1,6.8-1.5,13.7-1.1,20.5c0.4,2.9,0.8,5.8,1.3,8.6c2.4,15.6,4.9,31.7-8,39.4H826.9z"/>
	<path class="st7" d="M781.5,691.2c-2.4,0-4.3,1.9-4.3,4.3c0,7.4-6.1,12.1-16,12.1H761c-14.5,1.1-28.5-7.6-42.1-16.3
		c-8.4-5.3-16.3-10.3-24.3-13c-20.1-6.7-25.5-16-25.5-20V622c5.6-1.3,10.8-3.8,15.3-7.3c7.1-5.4,11.2-12.1,11.2-18.4
		c0.1-6.5-4.2-12.2-10.4-13.9c-6.6-2.1-13.5-3.1-20.4-3.2h-0.2c-6.9,0-13.8,1.1-20.4,3.2c-6.2,1.7-10.5,7.5-10.4,13.9
		c0,6.2,4.1,12.9,11.2,18.4c4.5,3.5,9.7,6,15.3,7.3v36.3c0,4-5.4,13.3-25.5,20c-8.6,3.4-16.7,7.7-24.3,13
		c-13.5,8.6-27.6,17.5-42.1,16.3h-0.3c-9.9,0-16-4.6-16-12.1c0.2-2.4-1.6-4.4-3.9-4.6c-2.4-0.2-4.4,1.6-4.6,3.9c0,0.2,0,0.4,0,0.7
		c0,12.3,9.8,20.5,24.3,20.6c1,0,2,0.1,3,0.1c16.1,0,31-9.4,44.2-17.8l1.7-1.1c5.9,19.4,25.7,33.5,47.9,33.5
		c21.1-0.5,39.8-14.1,46.9-34l2.5,1.6c13.2,8.4,28,17.8,44.2,17.8c1,0,2,0,3-0.1c14.6,0,24.3-8.3,24.3-20.6
		C785.7,693.2,783.9,691.2,781.5,691.2z M677.7,589.1c0.7-0.1,1.3-0.2,2-0.2c3.7,0,6.6,1.8,6.6,4.1v0.2c-0.1,2.2-3,3.9-6.6,3.9
		c-3.6,0-6.6-1.8-6.6-4.1C673.1,591.2,675,589.7,677.7,589.1z M665,722.3c-7.8,0-15.4-2-22.1-5.9c2.5-3.8,8.9-10.4,21.7-12.7
		c10.3-1.7,20.9,0.3,29.8,5.6C686.8,717.4,676.2,722.1,665,722.3L665,722.3z"/>
	<path class="st7" d="M1151.6,778H209.4c-4.5,0-8.1-4.7-8.1-10.5s3.6-10.4,8.1-10.4h942.2c4.5,0,8.1,4.7,8.1,10.4
		S1156.1,778,1151.6,778z"/>
	<path class="st3" d="M488.6,712.9c44.7,70.1-8.4,85.9-8.4,85.9c-11.8,41.7-52.6,22.8-52.6,22.8c-34.4,14.1-51.6-22.9-51.6-22.9
		c-40.7,1.4-36.4-57.8-21.6-82.1C370.3,690.3,455.8,661.5,488.6,712.9z"/>
	<path class="st7" d="M495.4,708.6c-6.9-11-17-19.8-28.9-25.1c-11.2-4.9-23.4-7.4-35.7-7.2c-33.4,0-71.6,16.6-83.5,36.1
		c-6.3,11.3-10.1,23.7-11.2,36.6c-1.5,15.5,0.7,29.6,6.4,39.6c5.7,10.6,16.6,17.5,28.6,18.1c5.3,8.6,18.8,26.2,41.2,26.2l0,0
		c5.1,0,10.2-0.9,15.1-2.5c6.5,2.4,13.4,3.6,20.4,3.7c18.7,0,32.4-10.2,39-29.1c11.4-5,20.3-14.3,24.9-25.8
		C518.7,760.3,513.2,736.6,495.4,708.6z M496.5,773.3c-2.4,6.3-6.9,11.6-12.7,15c-2.5-4.7-5.5-9.1-9.2-13.1c-3.3-3-8.4-2.8-11.4,0.5
		c-2.9,3.2-2.8,8.1,0.2,11.1c3.1,3.7,5.7,7.9,7.8,12.3l0.2,0.4c-4.3,12.3-12,18.3-23.7,18.3c-4.1-0.1-8.1-0.7-12-1.9
		c0.3-5,0.2-9.9-0.2-14.9c-0.6-4.4-4.6-7.6-9.1-7c-4.4,0.6-7.6,4.6-7,9.1c0.3,4.2,0.3,8.5,0,12.7c-2.3,0.6-4.7,0.9-7.2,0.9l0,0
		c-13.7,0-22.9-11.3-26.8-17.5c3.2-5.1,6.7-12.4,5.1-18.6c-1.1-4.3-5.5-7-9.8-5.9c-4.2,1-6.8,5.1-6,9.4c-0.7,2.3-1.7,4.5-3.1,6.5
		c-6.5-0.3-12.3-4.1-15.3-9.8c-8.6-15.3-4.6-44.7,4.6-59.9c7.2-11.8,37.1-28.3,69.6-28.3c16,0,37.8,4.3,50.9,24.8
		C496.4,740.3,501.5,759.6,496.5,773.3L496.5,773.3z"/>
	<path class="st3" d="M843.1,712.9c-44.7,70.1,8.4,85.9,8.4,85.9c11.8,41.7,52.6,22.8,52.6,22.8c34.4,14.1,51.6-22.9,51.6-22.9
		c40.7,1.4,36.3-57.8,21.6-82.1C961.4,690.3,875.9,661.5,843.1,712.9z"/>
	<path class="st7" d="M995.5,749.1c-1.1-12.9-5-25.3-11.2-36.6c-11.9-19.6-50.1-36.1-83.5-36.1c-12.3-0.2-24.4,2.3-35.7,7.2
		c-11.9,5.3-21.9,14.1-28.9,25.1c-17.8,28-23.2,51.7-16.2,70.5c4.5,11.6,13.5,20.8,24.9,25.8c6.6,18.8,20.4,29.1,39,29.1
		c7-0.1,13.8-1.4,20.4-3.7c4.8,1.7,9.9,2.5,15.1,2.5l0,0c22.5,0,36-17.6,41.2-26.2c12-0.6,22.8-7.4,28.5-18
		C994.8,778.7,997,764.6,995.5,749.1z M975.1,780.7c-3,5.7-8.8,9.5-15.3,9.8c-1.4-2-2.4-4.2-3.1-6.5c0.8-4.4-2.1-8.6-6.5-9.5
		c-4.2-0.8-8.3,1.8-9.4,6c-1.6,6.2,1.9,13.5,5.1,18.6c-4,6.2-13.1,17.5-26.8,17.5l0,0c-2.4,0-4.8-0.3-7.2-0.9
		c-0.3-4.2-0.3-8.5,0-12.7c0.6-4.4-2.6-8.5-7-9.1c-4.4-0.6-8.5,2.6-9.1,7c-0.4,5-0.4,9.9-0.2,14.9c-3.9,1.2-8,1.8-12,1.9
		c-11.7,0-19.4-6-23.7-18.3l0.2-0.4c2.1-4.4,4.7-8.5,7.8-12.3c3.1-3.2,3.1-8.3-0.1-11.5c-3.1-3-8-3.1-11.1-0.2
		c-3.6,3.9-6.7,8.3-9.2,13.1c-5.8-3.4-10.3-8.7-12.7-15c-5.1-13.6,0-33.1,14.7-56c13-20.4,34.8-24.8,50.9-24.8
		c32.5,0,62.5,16.5,69.7,28.3c9.3,15.3,13.3,44.7,4.7,60H975.1z"/>
</g>
</svg>
