<?xml version="1.0" encoding="utf-8"?>
<!-- Generator: Adobe Illustrator 24.0.0, SVG Export Plug-In . SVG Version: 6.00 Build 0)  -->
<svg version="1.1" id="Layer_1" xmlns="http://www.w3.org/2000/svg" xmlns:xlink="http://www.w3.org/1999/xlink" x="0px" y="0px"
	 viewBox="0 0 1200 1200" style="enable-background:new 0 0 1200 1200;" xml:space="preserve">
<style type="text/css">
	.st0{fill:#BE9A71;}
	.st1{fill:#D9A993;}
	.st2{fill:#683A32;}
	.st3{fill:#FFFFFF;}
	.st4{fill:#F78C8B;}
	.st5{fill:#1D1D1B;}
	.st6{fill:#FDAC49;}
	.st7{fill:#191919;}
	.st8{fill:#333333;}
	.st9{fill:#14192C;}
	.st10{fill:#3E3D4F;}
	.st11{fill:#A15225;}
	.st12{fill:#895834;}
	.st13{fill:#1A0A14;}
	.st14{fill:#672E28;}
	.st15{fill:#111B1D;}
	.st16{fill:#EBEBEB;}
	.st17{fill:#494859;}
	.st18{fill:#2F2627;}
	.st19{fill:#C7B6AC;}
	.st20{fill:#E2D9D4;}
	.st21{fill:#D6CDCA;}
	.st22{fill:#674043;}
	.st23{fill:#3D3834;}
	.st24{fill:#E4DACE;}
	.st25{fill:#554E46;}
	.st26{fill:#E8E8E8;}
	.st27{fill:#AEE9FA;}
	.st28{fill:#4D4D4D;}
	.st29{fill:#FDFDFD;}
	.st30{fill:#FAAF5E;}
	.st31{fill:#F8FCFC;}
	.st32{fill:#DBCFB5;}
	.st33{fill:#6D6D6D;}
	.st34{fill:#C69C6D;}
	.st35{fill:#F0B965;}
	.st36{fill:#DA7B45;}
	.st37{fill:#FAE7D6;}
	.st38{fill:#FDF8F2;}
	.st39{fill:#E2C4AA;}
	.st40{fill:#BC8571;}
	.st41{fill:#2F322A;}
	.st42{fill:#444741;}
	.st43{fill:#46282D;}
	.st44{fill:#986858;}
	.st45{fill:#F0C7A2;}
	.st46{fill:#FCE9C8;}
	.st47{fill:#808080;}
	.st48{fill:#4E4E4E;}
	.st49{fill:#E8CBA9;}
	.st50{fill:#956B50;}
</style>
<g>
	<path class="st27" d="M478.5,631.2c2.7-0.5,5.7-0.9,9-1.4c3.9-0.6,8.3-1.2,12.8-1.7c10.4-1.3,22.1-2.5,33.9-3.5l11-0.9
		c12.2-0.9,24-1.6,34.1-1.8h3.2v-21.6c0-2.2,1.8-4.1,4.1-4.1c0,0,0,0,0,0h0.7c1.9,0.3,3.4,2,3.4,4v21.6c8.5,0,18.8,0.6,30,1.4
		l7.2,0.5l2.9,0.2l8.1,0.7c4.6,0.4,9.2,0.9,13.8,1.3c2.2,0.1,4,2,3.8,4.3c-0.1,2.2-2,4-4.3,3.8h-0.4c-11.5-1.2-23-2.1-33.6-2.8
		l-6.7-0.4l-4.4-0.2l-6.7-0.3c-4.6-0.2-9-0.3-12.9-0.3h-1.6c-2.1,0-4.3,0-6.6,0c-4.2,0-8.7,0.3-13.4,0.5c-3.6,0.2-7.3,0.4-11.1,0.6
		c-21.5,1.4-45.4,3.8-63,6.3c-3.9,0.6-7.5,1.1-10.7,1.6l-2,0.3l0.2,3l1,14.5v0.6l-1,14.5h0.2c8.1,1.2,19.4,2.6,32.2,3.8
		c2.2,0.2,3.9,2.2,3.6,4.5c-0.2,2.1-1.9,3.6-4,3.6h-0.4c-12.8-1.2-24-2.6-32.2-3.8l-1.4,20.3c33.7,12.5,69.2,19.4,105.1,20.6v-19.1
		c-0.2-2.2,1.5-4.2,3.8-4.4c2.2-0.2,4.2,1.5,4.4,3.8c0,0.2,0,0.4,0,0.6v19.1c35.5-1.2,70.6-8.1,103.9-20.5l-1.4-20.3
		c-20.4,3.1-58.7,6.5-88.3,7.7c-6.9,0.3-13.2,0.4-18.8,0.4c-8.5,0-19.3-0.4-31.3-1c-6.4-0.4-13.2-0.8-20.2-1.3
		c-2.2-0.2-3.9-2.2-3.7-4.4c0.2-2.2,2.1-3.8,4.3-3.7c12,0.9,23.3,1.6,33.1,2c6.7,0.3,12.7,0.4,17.8,0.4h1.1c2.3,0,4.8,0,7.4-0.1
		c13.3-0.3,29.4-1.2,45.2-2.4c20.4-1.6,40.3-3.7,52.8-5.6V671l-1-13.6v-0.6l1.2-16.5v-0.9l-0.6-0.1c-3.2-0.6-6.7-1.1-10.7-1.7
		c-4-0.6-8.1-0.9-12.7-1.6c-2.2-0.4-3.7-2.5-3.3-4.7c0.4-2.1,2.2-3.5,4.3-3.4l3.3,0.4c4.6,0.6,9,1.2,12.8,1.8
		c2.8,0.4,5.3,0.8,7.6,1.2l1.2-17.5c-13.4-5.4-27.1-10.1-41-13.9l-1.7-0.5c-2.8-0.8-5.8-1.5-8.7-2.3l-6.3-1.5
		c-9.5-2.1-19-3.8-28.6-4.9c-7.3-0.9-14.7-1.3-22.1-1.4c-8.3,0-16.6,0.6-24.9,1.7c-8.3,1.1-16.5,2.6-24.4,4.3l-6.5,1.5
		c-2.8,0.7-5.6,1.4-8.4,2.1l-1.9,0.5c-14.4,3.9-28.6,8.7-42.5,14.3L478.5,631.2z M590.4,668.3c0,1.5-0.9,3-2.3,3.6
		c-0.5,0.2-1,0.4-1.5,0.4h-0.3c-0.3,0-0.7-0.1-1-0.1c-1.8-0.4-3.1-2.1-3.1-3.9V644c0-2.2,1.8-4.1,4.1-4.1c0,0,0,0,0,0
		c0.3,0,0.7,0,1,0.1c1.8,0.5,3,2.1,3,3.9L590.4,668.3z"/>
	<path class="st3" d="M493.1,561.9c2.3,0,4,2.8,4,6.2s-1.8,6.2-4,6.2s-4-2.8-4-6.2C489.1,564.7,490.9,561.9,493.1,561.9z
		 M529.9,549.8c-2.8-13.5-5.4-26.3-2.3-45.6c7.1-43.9,54.1-44.6,57-44.6l0,0c9.6,0.3,19.1,2.2,28.1,5.7c18.5,7.3,29.5,20.5,32.4,39
		c3.1,19.4,0.5,32.2-2.3,45.6c-0.8,3.9-1.6,8-2.3,12.2c-1.4,8.5-1.4,17.1,0,25.6c-0.6-0.7-1.2-1.3-1.7-2
		c-13-16.4-32.7-26.1-53.6-26.4h-0.9c-8.2,0.4-30.1,1.5-50.3,26.4c-0.6,0.7-1.1,1.3-1.7,2c1.4-8.5,1.4-17.1,0-25.6
		C531.5,557.7,530.6,553.7,529.9,549.8L529.9,549.8z M559.2,551.7c0.7,1.5,2.1,2.4,3.7,2.4c0.6,0,1.2-0.1,1.7-0.4
		c6.8-3.1,14.2-4.7,21.7-4.6l0,0c7.5-0.1,14.9,1.5,21.7,4.6c0.5,0.2,1.1,0.4,1.7,0.4c2.2,0,4.1-1.9,4-4.1c0-1.6-0.9-3-2.4-3.7
		c-7.8-3.6-16.4-5.4-25-5.3h-0.1c-8.6-0.1-17.1,1.7-25,5.3C559.1,547.2,558.2,549.6,559.2,551.7
		C559.1,551.7,559.1,551.7,559.2,551.7L559.2,551.7z M584.7,567.2c-6.6,0.3-23,1.2-39.3,17.7c13.3-2.5,26.8-3.9,40.4-4
		c14,0.1,28,1.5,41.8,4.2c-11.4-11.3-26.7-17.8-42.7-18H584.7z M679.6,574.4c2.3,0,4.1-2.8,4.1-6.2c0-3.5-1.8-6.2-4.1-6.2
		s-4,2.8-4,6.2C675.6,571.6,677.5,574.4,679.6,574.4z M665.5,582.1c0,0-2.6-27.5,14.2-31c22.1-4.6,21.4,37.8,10.7,42.6
		C674.3,600.7,665.5,582.1,665.5,582.1L665.5,582.1z M670.3,580.7c1.4,2.3,6.1,9.6,12.9,9.6c1.8,0,3.5-0.4,5.1-1.2
		c2.6-1.2,5.9-12.2,3.7-22.8c-1-4.9-3.5-10.8-9.1-10.8c-0.8,0-1.5,0.1-2.3,0.3C669.9,558.1,670.1,576.4,670.3,580.7L670.3,580.7z
		 M469.1,688.9c-0.6-2.2-2.8-3.5-4.9-2.9l-11.9,3c-2.2,0.6-3.5,2.8-2.9,5c0.5,1.8,2.1,3,3.9,3c0.3,0,0.7,0,1-0.1l11.9-3
		C468.3,693.3,469.6,691.1,469.1,688.9C469.1,688.8,469.1,688.8,469.1,688.9L469.1,688.9z M705.1,630.2l6.9,0.9h0.6
		c2,0,3.8-1.5,4-3.5c0.1-0.5,0.1-1,0-1.4c-0.2-0.8-0.6-1.5-1.2-2.1c-0.6-0.6-1.4-1-2.3-1.1l-4.4-0.6l-2.5-0.3H706
		c-2-0.2-3.8,1-4.3,2.9c-0.1,0.2-0.1,0.4-0.1,0.6c0,0.4,0,0.7,0,1.1C701.8,628.5,703.2,630,705.1,630.2z M719.5,688.8l-12.1-3
		c-2.2-0.5-4.4,0.8-4.9,2.9c-0.4,1.7,0.3,3.5,1.8,4.4c0.4,0.2,0.8,0.4,1.2,0.5l11.9,3c0.3,0.1,0.7,0.1,1,0.1h0.1
		c2.2-0.1,4-2,3.9-4.3c-0.1-1.8-1.3-3.3-3-3.8H719.5z M729.8,437l0.2-1c1.9-9.7,5.2-25.9-1.8-35.9c-3.2-4.5-8.1-7.4-13.5-8
		c-1.1-0.2-2.3-0.2-3.4-0.3c-20.3,0-31.8,28.8-34.5,48.2c-2.3,15.6,1.7,25.9,12.8,33.6c3.1,2.1,5.9,6.5,8.7,10.7
		c4.6,7.1,9.7,15.1,18.2,15.1c1.1,0,2.3-0.1,3.4-0.4c3.4-0.8,6.3-3,8.1-6.1c5-8.5,1.5-22.5,0.9-24.7c-2.6-11.9-1.4-19.7,0.9-31.1
		L729.8,437z M465.8,622.1h-0.4l-5.4,0.8h-0.6c-2.1,0.3-3.6,2.1-3.5,4.2c0,0.1,0,0.3,0,0.4c0.3,2,2,3.5,4,3.5h0.6l6-0.8
		c2.2-0.2,3.9-2.2,3.7-4.4S468,621.9,465.8,622.1L465.8,622.1z M456.5,499.3L456.5,499.3c8.5,0,13.6-8,18.2-15.1
		c2.7-4.2,5.6-8.6,8.7-10.7c11.1-7.6,15.1-18,12.8-33.6c-2.8-19.4-14.2-48.2-34.5-48.2c-1.1,0-2.3,0.1-3.4,0.3
		c-5.4,0.6-10.4,3.5-13.6,8c-6.9,10-3.7,26.2-1.7,35.9l0.2,1c2.3,11.4,3.5,19.1,1,31.1c-0.6,2.3-4.1,16.1,0.9,24.7
		c1.7,3.1,4.7,5.3,8.1,6.1c1,0.3,2.1,0.4,3.2,0.4L456.5,499.3z M493.2,551c16.8,3.6,14.2,31,14.2,31s-8.9,18.6-24.8,11.5
		c-11-4.8-11.6-47.2,10.5-42.6H493.2z M492.2,555.8c-0.8-0.2-1.5-0.2-2.3-0.3c-5.6,0-8,5.8-9.1,10.8c-2.3,10.6,1.1,21.6,3.7,22.8
		c1.6,0.7,3.3,1.1,5.1,1.2l0,0c6.9,0,11.5-7.2,12.9-9.6c0-4.3,0.3-22.6-10.5-24.9L492.2,555.8z M700.2,706.7
		c-54.2,21.6-108,22.3-114,22.3h-0.8c-6,0-59.8-0.6-113.9-22.3c-1.6-0.6-2.6-2.1-2.6-3.8c-3.2,3.1-6.9,5.8-10.9,7.8
		c20.7,27.5,60.6,23.6,76.4,22.1c2.1-0.2,3.7-0.4,5-0.4c5.1-0.1,10.2,0.9,14.9,2.9c20.7,7.4,43.3,7.4,64,0c4.7-2,9.8-3,14.9-2.9
		c1.3,0,2.9,0.2,5,0.4c15.7,1.5,55.2,5.3,75.9-21.7c-4.3-2.1-8.3-4.9-11.7-8.2c0.1,1.7-0.9,3.2-2.5,3.9H700.2z"/>
	<path class="st7" d="M749.5,439.3l0.3-1.7c3.7-23.5,8.9-55.7-24-68.7c-12.3-4.7-26.2-3.2-37.3,4.1c-21.3,13.1-36.3,42.7-40.6,79.6
		c-13.2-3.7-32.4-6.9-59.8-6.9c-0.6,0-1.2,0.1-1.7,0.4c-0.5-0.3-1.1-0.4-1.7-0.4c-27.4,0-46.7,3.2-59.8,6.9
		c-4.3-36.8-19.3-66.5-40.6-79.6c-11-7.3-24.9-8.8-37.3-4.1c-32.9,13-27.8,45.2-24,68.7l0.3,1.7c2.3,13.8,0.9,25.9-0.3,36.5
		c-1.5,13.5-2.8,25.3,3.2,37c6.7,13.2,19.6,15.2,26.2,15.3c-7.6,28.7-8.2,58.9-1.6,87.8l-3.2,0.4c-2.2,0.3-3.8,2.4-3.4,4.6
		c0.3,2,2,3.4,4,3.5l0,0c-6.9,13.2-18.5,42.8-5.2,75.3l-0.7,0.2c-2.2,0.6-3.5,2.8-2.9,5c0.5,1.8,2.1,3,3.9,3c0.3,0,0.7,0,1-0.1
		l2.2-0.5c5.5,10.5,13.9,19.1,24.3,24.8h0.1l0,0c6.6,3.3,13.6,5.6,20.9,6.7c4.3,0.6,8.5,2,12.8,2.6c2.3,0.3,4.6,0.4,6.9,0.4
		c8,0.1,16-0.2,23.9-1.1c1.9-0.2,3.5-0.3,4.6-0.4c4.1,0,8.1,0.8,11.9,2.4c10.3,3.8,21.1,5.8,32.1,5.9c0.3,0,0.6,0,0.9,0h3.4
		c0.3,0,0.6,0,0.9,0c11-0.2,21.8-2.2,32.1-5.9c3.7-1.6,7.8-2.4,11.9-2.4c1.2,0,2.7,0.2,4.6,0.4c11.8,1.1,35.9,3.5,57.4-5.3
		c3.3-1.9,6.7-3.6,10.2-5.2c9.1-5.7,16.4-13.7,21.4-23.2l2.3,0.5c0.3,0.1,0.7,0.1,1,0.1c2.2,0,4-1.9,4-4.1c0-1.8-1.3-3.4-3-3.9
		l-0.7-0.2c13.3-32.7,1.6-62.4-5.3-75.5c2.2-0.6,3.5-2.8,2.9-4.9c-0.4-1.6-1.8-2.8-3.4-3l-2-0.3c6.6-29,6.1-59.2-1.6-88
		c6.5-0.1,19.5-2.1,26.1-15.3c6-11.8,4.6-23.5,3.2-37C748.6,465.2,747.3,453.2,749.5,439.3z M679.6,551
		c22.1-4.6,21.4,37.8,10.7,42.6c-16,7.1-24.8-11.5-24.8-11.5S662.8,554.6,679.6,551L679.6,551z M527.5,504.1
		c7.1-43.9,54.1-44.6,57-44.6l0,0c9.6,0.3,19.1,2.2,28.1,5.7c18.5,7.3,29.5,20.5,32.4,39c3.1,19.4,0.5,32.2-2.3,45.6
		c-0.8,3.9-1.6,8-2.3,12.2c-1.4,8.5-1.4,17.1,0,25.6c-0.6-0.7-1.2-1.3-1.7-2c-13-16.4-32.7-26.1-53.6-26.4h-0.9
		c-8.2,0.4-30.1,1.5-50.3,26.4c-0.6,0.7-1.1,1.3-1.7,2c1.4-8.5,1.4-17.1,0-25.6c-0.7-4.2-1.5-8.3-2.3-12.2
		C527.1,536.2,524.4,523.5,527.5,504.1L527.5,504.1z M627.5,585.2c-13.8-2.7-27.7-4.1-41.8-4.2c-13.6,0.1-27.1,1.5-40.4,4
		c16.3-16.5,32.7-17.4,39.3-17.7h0.2C600.8,567.4,616.2,573.8,627.5,585.2L627.5,585.2z M521.7,598.7c2.7-0.7,5.5-1.4,8.4-2.1
		l6.5-1.5c7.8-1.7,16.1-3.2,24.4-4.3c8.3-1.1,16.6-1.7,24.9-1.7c7.4,0,14.8,0.5,22.1,1.4c9.6,1.2,19.2,2.8,28.6,5l6.3,1.5
		c3,0.7,5.9,1.5,8.7,2.3l1.7,0.5c13.9,3.9,27.6,8.6,41,14l-1.2,17.5c-2.3-0.4-4.8-0.8-7.6-1.2c-3.9-0.6-8.2-1.2-12.8-1.8l-3.3-0.4
		c-2.2-0.2-4.2,1.5-4.4,3.8c-0.2,2.1,1.3,4,3.4,4.3c4.6,0.6,8.9,1.1,12.8,1.7c3.9,0.6,7.6,1.1,10.7,1.7l0.6,0.1v0.9l-1.2,16.5v0.6
		l1,13.6v0.8c-12.5,1.9-32.4,4-52.8,5.6c-15.8,1.2-31.9,2.1-45.2,2.4c-2.6,0-5.1,0-7.4,0.1h-1.1c-5.2,0-11.2-0.1-17.8-0.4
		c-9.9-0.4-21.1-1.1-33.1-2c-2.2-0.1-4.2,1.6-4.3,3.8c-0.1,2.2,1.5,4.1,3.7,4.3c6.9,0.5,13.8,1,20.2,1.3c12.1,0.7,22.9,1,31.3,1
		c5.6,0,11.9-0.2,18.8-0.4c29.6-1.2,67.9-4.6,88.3-7.7l1.4,20.3c-33.3,12.4-68.4,19.3-103.9,20.5v-19.1c0.2-2.2-1.5-4.2-3.8-4.4
		c-2.2-0.2-4.2,1.5-4.4,3.8c0,0.2,0,0.4,0,0.6v19.1c-35.9-1.1-71.4-8.1-105.1-20.6l1.4-20.3c8.3,1.2,19.5,2.6,32.2,3.8h0.4
		c2.2,0.1,4.2-1.6,4.3-3.8s-1.6-4.2-3.8-4.3l0,0c-12.9-1.2-24.1-2.6-32.2-3.8h-0.2l1-14.5v-0.6l-1-14.5l-0.2-3l2-0.3
		c3.2-0.5,6.8-1.1,10.7-1.6c17.6-2.5,41.4-4.9,63-6.3c3.8-0.2,7.5-0.5,11.1-0.6c4.6-0.2,9.2-0.4,13.4-0.5c2.3,0,4.6,0,6.6,0h1.6
		c3.9,0,8.2,0,12.9,0.3l6.7,0.3l4.4,0.2l6.7,0.4c10.6,0.7,22,1.7,33.6,2.8h0.3c2.2,0.1,4.1-1.6,4.3-3.8c0.1-2.2-1.6-4.1-3.8-4.3
		c-4.6-0.5-9.3-0.9-13.8-1.3l-8.1-0.7l-2.9-0.2l-7.2-0.5c-11.2-0.8-21.5-1.2-30-1.4v-21.6c0-2-1.4-3.7-3.4-4h-0.7
		c-2.2,0-4.1,1.8-4.1,4c0,0,0,0,0,0v21.6h-3.2c-10,0.2-21.9,0.9-34.1,1.8l-11,0.9c-11.8,1-23.5,2.3-33.9,3.5
		c-4.6,0.6-8.9,1.2-12.8,1.7c-3.3,0.5-6.3,0.9-9,1.4l-1.2-17.5c13.9-5.6,28.1-10.4,42.5-14.4L521.7,598.7z M507.2,582.1
		c0,0-8.9,18.6-24.8,11.5c-10.8-4.8-11.5-47.2,10.6-42.6C509.9,554.6,507.2,582.1,507.2,582.1z M445,492.8c-5-8.5-1.5-22.5-0.9-24.7
		c2.4-11.9,1.2-19.7-1-31.1l-0.2-1c-2-9.7-5.2-25.9,1.7-35.9c3.2-4.5,8.1-7.4,13.6-8c1.1-0.2,2.3-0.2,3.4-0.3
		c20.3,0,31.8,28.8,34.5,48.2c2.3,15.6-1.7,25.9-12.8,33.6c-3.1,2.1-5.9,6.5-8.7,10.7c-4.6,7.1-9.7,15.1-18.2,15.1l0,0
		c-1.1,0-2.3-0.1-3.4-0.4C449.7,498,446.8,495.8,445,492.8z M466.5,630.2l-6,0.8H460c-2,0-3.8-1.5-4-3.5c0-0.1,0-0.3,0-0.4
		c-0.1-2.1,1.4-3.9,3.5-4.2h0.6l5.4-0.8h0.3c2.2-0.2,4.2,1.4,4.4,3.7S468.7,630,466.5,630.2L466.5,630.2z M454.2,696.7
		c-0.3,0.1-0.7,0.1-1,0.1c-2.2,0-4-1.9-4-4.1c0-1.8,1.3-3.4,3-3.9l11.9-3c2.2-0.6,4.4,0.6,5.1,2.7c0.6,2.2-0.6,4.4-2.7,5.1
		c-0.1,0-0.2,0.1-0.4,0.1L454.2,696.7z M638.4,732.7c-2.1-0.2-3.7-0.4-5-0.4c-5.1-0.1-10.2,0.9-14.9,2.9c-20.7,7.4-43.3,7.4-64,0
		c-4.7-2-9.8-3-14.9-2.9c-1.3,0-2.9,0.2-5,0.4c-15.8,1.5-55.6,5.4-76.4-22.1c4-2,7.7-4.6,10.9-7.8c0,1.7,1,3.2,2.6,3.8
		c54.2,21.6,108,22.3,113.9,22.3h0.7c6,0,59.8-0.6,114-22.3c1.6-0.6,2.6-2.2,2.5-3.9c3.4,3.4,7.4,6.2,11.7,8.2
		C693.6,738.1,654,734.3,638.4,732.7z M701.5,625.6c0-0.2,0.1-0.4,0.1-0.6c0.5-1.9,2.3-3.1,4.3-2.9h0.2l2.5,0.4l4.4,0.6
		c0.9,0.1,1.7,0.5,2.3,1.1c0.6,0.6,1,1.3,1.2,2.1c0.1,0.5,0.1,1,0,1.4c-0.3,2-2,3.5-4,3.5H712l-6.9-0.9c-1.8-0.3-3.2-1.7-3.5-3.5
		C701.5,626.4,701.5,626,701.5,625.6L701.5,625.6z M722.3,693.8c-0.4,1.8-2,3-3.8,3.1h-0.1c-0.3,0-0.7,0-1-0.1l-11.9-3
		c-0.4-0.1-0.8-0.3-1.2-0.5c-1.9-1.2-2.5-3.7-1.3-5.6c0.9-1.5,2.7-2.2,4.4-1.8l11.9,3C721.5,689.3,722.8,691.5,722.3,693.8
		C722.3,693.7,722.3,693.7,722.3,693.8L722.3,693.8z M728.6,468c0.6,2.3,4.1,16.1-0.9,24.7c-1.7,3.1-4.7,5.3-8.1,6.1
		c-1.1,0.3-2.3,0.4-3.4,0.4c-8.5,0-13.6-8-18.2-15.1c-2.7-4.2-5.5-8.6-8.7-10.7c-11.1-7.6-15.1-18-12.8-33.6
		c2.8-19.4,14.2-48.2,34.5-48.2c1.1,0,2.3,0.1,3.4,0.3c5.4,0.6,10.3,3.5,13.5,8c6.9,10,3.7,26.2,1.8,35.9l-0.2,1
		C727.5,448.3,726.2,456.1,728.6,468L728.6,468z"/>
	<path class="st7" d="M489.8,555.6c-5.6,0-8,5.8-9.1,10.8c-2.3,10.6,1,21.6,3.7,22.8c1.6,0.7,3.3,1.1,5.1,1.2l0,0
		c6.9,0,11.5-7.2,12.9-9.6c0.2-4.3,0.4-22.6-10.4-24.9C491.3,555.7,490.6,555.6,489.8,555.6z M497.1,568.1c0,3.5-1.8,6.2-4,6.2
		s-4-2.8-4-6.2c0-3.5,1.8-6.2,4-6.2S497.1,564.7,497.1,568.1L497.1,568.1z"/>
	<path class="st7" d="M562.8,554.1c0.6,0,1.2-0.1,1.7-0.4c6.8-3.1,14.2-4.7,21.7-4.6l0,0c7.5-0.1,14.9,1.5,21.7,4.6
		c0.5,0.2,1.1,0.4,1.7,0.4c2.2,0,4.1-1.9,4-4.1c0-1.6-0.9-3-2.4-3.7c-7.8-3.6-16.4-5.4-25-5.3H586c-8.6-0.1-17.1,1.7-25,5.3
		c-2,0.9-2.9,3.4-2,5.4c0.7,1.4,2.1,2.4,3.7,2.4H562.8z"/>
	<path class="st7" d="M683.2,590.3c1.8,0,3.5-0.4,5.1-1.2c2.6-1.2,5.9-12.2,3.7-22.8c-1-4.9-3.5-10.8-9.1-10.8
		c-0.8,0-1.5,0.1-2.3,0.3c-10.8,2.3-10.6,20.6-10.4,24.9C671.6,583.1,676.3,590.3,683.2,590.3z M679.6,561.9c2.3,0,4.1,2.8,4.1,6.2
		c0,3.4-1.8,6.2-4.1,6.2s-4-2.8-4-6.2C675.6,564.7,677.5,561.9,679.6,561.9L679.6,561.9z"/>
	<path class="st7" d="M587.4,640.1c-0.3-0.1-0.7-0.1-1-0.1c-2.2,0-4.1,1.8-4.1,4c0,0,0,0,0,0v24.3c0,1.9,1.3,3.5,3.1,3.9
		c0.3,0.1,0.6,0.1,1,0.1h0.3c0.5,0,1-0.2,1.5-0.4c1.4-0.7,2.3-2.1,2.3-3.6V644C590.5,642.1,589.2,640.5,587.4,640.1z"/>
	<path class="st7" d="M1029.1,751.2H170.9c-4.1,0-7.4-4.3-7.4-9.5s3.3-9.5,7.4-9.5h858.2c4.1,0,7.4,4.3,7.4,9.5
		C1036.5,746.9,1033.2,751.2,1029.1,751.2z"/>
	<path class="st3" d="M425.2,692c40.7,64-7.6,78.2-7.6,78.2c-10.8,38-48,20.7-48,20.7c-31.3,12.8-47-20.9-47-20.9
		c-37.2,1.3-33.1-52.7-19.7-74.7C317.5,671.3,395.3,645.1,425.2,692z"/>
	<path class="st7" d="M431.4,688c-6.3-10-15.5-18-26.3-22.9c-10.2-4.5-21.3-6.7-32.4-6.5c-30.4,0-65.2,15.1-76.1,32.9
		c-5.7,10.3-9.2,21.6-10.2,33.3c-1.4,14.2,0.6,27,5.8,36.1c5.2,9.7,15.1,15.9,26.1,16.5c4.8,7.8,17.1,23.8,37.5,23.8l0,0
		c4.7,0,9.4-0.8,13.8-2.3c5.9,2.1,12.1,3.3,18.4,3.4c17,0,29.5-9.3,35.5-26.4c10.4-4.5,18.5-13,22.6-23.5
		C452.6,735.1,447.6,713.5,431.4,688z M432.4,747c-2.2,5.7-6.2,10.5-11.5,13.6c-2.2-4.3-5-8.3-8.3-11.9c-3-2.7-7.7-2.4-10.4,0.6
		c-2.6,2.9-2.5,7.2,0.2,10c2.8,3.4,5.2,7.2,7.1,11.2l0.2,0.4c-3.9,11.2-11,16.6-21.6,16.6c-3.7,0-7.4-0.6-11-1.7
		c0.3-4.5,0.2-9.1-0.2-13.6c-0.5-4-4.2-6.9-8.2-6.4c-4,0.5-6.9,4.2-6.4,8.2c0.2,3.8,0.2,7.7,0,11.5c-2.1,0.6-4.3,0.8-6.5,0.9l0,0
		c-12.5,0-20.7-10.3-24.4-15.9c2.9-4.6,6.1-11.3,4.6-17c-0.9-4-4.8-6.5-8.8-5.6c-4,0.9-6.5,4.8-5.6,8.8c-0.6,2.1-1.6,4.1-2.8,5.9
		c-5.8-0.4-11.1-3.7-13.8-8.9c-7.8-13.8-4.2-40.7,4.2-54.5c6.5-10.8,33.8-25.8,63.4-25.8c14.6,0,34.5,3.9,46.3,22.6
		C432.3,716.9,436.9,734.5,432.4,747z"/>
	<path class="st3" d="M748.1,692c-40.7,64,7.6,78.2,7.6,78.2c10.7,38,47.9,20.7,47.9,20.7c31.3,12.8,47-20.9,47-20.9
		c37.2,1.3,33.1-52.7,19.7-74.7C855.8,671.3,778,645.1,748.1,692z"/>
	<path class="st7" d="M886.9,724.9c-1-11.7-4.5-23.1-10.2-33.3c-10.8-17.9-45.6-32.9-76.1-32.9c-11.2-0.2-22.2,2.1-32.4,6.5
		c-10.8,4.9-19.9,12.8-26.3,22.9c-16.1,25.5-21.2,47.1-14.8,64.2c4.1,10.5,12.3,19,22.6,23.5c5.9,17.2,18.5,26.4,35.5,26.4
		c6.3-0.1,12.6-1.2,18.5-3.4c4.4,1.5,9.1,2.3,13.8,2.3l0,0c20.5,0,32.7-16,37.5-23.8c11-0.5,20.9-6.8,26.1-16.5
		C886.3,751.9,888.3,739,886.9,724.9z M868.3,753.7c-2.7,5.2-8,8.6-13.8,8.9c-1.2-1.8-2.2-3.8-2.8-5.9c0.9-4-1.6-7.9-5.6-8.8
		c-4-0.9-7.9,1.6-8.8,5.6c-1.4,5.7,1.7,12.3,4.6,17c-3.6,5.6-11.9,15.9-24.4,15.9l0,0c-2.2,0-4.4-0.3-6.5-0.9
		c-0.2-3.8-0.2-7.7,0-11.5c0.5-4-2.3-7.7-6.4-8.2c-4-0.5-7.7,2.3-8.2,6.4c-0.4,4.5-0.4,9.1-0.2,13.6c-3.6,1.1-7.2,1.6-11,1.7
		c-10.6,0-17.7-5.5-21.6-16.6l0.2-0.4c1.9-4,4.3-7.8,7.1-11.2c2.8-3,2.7-7.6-0.3-10.4c-2.8-2.6-7.1-2.7-10-0.2
		c-3.3,3.6-6.1,7.6-8.3,11.9c-5.3-3.1-9.3-7.9-11.5-13.6c-4.6-12.4,0-30,13.4-51c11.9-18.7,31.7-22.6,46.3-22.6
		c29.6,0,56.9,15.1,63.4,25.8C872.5,713,876.1,739.8,868.3,753.7L868.3,753.7z"/>
</g>
</svg>
