<?xml version="1.0" encoding="utf-8"?>
<!-- Generator: Adobe Illustrator 24.0.0, SVG Export Plug-In . SVG Version: 6.00 Build 0)  -->
<svg version="1.1" id="Layer_1" xmlns="http://www.w3.org/2000/svg" xmlns:xlink="http://www.w3.org/1999/xlink" x="0px" y="0px"
	 viewBox="0 0 1200 1200" style="enable-background:new 0 0 1200 1200;" xml:space="preserve">
<style type="text/css">
	.st0{fill:#BE9A71;}
	.st1{fill:#D9A993;}
	.st2{fill:#683A32;}
	.st3{fill:#FFFFFF;}
	.st4{fill:#F78C8B;}
	.st5{fill:#1D1D1B;}
	.st6{fill:#FDAC49;}
	.st7{fill:#191919;}
	.st8{fill:#333333;}
	.st9{fill:#14192C;}
	.st10{fill:#3E3D4F;}
	.st11{fill:#A15225;}
	.st12{fill:#895834;}
	.st13{fill:#1A0A14;}
	.st14{fill:#672E28;}
	.st15{fill:#111B1D;}
	.st16{fill:#EBEBEB;}
	.st17{fill:#494859;}
	.st18{fill:#2F2627;}
	.st19{fill:#C7B6AC;}
	.st20{fill:#E2D9D4;}
	.st21{fill:#D6CDCA;}
	.st22{fill:#674043;}
	.st23{fill:#3D3834;}
	.st24{fill:#E4DACE;}
	.st25{fill:#554E46;}
	.st26{fill:#E8E8E8;}
	.st27{fill:#AEE9FA;}
	.st28{fill:#4D4D4D;}
	.st29{fill:#FDFDFD;}
	.st30{fill:#FAAF5E;}
	.st31{fill:#F8FCFC;}
	.st32{fill:#DBCFB5;}
	.st33{fill:#6D6D6D;}
	.st34{fill:#C69C6D;}
	.st35{fill:#F0B965;}
	.st36{fill:#DA7B45;}
	.st37{fill:#FAE7D6;}
	.st38{fill:#FDF8F2;}
	.st39{fill:#E2C4AA;}
	.st40{fill:#BC8571;}
	.st41{fill:#2F322A;}
	.st42{fill:#444741;}
	.st43{fill:#46282D;}
	.st44{fill:#986858;}
	.st45{fill:#F0C7A2;}
	.st46{fill:#FCE9C8;}
	.st47{fill:#808080;}
	.st48{fill:#4E4E4E;}
	.st49{fill:#E8CBA9;}
	.st50{fill:#956B50;}
</style>
<g>
	<path class="st34" d="M708.4,443c0,0,19.9-65.2,77.8-35.3c57.9,30-31.2,61-31.2,61L708.4,443z"/>
	<path class="st7" d="M754.7,475c-1,0-2.3-0.3-3-0.8l-46.3-25.7c-2.8-1.5-4-4.5-3-7.6c2.8-8.3,6.8-16.4,12.1-23.4
		c11.6-15.9,26.4-24.2,43.3-24.2c11.1,0.3,21.9,3.3,31.5,8.6c16.1,8.3,23.7,17.9,22.9,28.7c-0.8,10.8-10.6,21.9-29.2,32.2
		c-8.3,4.5-16.9,8.6-25.9,11.8C756.3,475,755.5,475,754.7,475z M716.2,440l39,21.4c7.3-2.8,14.4-6,21.4-9.8
		c13.9-7.8,22.2-15.6,22.7-21.7c0.5-6.5-8.6-12.6-16.1-16.6c-7.8-4.3-16.6-6.8-25.7-7.1C733.3,406.3,720.7,429.7,716.2,440
		L716.2,440z"/>
	<path class="st34" d="M546.9,443c0,0-19.9-65.2-77.8-35.3s31.2,61,31.2,61L546.9,443z"/>
	<path class="st7" d="M500.6,475c-0.8,0-1.5,0-2-0.3c-8.8-3.3-17.6-7.1-25.9-11.6C454,452.9,444.2,442,443.4,431s7.1-20.7,22.9-28.7
		c9.6-5.3,20.4-8.3,31.5-8.6c16.9,0,31.7,8.3,43.3,24.2c5,7.1,9.3,15.1,12.1,23.4c1,3-0.3,6-3,7.6l-46.3,25.7
		C502.6,474.8,501.6,475,500.6,475z M497.8,406.3c-9.1,0.3-17.9,2.8-25.7,7.1c-7.6,4-16.6,10.1-16.1,16.6c0.5,6,8.6,14.1,22.4,21.7
		c6.8,3.8,14.1,7.1,21.4,9.8l39-21.4C534.6,429.7,522,406.3,497.8,406.3z"/>
	<path class="st34" d="M795,470.5c-73.8-76.6-167-57.9-167-57.9h-0.5c0,0-92.9-18.6-167,57.9s3.3,271.8,3.3,271.8h328
		C791.8,742.3,868.9,547.1,795,470.5z"/>
	<path class="st3" d="M725.3,577.5L649.5,500c0,0-10.1-60.7,3.3-89.4c-8.3,0-16.6,0.5-24.9,2c-8.3-1.5-16.6-2-24.9-2
		c13.4,29,3.3,89.4,3.3,89.4l-75.8,77.6c-47.9,69-75.8,59.7-98.5,62.7c7.8,40.1,21.4,102,21.4,102h348.9c0,0,13.6-62.2,21.4-102
		C801.1,637.2,772.9,646.6,725.3,577.5z"/>
	<path class="st7" d="M463.8,748.8c-2.5,0-5-1.5-6-4c-13.1-35-23.2-71.3-29.7-108.3c-6-34.5-7.6-65.2-4.5-91.7
		c3.5-33.5,14.6-59.9,32.5-78.6c30.5-32.2,71-53.1,114.9-59.7c18.9-3,38-3.3,56.9-0.3c18.9-2.8,38-2.8,56.9,0.3
		c43.8,6.5,84.4,27.5,114.9,59.7c17.9,18.6,28.7,44.8,32.5,78.6c2.8,26.2,1.3,57.2-4.5,91.7c-6.5,37-16.6,73.3-29.7,108.3
		c-1.3,3.3-5,4.8-8.3,3.5c-3.3-1.3-4.8-5-3.5-8.3c12.8-34.5,22.7-70,29-106c8.8-51.6,11.8-121.2-24.4-158.9
		c-28.7-30-66.5-49.6-107.3-55.9c-17.6-2.8-35.8-3-53.7-0.3c-0.5,0-0.8,0.3-1.3,0.3h-0.8c-0.5,0-0.8,0-1.3-0.3
		c-17.9-2.8-36.3-2.5-53.9,0.3c-40.8,6-78.6,25.7-107.1,55.7c-36.3,37.5-33.2,107.3-24.4,159.2c6.5,36,16.1,71.5,29,105.8
		c1.3,3.3-0.3,7.1-3.5,8.3C465.6,748.6,464.6,748.6,463.8,748.8z"/>
	<path class="st7" d="M559.3,527.7c0.5-1,1-2,1.3-3l0.8-1.5l0.8-1.8c2.3-4.5,5.3-8.6,8.6-12.3c1.8-1.8,3.8-3.5,5.8-5.3l1.5-1.3
		l0.8-0.5l0.8-0.5l1.5-1l1.8-1c4.5-2.5,9.3-4.8,14.4-6.3c5-1.5,10.1-2.8,15.1-3.3c2.5-0.3,5-0.5,7.8-0.8l3.8-0.3h3.8
		c10.3-0.3,20.7,1.3,30.7,4.3c5,1.5,9.8,3.5,14.4,6.3l1.8,1l1.5,1l0.8,0.5l0.8,0.5l1.5,1.3c2,1.5,4,3.3,5.8,5.3
		c1.8,1.8,3.3,3.8,4.8,5.8c0.8,1,1.5,2,2,3.3l1,1.8l0.5,0.8l0.3,0.5l0.3,0.3l1.5,3l1.3,2.8c0.8,2,1.8,3.8,2.8,5.5
		c0.5,1,1,1.8,1.5,2.8l1.5,2.8l1.5,2.5l1.5,2.5c2,3.5,4,6.5,5.8,9.8c3.8,6,7.6,11.8,10.8,16.6s6.3,9.3,8.6,12.8
		c2.3,3.5,4.3,6.3,5.5,8.3l2,2.8l-0.8-0.5l-2-1.8c-1.8-1.5-4-4-7.1-7.1s-6.5-6.8-10.6-11.3c-4-4.5-8.3-9.6-12.8-15.6
		c-5-6.3-9.6-12.8-13.9-19.9l-1.8-2.8l-0.5-0.8l-0.5-0.8l-0.8-1.5l-1.5-3l-1.5-2.8l-0.3-0.3l-0.3-0.3l-0.3-0.5l-0.8-1.3
		c-0.5-0.8-1-1.5-1.8-2.3c-1.3-1.5-2.5-3-4-4.5s-3-2.8-4.8-3.8l-1.3-1l-0.8-0.5l-0.8-0.5l-1.3-0.8l-1.5-0.8l-0.8-0.3l-0.8-0.3
		l-1.5-0.8c-1-0.5-2-1-3-1.3c-2-0.8-4-1.5-6.3-2c-4.3-1.3-8.6-2.3-13.1-2.8c-4.5-0.5-9.1-0.8-13.9-0.8h-3.5h-3.5
		c-2.3,0.3-4.5,0.3-6.8,0.5c-4.5,0.5-8.8,1.5-13.4,2.8c-2,0.5-4.3,1.3-6.3,2.3c-1,0.3-2,0.8-3,1.3l-1.5,0.8l-0.8,0.3l-0.8,0.3
		l-1.5,0.8l-1.3,0.8l-0.8,0.5l0.5,1l-1.3,0.8c-1.8,1.3-3.3,2.5-4.8,3.8c-2.8,2.8-5.3,5.8-7.3,9.3l-0.8,1.3l-0.3,0.8v0.3v0.3l0,0
		l-0.3,0.3l-1.5,2.8l-0.8,1.5l-0.3,0.8l-0.5,0.8l-1.8,2.8c-0.5,1-1,2-1.8,2.8l-1.8,2.8l-1.8,2.5c-0.5,0.8-1.3,1.8-1.8,2.5
		c-2.3,3.3-4.8,6.3-7.1,9.3c-4.5,5.8-9.1,11.1-12.8,15.6c-3.8,4.5-7.6,8.3-10.6,11.3s-5.5,5.5-7.1,7.1l-2,1.8l-0.8,0.5l2-2.8
		c1.3-1.8,3.3-4.8,5.8-8.3s5.3-7.8,8.6-12.8c1.5-2.5,3.5-5,5.3-7.8c1-1.5,1.8-2.8,2.8-4.3l2.8-4.5c1.8-3,3.8-6.3,5.8-9.8l1.5-2.5
		l1.5-2.5l1.5-2.8c0.5-1,1-1.8,1.3-2.8l1.3-2.8l0.3-0.8l0.3-0.8L559.3,527.7z M740.1,620.9c-0.5,1.3-1.3,2.8-2,4
		c-0.8,1.3-1.5,2.5-2.3,3.8c-1.5,2.3-3.5,4.5-5.8,6.3c-2,1.8-4.5,3.3-7.1,4.3c-2.5,1-5,1.5-7.8,1.8c-2.8,0.3-5.5,0-8.1-0.3l-2-0.3
		h-0.5l-0.5-0.3l-1-0.3l-1-0.3c-0.3,0-0.8-0.3-1-0.3l-2-0.5c-2.5-0.8-5-2-7.6-3.3c-2.5-1.3-4.8-2.8-6.8-4.5
		c-2.3-1.8-4.3-3.5-6.3-5.5c-2-2-4.3-4-6.5-6.3s-4.5-4.3-7.1-6.3c-2.5-2-5.3-4-8.3-5.8c-3-1.8-6-3-9.3-4.3c-0.8-0.3-1.5-0.5-2.5-0.8
		l-2.5-0.8c-1.8-0.3-3.3-0.8-5-1c-1.8-0.3-3.5-0.5-5.3-0.5l-2.8-19.1c25.4-1.8,45.8-34.5,45.8-51.6c0-17.6-21.4-24.2-47.9-24.2
		c-26.4,0-47.9,6.3-47.9,24.2c0,17.1,20.4,50.1,46.1,51.9l-2.8,19.1c-1.5,0-3.3,0.3-4.8,0.5c-1.5,0.3-3.3,0.5-5,1l-2.5,0.8
		c-0.8,0.3-1.5,0.5-2.5,0.8c-3.3,1-6.3,2.5-9.3,4.3c-3,1.8-5.5,3.5-8.3,5.8c-2.5,2-4.8,4.3-7.1,6.3c-2.3,2-4.3,4.3-6.5,6.3
		c-2.3,2-4.3,3.8-6.3,5.5c-4.3,3.3-9.1,6-14.4,7.8l-2,0.5l-1,0.3l-1,0.3l-2,0.5l-2.3,0.3h-0.5h-0.5h-1c-0.8,0-1.3,0.3-2,0.3
		s-1.3,0-2,0h-2c-2.8-0.3-5.3-0.8-7.8-1.8c-2.5-1-4.8-2.5-7.1-4.3c-2.3-1.8-4-4-5.8-6.3s-3-4.8-4.3-7.6c-1.3-2.8-2.3-5.5-3-8.6
		c0,3,0.5,6,1,9.1c0.3,1.5,0.8,3,1.3,4.5c0.5,1.5,1,3,1.8,4.3c1.3,3,3.3,5.5,5.3,8.1c2,2.5,4.5,4.5,7.3,6
		c1.3,18.9,12.6,70,98.2,70.3c85.1-0.3,97-50.4,98.2-69.8l0.5-0.3c3-1.8,5.5-3.8,7.8-6.3c2-2.5,4-5,5.3-8.1c0.8-1.5,1.3-2.8,1.8-4.3
		c0.5-1.5,1-3,1.3-4.5c0.8-3,1-6,1-9.1C742.2,615.3,741.4,618.1,740.1,620.9z M719,536c13.4,0,23.9-10.8,23.9-23.9
		c0-13.1-10.8-23.9-23.9-23.9c-13.1,0-23.9,10.8-23.9,23.9l0,0C695,525.2,705.6,536,719,536L719,536L719,536z M536.1,536
		c13.4,0,23.9-10.8,23.9-23.9c0-13.1-10.8-23.9-23.9-23.9c-13.1,0-23.9,10.8-23.9,23.9l0,0C511.9,525.2,522.5,536,536.1,536
		C535.9,536,535.9,536,536.1,536L536.1,536z"/>
	<circle class="st3" cx="726" cy="501.2" r="6.3"/>
	<circle class="st3" cx="542.9" cy="501.2" r="6.3"/>
	<path class="st34" d="M747.7,434.2c0,0-21.9-41.3,26.4-33.5c48.4,7.8,109.3-20.7,104.5,27.5c-4.8,48.1-27.2,67.8-22.2,112.3
		C861.8,585.9,771.4,508.5,747.7,434.2z"/>
	<path class="st7" d="M849,560.4c-19.1,0-48.1-30.5-56.4-39.8c-23.4-26.2-42.1-56.7-50.6-83.9c-1.8-3.8-9.6-20.7-2.3-32.7
		c4.3-7.1,12.1-10.6,23.4-10.6c4,0,8.3,0.5,12.3,1c6.5,1,13.1,1.5,19.6,1.5c9.6,0,19.1-0.8,28.2-1.5c8.6-0.8,16.6-1.3,23.9-1.3
		c10.6,0,23.4,1,31.5,9.8c5.5,6,7.6,14.4,6.3,25.9c-2.3,21.4-7.8,37.8-12.8,52.1c-6.5,18.6-12.1,35-9.6,58.9
		c0.8,7.3-0.3,12.6-3.8,16.4C856.8,558.9,853,560.7,849,560.4z M763.1,406.3c-4.5,0-10.3,0.8-12.6,4.3c-3.5,5.8,1,17.1,3,20.7
		c0.3,0.3,0.3,0.8,0.5,1c8.3,25.7,25.7,54.7,48.1,79.6c20.9,23.4,39.5,35.5,46.9,35.5c0.3,0,0.5,0,0.8,0c0.8-2,1-4.3,0.5-6.3
		c-3-26.7,3.3-45.1,10.1-64.5c5-14.4,10.1-29.2,12.1-49.1c0.8-7.6-0.3-12.8-3.3-15.9c-3.5-3.8-10.3-5.5-21.9-5.5
		c-6.8,0-14.9,0.5-22.9,1.3c-9.6,0.8-19.4,1.5-29.2,1.5c-7.3,0-14.6-0.5-21.9-1.5C769.6,406.8,766.3,406.3,763.1,406.3L763.1,406.3z
		"/>
	<path class="st7" d="M1084.7,748.8H170.4c-3.5-0.3-6.3-3.3-6-6.8c0.3-3.3,2.8-5.8,6-6h914.1c3.5,0.3,6.3,3.3,6,6.8
		C1090.5,745.8,1087.7,748.6,1084.7,748.8z"/>
	<path class="st34" d="M507.6,434.2c0,0,21.7-41.3-26.4-33.5c-48.1,7.8-109.3-20.7-104.5,27.5s27.2,67.8,22.2,112.3
		C393.5,585.9,484,508.5,507.6,434.2z"/>
	<path class="st7" d="M406.4,560.4L406.4,560.4c-4,0.3-7.8-1.5-10.3-4.3c-3.3-3.8-4.5-9.1-3.5-16.4c2.8-23.9-3-40.1-9.6-58.9
		c-5-14.4-10.6-30.5-12.8-52.1c-1-11.3,1-19.9,6.5-25.9c7.8-8.8,20.9-9.8,31.5-9.8c7.6,0,15.6,0.8,24.2,1.3
		c9.3,0.8,18.9,1.5,28.5,1.5c6.5,0,13.1-0.5,19.6-1.5c4-0.8,8.1-1,12.3-1c11.3,0,19.1,3.5,23.4,10.6c7.3,12.1-0.5,29-2.3,32.7
		c-8.8,27.2-27.2,57.7-50.6,83.9C454.5,529.9,425.5,560.4,406.4,560.4z M405.6,547.6c0.3,0,0.5,0,0.8,0c7.6,0,25.9-12.3,46.9-35.5
		c22.4-24.9,40.1-54.2,48.1-79.6c0-0.3,0.3-0.8,0.5-1c1.8-3.5,6.3-15.1,3-20.7c-2.3-3.5-8.1-4.3-12.6-4.3c-3.3,0-6.8,0.3-10.1,1
		c-7.3,1.3-14.6,1.8-21.9,1.5c-10.1,0-19.9-0.8-29.5-1.5c-8.3-0.8-16.1-1.3-23.2-1.3c-11.6,0-18.4,1.8-21.9,5.5
		c-3,3.3-4,8.3-3.3,15.9c2,19.9,7.1,34.8,12.1,49.1c6.8,19.4,13.1,37.8,10.1,64.5C404.6,543.3,404.9,545.3,405.6,547.6L405.6,547.6z
		"/>
	<path class="st4" d="M678.9,673c-21.2-17.4-49.6-1.3-51.4,0c-2-1.3-30.2-17.4-51.4,0c-21.9,18.1-30,107.6,51.4,107.8h0.3
		C708.9,780.6,700.8,691.1,678.9,673z"/>
	<path class="st7" d="M627.5,787.1H627c-45.8-0.3-62.2-27-68-43.1c-10.3-29-1.8-64.2,12.6-76.1c7.8-6.3,17.4-9.6,27.5-9.6
		c9.8,0.3,19.6,2.5,28.5,7.1c8.8-4.3,18.4-6.8,28.2-7.1c9.8-0.3,19.6,3.3,27.2,9.6c14.6,11.8,22.9,47.1,12.6,76.1
		C689.8,760.2,673.4,787.1,627.5,787.1z M599.1,671.3c-7.1-0.3-13.9,2.3-19.1,6.5c-5,4-9.3,13.4-11.3,24.4
		c-2.5,12.6-1.5,25.4,2.5,37.3c5.5,15.6,19.9,34.5,56.2,34.5h0.3c36.3,0,50.4-18.9,56.2-34.5c4-12.1,5-24.9,2.5-37.3
		c-2-11.1-6.3-20.4-11.3-24.4c-5.3-4.3-12.1-6.8-19.1-6.5c-8.8,0.3-17.4,2.8-24.9,7.1c-2,1.3-4.5,1.3-6.5,0
		C616.5,674.3,607.9,671.8,599.1,671.3L599.1,671.3z"/>
	<path class="st3" d="M425,754.6c0,0,11.6,28,34.3,7.1c22.7-20.9,4.3-116.1-84.4-101c-88.7,15.1-63.5,118.9-44.6,124.4
		c18.9,5.5,28.7-2.8,34-23.7c0,0,0.3,29,31.7,24.7S425,754.6,425,754.6z"/>
	<path class="st7" d="M340.6,793.2c-4,0-8.3-0.8-12.1-2c-13.6-4-24.4-34-22.7-63c0.8-16.6,6.3-32.5,16.4-45.6
		c11.8-14.9,29.2-24.4,51.6-28.5c6.3-1,12.8-1.8,19.4-1.8c17.6-0.5,34.8,5,48.9,15.4c11.8,9.1,20.9,21.2,26.2,35
		c9.6,24.4,7.6,51.6-4.8,63.2c-6.8,6.3-13.6,9.6-20.4,9.6c-5.3,0-10.3-2-14.4-5.5c0,0.3-0.3,0.8-0.5,1c-3.5,8.1-12.1,18.4-31.2,21.2
		c-2.3,0.3-4.8,0.5-7.1,0.5l0,0c-14.1,0-21.9-6.3-26.2-12.8c-1,1.5-2.3,3-3.5,4.5C355.3,790.1,348.2,793.4,340.6,793.2z M393,665.5
		c-5.8,0-11.6,0.5-17.1,1.5c-46.9,8.1-55.9,42.1-57.4,61.5c-0.8,11.8,0.8,23.9,4.5,35.3c3.5,10.3,7.8,14.9,9.1,15.1
		c2.8,0.8,5.5,1.3,8.6,1.5c6,0,12.8-2.5,17.4-20.4c0.8-3.5,4.3-5.5,7.8-4.5c2.8,0.8,4.8,3.3,4.8,6c0.3,3.5,1,7.1,2.8,10.1
		c3.3,5.8,8.6,8.8,16.4,8.8l0,0c1.8,0,3.5-0.3,5.3-0.5c10.6-1.5,17.6-5.8,21.2-13.1c1.5-3.5,2.5-7.3,2.3-11.1
		c-0.3-3.3,1.8-6,4.8-6.8c3-0.8,6.3,0.8,7.6,3.8c0,0,4.8,10.8,12.1,10.8c3.3,0,7.3-2,11.6-6c7.3-6.8,10.1-27.7,1.5-49.1
		C451.2,695.2,435.1,665.5,393,665.5z"/>
	<path class="st3" d="M829.3,754.6c0,0-11.6,28-34,7.1c-22.4-20.9-4.3-116.1,84.4-101c88.7,15.1,63.5,118.9,44.6,124.4
		c-18.9,5.5-28.7-2.8-34-23.7c0,0-0.3,29-31.7,24.7S829.3,754.6,829.3,754.6z"/>
	<path class="st7" d="M913.7,793.2c-7.6,0.3-14.6-3-19.6-8.6c-1.3-1.5-2.5-3-3.5-4.5c-4.3,6.3-12.1,12.8-26.2,12.8
		c-2.5,0-4.8-0.3-7.1-0.5c-19.1-2.8-27.7-12.8-31.2-21.2l-0.5-1c-4,3.5-9.1,5.5-14.4,5.5c-6.8,0-13.6-3.3-20.4-9.6
		c-12.3-11.6-14.4-38.8-4.8-63.2c5.3-13.9,14.4-25.9,26.2-35c14.1-10.3,31.5-15.9,48.9-15.4c6.5,0,13.1,0.5,19.4,1.8
		c22.4,3.8,39.8,13.4,51.6,28.5c10.1,13.1,15.6,29.2,16.4,45.6c1.8,29-9.1,58.7-22.7,63C922,792.4,918,793.2,913.7,793.2z
		 M890,754.9c3,0,5.5,2,6.3,4.8c4.5,18.1,11.3,20.4,17.4,20.4c3,0,5.8-0.5,8.6-1.5c1.3-0.5,5.5-4.8,9.1-15.1
		c3.8-11.3,5.3-23.4,4.5-35.3c-1.3-19.4-10.6-53.4-57.4-61.5c-5.8-1-11.6-1.5-17.4-1.5c-41.8,0-58.2,29.7-63.2,42.3
		c-8.6,21.4-5.8,42.3,1.5,49.1c4.3,4,8.3,6,11.6,6c7.3,0,12.1-10.8,12.1-10.8c1.3-3.3,5-4.8,8.3-3.5c2.8,1,4.3,3.8,4,6.5
		c-0.3,3.8,0.5,7.6,2.3,11.1c3.5,7.3,10.6,11.6,21.2,13.1c1.8,0.3,3.5,0.5,5.3,0.5c7.8,0,13.3-2.8,16.4-8.8c1.5-3,2.5-6.5,2.8-10.1
		c0-3.3,2.5-5.8,5.5-6.3L890,754.9z"/>
	<path class="st7" d="M633.8,673l-6.3,92.7l-6.3-92.7c-0.3-3.5,2.5-6.5,6-6.8c3.5-0.3,6.5,2.5,6.8,6l0,0L633.8,673z"/>
</g>
</svg>
