<?xml version="1.0" encoding="utf-8"?>
<!-- Generator: Adobe Illustrator 24.0.0, SVG Export Plug-In . SVG Version: 6.00 Build 0)  -->
<svg version="1.1" id="Layer_1" xmlns="http://www.w3.org/2000/svg" xmlns:xlink="http://www.w3.org/1999/xlink" x="0px" y="0px"
	 viewBox="0 0 1200 1200" style="enable-background:new 0 0 1200 1200;" xml:space="preserve">
<style type="text/css">
	.st0{fill:#BE9A71;}
	.st1{fill:#D9A993;}
	.st2{fill:#683A32;}
	.st3{fill:#FFFFFF;}
	.st4{fill:#F78C8B;}
	.st5{fill:#1D1D1B;}
	.st6{fill:#FDAC49;}
	.st7{fill:#191919;}
	.st8{fill:#333333;}
	.st9{fill:#14192C;}
	.st10{fill:#3E3D4F;}
	.st11{fill:#A15225;}
	.st12{fill:#895834;}
	.st13{fill:#1A0A14;}
	.st14{fill:#672E28;}
	.st15{fill:#111B1D;}
	.st16{fill:#EBEBEB;}
	.st17{fill:#494859;}
	.st18{fill:#2F2627;}
	.st19{fill:#C7B6AC;}
	.st20{fill:#E2D9D4;}
	.st21{fill:#D6CDCA;}
	.st22{fill:#674043;}
	.st23{fill:#3D3834;}
	.st24{fill:#E4DACE;}
	.st25{fill:#554E46;}
	.st26{fill:#E8E8E8;}
	.st27{fill:#AEE9FA;}
	.st28{fill:#4D4D4D;}
	.st29{fill:#FDFDFD;}
	.st30{fill:#FAAF5E;}
	.st31{fill:#F8FCFC;}
	.st32{fill:#DBCFB5;}
	.st33{fill:#6D6D6D;}
	.st34{fill:#C69C6D;}
	.st35{fill:#F0B965;}
	.st36{fill:#DA7B45;}
	.st37{fill:#FAE7D6;}
	.st38{fill:#FDF8F2;}
	.st39{fill:#E2C4AA;}
	.st40{fill:#BC8571;}
	.st41{fill:#2F322A;}
	.st42{fill:#444741;}
	.st43{fill:#46282D;}
	.st44{fill:#986858;}
	.st45{fill:#F0C7A2;}
	.st46{fill:#FCE9C8;}
	.st47{fill:#808080;}
	.st48{fill:#4E4E4E;}
	.st49{fill:#E8CBA9;}
	.st50{fill:#956B50;}
</style>
<g>
	<path class="st28" d="M880.3,268.9c-36.8-42.8-133.5,55-165.7,89.7c-34.1-17.5-57.5-13.6-66.5-15.4c0,0-32.4-7.8-75.2-0.5
		c-19.6-40.5-85.1-166.6-133.7-136c-56.4,35.9-82.4,198.8-23.2,251.3l8.5-5.5c-7.1,12.9-13.6,26-19.1,39.6l15.4,3.9
		c0,0-27.6,30.6-29.7,62.8l22.1-5.5c0,0-14.5,40.7,2.1,80.1l6.9-9.7c0,0,32,93.4,166.4,98.7s179.3-45.6,197.9-79.6l16.1,15.2
		c0,0,17.3-47.9,8.3-82.6l14.7,13.8c0,0,14.3-31.1,7.8-75.2C902.4,477.9,923.1,318.9,880.3,268.9z"/>
	<path class="st7" d="M159.8,820c0.2,0,0.5-0.2,0.7-0.2c0.2-0.5,0.2-0.7,0.5-1.2c1.2-3.9,4.8-6.7,9-6.7h197.2c0.9,0,1.8,0,3-0.2
		c-0.5-2.5-0.9-4.8-1.4-7.4c-1.2-6.9-1.2-13.8-0.7-20.5c1.6-16.3,6-32.4,12.7-47.6c6.4-15.2,13.8-29.7,22.6-43.7
		c6.2-10.4,13.1-20.5,20.2-30.6l0.9-1.4c0.2-0.2,0.2-0.7,0-1.2c-3-4.1-5.3-8.5-8.1-12.9l-0.2-0.2c-0.9,0.7-1.8,1.4-3,1.8
		c-3.7,1.4-7.6-0.2-9.2-3.7c-0.9-2.1-1.8-4.4-2.5-6.4c-2.8-7.8-4.6-16.1-5.5-24.4c-0.9-8.7-1.2-17.5-0.2-26.2
		c0.5-5.1,1.2-10.1,2.1-15.2c0.2-0.5,0.2-0.9,0.2-1.4c-0.5-0.7-0.9-0.2-1.4-0.2l-8.3,2.1c-0.5,0.2-1.2,0.2-1.6,0.2
		c-3.9,0.5-7.6-2.3-8.1-6.2c0-0.5,0-1.2,0-1.6c0.2-3,0.7-5.8,1.2-8.7c2.1-10.6,6-20.9,11-30.6c3.2-6.2,7.1-12.4,11.3-18.2
		c0.5-0.5,0.7-0.9,1.2-1.6c-0.9-0.5-1.6-0.7-2.5-0.9c-0.5,0-0.9-0.2-1.4-0.5c-3.9-0.7-6.7-4.6-6-8.5c0.2-0.7,0.2-1.4,0.7-1.8
		c1.2-3,2.3-5.8,3.7-8.7c3-7.4,6.4-14.5,10.1-21.4c0.5-0.7,0.7-1.2,0-1.8c-11.3-12.4-18.4-26.9-23.2-42.8c-2.5-8.5-4.4-17.3-5.5-26
		c-1.2-8.5-1.8-17.3-2.1-25.8c-0.2-8.3,0-16.3,0.7-24.6c0.5-6.9,1.2-13.6,2.1-20.5c3.2-24.9,10.1-49.2,20.5-72.3
		c4.4-9.7,9.7-19.1,16.1-27.6c5.3-7.4,12-13.6,19.3-18.9c4.6-3.2,9.7-5.5,15.2-6.7c0.7-0.2,1.6-0.2,2.3-0.5c0.2,0,0.7,0,0.7-0.5h5.8
		c1.2,0,2.1,0.7,3.2,0.5c6.7,0.9,13.1,3.2,18.9,6.7c6.9,3.9,13.3,8.7,19.1,14.3c8.5,8.1,16.1,16.6,23.2,25.8
		c10.8,14.3,20.9,29,29.9,44.4c9,15.2,17.5,30.8,25.3,46.5c0.2,0.2,0.2,0.7,0.5,0.9c0.7,1.8,0.9,1.4,2.1,1.4
		c2.5-0.2,4.8-0.5,7.1-0.7c7.4-0.7,14.7-0.9,22.3-0.9c6.7,0,13.3,0.5,20,1.2c5.5,0.5,11,1.4,16.6,2.5c2.5,0.5,5.1,0.7,7.4,0.9
		c5.3,0.2,10.6,0.5,15.9,1.2c11,1.4,21.9,3.9,32,8.1c3.9,1.6,7.8,3.2,11.5,5.1c1.6,0.9,1.6,0.9,2.8-0.5c4.4-4.6,8.7-9.2,13.3-13.8
		c17.7-18.2,36.6-35.2,56.6-51.1c10.1-7.8,20.7-15,31.8-21.2c7.6-4.4,15.6-7.8,23.9-10.6c6.9-2.3,14-3.5,21.2-3.2
		c10.1,0.2,19.6,4.6,26.5,12c4.4,4.8,8.1,10.1,10.8,15.9c4.1,8.1,7.1,16.8,9.2,25.8c1.8,8.1,3.2,16.1,4.1,24.4
		c1.2,12.7,1.4,25.3,0.7,38c-1.4,24.6-5.8,49.2-13.6,72.7c-4.6,14-10.6,27.6-17.9,40.5c-5.5,9.4-12,17.9-19.6,25.8
		c-5.8,6-12.4,11.3-19.8,15.6c-0.2,0.2-0.5,0.2-0.9,0.5c-0.7,0.2-1.2,0.9-0.9,1.8c0.7,5.5,0.9,11,0.9,16.3c0,4.6-0.2,9-0.5,13.6
		c-0.5,6-1.2,11.7-2.3,17.5c-1.4,8.3-3.7,16.3-6.7,24.2l-0.7,1.6c-1.6,3.7-5.8,5.5-9.4,3.9c-0.2,0-0.5-0.2-0.7-0.5
		c-1.2-0.7-1.6-1.2-1.6,0.9c0,5.1-0.2,10.1-0.7,15.2c-1.6,16.1-4.8,31.8-9.9,47.2c-0.2,0.9-0.7,1.6-0.9,2.5c-1.2,3.9-5.3,6-9.2,4.6
		c-1.2-0.5-2.1-0.9-2.8-1.6c-2.5-2.5-5.3-5.1-7.8-7.6c-0.5-0.5-0.9-0.9-1.4-1.2c-0.5,0-0.7,0.5-0.9,0.7c-4.1,6.4-8.5,12.4-13.6,17.9
		c-0.2,0.2-0.5,0.5-0.7,0.7c-0.2,0.2-0.2,0.7,0,1.2c1.2,1.8,2.3,3.5,3.5,5.3c8.5,13.6,16.1,27.8,22.6,42.6
		c4.6,10.4,8.3,20.9,11,31.8c2.5,9.4,3.9,19.3,3.9,29.2c0,6-0.7,12.2-2.1,17.9c0,0.2-0.2,0.7-0.2,0.9c0,0.2,0,0.5,0,0.5
		c0.2,0,0.7,0.2,0.9,0.2h203.2c1.2,0,2.5,0,3.7,0.2c3.5,0.7,6.2,3.2,6.9,6.7l0.2,0.2v4.4l-0.2,0.2c-0.7,3.5-3.2,6-6.7,6.7
		c-1.2,0.2-2.5,0.5-3.9,0.2H806.6c-0.7,0-1.4,0-2.1,0c-0.5,0-0.9,0.2-1.2,0.7c-0.7,0.9-1.4,1.8-2.1,2.8
		c-5.8,6.7-12.7,12.4-20.5,16.6c-7.4,3.9-15,7.1-23,9.2c-12.9,3.5-26.2,5.5-39.6,6.2c-9.2,0.5-18.6,0.5-27.8,0c-0.9,0-1.8,0-2.5,0.5
		c-3.7,1.8-7.6,3-11.7,3.7l-5.1,0.9h-5.3c-1.2-0.7-2.5-0.7-3.7-0.5c-5.8-0.7-11.5-2.1-16.8-4.1c-2.1-0.7-4.4-0.9-6.4-0.5
		c-3.7,0.9-7.4,1.4-11,1.4c-4.8,0.2-9.9-0.9-14-3.5c-0.7-0.5-1.4-0.5-2.1-0.2c-0.9,0.2-1.8,0.5-2.5,0.7c-4.1,0.9-8.3,0.7-12.2-0.2
		c-1.8-0.5-3.7-1.4-5.3-2.3c-3.9,2.3-8.3,3.5-12.7,3c-2.5,0-4.8-0.5-7.1-1.2c-0.9-0.2-1.8-0.2-2.5,0.5c-3.2,2.1-6.9,3-10.8,3.2
		c-4.6,0.5-9.4,0-14-1.2c-2.3-0.5-4.6-0.5-6.9,0.5c-4.4,1.6-9,3-13.8,3.7c-0.9-0.2-2.1,0-3,0.5l0,0c-1.4-0.2-2.8,0-3.9,0.5h-7.4
		c-0.2-0.5-0.9-0.5-1.4-0.5c-4.8-0.7-9.4-2.1-13.8-4.1c-0.7-0.2-1.6-0.5-2.3-0.2c-4.1,0.2-8.3,0.5-12.7,0.5
		c-9.9,0-19.8-0.5-29.7-1.6c-7.8-0.9-15.9-2.5-23.5-4.6c-8.7-2.3-17.3-5.8-25.3-10.1c-8.1-4.4-15.2-10.6-20.9-17.7
		c-0.7-1.2-2.1-1.8-3.5-1.6c-0.5,0-0.9,0-1.2,0H170.6c-5.8,0-8.5-2.1-10.4-7.4c-0.2-0.5-0.2-0.7-0.9-0.7L159.8,820z M662.6,354.8
		c-0.5-0.7-0.9-0.5-1.6-0.2c-2.3,0-4.6,0-6.7-0.2c-3,0-6-0.5-9-0.9c-3.2-0.7-6.4-1.4-9.9-1.6c-2.3-0.5-4.6-0.7-6.9-0.7
		c-3.2-0.7-6.7-0.9-10.1-0.9c-9.2-0.5-18.4-0.2-27.6,0.5c-0.7,0-1.4,0.2-2.1,0.2c-0.7,0.2-1.4,0-2.1,0.5c0.7,1.6,1.4,3,1.8,4.4
		c1.6,3.7-0.2,7.8-3.9,9.4c-2.3,0.9-4.8,0.7-6.9-0.7c-1.4-0.9-2.5-2.3-3-3.9c-1.4-2.8-2.5-5.5-3.9-8.3c-4.6-9.4-9.2-18.6-14-27.8
		c-3.9-7.4-8.1-14.7-12.2-22.1c-4.6-8.1-9.7-16.1-14.7-23.9c-4.1-6.7-8.7-13.1-13.3-19.3c-5.5-7.6-11.5-15-17.9-21.9
		c-5.5-6.2-12-12-18.6-16.8c-4.6-3.2-9.4-6-14.7-7.6c-0.5-0.2-0.9-0.5-1.6,0c0,0.5,0.5,0.5,0.7,0.7c3.9,3.7,7.8,7.6,11.3,11.7
		c5.1,6.2,9.7,12.9,13.3,19.8c4.8,8.7,9,18.2,12.4,27.6c3,8.5,5.8,17.3,7.8,26.2c0.7,3.2,1.4,6.4,2.1,9.7c0.9,3.7,1.4,7.4,2.1,11
		s1.2,7.8,1.6,11.7c0,1.2,0,2.5,0,3.7s-0.2,2.1-0.9,3c-1.6,2.8-5.1,4.1-8.1,3.2c-0.5-0.2-0.7-0.2-1.2-0.2c-1.4-0.5-3-0.7-4.4-0.2
		c-1.8,0.2-3.5,1.2-4.8,2.1c0.9,0.5,1.6,0.9,2.3,1.2c2.5,1.2,5.1,2.5,7.4,4.4c5.1,3.7,9.2,8.5,12.2,14c2.1,3.5,0.9,8.1-2.5,10.1
		c-1.4,0.9-3.2,1.2-4.8,0.9c-5.3-0.7-10.8,0-15.9,2.3c-0.2,0-0.7,0.2-0.7,0.7c0.5,0.2,1.2,0.5,1.6,0.5c2.5,0.5,4.8,1.2,7.1,2.1
		c2.3,0.9,4.6,2.1,6.7,3.5c3.2,2.5,3.9,6.9,1.4,10.1c-0.7,0.9-1.6,1.6-2.8,2.1l-1.6,0.7c-6.2,2.1-12.4,4.8-18.2,8.1
		c-3.2,1.8-6.2,3.7-9.2,5.8s-6,4.4-9,6.7c-3.9,3-7.8,6.2-11.5,9.7c-6,6-12,11.7-17.5,18.2c-3.7,4.4-7.1,8.7-10.4,13.1
		c-2.3,3.2-4.6,6.4-6.7,9.4c-0.7,0.9-1.4,1.8-2.1,2.8c-0.9,1.4-1.6,3-2.5,4.4c-2.1,4.4-4.1,8.5-6.2,12.9c-0.7,1.6-1.4,3.2-2.1,4.8
		c-0.2,0.5-0.5,0.9-0.5,1.4c0,0.2,0,0.7,0.2,0.7l0,0c0.5,0.2,0.7,0.2,1.2,0.5l5.5,1.4c3,0.7,5.3,3.7,5.3,6.7c0,0.5,0,0.9,0,1.4
		c-0.2,1.6-0.9,3-2.1,4.1c-4.4,5.1-8.3,10.4-11.7,15.9c-5.3,8.1-9.4,16.6-12.7,25.8c-0.5,0.9-0.7,2.1-0.7,3
		c-0.7,1.4-1.2,2.8-0.9,4.4c0.7,0,1.4,0,1.8-0.2c3.5-0.9,6.7-1.8,10.1-2.5c3.9-0.7,7.6,1.8,8.3,5.5c0,0.5,0.2,0.7,0.2,1.2
		c0,1.2-0.2,2.5-0.7,3.7c-3.2,10.8-5.1,21.9-5.3,33.1c0,4.1,0,8.5,0.5,12.7c0.5,5.3,1.4,10.6,2.5,15.9c0,0.5,0.2,0.7,0.7,1.2
		c1.2-0.7,2.3-1.2,3.5-1.4c3.5-0.5,6.7,1.6,7.8,4.8c2.1,5.1,4.4,9.9,7.1,14.5c10.6,17.9,24.9,33.4,41.9,45.3
		c14.5,10.4,30.6,18.4,47.6,23.9c11,3.7,22.6,6.4,34.1,8.3c7.8,1.2,15.4,2.1,23.2,2.8c7.1,0.5,14,0.7,21.2,0.7c12.4,0,24.6,0,37-1.2
		c7.6-0.7,15-1.4,22.3-2.3c9.9-1.4,19.8-3.5,29.7-6c13.8-3.5,27.2-8.7,39.6-15.4c22.3-11.7,40.7-29.7,52.9-51.8
		c0.2-0.5,0.5-0.9,0.9-1.4c1.4-1.8,3.5-3,5.8-3c2.1,0,4.1,0.7,5.5,2.1l6.4,6c0.2,0.2,0.7,0.7,1.2,0.7c0.5-0.7,0.7-1.6,0.7-2.5
		c0.2-0.2,0.2-0.5,0.2-0.7c3-12,5.1-24.2,6-36.6c0.7-9.7,0-19.3-2.3-28.8c-0.5-1.6-0.2-3.2,0.2-4.6c0.2,0,0.2-0.2,0.2-0.5
		c1.2-2.8,3.7-4.4,6.4-4.4c2.1,0,3.9,0.9,5.3,2.3c1.6,1.4,3.2,3,4.6,4.6c0.5,0.5,0.9,0.7,1.2,1.2c0.2,0.2,0.5,0.2,0.7,0
		c0,0,0-0.2,0.2-0.2c1.4-5.3,2.5-10.6,3.5-16.1c0.5-3.2,0.9-6.2,1.2-9.4c0.2-3.2,0.5-6.4,0.7-9.7c0.2-5.8,0-11.5-0.5-17.3
		c0-1.6-0.2-3-0.5-4.6c-0.2-1.6-0.5-3-0.7-4.6c-1.4-4.8-3-9.7-4.8-14.3c-3.5-9-7.4-17.9-12-26.5c-2.8-5.1-5.5-10.1-8.7-14.7
		c-3.9-6-8.1-11.7-12.7-17c-3-3.5-6-6.7-9.4-9.7c-3.5-3.2-7.1-6.2-10.8-9c-0.7-0.5-1.2-0.9-1.6-1.4c-2.1-2.3-2.3-5.5-0.9-8.1
		c0.9-1.8,2.5-3.2,4.6-3.7c1.8-0.5,3.9-0.9,6-1.2c3-0.5,6-0.5,9,0c0.2,0,0.9,0.2,0.9-0.2c0-0.2-0.2-0.2-0.2-0.5
		c-0.2-0.2-0.5-0.5-0.7-0.7c-3.5-2.8-7.6-4.8-11.7-5.8c-1.2-0.2-2.5-0.7-3.7-0.9c-3.7-1.4-5.8-5.3-4.4-9c0,0,0-0.2,0.2-0.2
		c0.5-1.2,1.2-2.1,2.1-3c2.8-2.8,6-5.1,9.7-6.9c4.8-2.8,10.4-4.4,16.1-4.8c0.2,0,0.5-0.2,0.7-0.2c0.2-0.2,0-0.5,0-0.7
		c-1.8-2.5-4.8-3.9-8.1-3.9c-0.5,0-0.7,0-1.2,0c-4.1-0.2-7.1-3.7-6.9-7.6c0-0.9,0.2-1.8,0.7-2.8c1.2-3,2.5-6,3.9-8.7
		c2.5-5.5,5.3-10.8,8.3-16.1c3-5.3,6-10.6,9.2-15.6c4.1-6.4,8.7-12.9,13.6-18.9c3.2-3.9,6.4-7.8,9.7-11.3c6.7-7.4,14-13.8,22.1-19.6
		c5.3-3.7,10.8-6.9,16.6-9.4c0.2-0.2,0.9-0.2,0.7-0.7c-3.2-0.2-6.2,0-9.4,0.7c-5.8,1.2-11.3,3-16.6,5.3c-4.8,2.3-9.7,4.6-14.5,7.4
		c-6.9,4.1-13.6,8.5-20,13.1c-6.9,5.1-13.8,10.6-20.5,16.1c-4.1,3.5-8.3,6.9-12.2,10.6c-3.9,3.7-7.4,6.7-11,10.1
		c-4.1,3.7-8.1,7.6-12,11.5c-3.5,3.5-6.9,6.7-10.1,10.4c-3.2,3.7-7.4,7.6-10.8,11.3c-4.1,4.6-8.3,9-12.2,13.8
		c-1.8,2.3-4.8,3.2-7.6,2.3c-3.9-1.2-6-5.3-4.8-9.2c0.2-0.9,0.7-1.6,1.2-2.3c0.5-0.5,0.9-0.9,1.4-1.4c2.1-2.1,1.8-1.8-0.7-3.2
		l-0.7-0.2c-7.1-3-14.3-5.3-21.9-7.1c-3-0.7-6.2-1.2-9.2-1.6c-3-0.5-6.2-0.7-9.2-0.9L662.6,354.8z M726.6,780.5
		c-0.9-0.7-1.8-1.2-2.8-1.4c-6-2.3-12.4-3.9-18.9-4.6c-2.8-0.5-5.5-0.7-8.1-0.7c-0.7,0-1.4-0.2-1.8-0.2c-5.1,0-10.1,0.2-15.2,0.7
		c-9.4,1.2-18.6,3.7-27.6,7.1c-12,4.6-23.2,11.5-32.7,20.5c-9.9,9.2-16.8,21.2-20,34.5c-0.2,1.4-0.5,2.8-0.2,4.1
		c0.2,2.3,0.2,4.8,0,7.1c0,0.2,0,0.2,0,0.5c0,0.7,0.2,1.2,0.9,1.4c0.5,0.2,1.2,0.5,1.8,0.7c1.8,0.2,3.7,0,5.3-0.5
		c0-1.2,0.2-2.5,0.2-3.7c0.7-10.6,8.1-19.3,18.4-21.9c0.2,0,0.7-0.2,1.2,0.2c-1.6,1.2-3.2,2.5-4.6,3.9c-3.2,3.2-5.1,7.8-4.8,12.4
		c0.2,3,0.9,5.8,2.3,8.3c0.9,1.8,2.8,3.2,4.8,3.5c2.8,0.5,5.5,0.5,8.3,0c0.7,0,0.9-0.5,0.7-0.9c-0.2-1.6-0.2-3.2-0.2-4.8
		c0-5.1,1.8-9.7,4.8-13.6c3-3.7,6.7-6.7,11-8.5c0.2-0.2,0.7-0.5,1.2-0.2c-0.5,0.5-0.9,1.2-1.4,1.6c-2.1,2.3-3.7,4.6-4.8,7.4
		c-2.8,5.3-2.1,12,1.6,16.6c0.7,0.7,1.4,1.4,2.3,1.8c2.5,0.9,5.1,1.8,7.6,2.8c4.8,1.6,9.9,2.1,15,2.1c4.8,0,9.4-1.4,13.6-3.9
		c1.4-0.9,3.2-1.4,4.8-1.2c4.6,0.5,9.4,0.7,14,0.7c11.3,0.2,22.6-0.7,33.6-2.3c7.8-1.2,15.6-3,23.2-5.5c2.8-0.9,5.8-1.8,8.3-3.5
		c0.2,0,0.5,0,0.7-0.2c4.6-2.1,9-4.6,13.1-7.6c3.9-3,7.4-6.4,10.4-10.4c0.7-0.7,1.2-1.4,1.4-2.3c0.2,0,0.5-0.2,0.5-0.5
		c1.8-2.8,3.2-5.8,4.4-9c1.2-3.2,2.1-6.4,2.3-9.9c0.5-1.6,0.7-3.5,0.5-5.3c0-0.2,0-0.2,0-0.5c0.2-1.2,0.2-2.3,0.2-3.5
		c0-1.8-0.2-3.7-0.2-5.5c-0.2-3.2-0.5-6.2-0.9-9.4c-0.9-5.8-2.3-11.5-3.9-17.3c-3.5-11.5-8.1-22.6-13.3-33.4
		c-2.1-4.1-4.1-8.1-6.2-12c-1.4-2.5-2.8-4.8-4.1-7.4c-0.2-0.5-0.5-1.2-1.4-1.4c-0.2,2.5-0.2,5.3-0.7,7.8c-0.5,4.4-1.2,8.5-1.8,12.9
		c-0.5,2.3-0.9,4.6-1.4,6.9c-0.9,3.5-4.1,6-7.8,5.5c-1.4-0.2-2.5-0.7-3.5-1.4c-3-2.1-6-3.9-9.2-6c-0.9-0.5-0.9-0.5-1.4,0.5
		c-2.3,4.4-5.3,8.7-8.7,12.4c-1.6,1.8-3.5,3.5-5.3,5.3c-3.9,3.5-8.1,6.7-12.4,9.4c-0.9,0.7-1.8,1.2-3,1.8c5.5,1.2,10.8,2.8,15.9,4.8
		c1.2,0.5,2.3,1.2,3.2,2.1c2.1,2.1,2.5,5.3,1.4,7.8c-1.2,2.5-3.7,4.1-6.4,4.4C727.9,780.2,727.2,780.2,726.6,780.5L726.6,780.5z
		 M394,826c0.5,0.7,0.9,1.4,1.6,1.8c5.1,5.1,11,9.2,17.5,12.2c0.9,0.5,1.6,0.9,2.8,1.2c3.7,1.8,7.4,3.2,11.3,4.1
		c9.9,3,20,4.8,30.4,5.8c8.1,0.7,15.9,1.2,23.9,0.9c4.4,0,9-0.2,13.3-0.7c1.8-0.2,3.7,0.2,5.3,1.4c1.8,1.4,3.9,2.3,6.2,2.8
		c2.5,0.7,5.3,1.2,7.8,1.2c7.6,0,15.2-1.8,22.1-4.8c0.7-0.2,1.2-0.7,1.6-1.4c3.2-3.9,4.4-9.2,3-14c-1.2-3.7-3-6.9-5.5-9.9l-1.8-2.1
		c0.2,0,0.2-0.2,0.5-0.2c0.2,0,0.2,0,0.5,0.2c3.2,1.6,6.2,3.7,9,6.2c4.4,3.9,6.9,9.4,7.1,15.2c0,1.8,0,3.9-0.2,5.8
		c0,0.9,0,1.2,0.7,1.2c2.8,0.5,5.3,0.5,8.1,0c2.1-0.2,3.9-1.6,4.8-3.5c0.7-1.6,1.4-3.2,1.8-5.1c1.2-4.8,0.2-9.9-2.8-13.8
		c-1.6-2.3-3.7-4.1-5.8-5.8v-0.5c2.1,0.2,4.1,0.9,6,2.1c4.1,1.8,7.4,5.1,9.7,8.7c2.3,3.9,3.5,8.3,3.7,12.9c0.2,2.1,0.2,2.1,2.1,2.3
		c1.2,0.2,2.3,0.2,3.7,0c1.4-0.2,2.3-1.2,2.5-2.5c0.2-0.9,0.5-2.1,0.5-3.2c0-1.8-0.2-3.5-0.7-5.3c-1.8-9.7-5.8-18.9-11.5-26.9
		c-5.8-7.8-12.7-14.5-20.7-19.8c-17.5-12-38.2-18.6-59.6-19.1c-1.8-0.2-3.9-0.2-5.8,0.2h-1.2c-9.9,0.5-19.8,2.5-29,6.4
		c-0.9,0.2-2.1,0.5-3.2,0.5c-3.7-0.2-6.7-3.2-6.7-7.1c-0.2-3,1.6-5.5,4.4-6.7c1.8-0.9,3.9-1.6,6-2.3c5.1-1.8,10.4-3,15.6-3.9
		c4.6-0.9,9.4-1.4,14.3-1.4h1.6c1.2,0,1.4-0.5,0.9-1.4l-2.5-6c-0.5-1.2-0.7-1.2-1.8-0.9L473,754c-2.5,0.7-5.1,0-6.9-1.8
		c-5.3-5.1-8.3-12.2-8.5-19.6c0-0.5,0-0.9,0-1.4c0-0.9-0.5-1.2-1.4-0.7c-0.9,0.5-1.8,0.9-2.5,1.2c-0.9,0.5-1.8,0.7-3,0.9
		c-2.3,0.2-4.6-0.7-6.4-2.3c-3.2-3.2-6-7.1-8.1-11.3c-3.5-7.1-5.3-14.7-5.5-22.6c0-3.9,0-7.8,0-12c0-0.7,0-1.2,0.2-1.6
		c0.2-2.1,0.5-4.1,0.9-6.2c0-0.2,0-0.2-0.5-0.2c-0.5,0.7-1.2,1.4-1.6,2.3c-4.1,6-8.1,12.2-12,18.2c-4.6,7.4-9,14.7-12.9,22.3
		c-4.6,8.5-8.7,17.5-12.4,26.5c-2.3,5.8-4.4,11.7-6,17.9c-1.4,4.4-2.3,9-3,13.3c-0.7,3.7-1.2,7.6-1.2,11.5c0,1.8,0,3.5,0,5.3
		c0,1.2,0,2.3-0.2,3.7c-0.2,1.2,0.5,2.3,0.7,3.5c0.5,4.1,1.4,8.1,3,12C387.6,817.5,390.4,822.1,394,826z M496,359.4
		c0-0.5-0.5-0.7-0.7-0.9c-2.3-1.6-5.1-2.5-7.8-3.2c-2.8-0.7-5.8-0.9-8.7-0.9c-3.5,0-6.4-2.3-7.1-5.8c-0.5-2.3,0.2-4.6,1.8-6.2
		c4.1-5.1,9.2-9.2,15-12.7c3-1.6,6.2-3,9.4-3.7c0.5,0,0.9-0.2,1.4-0.5c0.5,0,0.5-0.5,0.5-0.7s0-0.7,0-0.9c-0.7-3.9-1.4-8.1-2.3-12
		c-2.5-12.9-6.2-25.8-10.8-38.2c-3.7-10.4-8.7-20.2-14.5-29.5c-4.1-6.7-9.2-12.7-14.7-18.2c-3.7-3.5-7.8-6.7-12.2-9.2
		c-0.9-0.9-2.3-0.7-3.2,0.2c-2.3,1.8-4.8,3.9-6.9,6.2c-5.8,6-10.6,12.4-14.7,19.6c-6.7,11.5-12.2,23.7-16.1,36.4
		c-8.1,24.6-12.2,50.2-12.9,75.9c-0.2,12.7,0.5,25.3,2.3,37.7c1.2,8.3,3,16.3,5.5,24.4c2.8,9.2,6.9,17.9,12,26
		c1.6,2.5,3.5,4.8,5.3,7.1c0.5,0.5,0.7,0.5,1.2,0l0.7-0.9c6.4-8.7,13.3-17,20.7-24.9c12.4-13.3,26.7-24.9,42.3-33.8
		c0.2-0.2,0.7-0.2,0.9-0.7c-0.2-0.5-0.7-0.5-0.9-0.5c-1.6,0-3.5,0.2-5.1,0.2c-3.9,0-7.4-3-7.4-7.1c0-0.2,0-0.5,0-0.7
		c0.2-1.6,0.7-3,1.6-4.1c3.7-5.5,8.7-10.1,14.5-13.6C488.4,361.9,492.1,360.3,496,359.4L496,359.4z M794.2,432.3l1.4,1.4
		c2.3,2.5,4.6,4.8,6.7,7.4c10.1,12,18.6,25.3,25.3,39.6c4.4,8.7,8.1,17.9,11.3,27.2c0.2,0.9,0.5,1.6,1.2,2.1
		c0.7-0.5,1.2-0.7,1.8-1.2c4.4-3,8.5-6.4,12.2-10.4c7.4-7.8,13.8-16.6,19.1-25.8c7.8-14.3,14-29.2,18.4-44.9
		c3.9-14,6.7-28.3,8.3-42.8c0.9-7.8,1.4-15.4,1.6-23.2c0.2-10.4,0-20.5-1.2-30.8c-0.9-8.1-2.3-16.1-4.4-23.9
		c-2.1-7.8-5.1-15.2-9-22.3c-1.4-2.3-2.8-4.4-4.4-6.4c-0.2-0.5-0.9-0.7-1.4-0.5c-2.8,0.7-5.5,1.4-8.1,2.3
		c-8.3,3.2-15.9,7.6-22.8,13.1c-7.8,6.2-15.2,13.3-21.4,21.2c-12.4,15.4-23,32.2-31.5,50.2c-0.2,0.5-0.5,0.9-0.5,1.4
		c0,0,0,0.2,0.2,0.2c0.2,0.2,0.7,0.5,0.9,0.7c2.8,1.6,5.5,3.5,7.6,6c4.6,4.8,8.5,10.6,11.3,16.8c0.2,0.5,0.5,0.9,0.5,1.4
		c0.9,3.9-1.4,7.8-5.1,8.7c-0.5,0.2-0.9,0.2-1.6,0.2c-1.2,0-2.3-0.2-3.5-0.7c-4.1-1.4-8.5-1.8-12.9-0.9c-1.4,0-2.5,0.5-3.7,1.2
		c0,0,0,0.2,0.2,0.2l1.8,1.2c8.1,5.5,14.3,13.6,17,23c0.2,0.9,0.5,1.6,0.7,2.5c0.5,3.5-1.8,6.7-5.3,7.6c-1.6,0.5-3.2,0.2-4.8-0.2
		C798.1,433,796.1,432.5,794.2,432.3L794.2,432.3z M591.5,814.8c0.5-0.5,0.9-0.9,0.9-1.4c0.9-1.4,1.6-2.8,2.3-4.1
		c5.5-9.2,12.9-17.3,21.4-23.9c17.7-13.8,38.9-22.6,61.2-25.3c2.1-0.2,4.4-0.5,6.4-0.7c0.7,0,1.4-0.5,1.8-1.2
		c2.5-3.7,4.6-7.8,6.2-12c0.2-0.7,0.5-1.4,0.7-2.1c1.2-2.8,3.9-4.6,6.9-4.6c1.4,0,2.5,0.5,3.7,1.2c2.8,1.4,5.5,3,8.3,4.4
		c0.7,0.5,1.4,0.5,2.1,0c5.1-3.7,9.9-7.8,13.8-12.7c3.5-3.9,5.5-8.7,6.4-13.8c0.5-3.7,3.7-6.2,7.4-6c1.4,0,2.8,0.5,4.1,1.4l7.6,5.1
		c0.5,0.2,0.9,0.7,1.6,0.7c0-0.2,0.2-0.5,0.2-0.7c0.7-3.7,0.9-7.4,1.2-11c0.2-2.5,0.2-5.1,0.2-7.6c0-0.2,0-0.5-0.2-0.5
		c-0.2,0-0.2,0-0.5,0l-0.7,0.7c-10.6,7.8-22.1,14.5-34.3,19.6c-20.7,8.5-42.6,14.3-64.9,16.8c-4.8,0.7-9.9,1.2-15,1.6
		c-6.9,0.7-14,1.2-20.9,1.2c-6.2,0.2-12.7,0.2-18.9,0.2c-8.3,0-16.6-0.2-24.9-0.9c-7.6-0.5-15.2-1.4-22.8-2.5
		c-11-1.8-22.1-4.4-32.7-7.6c-17.7-5.5-34.7-13.3-50.2-23.7c-8.3-5.5-15.9-11.7-23-18.4c-0.5-0.5-0.7-1.2-1.6-0.9
		c0,0.2-0.2,0.2-0.2,0.5c-0.7,6.2-0.2,12.7,1.2,18.9c0.7,3.5,2.3,6.9,4.1,10.1c1.4,2.1,1.2,1.6,2.8,0.9c3.7-1.6,7.1-3.2,10.8-4.8
		c0.7-0.2,1.4-0.7,2.1-0.7c3.7-1.2,7.6,0.9,8.7,4.4c0.7,1.8,0.7,3.9-0.2,5.8c-0.7,1.6-1.4,3-1.8,4.6c-1.2,3.7-1.2,7.6,0,11.3
		c1.2,3.2,0.9,2.5,3.5,1.8c4.4-1.2,8.7-2.3,13.1-3.2c3.5-0.9,6.9,0.9,8.3,4.1c0.2,0.5,0.2,0.9,0.5,1.4c2.5,6.4,5.3,12.7,8.5,18.6
		c0.5,0.9,1.4,1.6,2.5,1.6c6.4,0.9,12.9,2.3,19.1,4.4c14.7,4.6,28.5,12,40.5,21.9c9.2,7.4,16.8,16.8,22.3,27.2
		C590.8,814.1,591.3,814.5,591.5,814.8z M708.1,759.8c-1.2-0.7-2.3-1.4-3.5-1.8c-0.5-0.2-0.9-0.5-1.4-0.7c-0.2,0-0.5,0-0.7,0.2
		c-0.2,0.2-0.2,0.5-0.5,0.9c-0.2,0.7,0,1.2,0.7,1.2c1.2,0,2.3,0.2,3.7,0.5C707.2,760,707.7,760,708.1,759.8z"/>
	<path class="st29" d="M591.5,814.8c-0.2-0.2-0.5-0.7-0.7-0.9c-5.5-10.4-13.1-19.8-22.3-27.2c-12-9.9-25.8-17.3-40.5-21.9
		c-6.2-2.1-12.7-3.5-19.1-4.4c-1.2,0-2.1-0.7-2.5-1.6c-3.2-6-6-12.2-8.5-18.6c-0.2-0.5-0.2-0.9-0.5-1.4c-1.4-3.2-4.8-4.8-8.3-4.1
		c-4.4,1.2-8.7,2.3-13.1,3.2c-2.5,0.7-2.3,1.4-3.5-1.8c-1.2-3.7-1.2-7.6,0-11.3c0.5-1.6,1.2-3.2,1.8-4.6c0.9-1.8,0.9-3.9,0.2-5.8
		c-1.2-3.7-5.1-5.5-8.7-4.4c-0.7,0.2-1.4,0.5-2.1,0.7c-3.7,1.6-7.1,3.2-10.8,4.8c-1.6,0.7-1.4,1.2-2.8-0.9c-1.8-3-3.2-6.4-4.1-10.1
		c-1.4-6.2-1.8-12.4-1.2-18.9c0-0.2,0-0.2,0.2-0.5c0.7,0,1.2,0.7,1.6,0.9c7.1,6.7,14.7,12.9,23,18.4c15.4,10.1,32.4,18.2,50.2,23.7
		c10.8,3.2,21.6,6,32.7,7.6c7.6,1.2,15.2,2.1,22.8,2.5c8.3,0.7,16.6,0.9,24.9,0.9c6.2,0,12.7,0,18.9-0.2c7.1-0.2,14-0.7,20.9-1.2
		c5.1-0.5,9.9-0.9,15-1.6c22.3-2.5,44.2-8.3,64.9-16.8c12.2-5.1,23.7-11.7,34.3-19.6l0.7-0.7c0.2,0,0.2,0,0.5,0
		c0.2,0,0.2,0.2,0.2,0.5c0,2.5,0,5.1-0.2,7.6c-0.2,3.7-0.7,7.4-1.2,11c0,0.2,0,0.5-0.2,0.7c-0.7,0-1.2-0.5-1.6-0.7l-7.6-5.3
		c-1.2-0.9-2.5-1.4-4.1-1.4c-3.7-0.2-6.9,2.3-7.4,6c-0.7,5.1-3,9.9-6.4,13.8c-3.9,4.8-8.7,9.2-13.8,12.7c-0.7,0.5-1.4,0.5-2.1,0
		c-2.8-1.6-5.5-3-8.3-4.4c-1.2-0.7-2.3-0.9-3.7-1.2c-3,0-5.8,1.8-6.9,4.6c-0.2,0.7-0.5,1.4-0.7,2.1c-1.6,4.4-3.9,8.3-6.7,12.2
		c-0.5,0.7-1.2,0.9-1.8,1.2c-2.1,0.2-4.4,0.5-6.4,0.7c-22.3,2.8-43.5,11.5-61.2,25.3c-8.5,6.7-15.6,14.7-21.4,23.9
		c-0.9,1.4-1.6,2.8-2.3,4.1C592.4,813.8,591.9,814.5,591.5,814.8z M766.4,840.5c-3.2,0-6.4-0.2-9.7-0.7c-7.6-0.7-15.2-2.5-22.3-5.8
		c-2.8-1.4-5.5-3-8.1-5.1c-2.8-2.5-5.1-5.5-6.4-9c-1.8-4.1-3.2-8.3-4.6-12.7c-1.6-5.3-3.5-10.8-5.5-15.9
		c-2.8-6.9-7.1-13.1-12.9-17.7v-0.2c-0.7,0-1.4-0.2-1.8-0.2c-5.1,0-10.1,0.2-15.2,0.7c-9.4,1.2-18.6,3.7-27.6,7.1
		c-12.2,4.6-23.2,11.7-32.7,20.5c-9.9,9.2-16.8,21.2-20,34.5c-0.2,1.4-0.5,2.8-0.2,4.1c0.2,2.3,0.2,4.8,0,7.1c0,0.2,0,0.2,0,0.5
		c0,0.7,0.2,1.2,0.9,1.4c0.5,0.2,1.2,0.5,1.8,0.7c1.8,0.2,3.7,0,5.3-0.5c0-1.2,0.2-2.5,0.2-3.7c0.7-10.6,8.1-19.3,18.4-21.9
		c0.2,0,0.7-0.2,1.2,0.2c-1.6,1.2-3.2,2.5-4.6,3.9c-3.2,3.2-5.1,7.8-4.8,12.4c0.2,3,0.9,5.8,2.3,8.3c0.9,1.8,2.8,3.2,4.8,3.5
		c2.8,0.5,5.5,0.5,8.3,0c0.7,0,0.9-0.5,0.7-0.9c-0.2-1.6-0.2-3.2-0.2-4.8c0-5.1,1.8-9.7,4.8-13.6c3-3.7,6.7-6.7,11-8.5
		c0.2-0.2,0.7-0.5,1.2-0.2c-0.5,0.5-0.9,1.2-1.4,1.6c-2.1,2.3-3.7,4.6-4.8,7.4c-2.8,5.3-2.1,12,1.6,16.6c0.7,0.7,1.4,1.4,2.3,1.8
		c2.5,0.9,5.1,1.8,7.6,2.8c4.8,1.6,9.9,2.1,15,2.1c4.8,0,9.4-1.4,13.6-3.9c1.4-0.9,3.2-1.4,4.8-1.2c4.6,0.5,9.4,0.7,14,0.7
		c11.3,0.2,22.6-0.7,33.6-2.3c7.8-1.2,15.6-3,23.2-5.5c2.8-0.9,5.8-1.8,8.3-3.5C767.3,840.5,766.6,840.5,766.4,840.5L766.4,840.5z
		 M556.3,824c-0.2-0.2-0.2-0.2,0-0.5h0.2c0.2,0,0.5,0.2,0.5,0.5c2.1,0.2,4.1,0.9,6,2.1c4.1,1.8,7.4,5.1,9.7,8.7
		c2.3,3.9,3.5,8.3,3.7,12.9c0.2,2.1,0.2,2.1,2.1,2.3c1.2,0.2,2.3,0.2,3.7,0c1.4-0.2,2.3-1.2,2.5-2.5c0.2-0.9,0.5-2.1,0.5-3.2
		c0-1.8-0.2-3.5-0.7-5.3c-1.8-9.7-5.8-18.9-11.5-26.9c-5.8-7.8-12.7-14.5-20.7-19.8c-17.5-12-38.2-18.6-59.6-19.1
		c-1.8-0.2-3.9-0.2-5.8,0.2l-2.1,1.8c-4.6,4.1-8.3,9.2-10.6,15c-2.3,5.3-4.1,10.8-5.8,16.3c-1.4,4.1-2.8,8.3-4.4,12.2
		c-1.6,3.9-3.9,7.4-6.9,10.1c-2.5,2.1-5.1,3.9-8.1,5.3c-5.1,2.3-10.4,3.7-15.6,4.6c-5.3,0.9-10.8,1.6-16.1,1.6c-0.7,0-1.4,0-1.8,0.5
		c3.7,1.8,7.4,3.2,11.3,4.1c9.9,3,20,4.8,30.4,5.8c8.1,0.7,15.9,1.2,23.9,0.9c4.4,0,9-0.2,13.3-0.7c1.8-0.2,3.7,0.2,5.3,1.4
		c1.8,1.4,3.9,2.3,6.2,2.8c2.5,0.7,5.3,1.2,7.8,1.2c7.6,0,15.2-1.8,22.1-4.8c0.7-0.2,1.2-0.7,1.6-1.4c3.2-3.9,4.4-9.2,3-14
		c-1.2-3.7-3-6.9-5.5-9.9L533,824c0.2,0,0.2-0.2,0.5-0.2s0.2,0,0.5,0.2c3.2,1.6,6.2,3.7,9,6.2c4.4,3.9,6.9,9.4,7.1,15.2
		c0,1.8,0,3.9-0.2,5.8c0,0.9,0,1.2,0.7,1.2c2.8,0.5,5.3,0.5,8.1,0c2.1-0.2,3.9-1.6,4.8-3.5c0.7-1.6,1.4-3.2,1.8-5.1
		c1.2-4.8,0.2-9.9-2.8-13.8c-1.6-2.3-3.7-4.1-5.8-5.8C556.5,824.4,556.3,824.2,556.3,824L556.3,824z"/>
	<path class="st28" d="M394,826c-3.7-3.9-6.4-8.3-8.3-13.3c-1.6-3.7-2.5-7.8-3-12c0-1.2-0.9-2.3-0.7-3.5c0.2-1.2,0.2-2.3,0.2-3.7
		c0-1.8,0-3.5,0-5.3c0-3.9,0.5-7.8,1.2-11.5c0.7-4.6,1.8-9,3-13.3c1.6-6,3.7-12,6-17.9c3.7-9,7.8-17.9,12.4-26.5
		c4.1-7.6,8.3-15.2,12.9-22.3c3.9-6.2,7.8-12.2,12-18.2c0.5-0.7,1.2-1.6,1.6-2.3c0.5,0,0.5,0,0.5,0.2c-0.2,2.1-0.5,4.1-0.9,6.2
		c0,0.7,0,1.2-0.2,1.6c0,3.9-0.2,7.8,0,12c0.2,7.8,2.1,15.6,5.5,22.6c2.1,4.1,4.6,7.8,8.1,11.3c1.6,1.6,3.9,2.5,6.4,2.3
		c0.9-0.2,2.1-0.5,3-0.9c0.9-0.5,1.8-0.9,2.5-1.2c0.7-0.2,1.2-0.2,1.4,0.7c0,0.5,0,0.9,0,1.4c0.2,7.4,3.2,14.3,8.5,19.6
		c1.8,1.8,4.4,2.8,6.9,1.8l12.4-3.2c1.2-0.2,1.4-0.2,1.8,0.9l2.5,6c0.5,1.2,0.2,1.4-0.9,1.4h-1.6c-4.8,0-9.4,0.5-14.3,1.4
		c-5.3,0.9-10.6,2.1-15.6,3.9c-2.1,0.7-3.9,1.4-6,2.3c-2.8,1.2-4.4,3.7-4.4,6.7c0,3.7,2.8,6.9,6.7,7.1c1.2,0,2.1,0,3.2-0.5
		c-0.5,1.8-0.7,3.7-0.7,5.5c0,3.5-0.2,7.1-0.7,10.6c-0.2,2.1-0.7,4.1-1.4,6c-0.7,2.5-3.2,3.9-5.8,3h-0.2c-2.5-0.7-5.3-0.5-7.8,0.7
		c-1.6,0.7-3.5,1.6-4.8,2.5c-3.9,2.5-7.6,5.3-11.3,8.1c-4.4,3.2-9,6-14,8.1c-3.2,1.4-6.9,2.1-10.4,2.1
		C397.7,826.5,395.9,826,394,826z"/>
	<path class="st3" d="M791.7,643.8l13.8,13.1c0.7-1.2,1.4-2.5,2.3-3.7c-20-98-118.7-27.8-131.2-63.3c-18.4-51.5-55.5-58.7-55.5-58.7
		c-6.7-37.3,32.2-149.6,47.6-191.9c-4.4-0.2-8.1-0.5-11-0.7h-2.1l0,0l-1.8-0.2l0,0l-1.6-0.2l0,0l-1.6-0.2l0,0h-0.2l0,0h-0.2l0,0
		c-5.8-1.2-11.3-2.1-17-2.5l0,0c-5.3,73.4-47.6,188-47.6,188c-75-2.5-53.8,63.3-106.3,25.3c-64.2-46.3-90.2,9.7-90.2,9.7l22.6-5.5
		c0,0-0.9,2.5-2.1,6.9c0,0.2,0,0.5-0.2,0.7c-0.2,0.2-0.2,0.7-0.2,0.9c0,0.2,0,0.5-0.2,0.7s-0.2,0.7-0.2,0.9c0,0.2,0,0.5-0.2,0.7
		c-0.2,0.2-0.2,1.2-0.2,1.6c0,0.2,0,0.5,0,0.5l-0.5,1.8c0,0.2,0,0.5-0.2,0.7s-0.2,0.9-0.2,1.4l-0.2,0.7l-0.2,1.8c0,0.2,0,0.5,0,0.7
		c0,0.9-0.2,1.6-0.2,2.5v0.7c0,0.7-0.2,1.4-0.2,2.1v0.9c0,0.7-0.2,1.4-0.2,2.1v0.7c-0.2,1.8-0.2,3.7-0.2,5.8c0,0.2,0,0.5,0,0.9
		c0,0.7,0,1.4,0,2.3c0,0.2,0,0.7,0,0.9c0,0.9,0,1.6,0,2.5v0.7c0,0.9,0,2.1,0,3.2c0,0.2,0,0.5,0,0.7c0,0.9,0,1.6,0.2,2.5v0.9l0.2,2.3
		c0,0.2,0,0.7,0,0.9c0.2,2.1,0.5,4.4,0.9,6.7c0,0.2,0,0.7,0.2,0.9c0.2,0.9,0.2,1.6,0.5,2.5c0,0.5,0.2,0.7,0.2,1.2
		c0.2,0.9,0.5,1.8,0.7,2.5c0,0.2,0.2,0.5,0.2,0.7c0.2,1.2,0.7,2.3,0.9,3.5l0.2,0.7c0.2,0.9,0.5,1.8,0.9,2.8c0.2,0.5,0.2,0.7,0.5,1.2
		c0.2,0.9,0.5,1.6,0.9,2.5c0.2,0.2,0.2,0.7,0.5,1.2c0.5,1.2,0.9,2.3,1.4,3.5l7.1-9.7c1.8,4.6,3.9,9,6.2,13.3
		c0.7,1.2,1.2,2.3,2.1,3.5c1.8,3,3.7,6.2,6.2,9.4l1.4,2.1c0.9,1.4,2.1,2.8,3.2,4.4s2.3,3,3.7,4.4s2.5,3,3.9,4.6
		c16.6,18.2,42.3,37.7,81.2,49.5c3.2,0.9,6.7,1.8,9.9,2.8c1.6,0.5,3.5,0.9,5.3,1.2c3.5,0.7,7.1,1.4,10.8,2.1
		c3.7,0.7,7.6,1.2,11.3,1.6c7.8,0.9,15.9,1.6,24.6,2.1C727.2,730.3,772.6,678.5,791.7,643.8z"/>
	<path class="st28" d="M726.3,780.2c0.9,0,1.8,0,2.5,0c2.8,0,5.3-1.6,6.4-4.4c1.2-2.5,0.7-5.8-1.4-7.8c-0.9-0.9-2.1-1.6-3.2-2.1
		c-5.1-2.1-10.4-3.7-15.9-4.8c0.9-0.7,2.1-1.2,3-1.8c4.4-2.8,8.7-6,12.7-9.4c1.8-1.6,3.7-3.5,5.3-5.3c3.5-3.7,6.4-7.8,8.7-12.4
		c0.5-0.9,0.7-0.9,1.4-0.5c3,2.1,6,3.9,9.2,6c1.2,0.7,2.3,1.2,3.5,1.4c3.7,0.5,6.9-2.1,7.8-5.5c0.7-2.3,1.2-4.6,1.4-6.9
		c0.7-4.4,1.4-8.5,1.8-12.9c0.2-2.5,0.5-5.1,0.7-7.8c0.7,0.2,0.9,0.9,1.4,1.4c1.4,2.5,2.8,4.8,4.1,7.4c2.1,3.9,4.4,8.1,6.2,12
		c5.3,10.8,9.9,21.9,13.3,33.4c1.6,5.5,3,11.3,3.9,17.3c0.5,3.2,0.9,6.2,0.9,9.4c0,1.8,0.5,3.7,0.2,5.5c0,1.2,0,2.3-0.2,3.5
		c0,0.2,0,0.2,0,0.5c0.2,1.8,0,3.5-0.5,5.3c-0.5,3.5-1.2,6.7-2.3,9.9c-1.2,3.2-2.5,6.2-4.4,9c-0.2,0.2-0.2,0.5-0.5,0.5
		c-1.8,0.5-3.7,0.7-5.5,0.9c-4.6,0.2-9.2,0-13.8-1.2c-9-2.3-17.5-6.2-25.1-11.7c-4.8-3.5-9.2-7.4-12.7-12.2
		c-1.6-2.1-2.8-4.1-3.7-6.4c-1.2-2.5-2.5-5.1-4.4-7.4C727.5,781.8,727,781.2,726.3,780.2z"/>
	<path class="st28" d="M556.7,824.4c-0.5,0-0.5-0.2-0.7-0.5c-0.2-0.2-0.2-0.2,0-0.5h0.2c0.2,0,0.5,0.2,0.5,0.5V824.4z"/>
	<path class="st7" d="M589.2,527.3c3.7,0.2,7.6,0.7,11.3,1.6c5.5,1.2,11,2.5,16.3,4.1c5.3,2.1,10.4,4.4,15.4,6.9
		c8.3,4.1,15.6,10.1,21.6,17c4.1,4.8,7.1,10.4,8.7,16.6c0.2,1.2,0.5,2.1,0.2,3.2c-0.2-0.2-0.2-0.2-0.5-0.5
		c-4.1-6.4-9.9-12.2-16.3-16.3c-1.8-1.2-3.7-2.3-5.5-3.5c-0.5-0.2-0.7-0.5-1.2-0.5c-0.2,0.5-0.5,0.9-0.2,1.4
		c0.2,6.4-1.6,12.7-4.8,18.2c-5.3,9-13.3,15.9-23,19.6c-4.6,1.8-9.7,3-14.7,3h-0.7c-0.7,0-1.2,0.5-1.2,0.9
		c-1.6,4.4-2.5,8.7-3.2,13.3c0,0.7,0.2,1.4,0.7,1.6c6.4,6,14,10.6,22.3,13.3c8.1,2.5,16.6,2.1,24.4-1.2c5.3-2.1,10.1-5.1,14.7-8.5
		c1.8-1.4,3.7-3,5.5-4.4c0.5-0.2,0.7-0.9,1.4-0.9c-0.5,1.2-0.9,2.3-1.8,3.5c-4.6,8.1-11,14.7-19.1,19.3c-6.9,3.9-14.7,5.5-22.6,5.1
		c-7.1-0.5-14-2.5-20.2-6c-4.8-2.5-9.2-5.5-13.3-9.2c-0.9-0.9-2.1-1.2-3.2-0.9c-6.9,1.6-14,2.3-21.2,1.8c-6.9-0.2-13.8-2.1-20-5.3
		c-8.3-4.4-14.5-12-17-20.9c-2.1-6.7-2.5-13.6-1.4-20.5c0-0.5,0.2-0.7,0.5-1.2c0-0.2,0.2-0.2,0.2-0.2c0.9,4.1,2.1,8.3,3.7,12.4
		c1.6,4.1,3.7,7.8,6.4,11.3c4.8,5.8,11.5,9.7,19.1,10.6c4.8,0.7,9.4,0.7,14.3,0.2c3.7-0.5,7.1-1.2,10.8-1.6l0.9-0.2
		c0.5,0,0.9-0.5,0.9-0.9c0.2-1.4,0.5-3,0.7-4.4c0.7-3.2,1.4-6.4,2.5-9.7c-0.7-0.7-1.6-1.2-2.5-1.4c-12.7-5.3-22.3-16.1-26-29.2
		c-2.1-6.7-2.3-14-0.2-20.7c0.5-1.2,0.9-2.5,1.4-3.7c-1.4,0-2.5,0.2-3.9,0.7c-7.4,1.6-14.5,4.4-21.2,8.1c-0.2-0.2-0.5-0.5-0.2-0.7
		l0,0c0.7-1.2,1.4-2.1,2.3-3.2c5.8-6.4,12.9-11.3,21.2-14c5.5-2.1,11-3.5,16.8-4.1c3-0.5,6-0.7,9-0.7c2.3,0,4.6,0,6.7,0l0,0
		c0.2,0,0.5,0.2,0.7,0.2C585.7,527.3,587.6,527.3,589.2,527.3z"/>
	<path class="st7" d="M695.7,518.4c0.5,0.5,0.9,0.7,1.4,0.7c6.4,1.6,12.4,4.1,17.9,7.6c4.4,2.8,8.3,6.4,11,10.6
		c1.4,1.8,2.1,3.9,1.8,6.2c-0.5,3.9-3.9,6.9-7.8,6.4c-0.2,0-0.5,0-0.7,0c-1.8-0.2-3.7-1.6-4.6-3.2c-2.3-3.9-5.5-6.9-9.4-9
		c-1.8-1.2-3.9-2.1-6-2.8c-5.8-2.1-11.5-3.7-17.5-4.4c-3.2-0.5-6.4-0.9-9.9-0.9c-1.6,0-3.2-0.5-4.6-1.4c-1.8-1.2-3-3-3-5.1
		c0-0.7,0-1.2,0-1.6c0-1.4,0.5-3,1.6-3.9c1.4-1.4,3-2.8,4.6-3.9c5.8-3.9,12.2-6.9,18.9-9c3.9-1.2,8.1-2.1,12.2-2.5
		c2.3-0.5,4.4-0.7,6.7-0.7c1.6,0,3.5,0,5.1-0.2c0.9-0.2,1.8-0.2,3,0c2.1,0.2,4.1,0.5,6.2,0.2c2.5,0.2,5.1,0.5,7.6,0.9
		c3.9,0.7,6.4,4.4,6,8.3c0,0.2-0.2,0.7-0.2,0.9c-0.7,2.8-3.2,4.8-6.2,5.1c-1.6,0-3.5,0-5.1-0.5c-0.2,0-0.5,0-0.7,0
		c-3.7,0-7.4-0.7-11-0.5c-5.3,0.2-10.6,0.9-15.9,2.1C696.9,517.9,696.4,518.1,695.7,518.4z"/>
	<path class="st7" d="M521.1,520c-16.1,0-29-12.9-29-29s12.9-29,29-29c16.1,0,29,12.9,29,29l0,0C550.1,507.1,536.9,520,521.1,520
		L521.1,520z M532.6,491c3.7,0,6.9-2.8,6.9-6.4c0,0,0,0,0-0.2c0-3.9-3-6.9-6.9-6.9c-3.7,0-6.7,3-6.7,6.7c0,3.7,2.8,6.7,6.4,6.9
		C532.3,491,532.3,491,532.6,491L532.6,491z"/>
	<path class="st30" d="M495.3,358.4c-2.3-1.6-5.1-2.5-7.8-3.2c-2.8-0.7-5.8-0.9-8.7-0.9c-3.5,0-6.4-2.3-7.1-5.8
		c-0.5-2.3,0.2-4.6,1.8-6.2c4.1-5.1,9.2-9.2,15-12.7c3-1.6,6.2-3,9.4-3.7c0.5,0,0.9-0.2,1.4-0.5c0.5,0,0.5-0.5,0.5-0.7s0-0.7,0-0.9
		c-0.7-3.9-1.4-8.1-2.3-12c-2.5-12.9-6.2-25.8-10.8-38.2c-3.7-10.4-8.7-20.2-14.5-29.5c-4.1-6.7-9.2-12.7-14.7-18.2
		c-3.7-3.5-7.8-6.7-12.2-9.2c-0.9-0.9-2.3-0.7-3.2,0.2c-2.3,1.8-4.8,3.9-6.9,6.2c-5.8,6-10.6,12.4-14.7,19.6
		c-6.7,11.5-12.2,23.7-16.1,36.4c-8.1,24.6-12.2,50.2-12.9,75.9c-0.2,12.7,0.5,25.3,2.3,37.7c1.2,8.3,3,16.3,5.5,24.4
		c2.8,9.2,6.9,17.9,12,26c1.6,2.5,3.5,4.8,5.3,7.1c0.5,0.5,0.7,0.5,1.2,0l0.7-0.9c6.4-8.7,13.3-17,20.7-24.9
		c12.4-13.3,26.7-24.9,42.3-33.8c0.2-0.2,0.7-0.2,0.9-0.7c-0.2-0.5-0.7-0.5-0.9-0.5c-1.6,0-3.5,0.2-5.1,0.2c-3.9,0-7.4-3-7.4-7.1
		c0-0.2,0-0.5,0-0.7c0.2-1.6,0.7-3,1.6-4.1c3.7-5.5,8.7-10.1,14.5-13.6c3.5-1.8,7.1-3.5,11-4.4C496,358.9,495.5,358.7,495.3,358.4z"
		/>
	<path class="st30" d="M795.6,433.7c2.3,2.5,4.6,4.8,6.7,7.4c10.1,12,18.6,25.3,25.3,39.6c4.4,8.7,8.1,17.9,11.3,27.2
		c0.2,0.9,0.5,1.6,1.2,2.1c0.7-0.5,1.2-0.7,1.8-1.2c4.4-3,8.5-6.4,12.2-10.4c7.4-7.8,13.8-16.6,19.1-25.8
		c7.8-14.3,14-29.2,18.4-44.9c3.9-14,6.7-28.3,8.3-42.8c0.9-7.8,1.4-15.4,1.6-23.2c0.2-10.4,0-20.5-1.2-30.8
		c-0.9-8.1-2.3-16.1-4.4-23.9c-2.1-7.8-5.1-15.2-9-22.3c-1.4-2.3-2.8-4.4-4.4-6.4c-0.2-0.5-0.9-0.7-1.4-0.5
		c-2.8,0.7-5.5,1.4-8.1,2.3c-8.3,3.2-15.9,7.6-22.8,13.1c-7.8,6.2-15.2,13.3-21.4,21.2c-12.4,15.4-23,32.2-31.5,50.2
		c-0.2,0.5-0.5,0.9-0.5,1.4c0,0,0,0.2,0.2,0.2c0.2,0.2,0.7,0.5,0.9,0.7c2.8,1.6,5.5,3.5,7.6,6c4.6,4.8,8.5,10.6,11.3,16.8
		c0.2,0.5,0.5,0.9,0.5,1.4c0.9,3.9-1.4,7.8-5.1,8.7c-0.5,0.2-0.9,0.2-1.6,0.2c-1.2,0-2.3-0.2-3.5-0.7c-4.1-1.4-8.5-1.8-12.9-0.9
		c-1.4,0-2.5,0.5-3.7,1.2c0,0,0,0.2,0.2,0.2l1.8,1.2c8.1,5.5,14.3,13.6,17,23c0.2,0.9,0.5,1.6,0.7,2.5c0.5,3.5-1.8,6.7-5.3,7.6
		c-1.6,0.5-3.2,0.2-4.8-0.2c-1.8-0.7-3.9-1.4-5.8-1.8L795.6,433.7z"/>
	<path class="st30" d="M723.6,778.9c-6-2.3-12.4-3.9-18.9-4.6c-2.8-0.5-5.5-0.7-8.1-0.7v0.2c5.8,4.6,10.4,10.8,12.9,17.7
		c2.1,5.3,3.9,10.6,5.5,15.9c1.4,4.4,2.8,8.5,4.6,12.7c1.4,3.5,3.7,6.4,6.4,9c2.5,2.1,5.1,3.7,8.1,5.1c7.1,3,14.7,5.1,22.3,5.8
		c3.2,0.5,6.4,0.7,9.7,0.7c0.5,0,0.9,0,1.4,0.2c0.2,0,0.5,0,0.7-0.2c4.6-2.1,9-4.6,13.1-7.6c3.9-3,7.4-6.4,10.4-10.4
		c0.7-0.7,1.2-1.4,1.4-2.3c-1.8,0.5-3.7,0.7-5.5,0.9c-4.6,0.2-9.2,0-13.8-1.2c-9-2.3-17.5-6.2-25.1-11.7c-4.8-3.5-9.2-7.4-12.7-12.2
		c-1.6-2.1-2.8-4.1-3.7-6.4c-1.2-2.5-2.5-5.1-4.4-7.4c-0.7-0.7-1.2-1.6-1.6-2.3C725.4,779.8,724.5,779.3,723.6,778.9z"/>
	<path class="st30" d="M395.7,827.6c5.1,5.1,11,9.2,17.5,12.2c0.9,0.5,1.6,0.9,2.8,1.2c0.5-0.7,1.2-0.5,1.8-0.5
		c5.3,0,10.8-0.7,16.1-1.6c5.5-0.9,10.6-2.3,15.6-4.6c3-1.4,5.8-3,8.1-5.3c3-2.8,5.3-6.2,6.9-10.1c1.6-3.9,3-8.1,4.4-12.2
		c1.6-5.5,3.5-11,5.8-16.3c2.3-5.8,6-10.8,10.6-15l2.1-1.8h-1.2c-9.9,0.5-19.8,2.5-29,6.4c-0.5,1.8-0.7,3.7-0.7,5.5
		c0,3.5-0.2,7.1-0.7,10.6c-0.2,2.1-0.7,4.1-1.4,6c-0.7,2.5-3.2,3.9-5.8,3h-0.2c-2.5-0.7-5.3-0.5-7.8,0.7c-1.6,0.7-3.5,1.6-4.8,2.5
		c-3.9,2.5-7.6,5.3-11.3,8.1c-4.4,3.2-9,6-14,8.1c-3.2,1.4-6.9,2.1-10.4,2.1c-1.8,0-3.7-0.5-5.5-0.5
		C394.5,826.7,395.2,827.2,395.7,827.6z"/>
	<path class="st30" d="M753.3,606.3c4.8,0.7,9.7,1.8,14.3,3.5c6.9,2.5,13.3,6.9,18.4,12.2c4.6,4.8,8.1,10.4,10.8,16.6
		c1.6,3.9,3.2,7.8,4.6,12c0.2-0.2,0.2-0.5,0.2-0.7c3-12,5.1-24.2,6-36.4c0.7-9.7,0-19.3-2.3-28.8c-0.5-1.6-0.2-3.2,0.2-4.6
		c-0.2-0.7-0.9-0.9-1.6-0.7c-2.3,0.2-4.6,0.2-6.7,0.5c-3.5,0.7-6.9,1.4-10.4,2.5c-5.5,1.8-10.8,4.1-16.1,6.7
		c-9.7,4.6-19.3,9.9-28.8,15c-0.7,0.5-1.4,0.9-2.1,1.4C744.5,605.4,748.9,605.6,753.3,606.3z"/>
	<path class="st30" d="M421,507.1c-4.4,5.1-8.3,10.4-11.7,15.9c-5.3,8.1-9.4,16.6-12.4,25.8c-0.5,0.9-0.7,2.1-0.7,3
		c0.9-0.9,2.1-1.6,3-2.5c7.4-6.4,16.6-10.4,26.5-11.3c5.1-0.5,10.1,0,15.2,1.2c8.3,1.8,16.3,5.1,23.7,9.4c2.3,1.4,4.6,2.8,6.9,4.1
		c0-0.2,0-0.7-0.2-0.9c-3.2-8.5-7.4-16.6-12.7-23.9c-4.1-5.8-9-10.6-14.3-15c-5.5-4.1-11.5-7.4-18.2-9.4c-0.9-0.5-1.6-0.5-2.5-0.2
		C422.8,504.6,422.1,505.9,421,507.1z"/>
	<path class="st30" d="M664.4,448.9c-2.5,1.4-4.8,3-6.7,5.1c-2.3,2.3-3.9,5.5-4.4,8.7c-0.5,4.1,1.2,8.1,3.9,11
		c2.8,3,6.4,5.3,10.4,6.4c5.5,1.8,11.3,2.5,17,2.1c5.5-0.5,10.8-2.1,15.6-4.6c3.2-1.6,6.2-4.1,8.3-7.1c3.5-4.8,3.5-11.3-0.2-16.1
		c-1.8-2.5-4.4-4.6-7.1-6c-5.3-2.8-11.3-4.1-17.3-4.1C677.3,444,670.4,445.7,664.4,448.9z"/>
	<path class="st30" d="M569.9,457.9c2.1-0.5,4.1-1.2,6.2-2.1c3.2-1.6,5.5-4.4,6.7-7.8c0.9-3.2,0.7-6.4-0.5-9.7
		c-1.6-4.4-4.4-8.3-7.8-11.3c-3.7-3.5-7.8-6-12.4-7.8c-6.2-2.8-12.9-3.7-19.6-2.8c-3,0.5-6,1.6-8.5,3.2c-4.6,3-6.9,8.5-5.5,13.8
		c1.2,5.3,3.9,10.1,8.1,13.8c3.5,3.5,7.6,6,12.2,7.8c5.3,2.3,10.8,3.5,16.6,3.5C566.4,458.5,568.2,458.3,569.9,457.9z"/>
	<path class="st31" d="M532.3,491c-3.7,0.2-6.7-2.8-6.9-6.4c0-0.2,0-0.2,0-0.5c0-3.7,3-6.7,6.7-6.7c3.9,0,6.9,3,6.9,6.9
		C539.2,488,536.3,491,532.3,491C532.6,491,532.6,491,532.3,491z"/>
</g>
</svg>
