<?xml version="1.0" encoding="utf-8"?>
<!-- Generator: Adobe Illustrator 24.0.0, SVG Export Plug-In . SVG Version: 6.00 Build 0)  -->
<svg version="1.1" id="Layer_1" xmlns="http://www.w3.org/2000/svg" xmlns:xlink="http://www.w3.org/1999/xlink" x="0px" y="0px"
	 viewBox="0 0 1200 1200" style="enable-background:new 0 0 1200 1200;" xml:space="preserve">
<style type="text/css">
	.st0{fill:#BE9A71;}
	.st1{fill:#D9A993;}
	.st2{fill:#683A32;}
	.st3{fill:#FFFFFF;}
	.st4{fill:#F78C8B;}
	.st5{fill:#1D1D1B;}
	.st6{fill:#FDAC49;}
	.st7{fill:#191919;}
	.st8{fill:#333333;}
	.st9{fill:#14192C;}
	.st10{fill:#3E3D4F;}
	.st11{fill:#A15225;}
	.st12{fill:#895834;}
	.st13{fill:#1A0A14;}
	.st14{fill:#672E28;}
	.st15{fill:#111B1D;}
	.st16{fill:#EBEBEB;}
	.st17{fill:#494859;}
	.st18{fill:#2F2627;}
	.st19{fill:#C7B6AC;}
	.st20{fill:#E2D9D4;}
	.st21{fill:#D6CDCA;}
	.st22{fill:#674043;}
	.st23{fill:#3D3834;}
	.st24{fill:#E4DACE;}
	.st25{fill:#554E46;}
	.st26{fill:#E8E8E8;}
	.st27{fill:#AEE9FA;}
	.st28{fill:#4D4D4D;}
	.st29{fill:#FDFDFD;}
	.st30{fill:#FAAF5E;}
	.st31{fill:#F8FCFC;}
	.st32{fill:#DBCFB5;}
	.st33{fill:#6D6D6D;}
	.st34{fill:#C69C6D;}
	.st35{fill:#F0B965;}
	.st36{fill:#DA7B45;}
	.st37{fill:#FAE7D6;}
	.st38{fill:#FDF8F2;}
	.st39{fill:#E2C4AA;}
	.st40{fill:#BC8571;}
	.st41{fill:#2F322A;}
	.st42{fill:#444741;}
	.st43{fill:#46282D;}
	.st44{fill:#986858;}
	.st45{fill:#F0C7A2;}
	.st46{fill:#FCE9C8;}
	.st47{fill:#808080;}
	.st48{fill:#4E4E4E;}
	.st49{fill:#E8CBA9;}
	.st50{fill:#956B50;}
</style>
<g>
	<path class="st5" d="M1088.3,784.7H213.2c-4.2,0-7.5-4.3-7.5-9.7s3.4-9.7,7.5-9.7h875.1c4.2,0,7.5,4.4,7.5,9.7
		C1095.8,780.4,1092.5,784.7,1088.3,784.7z"/>
	<path class="st3" d="M472.4,724.4c41.5,65.2-7.8,79.8-7.8,79.8c-11,38.8-48.9,21.1-48.9,21.1c-31.9,13.1-47.8-21.3-47.8-21.3
		c-37.9,1.3-33.8-53.7-20.1-76.2C362.6,703.3,442,676.6,472.4,724.4z"/>
	<path class="st5" d="M478.8,720.3C472.3,710.1,463,702,452,697c-10.4-4.5-21.7-6.8-33.1-6.6c-31.1,0-66.5,15.4-77.6,33.5
		c-5.8,10.5-9.4,22-10.4,34c-1.4,14.3,0.7,27.5,5.9,36.8c5.3,9.9,15.4,16.2,26.6,16.7c4.8,8,17.4,24.3,38.3,24.3l0,0
		c4.8,0,9.5-0.8,14-2.4c6.1,2.2,12.4,3.4,18.9,3.5c17.3,0,30.1-9.6,36.2-27c10.5-4.6,18.8-13.2,23.1-23.9
		C500.5,768.3,495.3,746.3,478.8,720.3z M479.8,780.4c-2.2,5.8-6.4,10.7-11.7,13.9c-2.3-4.4-5.2-8.5-8.5-12.1
		c-3-2.9-7.7-2.8-10.6,0.2c-2.9,3-2.8,7.7,0.2,10.6c2.8,3.5,5.3,7.3,7.2,11.4c0,0.1,0.1,0.3,0.2,0.4c-4,11.4-11.2,17-22,17
		c-3.8-0.1-7.6-0.6-11.2-1.7c0.3-4.6,0.2-9.2-0.1-13.8c-0.5-4.1-4.3-7-8.4-6.5s-7,4.3-6.5,8.4c0.2,3.9,0.2,7.8,0,11.8
		c-2.2,0.6-4.4,0.9-6.6,0.9l0,0c-12.7,0-21.2-10.5-24.9-16.3c3-4.8,6.3-11.5,4.8-17.3c-0.9-4.1-4.9-6.6-9-5.7
		c-4.1,0.9-6.6,4.9-5.7,9c-0.6,2.2-1.6,4.2-2.9,6c-6-0.4-11.3-3.8-14.1-9.1c-8-14.2-4.3-41.5,4.3-55.6c6.7-11,34.5-26.3,64.7-26.3
		c14.9,0,35.1,4,47.2,23C479.7,749.8,484.4,767.9,479.8,780.4z"/>
	<path class="st3" d="M801.7,724.4c-41.5,65.2,7.8,79.8,7.8,79.8c11,38.8,48.9,21.1,48.9,21.1c31.9,13.1,47.8-21.3,47.8-21.3
		c37.9,1.3,33.8-53.7,20.1-76.2C911.7,703.3,832.2,676.6,801.7,724.4z"/>
	<path class="st5" d="M943.3,757.9c-1-11.9-4.6-23.5-10.4-34c-11-18.2-46.6-33.5-77.6-33.5c-11.4-0.2-22.7,2.1-33.1,6.6
		c-11,5-20.4,13.1-26.8,23.3c-16.5,26-21.5,48-15.1,65.5c4.3,10.7,12.6,19.3,23.1,23.9c6.1,17.4,18.9,27,36.2,27
		c6.4-0.1,12.8-1.3,18.9-3.5c4.5,1.6,9.3,2.4,14,2.4l0,0c20.8,0,33.5-16.3,38.3-24.3c11.2-0.5,21.3-6.9,26.6-16.7
		C942.6,785.4,944.7,772.3,943.3,757.9z M924.3,787.3c-2.8,5.3-8.1,8.8-14.1,9.1c-1.3-1.8-2.2-3.9-2.9-6c0.9-4.1-1.7-8.1-5.7-9
		c-4.1-0.9-8.1,1.7-9,5.7l0,0c-1.4,5.8,1.8,12.6,4.8,17.3c-3.7,5.7-12.2,16.3-24.9,16.3l0,0c-2.3,0-4.5-0.3-6.7-0.9
		c-0.2-3.9-0.2-7.8,0-11.8c0.5-4.1-2.4-7.9-6.5-8.4s-7.9,2.4-8.4,6.5c-0.4,4.6-0.4,9.2-0.1,13.8c-3.6,1.1-7.4,1.7-11.2,1.7
		c-10.8,0-18.1-5.6-22-17l0.2-0.4c1.9-4.1,4.3-7.9,7.2-11.4c3.3-2.5,3.9-7.2,1.4-10.5c-2.5-3.3-7.2-3.9-10.5-1.4
		c-0.5,0.4-0.9,0.8-1.3,1.2c-3.4,3.7-6.2,7.7-8.5,12.1c-5.4-3.2-9.5-8.1-11.8-13.9c-4.6-12.6,0-30.6,13.7-52
		c12.1-19.1,32.4-23,47.2-23c30.2,0,58.1,15.3,64.7,26.3C928.5,745.8,932.3,773.1,924.3,787.3L924.3,787.3z"/>
	<path class="st5" d="M894.3,536.5L894.3,536.5c-3.8-3.7-7.1-7.8-10.1-12.2c-3-4.4-5.7-9.1-8.2-13.8c-5-9.6-9.3-19.6-13.5-29.7
		c-8.2-20.3-15.9-41.1-25.1-61.4c-1.2-2.5-2.4-5.1-3.6-7.6c-0.6-1.3-1.2-2.5-1.9-3.8l-1.8-3.6c-2.1-4.6-3.5-9.6-4.1-14.7
		c-0.6-5-0.3-10.1,1-15c1.6-5.5,2.9-11.1,3.7-16.7c0.4-2.8,0.6-5.7,0.8-8.5c0.2-2.8,0.3-5.8,0.2-8.7c-0.2-5.7-0.7-11.4-1.5-17
		c-1.7-11.2-4.3-22.2-7.8-32.9c-3.4-11-8.3-21.4-14.5-31.1c-3.3-5-7.3-9.5-11.8-13.3c-4.9-4.2-10.8-6.8-17.2-7.7
		c-6.6-0.9-13.3,0.8-18.8,4.6c-5.1,3.7-9.2,8.6-12,14.2c-2.7,5.2-4.8,10.7-6.3,16.4c-1.5,5.6-2.5,11-3.5,16.5
		c-2,11-3.7,21.9-5.5,32.7c-0.5,2.7-0.9,5.4-1.4,8.1c-0.5,2.7-1.1,5.3-1.7,7.6c-0.2,0.6-0.4,1.2-0.6,1.7c-0.2,0.5-0.4,1-0.6,1.5
		c-0.3,0.7-0.7,1.4-1.3,1.9c-0.4,0.3-0.8,0.5-1.3,0.5c-1,0.2-2.1,0.2-3.2,0c-2.4-0.3-5.4-0.8-8.1-1.1l-8.3-1.1
		c-5.5-0.7-11.1-1.2-16.7-1.6c-5.6-0.4-11.2-0.8-16.7-1.2l-8.3-0.4l-4.2-0.2H656c-11.3,0.7-22.4,2.5-33.3,5.6l-8,2.1
		c-1.3,0.3-2.6,0.6-3.9,0.9l-0.9,0.2L609,348c-0.6,0.1-1.2,0.1-1.7,0.2c-1.1,0.1-2.2,0.1-3.3,0c-0.8-0.1-1.6-0.3-2.4-0.6
		c-0.7-0.3-1.2-0.8-1.7-1.3c-0.6-0.7-1.1-1.5-1.5-2.4c-0.9-2.3-1.7-4.7-2.2-7.2l-1.9-8.1l-3.8-16.1c-2.6-10.8-5.2-21.5-8-32.3
		c-1.5-5.4-3-10.8-4.8-16.2c-1-2.8-2.2-5.5-3.5-8.2c-1.4-2.9-3.2-5.5-5.4-7.9c-2.4-2.5-5.4-4.5-8.8-5.6c-3.2-1-6.5-1.4-9.9-1.2
		c-0.8,0-1.6,0.1-2.4,0.2l-1.3,0.2l-1.2,0.3c-1.6,0.4-3.1,0.9-4.6,1.6c-2.8,1.3-5.5,2.8-8,4.5c-9.3,7-17.2,15.5-23.6,25.2
		c-6.4,9.4-11.7,19.5-15.9,30.1c-4.2,10.6-7,21.8-8.2,33.2c-0.5,5.7-0.5,11.5,0,17.2c0.4,5.6,1.1,11.2,2.1,16.7
		c0.9,5.6,2.2,11.1,3.8,16.6c0.8,2.4,1.4,4.8,1.7,7.3c0.3,2.1,0,4.2-0.9,6.1c-0.7,1.5-2.9,4.2-4.2,6.6c-1.4,2.4-2.9,4.9-4.3,7.4
		c-2.7,4.9-5.2,9.9-7.6,15c-4.8,10-9.3,20.2-13.7,30.4l-3.2,7.7l-1.6,3.8l-1.6,3.6c-2.2,4.8-4.8,9.5-7.5,14.2
		c-5.5,9.3-11.8,18.1-18.6,26.5c-3.4,4.2-7,8.2-10.8,12.1c-3.7,3.9-7.7,7.5-12,10.8l0,0c-0.6,0.5-1,1.2-1.1,1.9
		c-0.3,1.7,0.9,3.3,2.5,3.6c0,0,0,0,0,0c4,0.7,7.9,1.2,12,1.4c1.1,0,2.2,0,3.4,0c-1.4,3.5-2.6,7-3.6,10.5c-1.9,6.4-3.3,13-4.3,19.7
		c-1,6.7-1.3,13.4-1.1,20.2c0.2,6.8,1.3,13.5,3.2,20.1l0,0c0.2,0.7,0.6,1.4,1.3,1.7c1.4,0.9,3.2,0.5,4.1-0.9c0,0,0,0,0,0l0.1-0.2
		c1.6-2.4,3.2-4.8,4.9-7c0,1.5-0.1,3-0.1,4.5c0,6,0,12,0.5,17.7s1.1,11.7,2.1,17.6c0.9,5.9,2.2,11.7,3.9,17.4l0,0
		c0.2,0.8,0.8,1.4,1.5,1.8c1.5,0.8,3.3,0.3,4.1-1.2V667c2.5-4.9,5.7-9.4,9.3-13.5c1.5-1.7,3.2-3.3,4.9-4.9c0.2,2.1,0.3,4.2,0.6,6.3
		c0.6,5.4,1.5,10.8,2.7,16c1.2,5.3,2.9,10.5,5,15.6c2.1,5.1,4.9,9.9,8.2,14.3l0,0c0.3,0.4,0.7,0.7,1.1,0.9c1.5,0.8,3.3,0.2,4-1.3
		c0,0,0,0,0,0v-0.2c2.2-4.5,4.7-8.9,7.4-13.2c0.8-1.2,1.6-2.4,2.4-3.7c0.8,3.2,1.7,6.3,2.8,9.4c1.1,3.1,2.4,6.4,3.7,9.6
		c1.3,3.2,2.9,6.3,4.8,9.3l0,0c0.3,0.5,0.8,0.9,1.4,1.2c1.5,0.7,3.3,0,4-1.6l0,0c1.8-4.2,3.7-8.4,5.9-12.2c0.6-1.2,1.3-2.4,2-3.4
		c1.1,6,2.1,12,3.6,18c1,4.2,2.3,8.2,3.9,12.2c1.6,4.2,4.1,8.1,7.2,11.4c0.5,0.5,1.1,0.8,1.8,0.9c1.7,0.2,3.2-1,3.4-2.6c0,0,0,0,0,0
		v-0.2c0.3-2.5,0.8-5.1,1.4-7.5c0.6-2.5,1.4-5,2.2-7.5c0.4-1,0.7-2,1.1-3c0.8,2.4,1.6,4.8,2.4,7c2.3,6.2,5,12.3,8.1,18.1
		c3,5.9,6.4,11.6,10,17.1c3.6,5.5,7.6,10.8,12,15.8c0.5,0.5,1.1,0.9,1.8,1c1.7,0.3,3.2-0.9,3.5-2.5v-0.3l0,0
		c0.2-1.5,0.5-2.9,0.9-4.3c0.5,1.5,1.1,3,1.6,4.5c2,5.2,4.7,10.2,7.8,14.8c3.2,4.7,7.3,8.8,12,12.1c4.7,3.1,9.8,5.5,15.2,7.2h0.4
		c1.6,0.3,3.2-0.7,3.6-2.4V805l0,0c0.4-2.4,1.2-4.7,2.2-6.8c0-0.2,0.2-0.4,0.3-0.6c1.1,1.3,2.3,2.5,3.5,3.7c3,2.9,6.3,5.3,10,7.2
		l0,0c1.5,0.8,3.4,0.2,4.2-1.3l0,0c3-5.8,6.6-11.3,10.7-16.4c1.9-2.3,4-4.4,6.2-6.3c0,1.2,0,2.4,0,3.8c-0.1,5,0.5,9.9,1.6,14.7v0.1
		c0.1,0.3,0.2,0.6,0.3,0.8c0.9,1.4,2.7,1.9,4.2,1c0,0,0,0,0,0l0,0c8.8-5.1,16.8-11.5,23.8-18.8c4.7-4.9,9.1-10.1,13.1-15.6
		c0.6,3.2,0.8,6.6,0.6,9.9v0.3c0,0.6,0.1,1.3,0.5,1.8c0.9,1.4,2.8,1.9,4.2,1l0,0c10.8-6.3,20.5-14.3,28.7-23.7
		c4.1-4.8,7.7-10.1,10.7-15.7c0.9-1.6,1.6-3.3,2.4-5c0.7,2.4,1.4,4.6,2,7v0.2c0.2,0.7,0.6,1.4,1.3,1.8c1.4,0.9,3.3,0.5,4.2-0.9
		c0,0,0,0,0,0l0,0c3.9-6,6.7-12.6,8.4-19.5c0.8-3.2,1.5-6.5,2.1-9.7c0.2,0.4,0.5,0.7,0.7,1.1c1.9,3.5,3.8,7.4,5.8,11.2l0,0
		c0.5,0.9,1.4,1.5,2.4,1.6c1.7,0.2,3.2-1.1,3.4-2.8l0,0c1.3-16,3.6-31.9,6.7-47.6c0.4-1.8,0.8-3.7,1.2-5.5c0.5,2.2,1.1,4.4,1.6,6.6
		c0.8,3.6,1.6,7.2,2.4,10.8c0.7,3.6,1.4,7.2,1.9,10.8l0,0l0,0c0.1,0.8,0.5,1.5,1.1,2c1.3,1,3.3,0.8,4.3-0.5c2.8-3.6,5.8-7.2,8.6-11
		c2.8-3.8,5.6-7.6,8.2-11.6c3.7-5.6,6.9-11.6,9.6-17.7l0.5,0.7c1.5,2.6,2.7,5.5,3.5,8.4l0,0v0.2c0.2,0.7,0.5,1.2,1.1,1.6
		c1.3,1.1,3.2,0.9,4.3-0.4c0,0,0,0,0,0c4.5-5.8,8.2-12.1,11-18.9c2.8-6.6,5.2-13.3,7.2-20.2c2.1-6.8,3.8-13.7,5.4-20.6
		c0.8-3.3,1.5-6.6,2.2-9.9c0.4,0.8,0.8,1.6,1.2,2.5c1.9,4.3,3.5,8.8,5.2,13.3l0,0l0,0c0.2,0.7,0.7,1.3,1.4,1.7
		c1.5,0.8,3.3,0.3,4.2-1.2c0,0,0,0,0,0c3.6-6.6,6.3-13.5,8-20.8c1.8-7.2,2.9-14.5,3.3-21.9c0.4-7.4,0.2-14.8-0.6-22.2
		c-0.6-5.1-1.5-10.1-2.8-15c2.1,0.2,4.2,0.2,6.4,0.2c4.6-0.1,9.2-0.8,13.6-1.9l0,0c1.7-0.4,2.7-2.1,2.3-3.7
		c-0.1-0.6-0.4-1.1-0.9-1.5L894.3,536.5z"/>
	<path class="st3" d="M666.6,369.7c21.1,0,16.4,54.1,15.5,65s-2.8,39.4,5.6,43c8.5,3.7,15.9-12.3,44-12.3s42.2,33.1,48.1,50.4
		c5.9,17.2,21.3,27.2,43.6,28.7c-28.7,54.2-51,121.3-54.2,185c-5.3-11.5-6-15.3-12.1-22.1c-1.4,12.5-3.2,27.7-10.2,38.6
		c-1.2-7-3.1-13.8-5.5-20.4c-2.7,17.7-16.5,39.5-42.9,55.8c0.9-7,0.3-14.1-1.8-20.8c-8.6,14.1-21.8,31.1-40.2,42.4
		c-1.5-7.2-1.2-16,0.9-27.8c-12.4,9.1-18.3,17.7-25.1,31.3c-6.4-4.1-11.8-9.7-15.4-16.3c-2.9,4.6-4.6,9.9-5.1,15.3
		c-16.7-5.7-29.3-16-36.6-48c-3.2,4.8-5,10.5-5,16.4c-12.6-14.3-28.9-42.8-33.5-69.1c-5,9.7-8.1,20.2-9.1,31.1
		c-15-15.7-11-60.3-25.1-85.7c-14.1-25.4-29.5-60.9-33.9-100.4c20.9-4.5,48-12,58.1-39c10.3-27.5,26.3-50.9,46.7-52.6
		c23.3-1.8,36.4,17.6,44.9,16c10.1-1.8,14.7-16.7,19.1-44.3C642.1,399.9,644.9,369.7,666.6,369.7z"/>
	<path class="st5" d="M734,634.4c-1.6-0.3-3.2,0.7-3.6,2.4c0,0,0,0,0,0l0,0c-1.3,6.2-2.8,12.4-4.7,18.6c-1.8,6.1-3.8,12.2-6.1,18.1
		c-2.2,5.9-4.8,11.7-7.7,17.4c-2.7,5.5-6.1,10.7-10,15.4c-3.8,4.5-8.5,8.2-13.1,8.8c-0.6,0-1.1,0-1.7,0l-2.1-0.1
		c-1.4-0.1-2.8-0.3-4.2-0.6l-1.1-0.2l-1-0.3l-2.1-0.6c-0.7-0.2-1.4-0.5-2-0.8l-2-0.8c-5.3-2.6-10.1-6.2-14.2-10.5
		c-2.1-2.2-4-4.5-5.8-6.9c-1.6-2.2-3-4.5-4.1-6.9l-0.4-10c2.9-0.3,5.8-1,8.5-2.1c3.8-1.5,7.3-3.5,10.5-6c3.2-2.5,6-5.4,8.3-8.7
		c2.5-3.5,4.2-7.4,5.1-11.6c0.8-4.7-0.1-9.5-2.6-13.6c-2.4-3.7-5.8-6.7-9.8-8.8c-3.6-1.9-7.5-3.2-11.5-3.9
		c-3.9-0.8-7.8-1.1-11.7-1.1c-3.9,0-7.7,0.2-11.5,0.8c-4.1,0.6-8,1.8-11.7,3.6c-1,0.5-1.9,1.1-2.8,1.7c-0.9,0.7-1.8,1.4-2.7,2.2
		c-0.9,0.8-1.7,1.7-2.4,2.7c-0.4,0.5-0.7,1-1,1.5l-0.8,1.6l-0.4,0.8l-0.3,0.8l-0.5,1.7c-0.3,1.1-0.5,2.2-0.6,3.4
		c0,1.1-0.2,2.2,0,3.3l0.2,3.1c0.4,4.2,1.7,8.2,3.6,12c2,3.7,4.7,7,8,9.6c5.6,4.3,12.4,6.9,19.5,7.3l-1.6,9.6
		c-2.6,5.4-6.1,10.4-10.3,14.7c-2.1,2.2-4.4,4.1-6.9,5.8c-0.6,0.5-1.3,0.8-1.9,1.2c-0.6,0.4-1.3,0.8-1.9,1.1c-1.3,0.7-2.6,1.3-4,1.8
		l-2.1,0.8l-2.1,0.6c-0.7,0.2-1.4,0.4-2.2,0.5l-2.2,0.3c-1.5,0.3-3,0.4-4.4,0.4c-1.3,0.1-2.7,0.1-4-0.1c-2.7-0.4-5.2-1.4-7.4-2.9
		c-2.5-1.6-4.7-3.5-6.7-5.6c-4.2-4.7-7.8-9.8-10.8-15.4c-3.1-5.7-5.8-11.5-8.2-17.5c-2.4-6-4.5-12.2-6.5-18.5
		c-1.9-6.2-3.5-12.5-4.8-18.9v-0.1c-0.3-1.6-2-2.7-3.6-2.3c-1.6,0.3-2.6,1.8-2.4,3.4c2.1,13.4,5.4,26.5,10,39.2
		c1.1,3.2,2.4,6.3,3.7,9.6c1.3,3.2,2.8,6.2,4.4,9.3c3.1,6.3,7,12.1,11.6,17.4c2.4,2.8,5.2,5.2,8.3,7.3c3.3,2.2,7,3.7,10.9,4.4
		c1.9,0.3,3.9,0.4,5.9,0.3c1.8,0,3.6-0.2,5.5-0.4l2.7-0.4c0.9-0.1,1.8-0.4,2.7-0.6c0.9-0.2,1.8-0.4,2.7-0.7l2.6-1
		c1.7-0.7,3.4-1.5,5-2.4c0.8-0.4,1.6-0.9,2.4-1.4s1.6-0.9,2.4-1.5c3-2.1,5.8-4.4,8.3-7c2.9-3.1,5.6-6.4,7.8-10l1,1.5
		c2,2.9,4.2,5.6,6.6,8.1c4.9,5.2,10.6,9.4,17,12.6c1.7,0.7,3.3,1.4,5,2l2.6,0.8c0.4,0,0.9,0.3,1.3,0.4l1.3,0.2
		c1.8,0.4,3.6,0.6,5.4,0.7l2.7,0.1c1,0,2.1-0.1,3.1-0.2c4-0.7,7.7-2.3,10.9-4.7c2.9-2.2,5.5-4.7,7.8-7.6c4.2-5.4,7.8-11.2,10.7-17.4
		c2.9-6,5.4-12.2,7.5-18.5c4.3-12.5,7.4-25.3,9.3-38.4C736.7,636.2,735.6,634.7,734,634.4z"/>
	<path class="st5" d="M592.6,560c3.9-2.3,7.5-5.2,10.6-8.5c0.8-0.8,1.6-1.8,2.4-2.6c0.8-0.9,1.5-1.8,2.4-2.7c1.5-1.8,3-3.8,4.4-5.7
		c2.8-3.9,5.4-8,7.8-12.2c2.4-4.2,4.5-8.6,6.5-13l0,0c0.7-1.5,2.5-2.2,4.1-1.5c1.3,0.6,2,1.9,1.8,3.3c-0.9,5.2-2.6,10.3-4.8,15.1
		c-2.2,4.8-4.8,9.4-7.9,13.7c-3.1,4.4-6.6,8.4-10.6,12c-4.1,3.8-9.1,6.6-14.5,8.2c-1.6,0.4-3.3-0.5-3.7-2.2
		c-0.4-1.4,0.3-2.8,1.5-3.5L592.6,560z M674.3,517.8c-0.7-1.5-2.5-2.2-4-1.5c-1.2,0.5-1.9,1.8-1.8,3.1c0.7,4.7,2.2,9.3,4.3,13.7
		l1.5,3.2c0.5,1.1,1.1,2.1,1.7,3.1c1.1,2,2.4,4,3.7,6c2.6,3.9,5.4,7.6,8.6,11c0.8,0.8,1.6,1.7,2.4,2.5c0.8,0.8,1.7,1.6,2.7,2.4
		c1.9,1.6,3.9,3,6.1,4.2c1.5,0.7,3.4,0,4-1.6c0.5-1.1,0.3-2.3-0.5-3.2l-0.2-0.2c-2.9-3-5.6-6.2-8.1-9.6c-2.7-3.4-5.2-7-7.7-10.5
		c-2.5-3.6-4.8-7.2-7-11c-2.2-3.7-4.1-7.4-5.8-11.4L674.3,517.8z M723.3,534.1c9.1,0,13.3-7.2,13.3-14.3c-0.1-7.3-6-13.2-13.3-13.2
		c-6.7,0-14.9,3.6-14.9,13.7C708.5,529.5,716.2,534.1,723.3,534.1L723.3,534.1z M578.5,534.1c9.1,0,13.2-7.2,13.2-14.3
		c-0.1-7.3-6-13.2-13.2-13.2c-6.7,0-14.9,3.6-14.9,13.7C563.7,529.5,571.5,534.1,578.5,534.1L578.5,534.1z"/>
</g>
</svg>
