<?xml version="1.0" encoding="utf-8"?>
<!-- Generator: Adobe Illustrator 24.0.0, SVG Export Plug-In . SVG Version: 6.00 Build 0)  -->
<svg version="1.1" id="Layer_1" xmlns="http://www.w3.org/2000/svg" xmlns:xlink="http://www.w3.org/1999/xlink" x="0px" y="0px"
	 viewBox="0 0 1200 1200" style="enable-background:new 0 0 1200 1200;" xml:space="preserve">
<style type="text/css">
	.st0{fill:#BE9A71;}
	.st1{fill:#D9A993;}
	.st2{fill:#683A32;}
	.st3{fill:#FFFFFF;}
	.st4{fill:#F78C8B;}
	.st5{fill:#1D1D1B;}
	.st6{fill:#FDAC49;}
	.st7{fill:#191919;}
	.st8{fill:#333333;}
	.st9{fill:#14192C;}
	.st10{fill:#3E3D4F;}
	.st11{fill:#A15225;}
	.st12{fill:#895834;}
	.st13{fill:#1A0A14;}
	.st14{fill:#672E28;}
	.st15{fill:#111B1D;}
	.st16{fill:#EBEBEB;}
	.st17{fill:#494859;}
	.st18{fill:#2F2627;}
	.st19{fill:#C7B6AC;}
	.st20{fill:#E2D9D4;}
	.st21{fill:#D6CDCA;}
	.st22{fill:#674043;}
	.st23{fill:#3D3834;}
	.st24{fill:#E4DACE;}
	.st25{fill:#554E46;}
	.st26{fill:#E8E8E8;}
	.st27{fill:#AEE9FA;}
	.st28{fill:#4D4D4D;}
	.st29{fill:#FDFDFD;}
	.st30{fill:#FAAF5E;}
	.st31{fill:#F8FCFC;}
	.st32{fill:#DBCFB5;}
	.st33{fill:#6D6D6D;}
	.st34{fill:#C69C6D;}
	.st35{fill:#F0B965;}
	.st36{fill:#DA7B45;}
	.st37{fill:#FAE7D6;}
	.st38{fill:#FDF8F2;}
	.st39{fill:#E2C4AA;}
	.st40{fill:#BC8571;}
	.st41{fill:#2F322A;}
	.st42{fill:#444741;}
	.st43{fill:#46282D;}
	.st44{fill:#986858;}
	.st45{fill:#F0C7A2;}
	.st46{fill:#FCE9C8;}
	.st47{fill:#808080;}
	.st48{fill:#4E4E4E;}
	.st49{fill:#E8CBA9;}
	.st50{fill:#956B50;}
</style>
<g>
	<path class="st30" d="M911.1,322.3c-65.8-30.1-136.9,86-148.2,105.3c-21.9-9.5-62.9-13.7-131-14.3c0-0.2-55.5-160-135.8-149.5
		c-80.3,10.5-7.4,182.9-13.7,218.6c0,0,0.8,18.7,14.1,22.9l3.8-2.5c-16,32.8-26.9,67.9-32.8,104.1c-10.3,67.3,42.3,129.1,42.3,129.1
		l287.2,35.7c17.7-13.5,56.3-72.1,56.3-151.2c0-12.4-1.5-24.6-4-36.8l1.9,3.2c14.7,1.7,31.3-29,31.3-29
		C870.9,531.5,998.3,362.3,911.1,322.3z"/>
	<path class="st3" d="M851.1,651.5c-17.4-7.4-37.4-6.1-53.6,3.4c-39.7,23.1-16.6-65.8-87.9-96.3c-23.3-9.9-17-124.2-2.5-142.1
		c-12.4-1.1-26.3-1.9-42.3-2.5c-2.7,40.4-18.1,129.5-42.7,135c-34.5,7.8-75.3,26.9-91.9,71.3c-11.1,29.4-30.1-0.6-61.6-21.7
		c-0.4,2.7-1.1,5.5-1.5,8.2c-5,32.8,4.8,64.3,16.4,88.1c-3.2,9.9-4.8,20.2-4.8,30.5h10.9c0,0-30.3,37.2-30.3,75.1h15.1
		c0.8,9.2,2.3,18.3,4.4,27.5H819c4.6-13.5,7.8-27.5,9.2-41.8l10.1,7.8c3.8-24.8-2.9-47.1-11.4-64.1
		C839.6,704.9,847.6,678.7,851.1,651.5z"/>
	<path class="st2" d="M745.4,617.1c-0.8,0-1.5,0-2.3,0c-14.7,0-22.5,10.9-29.4,20.6c-6.9,9.7-13.2,18.7-26.3,20
		c-1.7,0.2-3.4,0.2-4.8,0.2c-22.3,0-30.3-15.6-30.7-16.2c-1.5-2.9-5-4.2-8-2.7c-0.4,0.2-0.8,0.4-1.3,0.8
		c-8.4,6.9-16.6,10.5-24.4,10.5l0,0c-18.1,0-31.7-19.1-38.5-37c-4.8-12.8-12.2-20.2-20.4-20.2c-4.4,0-8.6,2.3-10.9,6.1
		c-7.1,10.1-6.1,30.1,2.5,54.7c19.1,54.2,84.9,47.7,95,46.5c12.2,3.4,24.8,5,37.4,5.3c55.1,0,76.9-38.7,78-63.1
		C762.2,628,755.7,617.9,745.4,617.1z"/>
	<path class="st4" d="M628.5,765.5c46.7,8.6,62.4-29.4,67.7-66.6c1.9-12.6,2.7-25.4,2.7-38.3c-3.4,1.7-6.9,2.5-10.7,2.9
		c-30.7,2.9-41.4-19.3-41.4-19.3c-21,17.4-39.5,13.9-53.2,1.3l0,0c-4,13-6.7,26.3-8.4,39.7l0,0C580.6,720.7,583.3,757.3,628.5,765.5
		z"/>
	<path class="st2" d="M641.1,772.6L641.1,772.6c-4.6,0-9.2-0.4-13.7-1.3c-51.7-9.5-52.3-54.2-48.1-87v-0.2
		c1.7-13.9,4.6-27.3,8.6-40.8c0.8-2.5,3.2-4.2,5.7-4c1.5,0,2.9,0.6,4,1.7c6.5,6.1,13.7,9.2,20.8,9.2c7.8,0,16-3.6,24.4-10.5
		c2.5-2.1,6.3-1.7,8.4,0.8c0.4,0.4,0.6,0.8,0.8,1.3c0.2,0.6,8.2,16.2,30.7,16.2l0,0c1.7,0,3.2,0,4.8-0.2c2.9-0.2,5.9-1.1,8.6-2.3
		c2.9-1.5,6.5,0,7.8,2.9c0.4,0.6,0.4,1.5,0.6,2.3c0,13-0.8,26.3-2.7,39.3c-2.9,20.6-8.4,37.2-16.4,49
		C675,764.6,660,772.6,641.1,772.6z M591.1,685.6C591.1,685.6,591.1,685.8,591.1,685.6c-5.9,46.7,5.3,67.9,38.5,74
		c3.8,0.6,7.8,1.1,11.6,1.1l0,0c14.9,0,26.3-6.1,34.7-18.7c6.9-10.5,11.8-25.2,14.5-44.1c1.5-9.7,2.3-19.3,2.5-29.2
		c-1.3,0.2-2.7,0.4-4.2,0.6c-2.1,0.2-4,0.2-6.1,0.2c-20.4,0-32-10.1-37.4-16.8c-7.8,5.9-17.2,9-26.9,9.2c-7.8,0-15.1-2.3-21.7-6.5
		C594.2,665.4,592.4,675.5,591.1,685.6z"/>
	<path class="st2" d="M637.1,731c-3.2,0-5.7-2.5-5.9-5.7c-1.1-19.6,4-59.3,4.2-61c0.2-3.4,3.2-5.7,6.3-5.5c3.2,0.2,5.7,3.2,5.5,6.3
		c0,0.2,0,0.4,0,0.6c0,0.4-5,40.4-4,58.9c0.2,3.4-2.3,6.1-5.7,6.3l0,0H637.1z"/>
	<path class="st4" d="M842.9,557.4c0,0-21.7-63.7-45.8-95.9c-22.5-29.6,75.3-136,104.1-118.4c35.5,21.9,12,77.4-7.6,111
		C874.1,487.8,858.7,560.1,842.9,557.4z"/>
	<path class="st2" d="M843.8,563.2c-0.6,0-1.3,0-1.9-0.2c-2.1-0.4-3.8-1.9-4.6-4c-0.2-0.6-21.4-63.1-45-94.2
		c-6.9-9.2-5.9-23.8,3.4-42.3c9.2-18.5,26.1-40.2,45-57.6c12-11.1,34.7-29.9,52.8-29.9c3.8,0,7.6,0.8,10.9,2.9
		c12.4,7.6,25.9,23.8,19.6,57.2c-4.2,22.7-16,46.2-25.2,61.8c-7.6,13-14.5,32-21.2,50.2C864.6,543.3,856.6,563.2,843.8,563.2z
		 M893.4,347.1c-21.4,0-68.5,43.9-87,80.9c-6.7,13.7-8.4,24.6-4.6,29.9c20.4,26.9,38.5,74,44.6,91.2c2.7-3.6,4.8-7.4,6.5-11.6
		c4.2-9.2,8.6-21.2,13.5-34.1c6.9-18.9,14.1-38.5,22.1-52.3c14.1-24.2,43.1-82.4,9.7-103C896.8,347.6,895.1,347.1,893.4,347.1z"/>
	<path class="st4" d="M513.1,477.3c0,0,19.6-38.7,62.4-56.8c42.9-18.1-49-148-79.3-130.8s8.2,130.3,8.4,165.7
		S513.1,477.3,513.1,477.3z"/>
	<path class="st2" d="M509.7,485.7L509.7,485.7c-10.3,0-11.1-15.6-11.1-30.3c0-10.5-4-29.6-8-49.8c-10.3-50.2-21.9-107,2.7-120.9
		c2.7-1.7,6.1-2.3,9.2-2.3c19.8,0,43.5,27.1,52.8,38.7c18.3,22.9,32.2,49.2,36.2,68.7c5,24.6-6.3,33.2-13.7,36.4
		c-40.4,16.8-59.1,53.6-59.3,53.8l-0.2,0.4C516.3,483.4,513.1,485.5,509.7,485.7z M502.4,294.2c-1.3,0-2.3,0.2-3.4,0.8
		c-4.8,2.7-10.1,11.8-8.2,38.9c1.5,21,6.7,46.7,11.4,69.4c4.4,21.7,8.2,40.6,8.2,52.3c0,4.4,0.2,8.8,0.6,13.2
		c7.4-11.8,27.3-39.3,62.2-53.8c6.9-2.9,9-10.5,6.5-23.1c-3.6-17.7-16.4-42-33.6-63.7C529.5,307.6,512.3,294.2,502.4,294.2z"/>
	<path class="st2" d="M613.6,588.5c-0.8,13.2,14.1,43.1,35.1,44.6s39.9-26.1,41-39.3s-15.3-25-36.4-26.5
		C632.3,565.8,614.4,575.2,613.6,588.5z"/>
	<circle class="st2" cx="741.4" cy="541.2" r="23.1"/>
	<circle class="st3" cx="751.3" cy="537.8" r="4.4"/>
	<circle class="st2" cx="595.3" cy="523.7" r="23.1"/>
	<circle class="st3" cx="605" cy="520.6" r="4.4"/>
	<path class="st2" d="M1045,833.4H260.8c-3.4-0.2-5.7-2.9-5.7-6.3c0.2-2.9,2.5-5.5,5.7-5.7h783.9c3.4,0.2,5.7,2.9,5.7,6.3
		C1050.2,830.9,1047.9,833.4,1045,833.4L1045,833.4z"/>
	<path class="st3" d="M862.7,822.9c-4.4-60.3-33.2-80.1-82.8-75.9c-49.6,4.2-68.5,53.8-50,76.5c11.6,14.3,27.1,12,37,8.4
		c4.2,2.9,9.2,4.4,14.3,4c9.2-0.2,15.1-3.2,19.1-6.7c2.9,2.9,6.7,4.8,10.9,5c14.3,1.7,21.7-4.6,25.4-11.1L862.7,822.9z"/>
	<path class="st3" d="M527.8,747c-49.8-4.2-78.4,15.6-82.8,75.9l26.5,0.2c3.8,6.7,11.1,12.8,25.4,11.1c4.2-0.4,8-2.1,10.9-5
		c4,3.6,9.9,6.3,19.1,6.7c5,0.4,10.1-1.1,14.3-4c9.9,3.6,25.4,5.9,37-8.4C596.3,800.8,577.4,751,527.8,747z"/>
	<path class="st2" d="M913.6,316.9c-66.2-30.3-134.5,72.5-153.3,103.4c-22.7-8.2-60.8-12.2-124.2-12.8c-9.9-26.5-22.3-51.9-37-75.9
		c-14.3-22.9-29-41-44.1-53.2c-19.6-16-39.5-22.7-59.7-20.2c-13.7,1.9-24.4,8-31.5,18.3c-22.3,32-7.8,96.5,3.8,148.4
		c5.5,24.4,10.7,47.5,9,56.8c0,0.4,0,0.8,0,1.3c0,0.8,1.1,19.3,14.1,26.5c-13.9,30.7-23.8,63.3-29.2,96.5
		c-5,33.4,4.4,65.4,15.8,89.6c-2.9,9.7-4.4,19.8-4.4,29.9c0,2.9,2.3,5.5,5.3,5.9c-5.7,8.4-10.5,17.4-14.7,26.9
		c-14.3,13.5-22.5,34.5-24.8,64.5c-0.2,3.4,2.5,6.1,5.7,6.1c3.2,0.2,5.9-2.1,6.1-5.3c2.1-28,9.5-47.1,22.5-58
		c12.2-10.3,29.6-14.3,54-12.4c22.3,1.9,40.2,14.1,48.1,32.6c5.5,12.8,4.6,25.9-2.1,34.3c-5,6.5-13.5,9.9-21.7,8.8
		c3.8-7.1,5.5-15.1,5-23.1c-0.4-3.4-3.4-5.7-6.5-5.3c-2.9,0.4-5.3,2.9-5.3,5.9c0,0.2,0.6,12.8-5.9,19.6c-3.2,3.2-7.6,4.6-12.2,4.2
		c-3.8,0-7.6-0.8-10.9-2.3c5.9-11.4,3.2-25.9,2.9-27.5c-0.8-3.2-4-5.3-7.1-4.4c-2.9,0.6-4.8,3.6-4.4,6.7c0.8,4,1.7,15.3-2.9,21.7
		c-1.9,2.5-5,4.2-8.2,4.4c-6.7,0.8-12-0.4-15.8-3.6c-6.5-5.5-6.9-15.8-7.1-16c-0.2-3.4-3.2-5.7-6.5-5.5c-2.9,0.2-5.5,2.7-5.5,5.9
		c0,0.6,0.6,15.3,11.1,24.4c5.5,4.6,12.4,6.9,19.8,6.7c1.7,0,3.6-0.2,5.3-0.2c3.6-0.4,7.1-1.7,10.3-3.6c5.7,3.4,12.2,5,18.7,5h1.1
		c4.8,0,9.7-1.1,14.1-3.4c4.2,1.3,8.8,2.1,13.2,2.1c10.7,0.2,21-4.8,27.7-13.5c9.5-11.6,10.9-29.4,3.8-46.2
		c-9.7-22.7-31.3-37.6-58-39.9c-5-0.4-10.1-0.6-14.9-0.6l0.4-0.2c2.5-2.1,2.7-5.9,0.6-8.4l0,0c-0.4-0.6-50.7-60.5-40.8-124.2
		c5.9-35.5,16.6-69.8,32.4-102.2c1.5-2.9,0.2-6.5-2.7-8c-1.9-0.8-4.2-0.8-5.9,0.4l-1.1,0.8c-5.9-3.8-7.1-13.5-7.4-15.8
		c1.7-11.8-3.2-33.4-9.2-60.8c-10.5-46.9-25-111.4-5.7-139c5.3-7.6,13-12,23.3-13.5c74.6-9.9,128.9,144,129.3,145.5
		c0.8,2.3,3.2,4,5.7,4c68.3,0.6,108.1,5,128.7,13.9c2.7,1.3,5.9,0.2,7.6-2.5c8-13.5,78.8-131.4,140.6-103c23.3,10.7,31.5,33,25,68.3
		c-5.9,32-22.9,69.2-36.6,99c-14.7,32.2-23.1,50.9-21,61.8c-5.5,9.5-14.9,21.4-21.7,23.5l0,0c-1.5-2.9-5.3-4-8-2.3
		c-2.3,1.3-3.6,4-2.9,6.5c2.5,11.8,3.8,23.8,3.8,35.5c0,51.3-17.4,95.7-34.3,122.4c-11.1-2.1-22.5-2.5-33.6-1.5
		c-26.7,2.1-48.4,17-58,39.9c-7.1,16.8-5.7,34.7,3.8,46.2c6.7,8.6,16.8,13.5,27.5,13.2c4.4,0,9-0.8,13.2-2.1c4.2,2.3,9,3.4,14.1,3.4
		h1.1c6.5,0,13-1.7,18.9-5c3.2,1.9,6.7,3.2,10.3,3.6c1.7,0.2,3.6,0.2,5.3,0.2c7.1,0.2,14.1-2.1,19.8-6.7c10.5-9,11.1-23.8,11.1-24.4
		c0.2-3.4-2.5-6.1-5.7-6.1l0,0h-0.2c-3.2,0-5.9,2.5-5.9,5.7c0,0-0.4,10.3-6.9,15.8c-3.8,3.2-9,4.4-15.8,3.8
		c-3.4-0.2-6.3-1.9-8.2-4.4c-4.6-6.3-3.6-17.9-2.9-21.7c0.4-3.2-1.7-6.3-5-6.7c-2.9-0.4-5.9,1.5-6.7,4.4c-0.4,1.7-2.9,16.2,2.9,27.5
		c-3.4,1.5-7.1,2.3-10.9,2.3c-4.4,0.4-8.8-1.1-12-4.2c-6.5-6.7-5.9-19.6-5.9-19.8c0-3.4-2.7-5.9-5.9-5.9c-2.9,0-5.5,2.3-5.9,5.3
		c-0.4,8,1.5,16,5,23.1c-8.2,1.3-16.6-2.1-21.7-8.8c-6.7-8.2-7.6-21.2-2.1-34.3c8-18.5,25.9-30.7,48.1-32.6
		c24.2-2.1,41.8,2.1,54,12.4c13,11.1,20.4,30.3,22.5,58c0.2,3.4,3.2,5.7,6.3,5.5c3.2-0.2,5.7-3.2,5.5-6.3
		c-2.3-30.5-10.5-51.7-25.2-65.2c-2.1-9.7-5.3-18.9-9.5-28c16.6-34.1,25.2-71.5,25.2-109.1c0-9.5-0.8-18.9-2.3-28.2
		c15.1-4,28.2-26.5,30.9-31.5c0.8-1.7,1.1-3.6,0.2-5.3c-0.2-0.6-1.3-4.2,3.8-17.9c3.8-10.1,9.5-22.7,16.2-37.2
		c13.9-30.5,31.3-68.1,37.4-101.7C952.9,357.4,942.2,330.1,913.6,316.9z M486,711.7c1.5,2.7,3.2,5.3,4.6,7.6H490h-4.8
		C485.4,716.5,485.6,714,486,711.7z M506.6,740.9c-8,0.4-16,2.1-23.3,5c3.4-5.9,7.1-11.6,11.4-16.8c0.4-0.6,0.8-1.3,1.1-2.1
		c5.3,7.6,9,12,9.5,12.6C505.5,740,506.2,740.5,506.6,740.9L506.6,740.9z M828.2,747.4c-1.1-0.4-2.1-1.1-3.4-1.5l1.7-2.9
		C827.2,744.5,827.6,745.9,828.2,747.4L828.2,747.4z"/>
</g>
</svg>
