<?xml version="1.0" encoding="utf-8"?>
<!-- Generator: Adobe Illustrator 24.0.0, SVG Export Plug-In . SVG Version: 6.00 Build 0)  -->
<svg version="1.1" id="Layer_1" xmlns="http://www.w3.org/2000/svg" xmlns:xlink="http://www.w3.org/1999/xlink" x="0px" y="0px"
	 viewBox="0 0 1200 1200" style="enable-background:new 0 0 1200 1200;" xml:space="preserve">
<style type="text/css">
	.st0{fill:#BE9A71;}
	.st1{fill:#D9A993;}
	.st2{fill:#683A32;}
	.st3{fill:#FFFFFF;}
	.st4{fill:#F78C8B;}
	.st5{fill:#1D1D1B;}
	.st6{fill:#FDAC49;}
	.st7{fill:#191919;}
	.st8{fill:#333333;}
	.st9{fill:#14192C;}
	.st10{fill:#3E3D4F;}
	.st11{fill:#A15225;}
	.st12{fill:#895834;}
	.st13{fill:#1A0A14;}
	.st14{fill:#672E28;}
	.st15{fill:#111B1D;}
	.st16{fill:#EBEBEB;}
	.st17{fill:#494859;}
	.st18{fill:#2F2627;}
	.st19{fill:#C7B6AC;}
	.st20{fill:#E2D9D4;}
	.st21{fill:#D6CDCA;}
	.st22{fill:#674043;}
	.st23{fill:#3D3834;}
	.st24{fill:#E4DACE;}
	.st25{fill:#554E46;}
	.st26{fill:#E8E8E8;}
	.st27{fill:#AEE9FA;}
	.st28{fill:#4D4D4D;}
	.st29{fill:#FDFDFD;}
	.st30{fill:#FAAF5E;}
	.st31{fill:#F8FCFC;}
	.st32{fill:#DBCFB5;}
	.st33{fill:#6D6D6D;}
	.st34{fill:#C69C6D;}
	.st35{fill:#F0B965;}
	.st36{fill:#DA7B45;}
	.st37{fill:#FAE7D6;}
	.st38{fill:#FDF8F2;}
	.st39{fill:#E2C4AA;}
	.st40{fill:#BC8571;}
	.st41{fill:#2F322A;}
	.st42{fill:#444741;}
	.st43{fill:#46282D;}
	.st44{fill:#986858;}
	.st45{fill:#F0C7A2;}
	.st46{fill:#FCE9C8;}
	.st47{fill:#808080;}
	.st48{fill:#4E4E4E;}
	.st49{fill:#E8CBA9;}
	.st50{fill:#956B50;}
</style>
<g>
	<path class="st35" d="M792.9,490.1c1.8-27.2-27.2-55.3-27.2-55.3c-18-41.5-73.1-49.8-73.1-49.8l0.7,1.6
		c-26.7-21.2-61.5-33.2-106.9-30c-45.6-3.2-80.4,8.8-106.9,30l0.7-1.6c0,0-54.9,8.3-73.1,49.8c0,0-29,28.3-27.2,55.3
		c1.8,27-30.4,44.9-11.5,102.1c0,0,7.8-12.2,9.7-12.7c3.7,10.1,9.7,19.1,17.1,26.7c-1.4,22.6-1.4,44.9,0,67.5h382.8
		c1.4-22.6,1.4-44.9,0-67.5c7.6-7.6,13.4-16.8,17.3-26.7c1.8,0.7,9.7,12.7,9.7,12.7C823.3,535.1,791,517.1,792.9,490.1z"/>
	<circle class="st2" cx="671.4" cy="457.4" r="14.3"/>
	<circle class="st3" cx="675.1" cy="451.2" r="3.7"/>
	<path class="st2" d="M505,443.8c-7.6-2.1-15.4,2.5-17.3,10.1c-2.1,7.6,2.5,15.4,10.1,17.3c7.6,2.1,15.4-2.5,17.3-10.1
		C517,453.5,512.6,445.7,505,443.8z"/>
	<circle class="st3" cx="505.2" cy="451.2" r="3.7"/>
	<path class="st2" d="M489.1,527.7c2.8-1.4,5.3-3,7.8-4.8c3.9-2.8,7.6-5.8,11.3-9c4.6-4.4,8.5-9.2,12-14.8c0.5-0.7,0.9-1.6,1.4-2.3
		c0.5-0.7,0.9-1.6,1.2-2.5l1.2-2.5l1.2-2.8l0.5-1.4l0.2-0.7l0.2-0.7c0.2-0.9,0.5-1.6,0.9-2.5c0.5-0.9,0.7-1.6,0.9-2.5l0.5-1.2
		c0.2-0.5,0.5-0.7,0.5-1.2c3-6.7,7.6-12.4,13.1-17.1c3-2.5,6.2-4.6,9.4-6.5l1.4-0.7l1.4-0.7c0.9-0.5,1.8-0.7,2.8-1.2l2.8-1.2
		c0.9-0.2,1.8-0.7,2.8-0.9c15.9-4.4,32.7-4.4,48.6,0c0.9,0.2,1.8,0.7,2.8,0.9l2.8,1.2c0.9,0.5,1.8,0.7,2.8,1.2l1.4,0.7l1.4,0.7
		c3.5,1.8,6.7,3.9,9.4,6.2c5.5,4.6,10.1,10.6,13.1,17.1c0.2,0.5,0.5,0.9,0.5,1.2l0.5,1.2c0.5,0.9,0.7,1.6,0.9,2.3
		c0,0.2,0.2,0.5,0.2,0.7l0.2,0.7l0.5,1.4c0.2,0.9,0.7,1.8,0.9,2.8c1.2,3.5,2.8,6.9,4.8,10.1c3.2,5.3,7.4,10.4,12,14.8
		c3.5,3.2,7.1,6.2,11.1,9c2.5,1.6,5.1,3.2,7.8,4.8l2.1,1.2l0.7,0.2l-0.7-0.5l-1.8-1.4c-1.6-1.4-3.9-3.5-6.7-6
		c-3.2-3.2-6.5-6.7-9.2-10.1c-3.7-4.6-6.7-9.4-9.2-14.8c-1.4-3-2.5-6-3.2-9l-0.2-1.2l-0.2-1.4l-0.2-1.4c0-0.5-0.2-0.9-0.2-1.4
		c-0.2-0.9-0.5-2.1-0.9-3l-0.5-1.4c-0.2-0.5-0.2-0.9-0.5-1.4c-3-8.3-8.1-15.7-14.5-21.7c-3.5-3.2-7.1-6-11.1-8.3
		c-4.1-2.3-8.3-4.1-12.9-5.8c-4.6-1.4-9.2-2.5-13.8-3.2c-4.6-0.7-9.4-0.9-14.1-0.9c-9.4,0-18.9,1.4-27.9,4.1
		c-1.2,0.2-2.3,0.7-3.2,1.2c-0.9,0.5-2.1,0.9-3.2,1.4c-1.2,0.5-2.1,0.9-3.2,1.4l-1.6,0.9l-1.6,0.9c-3.9,2.3-7.8,5.1-11.3,8.1
		c-6.5,6-11.3,13.4-14.5,21.7c-0.2,0.5-0.5,0.9-0.5,1.4l-0.5,1.4c-0.2,0.9-0.7,1.8-0.9,3c-0.2,1.2-0.5,1.8-0.7,2.8s-0.5,1.8-0.7,2.5
		l-0.7,2.3l-0.7,2.3c-0.2,0.7-0.5,1.4-0.9,2.3l-0.9,2.1c-2.5,5.3-5.5,10.1-9.2,14.8c-2.8,3.7-6,6.9-9.2,10.1c-2.8,2.8-5.1,4.6-6.7,6
		l-1.8,1.4l-0.7,0.5l0.7-0.2C487.5,528.4,488.2,528.2,489.1,527.7z"/>
	<path class="st2" d="M805.5,515.5c-3.9-9-7.4-16.8-6.7-25.1c1.8-27.2-23-53.9-28.1-59.2c-8.1-18-24-32.5-45.9-42.4
		c-9.9-4.6-20.5-7.8-31.3-9.9h-0.2c-29.3-21.9-65.2-31.3-106.9-28.3c-41.7-3-77.7,6.7-106.9,28.3h-0.2c-10.8,1.8-21.4,5.3-31.3,9.9
		c-21.9,9.9-37.6,24.7-45.9,42.4c-5.1,5.1-30,32-28.1,59.2c0.7,8.3-2.8,16.1-6.7,25.1c-7.6,17.7-17.3,39.6-4.6,78.4
		c0.9,3.2,4.4,4.8,7.6,3.9c1.4-0.5,2.3-1.4,3.2-2.5c0.9-1.4,2.1-3.2,3.2-4.6c6,11.5,19.4,30.4,44.5,37.8c2.3,0.7,4.8,0,6.5-2.1
		c0.2-0.2,0.5-0.7,0.7-1.2c2.1,1.4,4.4,2.5,6.7,3.2c7.1,1.8,13.1,12,14.8,15.7c0.7,1.6,2.1,2.8,3.5,3.2c0.7,0.2,1.2,0.2,1.8,0.2
		c0.9,0,2.1-0.2,3-0.7c5.5-3.5,9.9-8.1,13.1-13.6c5.1-8.3,10.1-22.6,4.4-43.3c-3-11.1-5.3-22.1-6.9-33.4c-0.9-8.5-3-16.8-6-24.7
		c-12.7-35.3-9.7-42.6-9.4-43.1c2.3-2.5,1.8-6.2-0.5-8.5c-1.8-1.6-4.6-2.1-6.9-0.7c1.6-8.1,3.7-14.8,5.1-16.6c3-1.6,3.9-5.3,2.3-8.1
		c-1.4-2.5-4.4-3.7-6.9-2.8l-0.9,0.2c3.2-12.7,11.1-34.3,28.3-39.4c3.2-0.9,5.1-4.4,4.1-7.6c-0.9-3.2-4.4-5.1-7.6-4.1
		c-32,9.7-38.5,56.5-38.7,58.5c-0.2,2.1,0.5,3.9,2.1,5.3c0.9,0.7,1.8,1.2,3,1.4c-0.7,2.3-1.4,5.1-2.1,8.3
		c-1.8,8.5-2.8,16.4-2.8,16.8c-0.5,3.2,2.1,6.2,5.3,6.7c1.4,0.2,2.8-0.2,3.9-0.9c0.9,8.3,3.7,20.3,10.4,38.5
		c2.8,7.1,4.6,14.8,5.5,22.4c1.6,11.8,4.1,23.3,7.4,34.8c5.8,21.4-1.8,33.9-7.4,39.4c-3.7-5.8-10.1-13.4-19.1-15.7
		c-6.5-1.6-13.6-13.8-15.9-19.6c-1.2-3-4.6-4.6-7.6-3.5c-2.1,0.7-3.7,2.8-3.9,4.8c-0.5,4.1,0,8.5,1.4,12.7
		c-20.3-12-27.7-33.6-27.7-33.9c-0.9-3-4.4-4.8-7.4-3.9c-1.2,0.2-2.5,0.7-5.5,4.6c-6-27,1.2-43.3,7.6-57.8
		c4.4-10.1,8.5-19.6,7.6-30.7c-1.6-24,25.1-50.5,25.4-50.7c0.5-0.5,0.9-1.2,1.4-1.8c16.4-37.8,67.5-46.1,68.5-46.3
		c1.2-0.2,2.1-0.7,3-1.4l1.8-0.2c27.4-20.5,61.1-29.5,100.5-26.7h0.9c39.2-2.8,72.6,6.2,99.8,26.5c0.7,0.2,1.6,0.5,2.3,0.7
		c0.9,0.7,1.8,1.2,3,1.4c0.5,0,51.9,8.3,68.5,46.3c0.2,0.7,0.7,1.4,1.4,1.8c0.2,0.2,27,26.7,25.4,50.7c-0.7,11.3,3.2,20.7,7.6,30.7
		c6.5,14.5,13.4,30.9,7.6,57.8c-3.2-3.9-4.6-4.4-5.5-4.6c-3.2-0.9-6.5,0.7-7.4,3.9c0,0.2-7.4,21.9-27.7,33.9
		c1.4-4.1,1.6-8.3,1.4-12.7c-0.5-3.2-3.2-5.5-6.7-5.3c-2.3,0.2-4.1,1.6-4.8,3.9c-2.3,5.8-9.4,18-15.9,19.6
		c-9,2.3-15.4,9.9-19.1,15.7c-5.5-5.8-12.9-18-7.1-39.4c3.2-11.5,5.5-23,7.1-34.8c0.9-7.6,2.8-15.2,5.5-22.4
		c6.7-18.2,9.7-30.4,10.4-38.5c2.8,1.8,6.5,0.9,8.3-1.8c0.7-1.2,1.2-2.5,0.9-3.9c0-0.2-0.9-8.3-2.8-16.8c-0.7-3.2-1.4-6-2.1-8.3
		c1.2-0.2,2.1-0.7,3-1.4c1.6-1.4,2.3-3.2,2.1-5.3c-0.2-2.1-6.7-48.9-38.7-58.5c-3.2-0.9-6.5,0.9-7.6,4.1c-0.9,3.2,0.9,6.5,4.1,7.6
		c17.3,5.3,25.4,27,28.3,39.4l-0.9-0.2c-3.2-0.9-6.5,0.7-7.4,3.9c-0.9,2.8,0.5,5.5,2.8,6.9c1.6,1.8,3.5,8.5,5.1,16.6
		c-3-1.6-6.5-0.5-8.1,2.3c-1.2,2.3-0.9,4.8,0.7,6.9c0.2,0.5,3.2,7.8-9.4,43.1c-3,7.8-5.1,16.1-6,24.7c-1.6,11.3-3.9,22.6-6.9,33.4
		c-5.5,20.7-0.7,35,4.4,43.3c3.2,5.5,7.8,10.1,13.1,13.6c0.9,0.5,1.8,0.7,3,0.7c0.7,0,1.4,0,1.8-0.2c1.6-0.5,3-1.6,3.5-3.2
		c1.6-3.5,7.6-13.8,14.8-15.7c2.5-0.7,4.6-1.6,6.7-3.2c0.2,0.5,0.5,0.7,0.7,1.2c1.6,1.8,3.9,2.8,6.5,2.1
		c24.9-7.1,38.3-26.3,44.5-37.8c1.2,1.6,2.1,3.2,3,4.6c1.8,2.8,5.5,3.7,8.3,1.8c1.2-0.7,2.1-1.8,2.5-3.2
		C822.8,555.1,813.4,533.2,805.5,515.5z"/>
	<path class="st2" d="M694.4,546.6c0-0.5,0-0.9,0-0.9s0,1.2-0.5,3.2c-0.2,0.9-0.5,2.3-0.7,3.7c-0.2,1.4-0.7,3.2-1.4,4.8
		c-0.7,2.1-1.4,3.9-2.3,5.8c-0.9,2.1-2.3,4.1-3.7,6.2c-1.6,2.1-3.5,3.9-5.5,5.5c-2.3,1.6-4.8,2.8-7.6,3.2c-3,0.7-6.2,0.7-9.2,0.5
		l-1.2-0.2l-1.2-0.2l-1.2-0.2h-0.7l-0.7-0.2l-2.5-0.7H656h-0.2l-0.7-0.2l-1.4-0.5l-1.4-0.5l-1.4-0.5c-0.9-0.2-1.6-0.5-2.5-0.9
		c-1.8-0.7-3.5-1.4-5.1-2.1c-3.5-1.6-6.5-3.5-9.4-5.8c-3.2-2.5-6-5.1-8.8-7.8c-1.4-1.4-3-3-4.8-4.6c-1.8-1.6-3.7-3.2-5.8-4.6
		s-4.4-2.8-6.7-3.7c-2.3-0.9-4.8-1.8-7.1-2.3c-3.2-0.7-6.5-1.2-9.7-1.4c0.2-0.7,0.5-1.6,0.5-2.5c0.5-2.5,0.7-5.1,0.7-7.6
		c0-2.5-0.2-5.1-0.7-7.6c-0.2-0.7-0.2-1.2-0.5-1.8c22.6-3.7,40.1-32.5,40.1-47.2c0-15.7-20.3-24-45.2-24c-24.9,0-45.2,8.3-45.2,24
		c0,14.8,17.5,43.6,40.1,47.2c-0.2,0.7-0.2,1.2-0.5,1.8c-0.5,2.5-0.7,5.1-0.7,7.6c0,2.5,0.2,5.1,0.7,7.6c0.2,0.9,0.2,1.6,0.5,2.5
		l-2.5,0.2c-1.2,0.2-2.3,0.2-3.7,0.5c-1.4,0.2-2.5,0.5-3.7,0.7c-2.5,0.5-4.8,1.4-7.4,2.3c-2.3,0.9-4.6,2.3-6.7,3.7s-3.9,3-5.8,4.6
		c-1.6,1.6-3.2,3.2-4.8,4.6c-2.8,2.8-5.8,5.5-8.8,7.8c-3,2.3-6.2,4.1-9.4,5.8s-6.7,2.8-10.4,3.9l-2.5,0.7l-2.8,0.7l-0.7,0.2H511
		l-1.2,0.2l-1.2,0.2h-1.2c-3,0.5-6.2,0.2-9.2-0.2c-2.8-0.7-5.3-1.8-7.4-3.5s-3.9-3.5-5.5-5.5c-1.4-1.8-2.5-3.9-3.7-6.2
		c-0.9-1.8-1.6-3.9-2.3-5.8c-0.5-1.8-0.9-3.5-1.4-4.8c-0.5-1.4-0.5-2.8-0.7-3.7c-0.2-2.1-0.5-3.2-0.5-3.2s0,0.2,0,0.9
		s-0.2,1.4-0.2,2.3c-0.2,3,0,6.2,0.5,9.2c0.2,2.3,0.7,4.4,1.4,6.5c0.7,2.5,1.6,5.1,3,7.4c1.6,2.8,3.5,5.3,5.8,7.4l0.5,0.5
		c2.1,15.9,15.2,71.4,97.3,71.4c80.9,0,94.7-54.2,97-70.8c0.5-0.2,0.9-0.7,1.2-0.9c2.3-2.1,4.4-4.6,5.8-7.4c1.2-2.3,2.3-4.8,3-7.4
		c0.7-2.1,1.2-4.4,1.4-6.5c0.5-3,0.5-6.2,0.5-9.2C694.7,548,694.4,547.3,694.4,546.6z"/>
	<path class="st2" d="M1018.3,678.2H154.4c-3.2,0-6-2.8-6-6c0-3.2,2.8-6,6-6h863.8c3.2,0,6,2.8,6,6
		C1024.3,675.4,1021.5,678.2,1018.3,678.2L1018.3,678.2z"/>
	<path class="st35" d="M380.8,685.4c0,0,6.7,21,29.3,8.5c22.6-12.4,11.3-41.5,11.3-41.5s-16.8-70.3-87.4-53.7s-56.2,95.4-56.2,95.4
		s0.7,20.1,19.1,20.1s24.7-9.2,27.4-22.8c0,0-1.4,30.7,32.3,23.3C390.2,707.2,380.8,685.4,380.8,685.4z"/>
	<path class="st2" d="M346.7,722L346.7,722c-7.6,0.5-15-2.5-20.5-8.1c-1.4-1.4-2.3-2.8-3.2-4.4c-0.7,0.9-1.6,1.8-2.5,2.8
		c-5.5,5.3-13.4,8.1-23.7,8.1c-9.2,0.5-18-4.8-21.9-13.4c-1.8-3.7-2.8-7.8-3.2-12c-2.1-14.5-1.4-29.3,1.8-43.6
		c5.1-21.4,19.6-49.1,59-58.3c7.1-1.6,14.5-2.5,21.9-2.8c23.7,0,44,10.6,58.3,30.7c6.5,9,11.3,19.1,14.3,29.7c2.1,5.8,3,11.8,3,17.7
		c0,13.8-6,24.4-17.3,30.7c-4.8,2.8-10.4,4.4-15.9,4.6c-3.7,0-7.6-0.9-10.8-2.8c-0.5,1.2-0.9,2.1-1.4,3c-4.6,8.1-13.6,13.6-27,16.6
		C354,721.5,350.3,722,346.7,722z M324.3,685.6h0.7c3,0.5,5.3,3.2,5.3,6.2c0,0-0.2,8.8,4.8,14.1c3.2,3,7.4,4.6,11.8,4.1l0,0
		c2.8,0,5.8-0.5,8.5-0.9c9.7-2.1,16.4-6,19.1-10.8c1.6-3.2,2.1-6.9,0.9-10.4c-0.2-0.5-0.2-0.7-0.2-0.7c-0.9-3.2,0.9-6.5,3.9-7.4
		c3-0.9,6,0.5,7.1,3.5c0,0.2,0.2,0.5,0.2,0.7c0.7,2.1,3.7,8.1,10.4,8.1c3.7-0.2,7.1-1.4,10.1-3.2c7.4-4.1,11.1-10.6,11.1-20.1
		c0-4.6-0.7-9.4-2.3-13.8c0-0.2-0.2-0.5-0.2-0.7c-2.8-9.4-6.9-18.4-12.7-26.3c-12.2-16.8-28.3-25.4-48.4-25.4
		c-6.5,0-12.9,0.7-19.1,2.3c-27,6.2-43.8,23-50.2,49.6c-3,12.9-3.5,26-1.6,39c0,0.2,0,0.7,0,0.9c0.2,2.8,0.9,5.3,2.1,7.8
		c1.8,4.1,6.2,6.9,11.1,6.5c14.8,0,19.1-6.7,21.7-18C319,687.4,321.3,685.6,324.3,685.6L324.3,685.6z"/>
	<path class="st4" d="M636.1,606.8c-25.1-16.4-49.3,1.6-49.8,1.8c-0.5-0.2-24.7-18.2-49.8-1.8c-25.1,16.4-31.8,108.8,49.3,109.2h0.9
		C667.9,715.5,661.5,623.4,636.1,606.8z"/>
	<path class="st2" d="M586.8,722h-1.2c-18.7-0.2-34.3-5.1-46.6-14.5c-10.6-8.5-18.4-20.1-22.1-33.2c-8.1-27.7-0.5-61.8,16.4-72.6
		c7.6-5.1,16.6-7.8,25.8-7.8c9.4,0.2,18.9,2.8,27.2,7.6c8.3-4.8,17.5-7.6,27.2-7.6c9.2,0,18.2,2.8,25.8,7.8
		c16.8,11.1,24.4,44.9,16.4,72.6c-3.7,13.1-11.5,24.7-22.1,33.2c-12.2,9.4-27.7,14.3-46.6,14.5H586.8z M586.4,710h0.5
		c40.1-0.2,53.2-24.7,57.6-39.2c3.5-12,3.7-24.4,0.9-36.6c-2.5-10.8-7.1-19.1-12.4-22.8c-5.8-3.9-12.4-6-19.4-6
		c-8.3,0.2-16.6,2.8-23.5,7.6c-2.1,1.6-5.1,1.6-7.1,0c-6.9-4.8-15.2-7.4-23.5-7.6c-6.9,0-13.6,2.1-19.4,6c-5.3,3.5-9.9,12-12.4,22.8
		c-2.8,12-2.5,24.7,0.9,36.6c4.1,14.5,17.3,38.7,57.6,39.2H586.4L586.4,710z"/>
	<path class="st35" d="M791,685.4c0,0-6.7,21-29.3,8.5s-11.3-41.5-11.3-41.5s16.8-70.3,87.4-53.7s56.2,95.4,56.2,95.4
		s-0.7,20.1-19.1,20.1s-24.7-9.2-27.4-22.8c0,0,1.4,30.7-32.3,23.3C781.6,707.2,791,685.4,791,685.4z"/>
	<path class="st2" d="M825.1,722c-3.7,0-7.4-0.5-11.1-1.4c-13.4-3-22.4-8.5-27-16.6c-0.5-0.9-1.2-2.1-1.4-3
		c-3.2,1.8-6.9,2.8-10.8,2.8l0,0c-5.5-0.2-11.1-1.8-15.9-4.6c-11.3-6.2-17.3-16.8-17.3-30.7c0-6,1.2-12,3-17.7
		c3-10.6,7.8-20.7,14.3-29.7c14.3-20.1,34.6-30.7,58.3-30.7c7.4,0,14.8,0.9,21.9,2.8c39.4,9.2,53.9,36.9,59,58.3
		c3.2,14.3,3.9,29,1.8,43.6c-0.2,4.1-1.4,8.3-3.2,12c-3.9,8.5-12.4,13.8-21.9,13.4c-10.4,0-18-2.5-23.7-8.1
		c-0.9-0.9-1.6-1.6-2.5-2.8c-0.9,1.6-2.1,3-3.5,4.4C840.1,719.5,832.7,722.5,825.1,722z M796.5,687.9c-1.2,3.5-0.7,7.1,0.9,10.4
		c2.8,4.8,9.4,8.8,19.1,10.8c2.8,0.7,5.5,0.9,8.5,0.9c4.4,0.2,8.5-1.2,11.8-4.1c5.1-5.3,4.8-13.8,4.8-14.1c0-3.2,2.5-6,5.8-6.2
		c2.8,0,5.3,1.8,6,4.6c2.5,11.5,6.9,18,21.7,18c4.8,0.2,9.2-2.3,11.1-6.7c1.2-2.3,1.8-5.1,2.1-7.6c0-0.2,0-0.7,0-0.9
		c1.8-13.1,1.4-26.5-1.6-39.4c-6.5-26.3-23.3-42.9-50-49.1c-6.2-1.4-12.7-2.3-19.1-2.3c-20.1,0-36.2,8.5-48.4,25.4
		c-5.8,8.1-9.9,16.8-12.7,26.3c0,0.2-0.2,0.5-0.2,0.7c-0.5,0.9-9,24.4,8.8,34.1c3,1.8,6.7,3,10.1,3.2c6.7,0,9.7-6,10.4-8.1
		c0-0.2,0.2-0.5,0.2-0.7c1.4-3,4.8-4.4,7.8-3.2c2.8,1.2,4.1,4.4,3.5,7.1C796.5,687.2,796.5,687.4,796.5,687.9z"/>
	<path class="st2" d="M592.3,608.6l-6,88l-6-87.8c-0.2-3.2,2.3-6.2,5.5-6.5c3.2-0.2,6.2,2.3,6.5,5.5l0,0L592.3,608.6L592.3,608.6z"
		/>
</g>
</svg>
