<?xml version="1.0" encoding="utf-8"?>
<!-- Generator: Adobe Illustrator 24.0.0, SVG Export Plug-In . SVG Version: 6.00 Build 0)  -->
<svg version="1.1" id="Layer_1" xmlns="http://www.w3.org/2000/svg" xmlns:xlink="http://www.w3.org/1999/xlink" x="0px" y="0px"
	 viewBox="0 0 1200 1200" style="enable-background:new 0 0 1200 1200;" xml:space="preserve">
<style type="text/css">
	.st0{fill:#BE9A71;}
	.st1{fill:#D9A993;}
	.st2{fill:#683A32;}
	.st3{fill:#FFFFFF;}
	.st4{fill:#F78C8B;}
	.st5{fill:#1D1D1B;}
	.st6{fill:#FDAC49;}
	.st7{fill:#191919;}
	.st8{fill:#333333;}
	.st9{fill:#14192C;}
	.st10{fill:#3E3D4F;}
	.st11{fill:#A15225;}
	.st12{fill:#895834;}
	.st13{fill:#1A0A14;}
	.st14{fill:#672E28;}
	.st15{fill:#111B1D;}
	.st16{fill:#EBEBEB;}
	.st17{fill:#494859;}
	.st18{fill:#2F2627;}
	.st19{fill:#C7B6AC;}
	.st20{fill:#E2D9D4;}
	.st21{fill:#D6CDCA;}
	.st22{fill:#674043;}
	.st23{fill:#3D3834;}
	.st24{fill:#E4DACE;}
	.st25{fill:#554E46;}
	.st26{fill:#E8E8E8;}
	.st27{fill:#AEE9FA;}
	.st28{fill:#4D4D4D;}
	.st29{fill:#FDFDFD;}
	.st30{fill:#FAAF5E;}
	.st31{fill:#F8FCFC;}
	.st32{fill:#DBCFB5;}
	.st33{fill:#6D6D6D;}
	.st34{fill:#C69C6D;}
	.st35{fill:#F0B965;}
	.st36{fill:#DA7B45;}
	.st37{fill:#FAE7D6;}
	.st38{fill:#FDF8F2;}
	.st39{fill:#E2C4AA;}
	.st40{fill:#BC8571;}
	.st41{fill:#2F322A;}
	.st42{fill:#444741;}
	.st43{fill:#46282D;}
	.st44{fill:#986858;}
	.st45{fill:#F0C7A2;}
	.st46{fill:#FCE9C8;}
	.st47{fill:#808080;}
	.st48{fill:#4E4E4E;}
	.st49{fill:#E8CBA9;}
	.st50{fill:#956B50;}
</style>
<g>
	<path class="st3" d="M498,523.2c-9.1,0-17.9,7-22.1,17.2c-5.5,13.4-1.5,27.2,9.4,31.5c2.1,0.9,4.3,1.3,6.6,1.3
		c9.1,0,17.9-7,22.1-17.2c5.5-13.4,1.3-27.2-9.4-31.5C502.7,523.6,500.3,523.2,498,523.2z M508.6,543.4c0,0.6-0.4,1.3-0.9,1.5
		l-5.3,1.9l4.3,4.9c0.4,0.4,0.4,1.1,0.2,1.5c-3,7.4-9.1,12.3-15.1,12.3c-1.3,0-2.6-0.2-3.8-0.6c-6.6-2.8-8.9-12.3-5.1-21.5
		c3-7.4,9.1-12.3,15.1-12.3c1.3,0,2.6,0.2,3.8,0.6C505.9,533.4,508.6,537.6,508.6,543.4L508.6,543.4z"/>
	<path class="st3" d="M694,602.5c-2.1-0.9-4.5-1.3-6.6-1.3c-9.1,0-17.9,7-22.1,17.2c-5.5,13.4-1.3,27.2,9.4,31.5
		c2.1,0.9,4.3,1.3,6.6,1.3c9.1,0,17.9-7,22.1-17.2c2.3-5.5,3-11.7,1.9-17.4C704,610.1,700,605,694,602.5z M697.2,622.7l-5.3,1.9
		l4.3,4.9c0.4,0.4,0.4,1.1,0.2,1.5c-3,7.4-9.1,12.3-15.1,12.3c-1.3,0-2.6-0.2-3.8-0.6c-3.4-1.5-6-4.7-6.6-8.5
		c-0.9-4.5-0.4-8.9,1.5-13c3-7.4,9.1-12.3,15.1-12.3c1.3,0,2.6,0.2,3.8,0.6c4,1.7,6.8,6.2,7,11.9C698.3,622,697.8,622.5,697.2,622.7
		z"/>
	<path class="st3" d="M487.8,476.9c7-7.2,14.2-10,21-12.8c7.7-3,15.7-6,20-15.3v-0.2c19.3-47.4,11.5-71,4.9-80.8
		c-4.9-7.7-12.3-12.1-20.2-12.1h-0.4c-14.5,0-25.3,15.1-33.8,47.4c-6,22.3-12.8,33.4-19.6,43.4V490c1.1,0.2,2.1,0.2,3.2,0.2
		C468.5,490.5,477,488.1,487.8,476.9z"/>
	<path class="st3" d="M790.1,470c-10.2,0-36.8,6-59.7,61.6v0.2c-3.6,9.6,0,17.4,3.4,24.9c3,6.8,6.2,13.8,6.2,23.8
		c-0.2,15.3,4.3,23,7.9,26.8c2.8,3,6.8,4.7,10.8,4.7l0,0c9.4,0,17.4-8.3,20-20.8c0.6-3,1.3-6,1.7-9.1c2.6-17,8.3-33.4,17.2-48.3
		c16.8-29.3,19.6-47.6,8.9-57.8C802,472.2,796,469.8,790.1,470z"/>
	<path class="st3" d="M595.2,574c12.5,4.9,23.4,13.4,31.2,24.4c1.5-5.3,3.8-10.2,7-14.7c5.1-7,10-13,14.7-18.3
		c9.8-11.7,17-20.2,17.2-30.8c0.6-22.7-28.1-36.6-37-40.2c-35.1-14.5-50.8-1.7-54.8,2.6c-7.2,7.9-8.3,18.9-9.4,34
		c-0.6,7-1.3,14.9-2.6,23.4c-0.9,5.3-2.8,10.6-5.5,15.3C569,567.2,582.8,568.7,595.2,574z"/>
	<path class="st3" d="M631.9,638.6c-4-14-6.4-21.9-12.5-32.1c-8.9-15.3-25.9-22.1-27.8-23h-0.2l0,0l0,0h-0.2
		c-0.2,0-18.1-8.1-36.1-3.4c-11.7,3-18.9,7-31.5,14c-18.1,9.8-37,18.3-56.5,25.3l-7,2.8v84c24.2,16.2,51,28.3,79.3,35.3
		c19.8,4.9,45.3,15.9,55.1,41.5c0.6,1.9,1.3,3.8,1.9,5.7c3.2,1.3,6.6,2.6,10,3.8c23,7.4,44,1.1,54.8-16.8
		c16.8-27.2,7.9-46.8-6.8-79.1C645.5,677.9,637.9,658.6,631.9,638.6z M540.7,643.5c3.6,1.9,4.9,6.4,3,10c-1.9,3.6-6.4,4.9-10,3
		c-3.6-1.9-4.9-6.4-3-10l0,0C532.7,643.1,537.1,641.6,540.7,643.5L540.7,643.5L540.7,643.5z M507.6,646.9c-1.9,3.6-6.4,4.9-10,3
		s-4.9-6.4-3-10c1.9-3.6,6.4-4.9,10-3l0,0C508.2,638.8,509.5,643.5,507.6,646.9z M523.1,670.1c-1.9,3.6-6.4,4.9-10,3
		c-3.6-1.9-4.9-6.4-3-10c1.9-3.6,6.4-4.9,10-3C523.5,662.2,525,666.7,523.1,670.1L523.1,670.1z M519.5,632.2c-3.6-1.9-4.9-6.4-3-10
		c1.9-3.6,6.4-4.9,10-3c3.6,1.9,4.9,6.4,3,10C527.6,632.9,523.1,634.4,519.5,632.2L519.5,632.2z M575.6,666.5
		c1.1-3.8,5.3-6.2,9.1-5.1c3.8,1.1,6.2,5.3,5.1,9.1c-1.1,3.8-5.3,6.2-9.1,5.1l0,0C576.7,674.5,574.5,670.5,575.6,666.5z
		 M592.8,697.3c-1.1,3.8-5.3,6.2-9.1,5.1c-3.8-1.1-6.2-5.3-5.1-9.1c1.1-3.8,5.3-6.2,9.1-5.1l0,0
		C591.8,689.2,594.1,693.5,592.8,697.3L592.8,697.3z M585.8,638.2c-3.6,0-7.2-0.4-10.8-1.3l-35.5,86.3c-0.9,1.9-2.6,3.2-4.7,3.2
		c-0.6,0-1.3-0.2-1.9-0.4c-2.6-1.1-3.8-4-2.8-6.6l35.5-86.3c-6.2-3.8-14.2-11.1-16.2-18.9c-1.1-4.5,0-9.1,3.2-12.5
		c3.4-3.4,8.1-5.3,13-4.9c6.4,0.4,12.8,1.7,18.7,4.3c3.6,1.5,7.2,3.4,10.4,5.5c7.9,5.3,11.7,11.1,11.5,17.2
		C605.4,632.7,597.9,638.2,585.8,638.2L585.8,638.2z M602.8,659.5c1.1-3.8,5.3-6.2,9.1-4.9c3.8,1.1,6.2,5.3,4.9,9.1
		c-1.1,3.8-5.3,6.2-9.1,4.9C603.9,667.7,601.5,663.5,602.8,659.5C602.8,659.7,602.8,659.7,602.8,659.5L602.8,659.5z M620.2,691.8
		c-1.1,3.8-5.3,6.2-9.1,4.9c-3.8-1.1-6.2-5.3-4.9-9.1c1.1-3.8,5.3-6.2,9.1-4.9C619.2,683.7,621.3,687.7,620.2,691.8L620.2,691.8z"/>
	<path class="st3" d="M592.2,613.8c-1.9-0.9-4.3-1.1-6.4-0.6c-0.6,0.2-1.3,0.4-1.7,1.1l0,0c-0.6,0.4-0.9,1.3-0.9,1.9l0,0
		c0,2.1,2.1,4.7,5.5,6c2.1,1.1,4.7,1.1,7,0.4c0.9-0.2,1.5-0.9,1.9-1.7C598.6,618.4,596.2,615.2,592.2,613.8z"/>
	<path class="st3" d="M583,782.3c-6-11.7-18.5-24-44.9-30.8l-1.3-0.4c-3-0.6-6-1.5-8.7-2.3c-2.8-0.9-6-1.7-9.1-2.8
		c-7.2-2.3-14.5-5.1-21.7-8.3c-13-5.7-25.3-12.3-37.4-19.8l-4.9-3.2l-0.2-0.2l-5.1-3.4c-8.7-6-17-12.3-24.9-19.1
		c-2.3-2.1-3.8-3.4-5.3-4.7c-1.1-1.1-2.1-1.9-3.6-3.2c-1.5-1.3-2.1-3.6-1.5-5.5c0.6-1.7,3.6-10.8-2.6-15.3c-1.1-0.6-2.1-1.3-3.2-1.3
		c-4.3-0.6-8.5,2.1-10.6,3.6c-0.4,0.2-0.9,0.6-1.3,0.6c-2.6,1.1-5.5-0.4-6.4-3c-0.2-0.4-0.2-0.6-0.2-1.1c-0.2-5.3-4.5-9.4-9.8-9.8
		c-2.6-0.4-5.1,0.2-7.2,1.7c-3.2,3-4.9,7-4.9,11.5c0,2.8-2.3,4.9-5.1,4.9c-0.6,0-1.1-0.2-1.7-0.2c-3.6-1.5-7.9-1.5-11.3,0.4
		c-2.8,1.9-4.7,4.9-4.7,8.3c-0.2,3,0.4,8.7,7.2,13.6c2.3,1.7,2.8,4.7,1.1,7c-0.6,1.1-1.7,1.7-3,1.9c-0.6,0.2-7,1.9-7,7.2
		c0,5.3,4.5,8.5,13,8.7c1.9,0,3.6,1.3,4.5,3c6,14,19.8,31.2,34.7,46.6c11.1-14,41.5-14.9,58.2,10c11.1,16.4,20,16.6,29.1,32.3
		c5.5,9.8,5.1,17.6,4,22.1c8.3,3.4,16.8,6.2,25.5,8.1c2.8,0.6,4.5,3.2,3.8,6c-0.2,0.6-0.4,1.5-0.9,1.9c-1.3,1.5-3.2,2.3-5.1,1.9
		c-17.9-4-34.9-10.8-50.8-20v89.3c21.3-19.8,47.2-19.3,55.9-18.5c7.7-11.1,14.9-22.3,21.5-34c0.2-0.9,0.4-1.5,0.9-2.1
		c0.2-0.2,0.4-0.4,0.6-0.9c0.4-0.2,0.9-0.6,1.3-0.9c2.3-1.1,4.7-2.3,7-3.6c3-1.7,5.7-3.2,8.3-4.9c26.1-17.4,31.2-37.6,32.1-44v0.2
		c0.9-4.7,0.9-9.6,0-14.2C586.7,791,585.2,786.6,583,782.3z"/>
	<path class="st7" d="M606,623.7c0.4-6.2-3.4-11.9-11.5-17.2c-3.4-2.1-6.8-4-10.4-5.5c-6-2.6-12.1-3.8-18.7-4.3
		c-4.9-0.4-9.6,1.5-13,4.9c-3.2,3.4-4.3,8.1-3.2,12.5c1.9,7.9,9.8,14.9,16.2,18.9l-35.5,86.3c-1.1,2.6,0.2,5.5,2.8,6.6
		c0.6,0.2,1.3,0.4,1.9,0.4c2.1,0,4-1.3,4.7-3.2l35.5-86.3c3.6,0.9,7.2,1.3,10.8,1.3C597.9,638.2,605.4,632.7,606,623.7z
		 M597.5,620.8c-0.4,0.9-1.1,1.5-1.9,1.7c-2.3,0.9-4.7,0.6-7-0.4c-3.4-1.3-5.5-3.8-5.5-6l0,0c0-0.6,0.2-1.5,0.9-1.9l0,0
		c0.4-0.4,1.1-0.9,1.7-1.1c2.1-0.6,4.5-0.4,6.4,0.6C596.2,615.2,598.6,618.4,597.5,620.8L597.5,620.8z"/>
	<path class="st7" d="M852.7,430.4c-13.3-11.7-31.6-16-51.5-12.1c-32.5,6.4-64.3,32.5-84.5,68.9c-11.9-11.9-33.4-28.6-70.1-43.7
		h-0.2c-36.6-15.1-63.6-18.3-80.4-18.3c11.2-39.8,7.1-80.8-11.7-108.3c-11.4-16.7-27.5-26.6-45.1-27.7c-19.9-1.1-36.2,8-48.3,27
		c-4.6,7.6-8.5,15.6-11.4,24V217.7h-10.8v485.1c-6.6-4.8-13.3-10.1-19.7-15.6c-2.5-2.1-3.9-3.4-5.3-4.8l-1.4-1.4
		c2.1-8.7,1.1-19-7.6-25.4c-1.6-1.1-3.4-2.1-5.3-2.7c-4.1-1.4-8.5-1.4-12.4,0c-1.4,0.5-2.7,0.9-3.9,1.4c-3.2-6.9-9.8-11.4-17.2-12.4
		c-5.7-1.1-11.9,0.5-16.3,4.3c-4.1,3.7-7.1,8.5-8.2,13.7c-5-0.7-10.3,0.2-14.7,2.7c-6.4,3.7-10.3,10.3-10.8,17.6
		c-0.5,6.6,1.6,13.3,6,18.3c-5,3.2-8,8.9-7.8,14.7c0.2,11.2,8,18.5,21.1,19.9c10.1,20.6,33.7,48.5,61.4,72.6
		c13.3,11.4,27.5,22,42.4,31.1v162.3l0,0v81.7H450v-79c14.2-11.7,27.2-24.5,39.4-38.5C510,940.4,527.9,915,543,888
		c30.7-15.1,51.1-38.7,54.9-63.6c0.7-4.1,0.9-8.5,0.7-12.8c1.8,0.7,3.7,1.1,5.5,1.8c7.6,2.5,15.3,3.9,23.4,3.9
		c6,0,11.9-0.9,17.6-2.5c13-3.9,24-12.4,30.9-24c4.6-7.1,7.8-14.9,9.8-22.9l0,0l1.6-1.4c24.5-20.6,44.2-46,58.1-74.9
		c5.5-11.2,9.6-23.1,12.6-35.3c4.1,0.9,8.2,1.6,12.6,1.6c13.3,0,25.9-6,34.3-16c14-15.8,18.1-35.5,22-54.5c3-14,6-28.4,12.8-41.4
		c1.8-3.2,3.4-6.6,5.5-10.1c8.7-16,18.8-34.1,22.9-52.2C872.8,461.5,867.6,443.7,852.7,430.4z M771.2,609.2L771.2,609.2
		c-4.3,0-8.7-1.8-11.7-5c-3.9-4.1-8.7-12.4-8.5-28.8c0.2-11-3.2-18.5-6.6-25.6c-3.7-8-7.6-16.5-3.7-26.8v-0.5
		c24.7-59.8,53.3-66.4,64.3-66.4c6.6-0.2,12.8,2.3,17.6,6.6c11.4,11,8.5,30.7-9.6,62.3c-9.6,15.8-16,33.4-18.5,52
		c-0.7,3.4-1.1,6.6-1.8,9.8C790,600.3,781.3,609.2,771.2,609.2z M467,532c4.6-11,14.2-18.5,23.8-18.5c2.5,0,4.8,0.5,7.1,1.4
		c11.4,4.8,15.8,19.7,10.1,33.9c-4.6,11-14.2,18.5-23.8,18.5c-2.5,0-4.8-0.5-7.1-1.4C465.6,561.3,461,546.2,467,532z M558.8,546.7
		c1.4-9.2,2.1-17.6,2.7-25.2c1.4-16.5,2.3-28.2,10.1-36.6c4.3-4.6,21.1-18.3,59.1-2.7c9.6,3.9,40.7,18.8,39.8,43.3
		c-0.2,11.7-8,20.6-18.5,33.2c-4.8,5.7-10.3,12.1-15.8,19.7c-3.4,4.8-6,10.1-7.6,15.8c-17.4-23.8-46.7-35.9-76-31.1
		C556,558.1,557.8,552.4,558.8,546.7z M670.9,615.8c4.6-11,14.2-18.5,23.8-18.5c2.5,0,4.8,0.5,7.1,1.4c6.2,2.7,10.8,8.5,11.9,15.1
		c1.4,6.4,0.7,12.8-2.1,18.8c-4.6,11-14.2,18.5-23.8,18.5c-2.5,0-4.8-0.5-7.1-1.4C669.3,645.1,665,630.2,670.9,615.8L670.9,615.8z
		 M449.8,472.3v-41.4c7.3-10.5,14.7-22.7,21.1-46.7c9.2-34.8,20.8-51.1,36.4-51.1h0.5c8.5,0.2,16.3,5,21.7,13
		c6.9,10.5,15.6,35.9-5.3,87v0.2c-4.6,10.1-13.3,13.3-21.5,16.5c-7.6,2.7-15.1,5.7-22.7,13.7c-11.4,11.9-20.8,14.7-26.6,14.7
		c-1.1,0-2.3,0-3.4-0.2L449.8,472.3z M587.1,822.5v0.2c-1.1,7.1-6.6,28.8-34.6,47.4c-2.7,1.8-5.7,3.7-8.9,5.3
		c-2.3,1.4-4.8,2.5-7.6,3.9c-0.5,0.2-0.9,0.5-1.4,0.9c-0.2,0.2-0.5,0.5-0.7,0.9c-0.5,0.7-0.9,1.4-0.9,2.3
		c-7.1,12.6-14.9,24.7-23.1,36.6c-9.4-0.9-37.3-1.4-60.2,19.9v-96.2c17.2,9.8,35.5,16.9,54.7,21.5c2.1,0.5,4.1-0.5,5.5-2.1
		c0.5-0.7,0.9-1.4,0.9-2.1c0.7-3-1.1-5.7-4.1-6.4c-9.4-2.1-18.5-5-27.5-8.7c1.1-4.8,1.8-13-4.3-23.8c-9.8-17.2-19.5-17.2-31.4-34.8
		c-18.1-27-50.8-26.1-62.7-10.8c-16-16.7-30.7-35.3-37.3-50.1c-0.9-1.8-2.7-3.2-4.8-3.2c-9.2-0.2-14-3.4-14-9.4c0-6,6.9-7.6,7.6-7.8
		c3-0.7,4.8-3.4,4.1-6.4c-0.2-1.4-0.9-2.5-2.1-3.2c-7.3-5.3-8-11.4-7.8-14.7c0-3.7,2.1-6.9,5-8.9c3.9-2.1,8.2-2.1,12.1-0.5
		c2.7,1.1,6-0.5,7.1-3.2c0.2-0.5,0.2-1.1,0.2-1.8c0-4.6,1.8-9.2,5.3-12.4c2.1-1.8,5-2.5,7.8-1.8c5.7,0.5,10.1,4.8,10.5,10.5
		c0.5,3,3.2,5,6.2,4.6c0.5,0,0.7-0.2,1.1-0.2c0.5-0.2,1.1-0.5,1.6-0.9c2.1-1.6,6.9-4.6,11.4-3.9c1.4,0.2,2.5,0.7,3.4,1.4
		c6.6,4.8,3.4,14.7,2.7,16.5c-0.7,2.1-0.2,4.3,1.6,6c1.6,1.4,2.7,2.3,3.9,3.4c1.6,1.4,3,2.7,5.7,5c8.5,7.3,17.4,14.2,26.8,20.6
		l5.5,3.7l0.2,0.2l5.3,3.4c12.8,8,26.3,15.1,40.3,21.3c7.8,3.4,15.6,6.4,23.4,8.9c3.2,1.1,6.4,2.1,9.8,3c3.4,0.9,6.4,1.8,9.4,2.5
		l1.4,0.5c28.4,7.1,41.9,20.6,48.3,33.2c2.3,4.6,3.9,9.6,4.8,14.7C588.1,812,588.1,817.3,587.1,822.5L587.1,822.5z M666.6,785.2
		c-11.7,19.2-34.3,26.1-59.1,18.1c-3.9-1.1-7.6-2.5-10.8-4.1c-0.5-2.1-1.1-4.1-2.1-6.2c-10.5-27.5-38-39.6-59.3-44.6
		c-30.4-7.8-59.3-20.6-85.4-38v-90.4l7.6-3c20.8-7.6,41.2-16.5,60.7-27.2c13.7-7.6,21.5-11.9,33.9-15.1c19.5-5.3,38.7,3.4,38.9,3.7
		h0.2l0,0l0,0h0.2c2.1,0.9,20.4,8.2,30,24.7c6.6,11.2,9.2,19.5,13.5,34.6c6.4,21.3,14.7,42.1,24.3,62.3
		C674.8,734.6,684.4,755.7,666.6,785.2L666.6,785.2z"/>
	<path class="st7" d="M491.8,565.5c6,0,12.1-5.1,15.1-12.3c0.2-0.4,0-1.1-0.2-1.5l-4.3-4.9l5.3-1.9c0.6-0.2,1.1-0.9,0.9-1.5
		c-0.2-5.7-2.8-10.2-7-11.9c-1.3-0.4-2.3-0.6-3.8-0.6c-6,0-11.9,4.9-15.1,12.3c-3.8,9.1-1.5,18.9,5.1,21.5
		C489.3,565.3,490.6,565.7,491.8,565.5z"/>
	<path class="st7" d="M696.3,631c0.2-0.4,0-1.1-0.2-1.5l-4.3-4.9l5.3-1.9c0.6-0.2,1.1-0.9,0.9-1.5c-0.2-5.7-2.8-10.2-7-11.9
		c-1.3-0.4-2.3-0.6-3.8-0.6c-6,0-11.9,4.9-15.1,12.3c-1.7,4-2.3,8.5-1.5,13c0.6,3.8,3,7,6.6,8.5c1.3,0.4,2.3,0.6,3.8,0.6
		C687.2,643.5,693.2,638.4,696.3,631z"/>
	<path class="st7" d="M533.9,656.5c3.6,1.9,8.1,0.6,10-3c1.9-3.6,0.6-8.1-3-10c-3.6-1.9-8.1-0.6-10,3l0,0
		C528.8,650.1,530.3,654.6,533.9,656.5z M519.9,660.1c-3.6-1.9-8.1-0.6-10,3c-1.9,3.6-0.6,8.1,3,10c3.6,1.9,8.1,0.6,10-3
		C525,666.7,523.5,662,519.9,660.1L519.9,660.1z M504.6,636.9c-3.6-1.9-8.1-0.6-10,3c-1.9,3.6-0.6,8.1,3,10c3.6,1.9,8.1,0.6,10-3
		C509.5,643.5,508.2,638.8,504.6,636.9L504.6,636.9z M526.5,619.5c-3.6-1.9-8.1-0.6-10,3c-1.9,3.6-0.6,8.1,3,10
		c3.6,1.9,8.1,0.6,10-3l0,0C531.4,625.9,530.1,621.4,526.5,619.5L526.5,619.5z"/>
	<path class="st7" d="M589.6,670.7c1.3-3.8-1.1-8.1-4.9-9.1c-3.8-1.1-8.1,1.1-9.1,4.9c-1.3,3.8,1.1,8.1,4.9,9.1l0,0
		C584.5,676.9,588.6,674.8,589.6,670.7z M587.9,688.2c-3.8-1.1-8.1,1.1-9.1,4.9c-1.1,3.8,1.1,8.1,4.9,9.1c3.8,1.1,8.1-1.1,9.1-4.9
		l0,0C594.1,693.5,591.8,689.2,587.9,688.2L587.9,688.2z M615.1,682.4c-3.8-1.1-8.1,1.1-9.1,5.1c-1.1,3.8,1.1,8.1,5.1,9.1
		c3.8,1.1,8.1-1.1,9.1-4.9C621.3,687.7,619,683.7,615.1,682.4L615.1,682.4z M616.8,663.7c1.1-3.8-1.1-8.1-4.9-9.1
		c-3.8-1.1-8.1,1.1-9.1,4.9c-1.1,3.8,1.1,8.1,4.9,9.1l0,0C611.7,669.9,615.8,667.7,616.8,663.7L616.8,663.7z"/>
</g>
</svg>
