<?xml version="1.0" encoding="utf-8"?>
<!-- Generator: Adobe Illustrator 24.0.0, SVG Export Plug-In . SVG Version: 6.00 Build 0)  -->
<svg version="1.1" id="Layer_1" xmlns="http://www.w3.org/2000/svg" xmlns:xlink="http://www.w3.org/1999/xlink" x="0px" y="0px"
	 viewBox="0 0 1200 1200" style="enable-background:new 0 0 1200 1200;" xml:space="preserve">
<style type="text/css">
	.st0{fill:#BE9A71;}
	.st1{fill:#D9A993;}
	.st2{fill:#683A32;}
	.st3{fill:#FFFFFF;}
	.st4{fill:#F78C8B;}
	.st5{fill:#1D1D1B;}
	.st6{fill:#FDAC49;}
	.st7{fill:#191919;}
	.st8{fill:#333333;}
	.st9{fill:#14192C;}
	.st10{fill:#3E3D4F;}
	.st11{fill:#A15225;}
	.st12{fill:#895834;}
	.st13{fill:#1A0A14;}
	.st14{fill:#672E28;}
	.st15{fill:#111B1D;}
	.st16{fill:#EBEBEB;}
	.st17{fill:#494859;}
	.st18{fill:#2F2627;}
	.st19{fill:#C7B6AC;}
	.st20{fill:#E2D9D4;}
	.st21{fill:#D6CDCA;}
	.st22{fill:#674043;}
	.st23{fill:#3D3834;}
	.st24{fill:#E4DACE;}
	.st25{fill:#554E46;}
	.st26{fill:#E8E8E8;}
	.st27{fill:#AEE9FA;}
	.st28{fill:#4D4D4D;}
	.st29{fill:#FDFDFD;}
	.st30{fill:#FAAF5E;}
	.st31{fill:#F8FCFC;}
	.st32{fill:#DBCFB5;}
	.st33{fill:#6D6D6D;}
	.st34{fill:#C69C6D;}
	.st35{fill:#F0B965;}
	.st36{fill:#DA7B45;}
	.st37{fill:#FAE7D6;}
	.st38{fill:#FDF8F2;}
	.st39{fill:#E2C4AA;}
	.st40{fill:#BC8571;}
	.st41{fill:#2F322A;}
	.st42{fill:#444741;}
	.st43{fill:#46282D;}
	.st44{fill:#986858;}
	.st45{fill:#F0C7A2;}
	.st46{fill:#FCE9C8;}
	.st47{fill:#808080;}
	.st48{fill:#4E4E4E;}
	.st49{fill:#E8CBA9;}
	.st50{fill:#956B50;}
</style>
<g>
	<path class="st36" d="M924.3,742.7H148.9c-3.7,0-6.6-4-6.6-8.6c0-4.6,3.1-8.6,6.6-8.6h775.4c3.7,0,6.6,4,6.6,8.6
		C930.9,738.7,927.8,742.7,924.3,742.7z"/>
	<path class="st3" d="M378.7,689.2c36.8,57.9-6.8,70.7-6.8,70.7c-9.7,34.3-43.4,18.7-43.4,18.7c-28.4,11.7-42.5-18.9-42.5-18.9
		c-33.7,1.1-29.9-47.5-17.8-67.6C281.2,670.5,351.6,647,378.7,689.2z"/>
	<path class="st36" d="M384.2,685.7c-5.7-9-13.9-16.3-23.8-20.7c-9.2-4-19.1-6.2-29.3-5.9c-27.5,0-59,13.6-68.7,29.7
		c-5.1,9.2-8.4,19.6-9.2,30.2c-1.3,12.8,0.7,24.4,5.3,32.6c4.6,8.8,13.6,14.3,23.5,15c4.4,7,15.4,21.6,33.9,21.6l0,0
		c4.2,0,8.4-0.9,12.5-2.2c5.3,2,11,3.1,16.7,3.1c15.4,0,26.6-8.4,32.1-24c9.5-4.2,16.7-11.7,20.5-21.3
		C403.3,728.2,398.9,708.6,384.2,685.7z M385.1,739c-2,5.3-5.7,9.5-10.3,12.3c-2-4-4.6-7.5-7.5-10.8c-2.6-2.6-6.8-2.4-9.5,0.2
		c-2.6,2.6-2.4,6.8,0.2,9.5c2.6,3.1,4.6,6.4,6.4,10.1l0.2,0.4c-3.5,10.1-9.9,15-19.6,15c-3.3,0-6.6-0.7-9.9-1.5
		c0.2-4.2,0.2-8.1-0.2-12.3c-0.4-3.7-3.7-6.2-7.5-5.7c-3.7,0.4-6.2,3.7-5.7,7.5c0.2,3.5,0.2,7,0,10.3c-2,0.4-4,0.7-5.9,0.9l0,0
		c-11.2,0-18.7-9.2-22-14.3c2.6-4.2,5.5-10.1,4.2-15.4c-0.9-3.5-4.4-5.9-7.9-5.1c-3.5,0.9-5.9,4.4-5.1,7.9c-0.7,2-1.3,3.7-2.6,5.3
		c-5.3-0.2-10.1-3.3-12.5-7.9c-7-12.5-3.7-36.8,3.7-49.3c5.9-9.7,30.6-23.3,57.2-23.3c13.2,0,31,3.5,41.8,20.5
		C385.1,711.7,389.2,727.7,385.1,739L385.1,739z"/>
	<path class="st3" d="M670.3,689.2c-36.8,57.9,6.8,70.7,6.8,70.7c9.7,34.3,43.4,18.7,43.4,18.7c28.4,11.7,42.5-18.9,42.5-18.9
		c33.7,1.1,29.9-47.5,17.8-67.6C767.8,670.5,697.4,647,670.3,689.2z"/>
	<path class="st36" d="M795.8,718.9c-0.9-10.6-4-20.9-9.2-30.2c-9.7-16.1-41.2-29.7-68.7-29.7c-10.1-0.2-20,1.8-29.3,5.9
		c-9.7,4.4-18,11.7-23.8,20.7c-14.5,23.1-19.1,42.5-13.2,58.1c3.7,9.5,11,17.2,20.5,21.3c5.5,15.4,16.7,24,32.1,24
		c5.7,0,11.4-1.1,16.7-3.1c4,1.3,8.1,2.2,12.3,2.2l0,0c18.5,0,29.5-14.5,33.9-21.6c9.9-0.4,18.9-6.2,23.5-15
		C795.1,743.4,797.1,731.7,795.8,718.9z M779,745.1c-2.4,4.6-7.3,7.7-12.5,8.1c-1.1-1.5-2-3.5-2.4-5.3c0.9-3.5-1.5-7-5.1-7.9
		c-3.5-0.9-7,1.5-7.9,5.1c-1.3,5.1,1.5,11.2,4.2,15.4c-3.3,5.1-10.8,14.3-22,14.3l0,0c-2,0-4-0.2-5.9-0.9c-0.2-3.5-0.2-7,0-10.3
		c0.4-3.7-2.2-7-5.7-7.5c-3.5-0.4-7,2.2-7.5,5.7c-0.2,4.2-0.4,8.1-0.2,12.3c-3.3,0.9-6.6,1.5-9.9,1.5c-9.7,0-16.1-4.8-19.6-15
		l0.2-0.4c1.8-3.5,4-7,6.4-10.1c2.6-2.6,2.6-6.8,0.2-9.5c-2.4-2.6-6.8-2.6-9.5-0.2c-2.9,3.3-5.5,6.8-7.5,10.8
		c-4.8-2.9-8.4-7.3-10.3-12.3c-4.2-11.2,0-27.1,12.1-46c10.8-16.9,28.6-20.5,41.8-20.5c26.9,0,51.5,13.6,57.2,23.3
		C782.8,708.1,786.1,732.6,779,745.1z"/>
	<path class="st36" d="M784.8,302.1c-0.4-1.1-0.4-2.4-0.2-3.7c-0.2-3.3-0.4-6.6-1.1-9.7c-2.2-13.4-6.4-26.2-12.3-38.5
		c-5.1-10.8-11.4-20.7-19.1-29.7c-5.5-6.4-11.7-12.1-18.7-16.7c-2.9-1.8-1.8-1.8-4.8-0.2c-9,4.6-17.6,9.9-25.8,15.6
		c-12.5,8.8-24.7,18.5-35.9,28.8c-30.4,28.4-55.7,61.8-74.8,98.8c-0.2,0.7-0.7,1.1-0.9,1.5c-0.2,0.2-0.4,0.4-0.9,0.4l-0.9-0.2
		c-6.8-1.5-13.6-2.4-20.5-3.3c-7.5-0.9-15.2-1.3-22.9-1.3c-0.9,0-1.5,0-2.4,0c2,3.3,4,6.6,5.7,9.9c4.6,9,7.9,18.5,9.9,28.4
		c2.2,10.8,3.1,21.6,2.6,32.6c0,5.5-0.7,10.8-0.9,16.3c-0.2,1.8-0.2,3.7-0.4,5.5c-0.2,5.3-0.4,10.6-0.9,15.8
		c-0.4,7.3-0.4,14.3-0.4,21.6c0,5.7,0.2,11.4,0.7,17.2c0,1.8,0.2,3.5,0.2,5.1c0.2,0.4,0.2,0.7,0.2,1.1c0.4,4.6,1.1,9,1.8,13.6l0,0
		l0,0c0,0.7,0.2,1.3,0.4,2c0,0.4,0,0.9,0.2,1.3c0.2,0.4,0.2,1.1,0.4,1.8c1.3,6.8,3.3,13.2,5.9,19.6c1.5,3.3,3.1,6.6,5.1,9.5
		c2.6,4.2,7.3,6.6,12.1,6.6c4.4,0,8.8-0.9,13-2.6c6.8-2.6,13-6.4,18.3-11.2c2.4-2.2,5.1-4.2,7.7-6.2c5.3-3.3,11-5.5,16.9-6.4
		c3.3-0.7,6.6-0.9,9.9-0.9c4.6,0,9.5,0.4,14.1,1.8c5.7,1.8,11.4,4,16.5,7c8.8,4.8,16.9,11,23.8,18.5c2.9,2.9,5.3,6.2,7.5,9.7
		c1.5,2.6,2.9,5.5,3.7,8.6c1.8,5.9,2.9,12.3,3.3,18.5c0.4,4.8,0.2,9.7-0.2,14.5c-1.5,15.2-5.9,29.7-13.4,42.9
		c-0.2,0.4-0.4,0.7-0.4,1.1c0,0.2,0,0.4,0.2,0.4c4.2-3.3,8.1-7,11.7-11c10.3-11,18-24,23.1-38.3c2.4-7,4.2-14.3,5.1-21.8
		c0.7-5.5,0.9-11,0.4-16.5c-0.4-6.4-1.3-12.8-2.6-19.1c-3.7-16.7-9-33.2-15.8-48.9c-0.4-0.9-0.4-1.8,0-2.6
		c6.4-11.9,12.3-23.8,18-36.1c9-19.6,16.9-40.1,23.3-60.7c3.5-11.7,6.6-23.3,9-35.4c1.5-7.5,2.6-15,3.5-22.7
		c0.7-4.2,0.9-8.4,1.1-12.5c0-0.4,0-1.1,0.2-1.5L784.8,302.1z M751.1,303.2c-0.2,1.8-0.2,3.5-0.2,5.3c0,3.1-0.4,6.2-0.7,9.2
		c-0.7,7.5-1.8,15-3.5,22.4c-1.5,7.3-3.3,14.1-5.3,21.1c-3.1,10.6-6.8,21.1-11,31.3c-3.7,9-7.7,17.8-12.3,26.4
		c-4.4,8.4-9,16.5-14.3,24.2c-1.3,2-1.1,2-2.4,0.2c-3.3-4.4-6.8-8.6-10.6-12.5c-0.4-0.2-0.7-0.7-0.9-1.3c-0.7-0.2-1.1-0.7-1.5-1.1
		c-4-4-7.7-7.9-11.9-11.7c-2.2-2-4.4-4-6.4-6.2c-4.4-4.8-9-9-13.4-13.9c-2-2.2-4.2-4.2-6.2-6.4c-0.4-0.2-0.7-0.7-0.7-1.1
		c-0.7-0.4-1.3-0.9-1.8-1.5c-4.4-4.4-8.8-8.8-13.2-13c-1.3-1.3-2.9-2.6-4.2-4c-0.2-0.2-0.7-0.4-0.9-0.9c-0.2-0.2-0.2-0.4-0.2-0.9
		l0.7-1.1c6.8-11.7,14.3-23.1,22.2-34.1c4.8-6.8,9.9-13.4,15.2-19.8c3.3-4,6.6-7.9,9.9-11.7c7.9-9,16.3-17.8,24.9-26
		c4-4,8.1-7.5,12.3-11.2s8.8-7.3,13.4-10.8c1.3-0.9,2.4-1.8,3.7-2.6c0.9-0.7,0.9-0.7,1.8,0.2c2.2,2.2,4.4,4.4,6.2,7
		c3.3,4.8,5.9,10.3,7.5,16.1c1.3,4.4,2.2,9,2.6,13.6c0.4,3.3,0.7,6.4,0.7,9.7c0,1.1,0,2.4,0.2,3.5
		C751.1,302.3,751.1,302.7,751.1,303.2L751.1,303.2z M508.8,345.2c-5.3,0.2-10.3,0.9-15.4,1.1l-8.8,0.7c-0.4,0-0.9,0-1.5,0
		c-0.2,0-0.4-0.2-0.7-0.4l-0.7-1.1c-9.9-19.6-21.3-38.3-34.6-55.9c-9.5-12.5-19.6-24.4-30.6-35.7c-13-13.4-27.3-25.8-42.3-37
		c-10.8-7.9-22.2-15.2-34.1-21.6c-2.2-1.1-4.4-2.2-6.6-3.3l-1.5-0.7c-0.2,0.4-0.7,0.7-0.9,0.9c-11.9,8.1-21.6,18.9-28.4,31.5
		c-5.1,9.2-8.8,19.4-11,29.7c-1.5,6.8-2.6,13.6-3.1,20.7c-0.2,2-0.2,4-0.4,5.9c0,1.3-0.2,2.4-0.7,3.5v6.6c0.4,1.3,0.7,2.6,0.7,4.2
		c0.4,8.1,1.3,16.5,2.6,24.7c2.9,17.4,7,34.8,12.5,51.7c6.6,20.2,14.1,40.1,22.9,59.4c5.7,12.8,11.9,25.1,18.3,37.4
		c1.1,2,0.9,1.5,0,3.3c-5.1,9.5-10.3,18.7-15.2,28.2c-5.3,9.9-9.9,19.8-14.1,30.2c-3.1,7.7-5.7,15.6-7.7,23.8
		c-2,8.1-2.9,16.5-2.4,24.9c0.4,10.6,2.9,20.7,7.5,30.2c3.5,7.3,8.1,14.1,13.6,20c2.4,2.6,4.8,5.3,7.3,7.7c0.2,0.2,0.4,0.7,0.9,0.9
		c0.4,0.2,0.9,0.7,1.3,1.1l4.8,4.2c0.2,0.2,0.4,0.4,0.9,0.7c0.2,0,0.2,0,0.2-0.2l0,0c0-0.4-0.2-0.9-0.4-1.5
		c-1.3-4.6-2.6-9.2-3.7-14.1c-1.3-6.2-2.4-12.3-3.1-18.5c-0.7-5.9-0.9-11.9-0.7-17.8c0.2-7.9,1.3-15.8,3.3-23.3
		c2.2-8.4,6.2-16.1,11.7-22.7c5.9-7.3,13.2-13.4,21.3-17.8c11.7-6.6,24.7-10.1,37.9-10.8c4.6-0.2,9.2,0.9,13.4,2.9
		c3.3,1.5,6.6,3.5,9.5,5.9c2.9,2.2,5.7,4.6,8.4,7c3.5,3.1,7,6.4,10.6,9.5c2.9,2.6,6.2,5.1,9.5,7c1.8,1.1,3.7,2,5.9,2.6
		c4.4,1.3,9.2,0.7,13.2-1.8c2.4-1.5,4.6-3.5,6.6-5.7c4-4.6,7-9.9,9.2-15.6c1.1-2.9,2.2-5.9,3.1-9c0-0.7,0.2-1.1,0.7-1.5
		c0.2-0.9,0.2-1.8,0.4-2.6c1.3-5.9,2.4-11.9,3.1-18c1.1-9.7,1.5-19.4,1.8-29.1c0.2-8.1,0.2-16.3,0.2-24.4c0-6.2,0-12.3,0.2-18.5
		c0.2-5.7,0.7-11.4,1.5-17.2c1.1-9,3.1-18,5.7-26.6c2.9-10.1,7-19.8,12.3-28.8c1.1-2,2.4-4,3.5-5.7c0.2-0.4,0.7-0.9,0.7-1.5
		c-0.9,0-1.5,0.2-2.4,0.2C519.8,344.6,514.3,345,508.8,345.2z M451.3,354c-6.4,4-12.5,8.6-18.5,13.4c-3.3,2.6-6.4,5.5-9.5,8.4
		c-0.4,0.4-0.9,0.9-1.5,1.3c-0.2,0.4-0.4,0.9-0.9,1.3c-1.3,1.3-2.4,2.6-3.7,3.7c-2.2,2.2-4.2,4.6-6.4,6.8c-2.2,2.2-3.5,4.2-5.3,6.2
		c-0.9,1.1-2,2.2-2.9,3.3c-1.8,2-3.7,4-5.5,5.9c-2.2,2.4-4.6,4.8-7,7.5c-1.1,1.3-2.4,2.4-3.5,3.7c-0.4,0.4-0.9,0.9-1.3,1.1
		c-0.2,0.2-0.2,0.7-0.4,0.9c-0.9,0.9-1.8,2-2.6,2.9l-9.2,10.1l-0.9,0.9c-0.4,0.4-0.7,0.4-1.1-0.2c-1.3-2.4-2.6-4.6-4-7
		c-2.9-5.1-5.3-10.1-7.7-15.4c-2.9-6.4-5.7-13-8.4-19.6c-2.4-6.2-4.6-12.3-6.4-18.7c-3.1-9.7-5.5-19.6-7.5-29.7
		c-1.1-5.1-1.8-10.3-2.6-15.6c-0.4-2.6-0.7-5.3-0.9-7.9c-0.7-6.8-0.9-13.6-0.7-20.2c0-2.4,0.4-5.1,0.7-7.5c0.4-3.7,0.9-7.5,1.8-11.2
		c1.3-5.7,3.3-11.4,5.9-16.7c2-3.7,4.4-7.3,7.3-10.3l0.9-0.9c0.2-0.4,0.9-0.4,1.3-0.2c0.4,0.2,0.9,0.4,1.1,0.7
		c5.5,3.5,10.8,7.3,16.1,11.2c3.7,2.9,7.5,5.9,11,8.8c2.9,2.4,5.7,4.8,8.4,7.3c7.3,6.4,14.1,13.2,20.9,20.2c4.2,4.4,8.4,9,12.3,13.6
		c7.7,8.8,15.2,17.8,22.2,27.3c3.1,4.2,6.2,8.4,9.2,12.8C453.1,353.1,453.1,352.9,451.3,354z"/>
	<path class="st37" d="M721.6,588.4c-0.4-6.2-1.5-12.5-3.3-18.5c-0.9-3.1-2.2-5.9-3.7-8.6c-2.2-3.5-4.6-6.6-7.5-9.7
		c-6.8-7.3-15-13.6-23.8-18.5c-5.3-2.9-10.8-5.3-16.5-7c-4.6-1.3-9.2-2-14.1-1.8c-3.3,0-6.6,0.4-9.9,0.9c-5.9,1.1-11.9,3.3-16.9,6.4
		c-2.9,1.8-5.3,3.7-7.7,6.2c-5.3,4.8-11.4,8.6-18.3,11.2c-4.2,1.8-8.6,2.6-13,2.6c-4.8,0-9.5-2.4-12.1-6.6c-2-3.1-3.7-6.2-5.1-9.5
		c-2.6-6.4-4.6-12.8-5.9-19.6c-0.2-0.9-0.4-1.8-0.4-2.6c-0.2,0-0.2-0.2-0.2-0.4V512c-0.2-0.4-0.2-0.7-0.2-1.1
		c-0.2-0.7-0.2-1.5-0.4-2.2c0,0,0,0,0-0.2c-0.2-0.9-0.4-1.8-0.4-2.4c-0.4-1.8-0.9-3.7-0.9-5.5c-0.2-2.2-0.2-4.2-0.2-6.4
		c-0.4-1.1-0.9-2-1.5-3.1c-3.5-5.5-8.8-9.5-15-11.4c-5.1-1.3-10.6-1.1-15.6,0.7c-4.4-0.2-9,0.9-12.8,3.3l-5.1,4
		c-3.1,3.1-5.3,6.8-6.4,11l-5.3,12.8c-0.9,2-1.5,4-2.2,5.9c-0.2,0.4-0.2,0.9-0.2,1.5s-0.2,1.5-0.4,2.4c-0.7,2-1.3,4-2.2,5.9
		c-2.2,5.7-5.5,10.8-9.2,15.6c-2,2.2-4.2,4.2-6.6,5.7c-4,2.4-8.8,3.1-13.2,1.8c-2-0.7-4-1.5-5.9-2.6c-3.3-2-6.6-4.4-9.5-7
		c-3.5-3.1-7-6.4-10.6-9.5c-2.6-2.4-5.5-4.8-8.4-7c-2.9-2.2-6.2-4.2-9.5-5.9c-4.2-2-8.8-3.1-13.4-2.9c-13.2,0.4-26.2,4.2-37.9,10.8
		c-8.1,4.6-15.4,10.6-21.3,17.8c-5.5,6.6-9.5,14.3-11.7,22.7c-2,7.7-3.1,15.4-3.3,23.3c-0.2,5.9,0,11.9,0.7,17.8
		c0.7,6.2,1.8,12.5,3.1,18.5c1.1,4.6,2.2,9.5,3.7,14.1c0.2,0.4,0.2,0.9,0.4,1.5c0,0.2,0,0.2-0.2,0.2l0,0c-0.2-0.2-0.7-0.4-0.9-0.7
		l-4.8-4.2c-0.4-0.4-0.7-0.9-1.3-1.1c0,0.7,0.2,1.3,0.9,1.8c2,1.8,3.5,4,5.3,5.7c3.7,3.7,7.5,7.7,11.4,11.2c2,2,4,4,6.2,5.7
		c1.3,1.1,2.6,2.4,4,3.5l3.7,3.1l4.6,3.7c2.4,2,4.6,3.7,7,5.5c3.5,2.6,6.8,5.1,10.3,7.7c3.5,2.6,6.8,4.8,10.6,7
		c3.3,2,6.4,4.2,9.7,5.9c2.4,1.5,5.1,2.9,7.5,4.2c4.8,2.6,9.7,5.1,14.7,7.5c2.4,1.3,5.1,2.4,7.7,3.5c1.8,0.9,3.5,1.5,5.3,2.2
		c1.8,0.7,3.3,1.3,5.1,2c4.2,1.5,8.6,3.1,13,4.4c5.5,1.8,11.2,3.3,16.9,4.4c5.1,1.1,10.1,2.2,15.2,2.9c2.4,0.4,5.1,0.7,7.5,1.1
		c1.5,0.2,3.1,0.4,4.8,0.4c2.2,0.2,4.4,0.4,6.6,0.4c0.7-0.2,1.3,0,1.8,0.2h21.3c0.4-0.2,0.9-0.4,1.3-0.2c2.2,0,4.2-0.2,6.4-0.7
		c1.1-0.2,2.2-0.2,3.3-0.4c3.1-0.4,5.9-0.9,8.8-1.5c4.4-0.9,8.6-1.8,13-2.9c6.4-1.5,12.5-3.5,18.7-5.7c4-1.3,7.9-3.1,12.1-4.6
		c2.9-1.1,5.7-2.4,8.8-3.7c5.7-2.4,11.7-5.3,17.2-8.1c4-2,7.7-4.2,11.4-6.2c4.4-2.4,8.8-5.1,13-7.5c2-1.3,4.2-2.6,6.2-4
		c3.3-2.2,6.6-4.2,9.7-6.4c5.5-3.7,11-7.7,16.5-11.7c2.9-2.2,5.9-4.6,8.8-6.8c2.4-2,4.8-4.2,7.3-6.2c2.4-2,4.4-3.7,6.4-5.7
		c0.4-0.4,1.1-0.7,1.8-0.9c0.7,0,1.1-0.4,1.3-0.9c-0.2,0-0.4-0.2-0.2-0.4c0.2-0.4,0.4-0.7,0.4-1.1c7.3-13.2,11.9-28,13.4-42.9
		C721.8,598.1,721.8,593.3,721.6,588.4z"/>
	<path class="st38" d="M619.2,642.3c0-0.4,0-0.9,0-1.1c0-1.3,0-2.6-0.2-4c-0.4-3.1-1.1-6.2-2-9c-1.5-5.1-3.3-9.7-5.5-14.5
		c-2-4.6-4.4-9-6.8-13.2c-2.2-3.7-4.6-7.5-7-11.2c-1.1-2-2.4-3.7-3.7-5.5c-2-2.6-4-5.7-5.7-8.1s-3.7-4.8-5.7-7.5
		c-2.4-3.1-4.8-6.2-7.3-9.2c-1.1-1.1-2-2.2-2.9-3.5c-1.5-2.6-2.9-5.3-4-8.1c-1.8-4.6-3.3-9.2-4.6-14.1c-0.7-2.4-1.1-4.8-1.5-7.3
		c-0.4-2-0.7-3.7-0.9-5.7c-0.2-1.5-0.2-2.9-0.4-4.4c-0.4-2,0-4.2-0.7-6.2v-12.1c0-0.4,0-0.9,0.4-1.3c0-1.8-0.2-3.5-0.2-5.1
		c-0.4-5.7-0.7-11.4-0.7-17.2c0-7.3,0-14.3,0.4-21.6c0.2-5.3,0.4-10.6,0.9-15.8c0-1.8,0.2-3.7,0.4-5.5c0.4-5.5,0.9-10.8,0.9-16.3
		c0.4-10.8-0.7-21.8-2.6-32.4c-2-9.9-5.3-19.4-9.9-28.4c-1.8-3.3-3.7-6.6-5.7-9.9h-16.3c0,0.7-0.4,1.1-0.7,1.5
		c-1.1,2-2.4,3.7-3.7,5.7c-5.3,9-9.2,18.7-12.3,28.8c-2.6,8.8-4.6,17.6-5.7,26.6c-0.9,5.7-1.3,11.4-1.5,17.2
		c-0.2,6.2-0.2,12.3-0.2,18.5c0,8.1,0,16.3-0.2,24.4c-0.2,9.7-0.7,19.4-1.8,29.1c-0.7,6.2-1.8,12.1-3.1,18c-0.2,0.9-0.4,1.8-0.4,2.6
		c0.4,0.9,0.7,1.8,0.7,2.9c0,4.2,0.2,8.4-0.2,12.5c-0.2,2.9-0.7,5.5-1.3,8.1c-1.1,4.8-3.1,9.5-5.5,13.6c-2,3.3-4.2,6.4-6.8,9.2
		c-1.3,1.5-2.9,2.6-4.2,4c-2,2-4,4-5.9,5.9c-2.4,2.4-4.8,4.8-7,7.3c-1.8,2-3.5,4-5.3,5.9c-1.3,1.5-2.6,3.1-4,4.8
		c-3.3,4.4-6.6,8.8-9.5,13.4c-2.9,4.4-5.3,9-7.3,13.6c-1.8,3.7-3.1,7.7-4,11.7c-0.4,1.8-0.7,3.7-0.9,5.5c-0.2,2.9-0.2,5.7,0.2,8.6
		c0.2,1.5,0.7,3.1,1.1,4.6c0.9,2.2,2,4.4,3.5,6.4c2.2,3.1,4.6,5.9,7.3,8.6c1.3,1.3,2.6,2.4,4,3.7c2,1.8,4,3.5,6.2,5.3
		c3.1,2.6,6.6,4.8,9.9,7c2.9,1.8,5.7,3.7,8.8,5.3c3.7,2,7.5,4,11.4,5.5c3.3,1.3,6.6,2.4,10.1,3.3c2.2,0.4,4.2,1.1,6.6,1.5
		c2.4,0.4,5.1,0.9,7.5,1.1c1.3,0,2.6,0.2,4,0.4c1.5,0.2,2.9,0.2,4.4,0.2h8.8c1.5,0,3.1,0,4.6-0.2c0.2,0,0.7,0,0.9,0
		c1.8,0,3.3-0.2,5.1-0.4c2.4-0.2,5.1-0.7,7.5-1.1c4.6-0.9,9-2,13.4-3.3c3.1-0.9,6.4-2,9-3.1c2.9-1.1,5.5-2.2,8.4-3.5
		c2-0.9,4.2-2,6.4-3.1c2.6-1.5,5.3-2.9,7.9-4.6c5.1-3.1,9.5-6.8,13.6-11c0.7-0.7,1.3-1.3,2-1.8c0.9-0.7,1.5-1.1,2.2-2
		c2-2,3.7-4.2,5.1-6.8c2-4.2,2.9-8.6,2.9-13C619.5,642.8,619.5,642.6,619.2,642.3z"/>
	<path class="st39" d="M650.1,389.5c-0.7-0.4-1.3-0.9-1.8-1.5c-4.4-4.4-8.8-8.8-13.2-13c-1.3-1.3-2.9-2.6-4.2-4
		c-0.2-0.2-0.7-0.4-0.9-0.9c-0.2-0.2-0.2-0.4-0.2-0.9l0.7-1.1c6.8-11.7,14.3-23.1,22.2-34.1c4.8-6.8,9.9-13.4,15.2-19.8
		c3.3-4,6.6-7.9,9.9-11.7c7.9-9,16.3-17.8,24.9-26c4-4,8.1-7.5,12.3-11.2c4.2-3.7,8.8-7.3,13.4-10.8c1.3-0.9,2.4-1.8,3.7-2.6
		c0.9-0.7,0.9-0.7,1.8,0.2c2.2,2.2,4.4,4.4,6.2,7c3.3,4.8,5.9,10.3,7.5,16.1c1.3,4.4,2.2,9,2.6,13.6c0.4,3.3,0.7,6.4,0.7,9.7
		c0,1.1,0,2.4,0.2,3.5c0,0.4,0,0.9,0,1.1c-0.2,1.8-0.2,3.5-0.2,5.3c0,3.1-0.4,6.2-0.7,9.2c-0.7,7.5-1.8,15-3.3,22.2
		c-1.5,7.3-3.3,14.1-5.3,21.1c-3.1,10.6-6.8,21.1-11,31.3c-3.7,9-7.7,17.8-12.3,26.4c-4.4,8.4-9,16.5-14.3,24.2
		c-1.3,2-1.1,2-2.4,0.2c-3.3-4.4-6.8-8.6-10.6-12.5c-0.4-0.2-0.7-0.7-0.9-1.3c0.7-0.9,1.1-2,1.5-3.1c3.3-7.7,5.9-15.8,7.7-24
		c1.8-7.5,2.6-15,3.1-22.7c0-0.2,0-0.7,0-0.9c0.2-1.5,0.2-3.3,0-5.1c-0.2-2.2-0.2-4.6-0.4-6.8c-0.2-2.2-0.4-4.4-0.9-6.6
		c-0.7-4-1.3-7.7-2.2-11.7c-1.1-4.6-2.4-9.2-4.2-13.6c-0.7-1.3-1.3-2.9-2.2-4.2c-0.4-0.7-0.9-0.7-1.3,0l-0.2,0.4
		c-1.1,1.3-2.2,2.4-3.3,3.7c-2,2.4-4,4.8-5.9,7.3c-2.6,3.5-5.3,6.8-7.9,10.3c-3.3,4.6-6.6,9.2-9.7,13.9c-2.9,4.2-5.5,8.4-8.1,12.5
		C654,382.6,652,385.9,650.1,389.5z"/>
	<path class="st40" d="M650.1,389.5c2-3.3,4-6.8,6.2-10.1c2.6-4.2,5.3-8.4,8.1-12.5c3.1-4.6,6.4-9.2,9.7-13.9
		c2.6-3.5,5.3-6.8,7.9-10.3c2-2.4,4-4.8,5.9-7.3c1.1-1.3,2.2-2.6,3.3-3.7l0.2-0.4c0.7-0.7,0.9-0.7,1.3,0c0.9,1.3,1.5,2.6,2.2,4.2
		c1.8,4.4,3.1,9,4.2,13.6c0.9,4,1.5,7.7,2.2,11.7c0.4,2.2,0.4,4.4,0.9,6.6c0.4,2.2,0.2,4.6,0.4,6.8c0.2,1.8,0.2,3.3,0,5.1
		c0,0.2,0,0.7,0,0.9c-0.4,7.7-1.3,15.2-3.1,22.7c-1.8,8.1-4.4,16.3-7.7,24c-0.4,1.1-0.9,2.2-1.5,3.1c-0.7-0.2-1.1-0.7-1.5-1.1
		c-4-4-7.7-7.9-11.9-11.7c-2.2-2-4.4-4-6.4-6.2c-4.4-4.8-9-9-13.4-13.9c-2-2.2-4.2-4.2-6.2-6.4C650.5,390.1,650.1,389.9,650.1,389.5
		z"/>
	<path class="st41" d="M563.1,513.1v-0.9c0.4-0.4,0.7-0.9,0.7-1.5c2.9-6.8,6.8-13,11.7-18.7c2.2-2.4,4.6-4.6,7.3-6.6
		c2.4-1.8,5.1-3.1,7.9-4c4.4-1.3,9.2-1.5,13.6-0.2c3.7,1.1,7.3,2.6,10.6,4.6c5.7,3.5,11,7.7,15.8,12.8c0.9,0.9,2,2,2.9,3.1
		c0.4,0.4,0.4,0.9,0.2,1.3c-0.4,0.9-0.9,1.8-1.3,2.4c-3.1,5.7-6.8,10.8-11.4,15.4c-2.9,2.9-6.2,5.5-9.9,7.5
		c-8.4,4.8-18.7,5.3-27.5,1.1c-4.2-2-8.4-4.6-11.9-7.7c-2.6-2.2-4.8-4.6-7-7c-0.2-0.4-0.7-0.9-1.1-1.1l0,0
		C563.3,513.4,563.3,513.4,563.1,513.1L563.1,513.1z M616.8,507.4c0-10.3-8.4-18.5-18.5-18.5c-10.3,0-18.5,8.4-18.5,18.5
		s8.4,18.5,18.5,18.5l0,0C608.5,525.9,616.6,517.8,616.8,507.4L616.8,507.4L616.8,507.4z"/>
	<path class="st39" d="M385.1,416.3c-0.2,0.2-0.2,0.7-0.4,0.9c-0.9,0.9-1.8,2-2.6,2.9l-9.2,10.1l-0.9,0.9c-0.4,0.4-0.7,0.4-1.1-0.2
		c-1.3-2.4-2.6-4.6-4-7c-2.9-5.1-5.3-10.1-7.7-15.4c-2.9-6.4-5.7-13-8.4-19.6c-2.4-6.2-4.6-12.3-6.4-18.7
		c-3.1-9.7-5.5-19.6-7.5-29.7c-1.1-5.1-1.8-10.3-2.6-15.6c-0.4-2.6-0.7-5.3-0.9-7.9c-0.7-6.8-0.9-13.6-0.7-20.2
		c0-2.4,0.4-5.1,0.7-7.5c0.4-3.7,0.9-7.5,1.8-11.2c1.3-5.7,3.3-11.4,5.9-16.7c2-3.7,4.4-7.3,7.3-10.3l0.9-0.9
		c0.2-0.4,0.9-0.4,1.3-0.2s0.9,0.4,1.1,0.7c5.5,3.5,10.8,7.3,16.1,11.2c3.7,2.9,7.5,5.9,11,8.8c2.9,2.4,5.7,4.8,8.4,7.3
		c7.3,6.4,14.1,13.2,20.9,20.2c4.2,4.4,8.4,9,12.3,13.6c7.7,8.8,15.2,17.8,22.2,27.3c3.1,4.2,6.2,8.4,9.2,12.8
		c1.3,1.8,1.3,1.8-0.4,2.6c-6.4,4-12.5,8.6-18.5,13.4c-3.3,2.6-6.4,5.5-9.5,8.4c-0.4,0.4-0.9,0.9-1.5,1.3c-2-3.1-4.2-5.7-6.2-8.8
		c-3.1-4.2-6.2-8.1-9.2-12.1c-2.2-2.9-4.6-5.7-7-8.6c-1.8-2-3.3-4-5.1-5.7c-2.6-3.1-5.5-5.9-8.4-8.8c-0.2-0.2-0.4-0.4-0.7-0.7
		c-0.2-0.2-0.7,0-0.7,0.2l0,0c-0.2,0.2-0.4,0.7-0.7,0.9c-1.3,2.6-2.4,5.5-3.1,8.4c-1.1,4.4-2,8.6-2.6,13c-0.2,2-0.4,4.2-0.9,6.2
		c-0.2,1.5-0.2,2.9-0.4,4.4c-0.4,2.9-0.4,5.9-0.4,8.8c0,2.9,0.2,5.5,0.4,8.4c0.4,3.5,0.9,7.3,1.5,10.8c0.9,4.4,1.8,8.8,3.1,13.2
		C382.6,409.7,383.7,413,385.1,416.3z"/>
	<path class="st40" d="M385.1,416.3c-1.3-3.3-2.4-6.6-3.5-10.1c-1.3-4.4-2.4-8.8-3.1-13.2c-0.7-3.5-1.3-7-1.5-10.8
		c-0.4-2.6-0.7-5.5-0.4-8.4c0.2-2.9,0.2-5.9,0.4-8.8c0.2-1.3,0.2-2.9,0.4-4.4c0.2-2,0.4-4.2,0.9-6.2c0.7-4.4,1.5-8.8,2.6-13
		c0.7-2.9,1.8-5.7,3.1-8.4c0.2-0.4,0.4-0.7,0.7-0.9c0.2-0.2,0.4-0.2,0.7-0.2l0,0c0.2,0.2,0.4,0.4,0.7,0.7c2.9,2.9,5.7,5.9,8.4,8.8
		c1.8,2,3.3,4,5.1,5.7c2.4,2.9,4.6,5.7,7,8.6c3.3,4,6.4,8.1,9.2,12.1c2,2.9,4.2,5.7,6.2,8.8c-0.2,0.4-0.4,0.9-0.9,1.3
		c-1.3,1.3-2.4,2.6-3.7,3.7c-2.2,2.2-4.2,4.6-6.4,6.8c-2.2,2.2-3.5,4.2-5.3,6.2c-0.9,1.1-2,2.2-2.9,3.3c-1.8,2-3.7,4-5.5,5.9
		c-2.2,2.4-4.6,4.8-7,7.5c-1.1,1.3-2.4,2.4-3.5,3.7C385.9,415.6,385.5,416.1,385.1,416.3z"/>
	<path class="st41" d="M465.4,531.2c-5.5-0.2-10.8-1.8-15.4-4.4c-4.6-2.6-8.8-5.9-12.1-10.1c-3.7-4-6.8-8.6-9.2-13.4
		c-0.9-1.8-0.9-1.5,0.2-2.9c5.5-6.4,11.9-11.9,19.1-16.1c3.5-2.2,7.5-3.5,11.7-4.4c5.5-1.1,11.2-0.2,16.1,2.6c3.7,2.2,7,5.1,9.9,8.4
		c5.3,6.2,9.5,13,12.3,20.2c0.4,0.7,0.2,1.3-0.2,2c-5.3,6.4-11.9,11.4-19.4,15.2C474.4,530.3,469.8,531.2,465.4,531.2z M463.2,525.5
		c10.3,0,18.5-8.4,18.5-18.5c0-10.3-8.4-18.5-18.5-18.5c-10.1,0-18.5,8.4-18.5,18.5l0,0C444.5,517.1,452.9,525.5,463.2,525.5
		C463,525.5,463.2,525.5,463.2,525.5z"/>
	<path class="st36" d="M563.1,513.1c0.2,0,0.2,0.2,0.2,0.2l0,0C562.9,513.4,562.9,513.4,563.1,513.1z"/>
	<path class="st42" d="M492.5,674.3c-0.7-0.4-1.5-0.7-2.2-0.7c-5.5-1.1-10.6-2.9-15.6-5.3c-3.7-2-7.3-4.4-10.1-7.5
		c-2.9-2.9-4.8-6.4-5.9-10.3c-0.2-1.1-0.9-2-2-2.4c-1.1-0.4-2.4-1.1-3.5-1.5l-4.2-1.5c-0.7-0.2-1.3-0.7-1.8-1.1
		c-0.4-0.2-0.7-0.9-0.2-1.3c0-0.2,0.2-0.2,0.2-0.2c0.2-0.2,0.4-0.2,0.7-0.4c2-1.1,4.2-2,6.4-2.2c1.3-0.2,2.6,0,4,0.4
		c2.9,0.9,5.1,2.9,6.6,5.5c0.7,1.1,1.1,2.2,1.5,3.3c2.9,6.2,7.5,11,13.2,14.3c4.2,2.4,8.8,4.4,13.6,5.9c4,1.1,7.9,1.3,11.9,0.9
		c2.6-0.2,5.3-0.9,7.9-1.8c2-0.7,4-1.8,5.7-3.1c0.7-0.4,1.3-1.1,1.8-1.8c-0.4-0.2-1.1-0.4-1.5-0.4c-5.5-1.1-11-3.1-16.1-5.7
		c-4.8-2.6-9-6.2-12.3-10.3c-3.5-4.6-5.7-10.1-6.6-15.8c-0.4-2.6-0.7-5.5-0.7-8.1c0-3.5,0.7-7,1.8-10.3c2.2-5.9,7.3-10.1,13.4-11.4
		c4.4-0.9,9-0.7,13.4,0.4c2,0.4,3.7,1.1,5.7,2c5.3,2.2,11.2,3.1,16.9,2.4c2.4-0.2,4.8-0.7,7-1.3c2.4-0.7,5.1-1.1,7.5-1.3
		c2.9-0.2,5.9,0,8.8,0.9c3.7,1.1,6.8,3.7,8.6,7.3c1.5,2.6,2.4,5.7,2.9,8.8c2.2,15-5.1,29.7-18.3,37.2c-4.8,2.9-9.9,4.6-15.4,5.7
		l-2.2,0.4c-0.2,0-0.4,0-0.4,0.2s0,0.2,0.2,0.4c0.4,0.4,1.1,0.9,1.8,1.1c2.2,1.1,4.6,2,7,2.4c5.3,1.1,11,1.1,16.3-0.4
		c5.9-1.8,11.7-4.4,16.7-7.9c4.6-3.1,8.1-7.5,10.8-12.3c0.7-1.3,1.3-2.9,2.2-4.2c1.5-2.6,3.7-4.6,6.6-5.5c2-0.7,4-0.9,6.2-0.4
		c1.5,0.2,2.9,0.9,4.2,1.5c0.2,0.2,0.4,0.2,0.7,0.4c0.9,0.7,0.9,1.3,0,2c-0.4,0.4-0.9,0.7-1.3,0.9c-1.1,0.4-2,0.9-3.1,1.3
		s-2.4,0.9-3.5,1.3c-0.7,0.2-1.3,0.7-2,1.1c-0.7,0.4-1.3,1.1-1.5,2c-1.5,5.3-4.6,9.7-8.8,13.2c-4,3.3-8.4,5.9-13.2,7.9
		c-4.6,2-9.5,3.3-14.3,4.2c-0.7,0.2-1.1,0.4-1.8,0.7c-0.4-0.2-1.1-0.4-1.8-0.2c-1.5,0.2-3.1,0.4-4.8,0.4c-3.3,0.2-6.6,0-9.7-0.7
		c-4-0.7-7.5-2.2-10.8-4.6c-0.7-0.7-1.3-1.3-2.2-2c-0.9-0.7-1.1-0.9-1.8,0c-0.7,0.9-1.5,1.8-2.6,2.6c-1.1,0.9-2.4,1.8-3.7,2.6
		c-4.2,2.2-9,3.5-13.6,3.5h-5.5c-0.7,0-1.3,0-2-0.2C495.8,674.5,494.2,674.3,492.5,674.3z"/>
	<path class="st43" d="M492.5,674.3c1.8,0,3.5,0.2,5.1,0.4c0.7,0,1.3,0.2,2,0.2h5.9c4.8,0,9.5-1.1,13.6-3.5c1.3-0.7,2.6-1.5,3.7-2.6
		c0.9-0.7,1.8-1.5,2.6-2.6c0.7-0.9,0.9-0.9,1.8,0c0.9,0.9,1.3,1.3,2.2,2c3.1,2.4,6.8,4,10.8,4.6c3.3,0.7,6.6,0.9,9.7,0.7
		c1.5,0,3.1-0.2,4.8-0.4c0.7-0.2,1.3-0.2,1.8,0.2c-5.5,6.4-13,10.6-21.1,11.9c-3.3,0.7-6.8,0.9-10.3,0.7c-11.4-0.9-22.4-4.6-31.7-11
		C493.1,674.7,492.7,674.5,492.5,674.3z"/>
	<path class="st44" d="M616.8,507.4c0,10.3-8.4,18.5-18.7,18.5c-10.3,0-18.5-8.4-18.5-18.7c0-10.3,8.4-18.5,18.7-18.5l0,0
		C608.5,488.9,616.8,497.1,616.8,507.4L616.8,507.4z M603,497.1c-0.2-0.2-0.7-0.4-0.9-0.4c-5.9-2-12.5,1.1-14.5,7
		c-2,5.9,1.1,12.5,7,14.5c5.9,2,12.5-1.1,14.5-7c0.9-2.9,0.9-5.9-0.4-8.6c-0.2-0.4-0.4-0.7-0.7-0.9c0-0.2,0-0.4-0.2-0.9
		c-0.4-2-2-3.3-3.7-3.5L603,497.1z"/>
	<path class="st44" d="M463.2,525.5c-10.3,0-18.5-8.4-18.5-18.7c0-10.3,8.4-18.5,18.7-18.5s18.5,8.4,18.5,18.7l0,0
		C481.7,517.3,473.3,525.5,463.2,525.5z M467.4,496.6c-0.4-0.4-1.1-0.9-1.8-0.9c-1.5-0.2-3.3-0.2-4.8,0c-6.2,1.3-10.1,7.5-8.8,13.6
		c1.3,6.2,7.5,10.1,13.6,8.8c6.2-1.3,10.1-7.5,8.8-13.6c-0.2-0.9-0.4-1.8-0.9-2.6c-0.2-0.4-0.4-0.7-0.9-0.7c0-0.2,0-0.2-0.2-0.4
		c-0.2-2.2-2.2-4-4.4-4L467.4,496.6z"/>
	<path class="st41" d="M609.8,507.4c0-6.4-5.3-11.7-11.7-11.7c-6.4,0-11.7,5.3-11.7,11.7c0,6.4,5.3,11.7,11.7,11.7l0,0
		C604.5,518.9,609.6,513.8,609.8,507.4z"/>
	<path class="st45" d="M608,501.7c0,0.7-0.2,1.3-0.4,2c-0.9,2.4-3.7,3.7-6.2,2.9c-2.4-0.9-3.7-3.7-2.9-6.2c0.4-1.3,1.8-2.4,3.1-2.9
		c0.4-0.2,0.9-0.2,1.3-0.2l0.9,0.2c2,0.2,3.3,1.8,3.7,3.5C607.8,501.3,607.8,501.5,608,501.7z"/>
	<path class="st41" d="M474.9,507c0-6.4-5.3-11.7-11.7-11.7c-6.4,0-11.7,5.3-11.7,11.7c0,6.4,5.3,11.7,11.7,11.7l0,0
		C469.6,518.4,474.6,513.4,474.9,507z"/>
	<path class="st45" d="M472.7,501c0,0.7,0,1.5-0.2,2.2c-1.1,2.4-3.7,3.7-6.2,2.6c-1.5-0.7-2.6-2-2.9-3.5c-0.4-2,0.7-4.2,2.6-5.1
		c0.4-0.2,1.1-0.4,1.8-0.4h0.7c2.2,0,4.2,1.8,4.4,4C472.4,500.8,472.4,501,472.7,501z"/>
</g>
</svg>
