<?xml version="1.0" encoding="utf-8"?>
<!-- Generator: Adobe Illustrator 24.0.0, SVG Export Plug-In . SVG Version: 6.00 Build 0)  -->
<svg version="1.1" id="Layer_1" xmlns="http://www.w3.org/2000/svg" xmlns:xlink="http://www.w3.org/1999/xlink" x="0px" y="0px"
	 viewBox="0 0 1200 1200" style="enable-background:new 0 0 1200 1200;" xml:space="preserve">
<style type="text/css">
	.st0{fill:#BE9A71;}
	.st1{fill:#D9A993;}
	.st2{fill:#683A32;}
	.st3{fill:#FFFFFF;}
	.st4{fill:#F78C8B;}
	.st5{fill:#1D1D1B;}
	.st6{fill:#FDAC49;}
	.st7{fill:#191919;}
	.st8{fill:#333333;}
	.st9{fill:#14192C;}
	.st10{fill:#3E3D4F;}
	.st11{fill:#A15225;}
	.st12{fill:#895834;}
	.st13{fill:#1A0A14;}
	.st14{fill:#672E28;}
	.st15{fill:#111B1D;}
	.st16{fill:#EBEBEB;}
	.st17{fill:#494859;}
	.st18{fill:#2F2627;}
	.st19{fill:#C7B6AC;}
	.st20{fill:#E2D9D4;}
	.st21{fill:#D6CDCA;}
	.st22{fill:#674043;}
	.st23{fill:#3D3834;}
	.st24{fill:#E4DACE;}
	.st25{fill:#554E46;}
	.st26{fill:#E8E8E8;}
	.st27{fill:#AEE9FA;}
	.st28{fill:#4D4D4D;}
	.st29{fill:#FDFDFD;}
	.st30{fill:#FAAF5E;}
	.st31{fill:#F8FCFC;}
	.st32{fill:#DBCFB5;}
	.st33{fill:#6D6D6D;}
	.st34{fill:#C69C6D;}
	.st35{fill:#F0B965;}
	.st36{fill:#DA7B45;}
	.st37{fill:#FAE7D6;}
	.st38{fill:#FDF8F2;}
	.st39{fill:#E2C4AA;}
	.st40{fill:#BC8571;}
	.st41{fill:#2F322A;}
	.st42{fill:#444741;}
	.st43{fill:#46282D;}
	.st44{fill:#986858;}
	.st45{fill:#F0C7A2;}
	.st46{fill:#FCE9C8;}
	.st47{fill:#808080;}
	.st48{fill:#4E4E4E;}
	.st49{fill:#E8CBA9;}
	.st50{fill:#956B50;}
</style>
<g>
	<path class="st30" d="M859.2,288.2c-43.8-16.7-114,63-120.8,68.9c-4.9,4.3-16.3,8-22,9.7c-25.3-21.2-112.3-27.6-164.8-0.4
		c-6.2-1.9-16-5.1-20.4-9.3c-6.6-6-76.9-85.6-120.8-68.9s-3.7,108,46.7,153.1c27.2,24.3,27.4,32.3,27.4,37
		c-1.4,8.8-1.9,14.4-1.9,14.4l7,1c-12.3,22.8-10.1,90.5-10.1,90.5l6.6-1.9c2.3,17.7,2.9,35.4,1.9,53.3l308,0.6
		c3.9-19.5-11.9-38.7-11.9-38.7l7.8,4.7c18.3-24.9,3.1-53.9,3.1-53.9l4.5-7.6c1-18.1-4.5-36-15.4-50.6l5.6-5.6
		c-1.9-1.6-3.1-3.7-4.1-6c0-4.5-0.8-12.3,27.4-37.4C863.2,396.3,903.1,304.7,859.2,288.2z"/>
	<path class="st3" d="M793.2,580.8c0,0-5.8-45.5-37.6-35.4c-32.1,10.1-63.2-8.6-74.7-24.9c-11.5-16.5-28.6-27.6-27.4-36.8
		c0.8-7.4-3.5-94.8,18.3-132.9c-25.7-6-47.7-3.5-66.7-1c24.7,35.6,20,126.3,20.8,133.9c1,9.3-15.8,20.6-27.4,36.8
		c-11.5,16.3-42.6,35.2-74.7,24.9c-32.1-10.1-37.6,35.4-37.6,35.4c3.5,27.6,22.6,45.5,35.8,54.9h234.3
		c10.5-11.7,19.7-24.5,27.8-38.1l4.9,3.5c3.3-4.3,5.8-9.1,7.4-14.2C795.7,584.7,794.7,582.6,793.2,580.8z"/>
	<path class="st46" d="M479.9,455.3c0,0,19.3,6.4,29.8-12.8c10.5-19.1,21-54.3,8.4-63l5.8-3.3c0,0-71.4-98.1-112.1-82.9
		C371.1,308.6,422.5,410.2,479.9,455.3z"/>
	<path class="st46" d="M790.1,455.3c0,0-19.3,6.4-29.8-12.8c-10.5-19.1-21-54.3-8.4-62.7l-5.8-3.3c0,0,71.4-98.1,112.1-82.9
		C899,308.8,847.5,410.2,790.1,455.3z"/>
	<path class="st7" d="M1031.4,638.6h-778c-1.6,0-2.9-1.2-2.9-2.9c0-1.6,1.2-2.9,2.9-2.9h778c1.6,0,2.9,1.2,2.9,2.9
		C1034.3,637.4,1033.1,638.6,1031.4,638.6L1031.4,638.6z"/>
	<path class="st3" d="M518,612.9c0,0,18.7,44.6-20.8,44.6c0,0-14,24.9-42.8,9.9c0,0-18.9,12.8-38.3-8.6c0,0-45.1,11.7-28.8-51.6
		S511.2,571.5,518,612.9z"/>
	<path class="st3" d="M764.6,612.9c0,0-18.7,44.6,20.8,44.6c0,0,14,24.9,42.8,9.9c0,0,18.9,12.8,38.3-8.6c0,0,45.1,11.7,28.8-51.6
		C879,543.8,771.2,571.5,764.6,612.9z"/>
	<path class="st7" d="M898.1,606.3c-6.4-25.1-27.6-39.5-58-39.5c-12.3,0-24.5,2.3-36.2,6.6c0-2.5-0.2-5.1-0.6-7.6
		c-0.8-6-2.5-11.7-4.9-17.1l4.1-7v-0.6c1-17.9-4.1-35.8-14.4-50.4l6.2-6.2l-2.9-2.1c-1.2-1.2-2.3-2.7-2.9-4.3
		c0-3.9,0.6-11.5,26.3-34.6c20.4-18.9,37.2-41.1,49.8-66c13.2-26.3,18.7-50.2,15.6-67.1c-2.3-12.1-9.1-20.8-19.7-24.9
		c-17.5-6.6-40.9,0.2-69.3,20.6c-22.4,16.3-42.2,36.4-50.6,45.1c-1.9,1.9-3.3,3.5-3.9,3.9c-3.1,2.7-10.1,5.8-19.3,8.6
		c-13.6-10.3-41.1-17.1-72.8-17.9c-35-1-68.7,5.3-93,17.7c-8.8-2.7-15.4-5.8-18.3-8.2c-0.6-0.6-2.1-2.1-3.9-3.9
		c-8.4-8.6-28-28.8-50.4-44.8c-28.4-20.4-51.6-27.4-69.3-20.6c-10.7,4.1-17.5,12.5-19.7,24.9c-3.1,17.1,2.5,40.9,15.6,67.1
		c12.5,24.9,29.2,47.3,49.8,66c26.1,23.5,26.5,31.1,26.3,34.6c-1.4,8.6-1.9,14.2-1.9,14.4l-0.2,2.7l5.8,0.8
		c-8,19.3-8.8,57.2-8.8,76.5c-10.9-3.7-22.4-5.8-34.2-6c-30.4,0-51.6,14.4-58.2,39.5c-5.6,21.6-4.7,37.4,2.5,46.9
		c6,7.8,15,9.3,21.4,9.3c2.3,0,4.5-0.2,6.8-0.6c7.8,8,16.3,12.1,25.5,12.1l0,0c4.9,0,9.7-1.2,14-3.5c5.6,2.9,11.5,4.3,17.7,4.5l0,0
		c15.2,0,24.1-10.7,26.7-14.6c10.5-0.4,18.1-3.9,22.4-10.3c8.8-13.4,0.8-34.8-0.4-37.9c-2.1-12.1-11.9-23.7-27.8-32.5
		c-3.5-1.9-7-3.5-10.5-4.9c-0.2-19.3,0.6-62.7,9.9-79.6l2.1-3.7l-8.4-1.2c0.2-2.5,0.6-6.4,1.4-11.5v-0.4c0.2-6.6-1.9-15.6-28.4-39.3
		c-20-18.3-36.2-40.1-48.3-64.4c-12.5-24.7-17.9-47.9-15-63.4c1.9-10.3,7.4-17.1,16.3-20.6c15.6-6,37.2,0.8,63.8,20
		c21.8,15.6,41.4,35.8,49.6,44.2c2.1,2.1,3.5,3.5,4.3,4.3c4.7,4.1,14.4,7.6,21.6,9.9l1,0.4l1-0.6c23.5-12.1,56.6-18.5,91.1-17.5
		c31.5,0.8,58.4,7.6,70.4,17.7l1.2,1l1.4-0.4c7.8-2.3,18.1-5.8,23.2-10.3c0.8-0.6,2.3-2.1,4.3-4.3c8.2-8.4,27.8-28.6,49.6-44.2
		c26.7-19.1,48.1-25.9,63.8-20c8.8,3.3,14.2,10.3,16.3,20.6c2.9,15.6-2.7,38.7-15,63.4c-12.1,24.3-28.6,46.1-48.3,64.4
		c-28.8,25.7-28.4,34.4-28.4,39.5v0.8l0.2,0.6c0.8,1.6,1.6,3.3,2.7,4.7l-5.3,5.3l1.9,2.1c10.3,13.8,15.6,30.7,14.8,47.7l-5.3,8.2
		l0.8,1.4c3.7,8,5.8,16.9,5.6,25.7c-2.9,1.2-5.8,2.7-8.4,4.1c-15.8,8.8-25.7,20.4-27.8,32.5c-1.2,3.1-9.3,24.5-0.4,37.9
		c4.3,6.6,11.9,10.1,22.4,10.3c2.7,3.9,11.5,14.6,26.7,14.6c6.2-0.2,12.1-1.6,17.7-4.5c4.3,2.3,9.1,3.5,14,3.5
		c9.3,0,17.7-4.1,25.5-12.1c2.3,0.4,4.5,0.6,6.8,0.6l0,0c6.4,0,15.4-1.6,21.4-9.3C902.9,643.7,903.7,627.9,898.1,606.3z
		 M515.1,613.5v0.4l0.2,0.2c0.2,0.2,8.8,21.2,1,32.7c-3.5,5.1-9.9,7.8-19.1,7.8h-1.9l-0.8,1.4c0,0.2-7.6,13.2-22.6,13.2l0,0
		c-5.8-0.2-11.3-1.6-16.5-4.5l-1.4-0.8l-1.4,1c-3.7,2.3-8,3.3-12.3,3.3c-8,0-15.4-3.9-22.2-11.5l-1.2-1.2l-1.6,0.4
		c-2.3,0.4-4.7,0.8-7,0.8c-5.1,0-12.1-1.2-16.9-7.2c-6.2-7.8-6.6-22-1.4-41.8c5.8-22.4,24.9-35.2,52.5-35.2
		C477,572.6,511.6,592.1,515.1,613.5z M890.9,649.5c-4.5,6-11.5,7.2-16.7,7.2l0,0c-2.5,0-4.7-0.2-7-0.8l-1.6-0.4l-1.2,1.2
		c-6.8,7.6-14.4,11.5-22.4,11.5c-4.3,0-8.4-1.2-12.3-3.3l-1.4-1l-1.6,0.8c-4.9,2.9-10.7,4.3-16.5,4.5c-15,0-22.2-12.8-22.6-13.2
		l-0.8-1.4h-1.2c-9.3,0-15.6-2.7-19.1-7.8c-7.6-11.5,1-32.5,1-32.7l0.2-0.2v-0.4c3.5-21.4,38.1-40.9,72.6-40.9
		c27.6,0,46.7,12.8,52.5,35.2C897.5,627.5,897.1,641.7,890.9,649.5z"/>
	<path class="st7" d="M709.7,570.1c0,2.1-0.2,3.9-0.6,6c-0.2,2.1-0.6,3.9-1.2,5.8c-0.4,1.9-1,3.7-1.9,5.6c-0.6,1.9-1.4,3.5-2.5,5.1
		c-1,1.6-2.1,3.1-3.3,4.5c-1.2,1.4-2.7,2.7-4.1,3.7l-1.2,0.8c-0.2,0.2-0.4,0.2-0.6,0.4l-0.6,0.4l-0.6,0.4l-0.6,0.2l-1.2,0.6
		l-1.2,0.4l-0.6,0.2l-0.6,0.2l-1.4,0.4l-1.4,0.2h-0.6h-0.4h-0.2l-1.4,0.2l-1.4,0.2h-1.4l-2.9,0.2h-3.7h-0.8h-1.4c-1,0-1.9,0-2.9-0.2
		c-1.9-0.2-3.9-0.4-5.8-0.8c-3.7-0.6-7.6-1.6-11.1-2.7c-1.9-0.6-3.7-1.2-5.3-2.1c-0.8-0.4-1.9-0.8-2.7-1.2l-1.2-0.6v-5.6
		c18.3-1.6,32.7-19.7,32.7-32.3c0-13.2-15.8-20.6-35.4-20.6s-35.4,7.4-35.4,20.6c0,12.5,14.4,30.7,32.7,32.3v5.6l-1,0.6l-2.7,1.2
		c-1.9,0.8-3.5,1.4-5.3,2.1c-1.9,0.6-3.7,1-5.6,1.6c-1.9,0.6-3.7,0.8-5.8,1.2c-2.1,0.4-3.9,0.6-5.8,0.8c-1,0-1.9,0.2-2.9,0.2h-1.4
		h-4.3c-1,0-1.9,0-2.9,0l-2.9-0.2l-1.4-0.2h-0.6l-0.8-0.2l-1.4-0.2l-1.2-0.2l-0.6-0.2c-0.2,0-0.4-0.2-0.6-0.2l-1.2-0.4l-1.2-0.6
		l-0.6-0.2L586,603l-1.2-0.6l-1.2-0.8c-1.4-1-2.9-2.3-4.1-3.7c-1.2-1.4-2.5-2.9-3.3-4.5c-1-1.6-1.9-3.5-2.5-5.1
		c-0.6-1.9-1.2-3.7-1.9-5.6c-0.4-1.9-0.8-3.9-1.2-5.8c-0.2-2.1-0.4-3.9-0.6-6c-0.2,2.1-0.2,3.9-0.2,6c0,2.1,0.2,4.1,0.6,6
		c0.2,2.1,0.6,4.1,1.2,6c0.6,2.1,1.2,3.9,2.3,5.8s2.1,3.7,3.3,5.3c1.2,1.6,2.9,3.1,4.5,4.5l1.2,1c0.4,0.2,0.8,0.6,1.4,0.8l0.6,0.4
		l0.8,0.4l1.4,0.6l1.4,0.6l0.8,0.2l0.8,0.2l1.6,0.4l1.4,0.2l0.8,0.2h0.4h0.4l1.4,0.2l3.1,0.4c1,0,2.1,0.2,3.1,0.2h1.6h4.7
		c1,0,2.1,0,3.1-0.2c2.1-0.2,4.1-0.4,6.2-0.6c2.1-0.2,4.1-0.6,6.2-1c2.1-0.4,3.9-1,6-1.6c2.1-0.6,3.9-1.2,5.8-2.1l2.9-1.2l1.4-0.6
		l0,0h0.2c0.4,0.2,1,0.4,1.4,0.6c1,0.4,1.9,0.8,2.9,1.2c1.9,0.8,3.9,1.4,5.8,2.1c1.9,0.6,3.9,1.2,6,1.6c2.1,0.4,4.1,0.8,6.2,1
		c2.1,0.2,4.1,0.6,6.2,0.6c1,0,2.1,0,3.1,0.2h2.9h1.6h1.6c1,0,2.1-0.2,3.1-0.2l1.6-0.2l1.4-0.2l1.4-0.2h0.4h0.4l0.8-0.2l1.6-0.4
		c0.6-0.2,1-0.2,1.6-0.4l0.8-0.2l0.8-0.2l1.4-0.6c3.9-1.6,7.4-4.5,10.1-7.8c1.2-1.6,2.5-3.5,3.3-5.3c0.8-1.9,1.6-3.7,2.3-5.8
		c0.6-2.1,1-3.9,1.2-6s0.4-3.9,0.4-6C710.1,574.2,709.9,572.1,709.7,570.1z"/>
	<path class="st4" d="M802.9,453.4l-6.6-1.6c-82.9-31.7-130.4,0.6-130.4,0.6c-10.9-5.8-26.1-5.1-26.1-5.1s-15-0.4-26.1,5.1
		c0,0-47.5-32.1-130.4-0.6l-6.6,1.6c0,0-5.8,15.2-2.5,19.1c0,0,3.1,6.6,8.4,8.4c0,0,3.1,71.8,61.1,72.2c58,0.4,78.2-63.2,79.8-76.7
		c0,0-6-9.1-1-12.1c4.9-3.1,17.3-2.9,17.3-2.9s12.5-0.2,17.3,2.9c4.7,3.1-1,12.1-1,12.1c1.6,13.6,22,77.1,79.8,76.7
		c57.8-0.4,61.1-72.2,61.1-72.2c5.1-1.6,8.4-8.4,8.4-8.4C808.6,468.7,802.9,453.4,802.9,453.4z"/>
	<path class="st7" d="M735.4,556.1c-25.1,0-46.9-11.9-63-34.6c-12.1-17.1-18.3-36.6-19.3-44.8l-0.2-1l0.6-0.8
		c1.2-1.9,2.9-5.6,2.5-7.4c0-0.4-0.2-0.6-0.6-0.8c-2.7-1.6-9.7-2.5-15.4-2.5h-0.6c-5.8,0-12.8,0.8-15.4,2.5
		c-0.2,0.2-0.4,0.4-0.6,0.8c-0.4,1.9,1.2,5.3,2.5,7.4l0.6,0.8l-0.2,1c-1,8.2-7,27.8-19.3,44.8c-16,22.6-37.9,34.6-63,34.6h-0.4
		c-24.9-0.2-43.8-13.4-54.9-37.9c-4.7-11.1-7.8-23-8.8-35.2c-3.5-2.1-6.2-5.1-8-8.8c-3.7-5.1,0.8-17.9,2.3-21.8l0.6-1.4l7.8-1.9
		c22.6-8.8,46.5-13.8,70.8-14c34.2,0,55.1,10.7,60.7,14c8-3.3,16.5-4.9,25.1-4.9h1.6c8.6,0,17.1,1.6,25.1,4.9
		c5.6-3.3,26.3-14,60.7-14c24.3,0.4,48.3,5.1,70.8,14l7.8,1.9l0.6,1.4c1.4,3.9,6,16.5,2.3,21.8c-1.9,3.7-4.5,6.8-8,8.8
		c-1,12.1-4.1,24.1-8.8,35.2c-10.9,24.7-30,37.9-54.9,37.9H735.4z M659.1,477.1c2.3,14.2,21.8,73.2,76.3,73.2h0.4
		c22.8-0.2,39.5-11.7,49.6-34.6c4.7-11.1,7.6-22.8,8.6-35v-2.1l1.9-0.6c3.9-1.2,6.6-6.8,6.6-6.8l0.2-0.2l0.2-0.2
		c1-1.2,0-8.2-2.5-14.8l-5.3-1.2c-22-8.6-45.3-13.4-68.9-13.8c-37.9,0-58.6,13.8-58.8,14l-1.2,0.8l-1.4-0.8
		c-9.1-4.7-21.6-4.9-23.9-4.9h-1.6c-2.5,0-14.8,0.2-23.9,4.9l-1.4,0.8l-1.4-1c-0.2-0.2-21.2-14-58.8-14
		c-23.7,0.4-47.1,4.9-68.9,13.8h-0.4l-5.3,1.2c-2.3,6.6-3.5,13.6-2.5,14.8l0.2,0.2l0.2,0.2c0.8,1.6,3.3,5.8,6.6,6.8l1.9,0.6v2.1
		c0.8,12.1,3.9,23.9,8.6,35c10.1,22.6,26.7,34.2,49.6,34.4h0.4c54.5,0,74.1-59,76.3-73.2c-1.2-2.1-3.5-6.8-2.7-10.7
		c0.4-1.9,1.4-3.5,3.1-4.3c4.7-3.1,14.6-3.3,18.5-3.3h0.8c3.9,0,13.8,0.4,18.5,3.3c1.6,1,2.7,2.7,3.1,4.5
		C662.6,470.3,660.3,475,659.1,477.1L659.1,477.1z"/>
	<path class="st7" d="M609.7,478.3c0,22.4-18.3,66.7-65.6,66.7c-43.4,0-50.4-41.8-50.4-64.4c0-22.6,17.7-35.2,51.4-35.2
		S609.7,455.7,609.7,478.3z"/>
	<path class="st7" d="M669.8,478.3c0,22.4,18.3,66.7,65.6,66.7c43.4,0,50.4-41.8,50.4-64.4c0-22.6-17.7-35.2-51.4-35.2
		S669.8,455.7,669.8,478.3z"/>
	<path class="st47" d="M564,446.7l-44.4,92.6c-2.1-1.2-3.9-2.5-5.8-3.9l42.8-89.3C559.3,446,561.8,446.2,564,446.7z M577,449.1
		l-45.3,94.6c2.5,0.6,4.7,0.8,7.2,1l44.8-93.8C581.7,450.4,579.5,449.5,577,449.1L577,449.1z M569.4,447.5l-45.1,94
		c1,0.4,2.3,0.8,3.3,1.2l45.3-94.4C571.9,447.9,570.6,447.7,569.4,447.5L569.4,447.5z"/>
	<path class="st47" d="M750.6,446.7l-44,91.8c-2.1-1-4.1-2.3-6-3.5l42.8-89.3C745.9,446,748.4,446.2,750.6,446.7z M761.7,449.3
		l-44.6,93.2c2.3,0.6,4.5,1.2,7,1.6l44-92.2C766.1,450.8,764,449.9,761.7,449.3z M754.9,447.5l-44.4,92.8c1,0.4,2.3,0.8,3.3,1.2
		l44.6-93.2C757.2,447.9,756,447.7,754.9,447.5z"/>
</g>
</svg>
