<?xml version="1.0" encoding="utf-8"?>
<!-- Generator: Adobe Illustrator 24.0.0, SVG Export Plug-In . SVG Version: 6.00 Build 0)  -->
<svg version="1.1" id="Layer_1" xmlns="http://www.w3.org/2000/svg" xmlns:xlink="http://www.w3.org/1999/xlink" x="0px" y="0px"
	 viewBox="0 0 1200 1200" style="enable-background:new 0 0 1200 1200;" xml:space="preserve">
<style type="text/css">
	.st0{fill:#BE9A71;}
	.st1{fill:#D9A993;}
	.st2{fill:#683A32;}
	.st3{fill:#FFFFFF;}
	.st4{fill:#F78C8B;}
	.st5{fill:#1D1D1B;}
	.st6{fill:#FDAC49;}
	.st7{fill:#191919;}
	.st8{fill:#333333;}
	.st9{fill:#14192C;}
	.st10{fill:#3E3D4F;}
	.st11{fill:#A15225;}
	.st12{fill:#895834;}
	.st13{fill:#1A0A14;}
	.st14{fill:#672E28;}
	.st15{fill:#111B1D;}
	.st16{fill:#EBEBEB;}
	.st17{fill:#494859;}
	.st18{fill:#2F2627;}
	.st19{fill:#C7B6AC;}
	.st20{fill:#E2D9D4;}
	.st21{fill:#D6CDCA;}
	.st22{fill:#674043;}
	.st23{fill:#3D3834;}
	.st24{fill:#E4DACE;}
	.st25{fill:#554E46;}
	.st26{fill:#E8E8E8;}
	.st27{fill:#AEE9FA;}
	.st28{fill:#4D4D4D;}
	.st29{fill:#FDFDFD;}
	.st30{fill:#FAAF5E;}
	.st31{fill:#F8FCFC;}
	.st32{fill:#DBCFB5;}
	.st33{fill:#6D6D6D;}
	.st34{fill:#C69C6D;}
	.st35{fill:#F0B965;}
	.st36{fill:#DA7B45;}
	.st37{fill:#FAE7D6;}
	.st38{fill:#FDF8F2;}
	.st39{fill:#E2C4AA;}
	.st40{fill:#BC8571;}
	.st41{fill:#2F322A;}
	.st42{fill:#444741;}
	.st43{fill:#46282D;}
	.st44{fill:#986858;}
	.st45{fill:#F0C7A2;}
	.st46{fill:#FCE9C8;}
	.st47{fill:#808080;}
	.st48{fill:#4E4E4E;}
	.st49{fill:#E8CBA9;}
	.st50{fill:#956B50;}
</style>
<g>
	<path class="st3" d="M709.3,446.4c0,0-222.9-116.9-340.3,76.4c0,0-76.6,67.1-34.8,197.1c20.8,74.7,81.6,76.6,81.6,76.6l324.6-7.2
		c95.2-37.7,97.6-125.3,97.6-125.3C845.6,524.9,709.3,446.4,709.3,446.4z"/>
	<path class="st30" d="M789.7,518.7c24.1-75.2-0.5-194.8-40.3-192.8c-35.6,1.9-92.1,74-108.4,95.7C587.4,408,511,401.3,443.7,443.8
		c-22.7-15.5-98.6-65.4-132.7-55.8c-38.7,10.7-26.7,131.5,21,194.3c-9.8,27.9-15,65.4-4.8,112.4c7.2-10.7,19.8-22.2,33.7-25.1
		c35.1-7.2,89.3,47.5,148.5-4.3c51.3-44.9,140.6-44.2,175.7-22.4c28.4,17.4,109.3,36,152.7,0.2C835.8,592.5,814.3,550.7,789.7,518.7
		z"/>
	<path class="st3" d="M741.8,373.4c-34.6,2.4-65.9,66.8-65.9,66.8c37.5,7.6,92.1,60.6,92.1,60.6S776.1,371,741.8,373.4z"/>
	<path class="st2" d="M828.2,568.1c-7.6-16.9-16.9-33.2-27.9-48.2c20.5-60.9,8.4-146.3-17.7-183.3c-12.2-17.4-24.8-20.5-33.4-20
		c-38.2,1.9-92.6,69.2-112.7,95.7c-17.4-4.1-34.8-6.9-52.7-8.1c-42-3.1-80.9,2.9-115,17.9c-7.9,3.3-15.5,7.4-22.9,11.7
		c-27.7-18.9-100.2-64.9-137-54.7c-8.1,2.4-19.3,9.3-25.3,29.6c-12.9,42.5,2.1,125.5,39.6,176.9c-4.8,15.5-7.9,31.7-8.6,48.2
		c-1.2,29.8,3.1,59.9,12.6,88.3c11.5,40.8,35.1,62.1,52.7,72.8c11.2,6.9,23.9,11.5,37,13.4h0.7c4.3,0,7.6-3.6,7.4-7.6
		c0-3.8-2.9-6.9-6.7-7.4c-10.7-1.7-21.2-5.5-30.5-11.2c-22.4-13.4-37.9-34.8-46.1-64v-0.2c-13.8-43-16-82.8-6.2-119.1l0,0
		c1-3.3,1.9-6.4,2.9-9.8l-0.7-0.7c0.7-3.3,1.9-6.7,2.9-10c-35.1-45.6-50.8-126-39.6-164.2c2.1-6.7,6-15.3,12.6-17.2
		c25.1-7.2,89.5,29.4,127,56.1c2.4-1.2,4.8-2.1,7.4-2.4l3.3-1.9c1.2-0.7,2.4-1.4,3.6-2.4l0.7-0.5c0.2-0.2,0.5-0.5,0.5-0.5
		c0.7-0.5,1.2-1,1.9-1.4c35.6-19.6,76.9-27.7,123.6-24.3c15.3,1.2,30.5,3.3,45.6,6.7c0.2,0,0.7,0,1.2,0.2l1,0.2
		c1.7,0.5,3.3,1,4.8,1.7h3.3l1.9,0.5l0.2-0.2c2.4,0.2,4.5,0.5,6.9,1c27-36.8,76.9-92.8,103.3-94.3c7.2-0.5,13.4,6.4,17.4,12.2
		c23.6,33.4,34.1,118.9,13.4,172.3c1,1.4,1.9,3.1,2.6,4.5l1,1.7c0.7,0.7,1.2,1.2,1.9,1.9c0.7,0.7,1.7,1.7,2.4,2.4
		c0.7,0.7,1,1.2,1.4,1.9l1,0.7c28.9,40.8,42.2,84.5,39.9,130.6v0.2c-1.4,15.3-5.7,30.3-12.6,44.2c-15.8,32-42.7,55.6-80.2,70.4
		c-4.1,1.4-6,5.7-4.5,9.8c1.4,4.1,5.7,6,9.8,4.5c0.2,0,0.2-0.2,0.5-0.2c21.5-8.4,41.1-20.5,58-36.5c12.6-12.2,22.9-26.3,30.5-42
		c7.9-15.5,12.6-32.2,14.1-49.4C847.5,631.1,841.5,598.4,828.2,568.1z"/>
	<path class="st4" d="M552.5,714.9c0,0,0,1,0.2,2.6c1.7,11.9,11.5,61.6,48.7,55.4c42.2-7.2,51.1-37.9,45.1-74.9l-50.4,3.8
		L552.5,714.9z"/>
	<path class="st3" d="M333.6,430.4c-33.7,8.6,15.8,129.1,15.8,129.1s35.1-67.5,68-86.9C417.4,472.7,367.3,421.8,333.6,430.4z"/>
	<path class="st3" d="M511.5,697.2c0,0,30.8,57.3,87.4,8.6c0,0,68.5,29.1,73.7-41.1"/>
	<path class="st2" d="M699.8,565.3c-26,2.1-53.5,19.6-54.7,20.3c-2.4,1.4-4.1,4.1-4.3,6.9c-0.5,5,3.3,9.5,8.4,10
		c2.1,0.2,4.1-0.2,6-1.4c0.2-0.2,24.8-15.8,46.3-17.4c4.8-0.5,8.4-4.8,8.1-9.5C709.1,568.8,704.8,565,699.8,565.3z"/>
	<path class="st2" d="M526.5,598.2c-1.4-0.2-36.8-7.4-61.8-1.9c-3.8,1-6.7,4.1-7.2,8.1c-0.5,5,3.1,9.5,8.1,10c1,0,1.9,0,2.9-0.2
		c21.5-4.5,53.9,2.1,54.4,2.1c0.2,0,0.2,0,0.5,0c5,1,9.8-2.4,10.7-7.4S531.5,599.2,526.5,598.2z"/>
	<path class="st2" d="M681.9,665.5c0.2-5-3.6-9.5-8.6-9.8c-5-0.5-9.5,3.3-10,8.4c-1.2,16.9-6.7,28.4-16,33.9
		c-12.6,7.9-30.5,4.1-39.6,1.2c-0.5-8.6-0.7-13.6-0.7-15c17.9-7.4,29.4-30.5,27.9-43.4c-1.7-14.6-20.5-16-43.2-13.4
		c-22.7,2.9-40.6,8.6-38.9,23.2c1.4,12.4,17.2,31.5,35.8,35.3c0,2.6,0.2,7.6,0.7,15.5c-14.6,11.7-28.2,16.5-40.3,14.3
		c-18.9-3.3-29.6-22.7-29.8-22.9c-2.6-4.5-8.1-6-12.6-3.6c-4.3,2.4-6,7.9-3.6,12.2c0.7,1.2,14.8,27.2,42.5,32.2c0.5,0,1,0.2,1.2,0.2
		c5.3,19.1,17.4,45.6,43.9,48.2c4.1,0.5,8.1,0.2,11.9-0.5c26.5-4.5,55.8-20.3,54.4-68.3C671.8,704.6,680.2,688.4,681.9,665.5z
		 M600,763.6c-2.4,0.5-4.8,0.5-7.2,0.2c-14.3-1.4-22.4-16.9-26.7-30.3c9.5-1.9,19.3-6.4,29.4-13.4c2.1,6.7,2.4,13.6,1.2,20.3
		c-1,5,2.4,9.8,7.4,10.7l0,0h0.7c4.8,0.5,9.1-2.9,10-7.4c1.4-8.1,1.4-16.2-0.5-24.1c7.4,1.2,16,1.9,24.6,0.5
		C637.7,752.9,616.9,760.7,600,763.6z"/>
	<path class="st3" d="M663,527.3c-4.8-7.4-16.5-8.4-26.3-2.1c-9.8,6.2-13.6,17.2-8.8,24.6s16.5,8.4,26.3,2.1
		C664,545.7,667.8,534.7,663,527.3z"/>
	<path class="st3" d="M522.7,540.9c-11.2-2.4-22,2.6-23.6,11.2s5.7,17.7,16.9,20c11.2,2.4,22-2.6,23.6-11.2
		C541.5,552.4,533.9,543.3,522.7,540.9z"/>
	<path class="st2" d="M1041.1,800.1H158.9c-4.3,0-7.6-3.3-7.6-7.6s3.3-7.6,7.6-7.6h882.1c4.3,0,7.6,3.3,7.6,7.6
		C1048.7,796.8,1045.4,800.1,1041.1,800.1z"/>
	<path class="st3" d="M422.7,748.3c41.8,65.6-7.9,80.4-7.9,80.4c-11,39.1-49.4,21.2-49.4,21.2c-32.2,13.1-48.2-21.5-48.2-21.5
		c-38.2,1.4-34.1-54.2-20.3-76.9C311.9,727.3,391.9,700.3,422.7,748.3z"/>
	<path class="st2" d="M429.1,744.3c-6.4-10.3-16-18.6-27-23.6c-10.5-4.5-22-6.9-33.4-6.7c-31.3,0-67.1,15.5-78.3,33.9
		c-6,10.5-9.5,22.2-10.5,34.1c-1.4,14.6,0.7,27.7,6,37c5.3,10,15.5,16.5,26.7,16.9c5,8.1,17.7,24.6,38.7,24.6
		c4.8,0,9.5-0.7,14.1-2.4c6.2,2.1,12.6,3.3,19.1,3.6c17.4,0,30.3-9.5,36.5-27.2c10.7-4.8,19.1-13.4,23.2-24.1
		C450.8,792.7,445.8,770.5,429.1,744.3z M430.1,804.9c-2.4,6-6.4,10.7-11.9,14.1c-2.4-4.3-5.3-8.6-8.6-12.2l-0.2-0.2
		c-3.1-2.9-7.9-2.6-10.7,0.5c-2.9,3.1-2.6,7.9,0.5,10.7c2.9,3.6,5.3,7.4,7.4,11.5c0,0.2,0.2,0.2,0.2,0.5
		c-4.1,11.5-11.2,17.2-22.2,17.2c-3.8,0-7.6-0.7-11.5-1.7c0.2-4.5,0.2-9.3,0-13.8c-0.5-4.1-4.3-7.2-8.6-6.7
		c-4.1,0.5-7.2,4.3-6.7,8.6c0.2,3.8,0.2,7.9,0,11.7c-2.1,0.5-4.5,1-6.7,1c-12.9,0-21.5-10.5-25.1-16.2c3.1-4.8,6.2-11.7,4.8-17.4
		c-1-3.8-4.8-6-8.6-5.5c-4.1,0.7-6.9,4.5-6.2,8.6c-0.7,2.1-1.7,4.1-2.9,6c-6.4-0.5-11.2-3.6-14.3-9.1c-8.1-14.3-4.3-41.8,4.3-56.1
		c6.7-11,34.8-26.5,65.2-26.5c15,0,35.3,4.1,47.5,23.2C430.1,774.1,434.8,792.2,430.1,804.9z"/>
	<path class="st3" d="M754.7,748.3c-41.8,65.6,7.9,80.4,7.9,80.4c11,39.1,49.2,21.2,49.2,21.2c32.2,13.1,48.2-21.5,48.2-21.5
		c38.2,1.4,34.1-54.2,20.3-76.9C865.4,727.3,785.2,700.3,754.7,748.3z"/>
	<path class="st2" d="M897.4,782.2c-1-11.9-4.5-23.6-10.5-34.4c-11.2-18.4-47-33.9-78.3-33.9c-11.5-0.2-22.9,2.1-33.4,6.7
		c-11.2,5-20.5,13.1-27,23.4c-16.7,26.3-21.7,48.5-15.3,66.1c4.3,10.7,12.6,19.6,23.4,24.1c6.2,17.7,19.1,27.2,36.5,27.2
		c6.4,0,12.9-1.2,19.1-3.6c4.5,1.7,9.3,2.4,14.1,2.4c21,0,33.7-16.5,38.7-24.6c11.2-0.5,21.5-6.9,26.7-16.9
		C896.7,809.9,898.8,796.8,897.4,782.2z M878.1,811.8c-3.1,5.5-7.9,8.6-14.3,9.1c-1.2-1.9-2.1-3.8-2.9-6c1-4.1-1.9-8.1-6-9.1
		c-4.1-0.7-7.9,1.7-8.8,5.7c-1.4,5.7,1.7,12.6,4.8,17.4c-3.8,5.7-12.2,16.5-25.1,16.5c-2.1,0-4.5-0.2-6.7-1c-0.2-4.1-0.2-7.9,0-11.9
		c0.2-4.3-2.9-7.9-6.9-8.1c-3.8-0.2-7.4,2.4-8.1,6.2c-0.2,4.5-0.2,9.3,0,13.8c-3.8,1.2-7.6,1.7-11.5,1.9c-11,0-18.1-5.7-22.2-17.2
		c0-0.2,0.2-0.2,0.2-0.5c1.9-4.1,4.5-7.9,7.4-11.5c2.9-3.1,2.9-7.9,0-10.7c-2.9-2.9-7.4-2.9-10.5-0.2c-3.3,3.8-6.2,7.9-8.6,12.4
		c-5.3-3.3-9.5-8.1-11.9-14.1c-4.8-12.9,0-31,13.8-52.5C773,733,793.6,729,808.6,729c30.5,0,58.5,15.5,65.2,26.5
		C882.3,770,886.2,797.5,878.1,811.8z"/>
</g>
</svg>
