<?xml version="1.0" encoding="utf-8"?>
<!-- Generator: Adobe Illustrator 24.0.0, SVG Export Plug-In . SVG Version: 6.00 Build 0)  -->
<svg version="1.1" id="Layer_1" xmlns="http://www.w3.org/2000/svg" xmlns:xlink="http://www.w3.org/1999/xlink" x="0px" y="0px"
	 viewBox="0 0 1200 1200" style="enable-background:new 0 0 1200 1200;" xml:space="preserve">
<style type="text/css">
	.st0{fill:#BE9A71;}
	.st1{fill:#D9A993;}
	.st2{fill:#683A32;}
	.st3{fill:#FFFFFF;}
	.st4{fill:#F78C8B;}
	.st5{fill:#1D1D1B;}
	.st6{fill:#FDAC49;}
	.st7{fill:#191919;}
	.st8{fill:#333333;}
	.st9{fill:#14192C;}
	.st10{fill:#3E3D4F;}
	.st11{fill:#A15225;}
	.st12{fill:#895834;}
	.st13{fill:#1A0A14;}
	.st14{fill:#672E28;}
	.st15{fill:#111B1D;}
	.st16{fill:#EBEBEB;}
	.st17{fill:#494859;}
	.st18{fill:#2F2627;}
	.st19{fill:#C7B6AC;}
	.st20{fill:#E2D9D4;}
	.st21{fill:#D6CDCA;}
	.st22{fill:#674043;}
	.st23{fill:#3D3834;}
	.st24{fill:#E4DACE;}
	.st25{fill:#554E46;}
	.st26{fill:#E8E8E8;}
	.st27{fill:#AEE9FA;}
	.st28{fill:#4D4D4D;}
	.st29{fill:#FDFDFD;}
	.st30{fill:#FAAF5E;}
	.st31{fill:#F8FCFC;}
	.st32{fill:#DBCFB5;}
	.st33{fill:#6D6D6D;}
	.st34{fill:#C69C6D;}
	.st35{fill:#F0B965;}
	.st36{fill:#DA7B45;}
	.st37{fill:#FAE7D6;}
	.st38{fill:#FDF8F2;}
	.st39{fill:#E2C4AA;}
	.st40{fill:#BC8571;}
	.st41{fill:#2F322A;}
	.st42{fill:#444741;}
	.st43{fill:#46282D;}
	.st44{fill:#986858;}
	.st45{fill:#F0C7A2;}
	.st46{fill:#FCE9C8;}
	.st47{fill:#808080;}
	.st48{fill:#4E4E4E;}
	.st49{fill:#E8CBA9;}
	.st50{fill:#956B50;}
</style>
<g>
	<path class="st0" d="M867.1,290c-35.9,8.1-178.5,98-214.9,121.1c-25.9-8.4-58.1-12.6-99-12.6c-40.9,0-73.1,4.2-99,12.6
		C417.8,388,275.5,297.9,239.3,290c-39.6-8.9,5.7,218.9,89.6,314.2c-2.7,74.1,43.8,129.5,68.7,165c2.5,3.7,4.7,7.4,6.4,11.3h298.4
		c1.7-3.9,3.9-7.9,6.4-11.3c24.9-35.5,71.4-90.8,68.7-165C861.2,508.9,906.5,281.2,867.1,290z"/>
	<path class="st1" d="M706.8,445.6c2.7,3.2,5.2,6.4,7.4,10.1c1.5,2.5,3.2,4.7,4.7,7.1c-0.2-0.5-0.2-0.5,0.7,1c1,1.5,2.2,2.7,3.2,4.2
		c8.9,11.8,17.2,24.1,24.6,36.9c7.6,12.3,14,25.4,19.2,38.7c4.9,13,6.9,27.1,9.8,40.6c37.7-54.4,86.4-161.3,91.3-248.9
		C872,259,754.3,389.8,706.8,445.6z"/>
	<path class="st1" d="M337.3,572.2c3.2-11.3,5.9-22.7,9.4-34c3.7-12.3,8.1-24.4,13-36.2c5.2-11.1,11.8-21.2,19.9-30.3
		c3.7-4.7,7.6-8.9,11.3-13.5c0.5-0.7,1.2-2,2-3c0.2-0.2,0.5-0.5,0.7-0.7c0.2-0.5,0.7-1,1-1.5c1.7-2.2,3.2-4.7,4.7-7.1
		C352,390.5,233.6,258.5,238,335.1c5.2,90.6,57.1,201.9,95.3,254.3C334.5,583.8,335.8,577.9,337.3,572.2z"/>
	<path class="st2" d="M883.1,292.5c-3.9-7.1-10.1-10.6-17.5-8.9c-36.4,8.1-173.8,94.5-214.4,120.4c-26.3-8.1-58.3-12.1-98-12.1
		s-71.6,3.9-98.2,12.1c-40.6-25.9-177.8-112.3-214.4-120.4c-7.4-1.7-13.5,1.7-17.5,8.9c-5.7,10.3-6.6,30.3-3,58.8
		c4.2,31,11.1,61.8,20.4,91.6c20.9,68.7,50.2,126.8,81.7,163.5c0,3,0,5.9,0,8.9c0.7,19.9,4.7,39.9,11.6,58.6
		c12.8,35.7,33.5,64.3,50.2,87.4c3,3.9,5.7,7.9,8.1,11.6c2.2,3.2,4.2,6.6,5.9,10.3c1,2.5,3.4,3.9,5.9,3.9c1,0,1.7-0.2,2.7-0.5
		c3.2-1.5,4.9-5.4,3.4-8.6l0,0c-2-4.4-4.4-8.6-7.1-12.6c-2.5-3.7-5.4-7.6-8.4-11.6c-32-44.6-80.8-111.8-48.7-201.6
		c36.7-103.4,73.6-146.7,207.5-146.7S724.3,448.8,761,552.3c31.8,89.9-16.7,157.1-48.7,201.6c-3,4.2-5.7,7.9-8.4,11.6
		c-2.7,3.9-5.2,8.1-7.1,12.6c-1.5,3.2,0,7.1,3.4,8.6c3.4,1.5,7.1,0,8.6-3.4c1.7-3.7,3.7-7.1,5.9-10.3c2.5-3.7,5.2-7.4,8.1-11.6
		c16.5-23.1,37.2-51.7,50.2-87.4c6.9-18.7,10.8-38.7,11.6-58.6c0-3,0-5.9,0-8.9c31.5-36.7,60.6-94.8,81.5-163.5
		c9.4-30,16.2-60.6,20.4-91.6C889.5,322.8,888.5,302.9,883.1,292.5z M256,448.6c4.9,14,9.8,27.1,14.5,38.2
		c15.8,37.7,35,73.9,52.9,100.2v0.2C297.9,553.7,274.2,505.2,256,448.6z M333.1,547.6c-2.5,6.9-4.4,13.8-6.2,20.7
		c-36.2-56.9-77.6-153.6-82-233.4c-0.5-10.8,1.5-14.3,2.5-15.3c0.7-0.7,2-1.2,3.2-1.2c6.9,0,29.8,7.4,94.5,76.3
		c16.2,17.2,31.8,34.7,43.6,48.7C364.3,469.3,348.6,504.2,333.1,547.6L333.1,547.6z M398.6,434.6c-12.1-14-27.3-31.3-43.6-48.5
		c-17.7-19.2-36.4-37.4-56.4-54.4c-21.4-17.7-36.4-26.1-47.8-26.1c-4.9-0.2-9.4,1.7-12.8,5.2c-4.7,4.9-6.9,13.3-6.2,25.1
		c0,1.7,0.2,3.4,0.2,5.2c-2-20.9-0.7-35.7,2.7-42.3c1.2-2.5,2.2-2.2,3-2.2c32,7.1,153.4,82.7,201.4,113.3
		c-13,5.4-25.4,12.6-36.4,21.2C401.3,432.1,399.8,433.3,398.6,434.6L398.6,434.6z M717.1,443.7c12.1-14,27.3-31.3,43.6-48.7
		c64.8-68.9,87.6-76.3,94.5-76.3c1.2-0.2,2.5,0.2,3.2,1.2c1,1,3.2,4.4,2.5,15.3c-4.4,79.5-46,176.5-82,233.4
		c-1.7-7.1-3.7-14-6.2-20.7C757.5,504.2,741.8,469.3,717.1,443.7L717.1,443.7z M782.6,587c18.2-26.3,37.2-62.3,52.9-100.2
		c4.7-11.3,9.8-24.1,14.5-38.2c-18.2,56.6-41.9,105.1-67.5,138.6C782.6,587.2,782.6,587.2,782.6,587z M874,340.8
		c0-1.7,0.2-3.4,0.2-5.2c0.7-11.8-1.2-19.9-6.2-25.1c-3.4-3.4-8.1-5.4-12.8-5.2c-11.1,0-26.3,8.4-47.8,26.1
		c-19.7,17-38.7,35.2-56.4,54.4c-16.2,17.2-31.5,34.5-43.6,48.5c-1.5-1.2-2.7-2.5-4.2-3.4c-11.1-8.9-23.4-16-36.4-21.2
		c48-30.5,169.6-106.1,201.4-113.3c0.7-0.2,1.7-0.5,3,2.2C874.7,305.1,875.9,319.8,874,340.8L874,340.8z"/>
	<ellipse class="st2" cx="654.4" cy="537.6" rx="39.6" ry="39.6"/>
	<circle class="st3" cx="665.7" cy="520.2" r="10.6"/>
	<circle class="st2" cx="451.7" cy="537.7" r="39.6"/>
	<circle class="st3" cx="463.3" cy="520.2" r="10.6"/>
	<path class="st3" d="M676.8,614.1c-3.2-1.5-27.3-13.5-39.1-36.9c-10.8-21.7-24.1-52.7-63.5-61.1c-2.7-7.6-4.2-15.3-3.9-23.1
		c2-62.8-9.4-70.4-17-70.4c-7.6,0-19,7.6-17,70.4c0.2,7.9-1.2,15.5-3.9,23.1c-39.9,8.1-53.2,39.4-64,61.1
		c-12.3,25.1-39.4,37.2-39.4,37.2h0.2c-114.5,39.4-32.3,108.3-23.9,160.8c0.2,2,0.7,3.7,1.5,5.4h293c0.7-1.7,1-3.7,1.5-5.4
		C709.5,722.4,792,653.4,676.8,614.1z"/>
	<path class="st2" d="M673.8,612.1c-2-1.5-4.9-3.4-8.6-6.4c-4.2-3.4-8.1-7.1-11.8-11.3c-4.7-5.2-8.4-11.1-11.3-17.2l-1.2-2.5
		l-1.2-2.7l-2.5-5.7c-1.7-3.9-3.7-8.1-5.9-12.1c-2.2-4.2-4.9-8.4-7.6-12.3c-3-4.2-6.4-8.1-10.1-11.8c-1-1-2-2-3-2.7
		c-1-0.7-2-1.7-3.2-2.5c-1-0.7-2.2-1.7-3.2-2.5c-1.2-0.7-2.2-1.5-3.4-2.2l-1.7-1c-0.5-0.5-1.2-0.7-1.7-1l-2-1l-1-0.5l-1-0.5
		c-2.5-1.2-5.2-2.2-7.6-3.2c-5.4-2-10.8-3.2-16.2-3.9s-11.1-1.2-16.7-1.2h-4.2c-1.2,0-2.7,0.2-4.2,0.2l-2.2,0.2
		c-0.7,0-1.5,0.2-2,0.2l-2.2,0.2c-0.7,0-1.5,0.2-2,0.2c-5.7,0.7-11.1,2.2-16.2,3.9c-2.7,1-5.4,2-7.9,3.2l-1,0.5l-1,0.5l-2,1
		c-0.7,0.2-1.2,0.7-1.7,1l-1.7,1c-4.7,3-8.9,6.2-12.8,10.1c-3.7,3.7-7.1,7.6-10.1,11.8c-2.7,3.9-5.4,8.1-7.6,12.3
		c-2.2,4.2-4.2,8.1-5.9,12.1l-2.5,5.7c-0.5,1-0.7,2-1.2,2.7l-0.2,0.7l-0.2,0.7l-0.7,1.2c-0.5,1-0.7,1.5-1.2,2.5
		c-0.5,1-0.7,1.7-1.2,2.5c-1,1.5-2,3-3,4.4c-2,2.7-3.9,5.2-6.2,7.4c-3.7,4.2-7.6,7.9-11.8,11.3c-3.7,3-6.4,4.9-8.6,6.4
		c-2.2,1.5-2.2,1.7-2.2,1.7l1-0.2c0.7-0.2,1.5-0.5,2.7-1c3.2-1.5,6.6-3.2,9.6-4.9c4.9-3,9.6-6.2,13.8-9.8c2.7-2.2,5.2-4.9,7.4-7.6
		c1.2-1.5,2.5-3,3.7-4.4l1.7-2.5c0.5-1,1.2-1.7,1.7-2.7l0.7-1.2l0.2-0.7l0.5-0.7l1.5-2.7l3-5.4c2-3.7,4.2-7.4,6.6-11.1
		c4.7-7.6,10.3-14.5,17-20.7c3.4-3,7.1-5.7,11.1-8.1l1.5-0.7c0.5-0.2,1-0.5,1.5-0.7l1.5-0.7l0.7-0.5l0.7-0.2c2.2-1,4.4-1.7,6.6-2.5
		c4.7-1.5,9.4-2.5,14-3.2c0.5,0,1.2-0.2,1.7-0.2l1.7-0.2c0.7,0,1.2-0.2,1.7-0.2h1.7c1.2-0.2,2.2-0.2,3.7-0.2h3.7
		c9.8-0.2,19.4,1.2,28.8,4.2c2.2,0.7,4.4,1.5,6.6,2.5l0.7,0.2l0.7,0.2l1.5,0.7c0.5,0.2,1,0.5,1.5,0.7l1.5,0.7
		c3.9,2.2,7.6,4.9,11.1,8.1c6.6,6.2,12.3,13,17,20.7c2.5,3.7,4.4,7.4,6.4,11.1l3,5.4l1.5,2.7c0.2,0.5,0.5,1,0.7,1.5l0.7,1.2
		c3.9,6.4,8.9,12.1,14.5,17c4.2,3.7,8.9,6.9,13.8,9.8c3.2,1.7,6.4,3.4,9.6,4.9c1.2,0.5,2,0.7,2.7,1l1,0.2
		C677,614.1,675.8,613.6,673.8,612.1z"/>
	<path class="st2" d="M638.1,643.3c-0.2,0.7-0.7,1.7-1,2.7c-0.5,1.2-1,2.2-1.7,3.4c-1.5,3-3.7,5.4-6.2,7.4
		c-3.2,2.5-6.9,3.9-10.8,4.2c-2.2,0.2-4.4,0-6.9-0.2l-1-0.2H610l0,0h-0.2l-2-0.5l-1.7-0.5c-0.5-0.2-1.2-0.2-1.7-0.5
		c-2.5-0.7-4.7-2-6.6-3.2l-0.7-0.5l-0.7-0.5c-0.5-0.5-1-0.7-1.5-1.2c-1-0.7-2-1.7-3.2-2.7c-2.2-2-4.4-4.4-7.1-6.6
		c-1.2-1.2-3-2.2-4.4-3.2c-0.7-0.5-1.7-1-2.5-1.5c-0.7-0.5-1.5-1-2.5-1.2l-2.7-1.2c-1-0.2-1.7-0.7-2.7-1c-1.7-0.5-3.7-1-5.7-1.5
		c-1-0.2-2-0.2-2.7-0.5c-0.7,0-1.5,0-2.2-0.2l-2.7-23.1c29.1-2,51.9-35.9,51.9-55.1c0-19.9-24.6-28.3-54.9-28.3s-54.9,8.4-54.9,28.3
		c0,19.2,22.9,52.7,51.7,54.9l-2.7,22.9c-1,0-1.7,0.2-2.5,0.2c-1,0-2,0.2-2.7,0.5c-3.7,0.7-7.4,1.7-11.1,3.4c-1,0.5-1.7,1-2.5,1.2
		c-0.7,0.5-1.7,1-2.5,1.5c-1.5,1-3,2.2-4.4,3.2c-2.7,2.2-4.9,4.7-7.1,6.6c-1,1-2.2,2-3.2,2.7c-0.5,0.5-1,0.7-1.5,1.2l-0.7,0.5
		l-0.7,0.5c-2.2,1.5-4.4,2.5-6.6,3.2c-0.5,0.2-1.2,0.5-1.7,0.5l-1.7,0.5l-2,0.5h-0.2l0,0h-0.5l-1,0.2l-2,0.5h-0.7c-0.5,0-1,0-1.7,0
		c-1,0-2.2,0-3.2,0c-3.9-0.2-7.6-1.7-10.8-4.2c-2.5-2-4.7-4.4-6.2-7.4c-0.7-1-1.2-2.2-1.7-3.4c-0.5-1-0.7-2-1-2.7
		c-0.5-1.5-0.7-2.2-0.7-2.2c0,0.7,0,1.7,0,2.5c0,2.2,0.5,4.7,1,6.9c0.5,1.7,1,3.2,1.7,4.7c1,2,2,3.7,3.4,5.2c0.7,1,1.5,1.7,2.2,2.5
		c0.7,13.5,9.1,48.7,77.6,48.7h0.2c68.4,0,76.8-35.5,77.6-49c0.7-0.7,1.5-1.5,2.2-2.5c1.2-1.5,2.5-3.4,3.4-5.2
		c0.7-1.5,1.2-3.2,1.7-4.9c0.7-2.2,1-4.4,1-6.9c0-0.7,0-1.7,0-2.5C639.3,640.6,639.1,641.6,638.1,643.3z"/>
	<path class="st2" d="M1022.9,787.4H81c-3.7,0.2-6.6-2.5-6.9-6.2c-0.2-3.7,2.5-6.6,6.2-6.9c0.2,0,0.5,0,0.7,0h942
		c3.7-0.2,6.6,2.5,6.9,6.2c0.2,3.7-2.5,6.6-6.2,6.9C1023.4,787.4,1023.2,787.4,1022.9,787.4z"/>
	<path class="st3" d="M333.3,799.7c0,0,6.2,20.4,26.1,10.6s26.3-110.1-70.2-93.6c-96.5,16.5-58.3,113.3-37.7,113
		c20.7-0.2,24.6-12.6,27.3-22.9c0,0,1.2,28.1,29.5,21.7C338.7,821.4,333.3,799.7,333.3,799.7z"/>
	<path class="st2" d="M251.6,836.1c-7.1,0-14.8-5.9-20.9-16.5c-5.9-10.3-9.4-21.9-10.3-33.7c-1.7-16.2,2.7-32.7,12.3-45.8
		c11.6-15.5,30.3-25.4,55.9-29.8c6.9-1.2,14-2,21.2-2c35,0,59.3,18.2,66.7,49.7c5.7,24.6-0.7,51.9-13.8,58.3
		c-3.9,2.2-8.6,3.2-13,3.4c-4.2,0-8.4-1.2-11.8-3.4c-0.5,0.7-0.7,1.7-1.2,2.5c-4.9,8.1-13.8,13.5-26.3,16.2c-3,0.7-6.2,1-9.4,1.2
		l0,0c-8.9,0.2-17.2-3.9-22.2-11.3c-4.7,6.2-12.6,11.3-26.6,11.6L251.6,836.1z M309.4,721.4c-6.4,0-12.8,0.5-19,1.7
		c-53.4,9.1-58.6,42.6-57.1,61.6c0.7,9.8,3.7,19.5,8.6,28.3c4.4,7.4,8.4,9.8,9.6,9.8l0,0c16.2-0.2,18.7-8.9,21.2-18
		c1-3.4,4.4-5.7,8.1-4.7c2.7,0.7,4.7,3.2,4.9,6.2c0.2,3.2,1,6.2,2.5,8.9c2.2,4.9,7.1,7.6,12.6,7.4l0,0c2.2,0,4.4-0.2,6.4-0.7
		c8.9-2,14.8-5.4,18-10.3c2-3,2.5-6.6,2-10.1c-0.7-3.4,1.5-7.1,5.2-7.9c3.2-0.7,6.4,1.2,7.6,4.4c0,0.2,2.7,8.4,9.6,8.4
		c2.5,0,4.9-0.7,7.1-2c1.7-1,4.9-5.4,6.9-14.3c2-9.6,2-19.7-0.2-29.3C359.9,746,348.3,721.4,309.4,721.4L309.4,721.4z"/>
	<path class="st3" d="M772.3,798.5c0,0-6.2,20.4-26.1,10.6c-19.9-9.8-26.3-110.1,70.2-93.6c96.5,16.5,58.3,113.3,37.7,112.8
		c-20.7-0.5-24.6-12.6-27.3-22.9c0,0-1.2,28.1-29.5,21.7C767.1,820.1,772.3,798.5,772.3,798.5z"/>
	<path class="st2" d="M854.3,834.9L854.3,834.9c-14-0.2-21.9-5.4-26.8-11.6c-4.9,7.4-13.3,11.6-22.2,11.3c-3.2,0-6.4-0.5-9.4-1.2
		c-12.3-2.7-21.2-8.4-26.1-16.2c-0.5-0.7-1-1.7-1.2-2.5c-3.4,2.2-7.6,3.7-11.8,3.4l0,0c-4.4,0-9.1-1.2-13-3.4
		c-13-6.4-19.4-33.7-13.8-58.4c7.4-31.5,31.8-49.5,66.7-49.5c7.1,0,14.3,0.7,21.2,2c25.4,4.4,44.3,14.3,55.9,29.8
		c9.6,13.3,14,29.5,12.3,45.8c-1,11.8-4.4,23.4-10.3,33.7C868.8,829,861.4,834.9,854.3,834.9z M826.7,798.9c3,0,5.7,2,6.4,4.9
		c2.5,9.1,4.9,17.7,21.2,18l0,0c1.2,0,5.2-2.5,9.6-9.8c4.9-8.6,7.9-18.2,8.6-28.3c1.5-19.2-3.7-52.4-57.1-61.6
		c-6.2-1-12.6-1.7-19-1.7c-38.9,0-50.5,24.6-53.9,39.4c-2.2,9.6-2.5,19.7-0.2,29.3c2,8.9,5.2,13.3,7.1,14.3c2.2,1.2,4.7,2,7.1,2
		c6.9,0,9.6-8.4,9.6-8.6c1-3.4,4.7-5.4,8.1-4.4c3.4,1,5.4,4.4,4.7,7.9c-0.5,2.7,0,5.7,1,8.4c2.5,5.9,8.9,10.1,19,12.3
		c2.2,0.5,4.2,0.7,6.4,0.7c5.2,0.2,10.3-2.7,12.6-7.4c1.5-2.7,2.2-5.9,2.5-8.9c0.2-3.2,2.7-5.9,5.9-6.2L826.7,798.9z"/>
	<path class="st4" d="M595.3,695.8c-15.3-17-42.3-7.9-42.3-7.9s-26.8-9.1-42.3,7.9c-15.5,17-19,80.3,42.3,80.3
		S610.8,712.8,595.3,695.8z"/>
	<path class="st2" d="M553.2,782.7c-12.1,0.2-24.1-2.7-34.7-8.9c-8.4-5.2-14.8-12.8-18.7-21.7c-9.6-21.7-4.7-49,6.2-60.8
		c7.4-8.1,18-12.6,30.8-12.6c5.4,0,11.1,0.7,16.5,2.2c5.4-1.5,10.8-2.2,16.2-2.2c12.8,0,23.4,4.4,30.8,12.6
		c10.8,11.8,15.8,39.1,6.2,60.8c-3.9,8.9-10.3,16.5-18.7,21.7C577.1,780,565.2,782.9,553.2,782.7z M536.7,692.1
		c-9.1,0-16,2.7-20.9,8.1c-6.6,7.4-11.6,29.3-3.9,46.5c6.6,14.8,20.9,22.7,41.4,22.7c20.4,0,34.7-7.9,41.4-22.7
		c7.6-17.2,2.7-39.1-3.9-46.5c-4.9-5.4-11.8-8.1-20.9-8.1c-4.9,0-9.6,0.7-14.3,2.2c-1.5,0.5-3,0.5-4.2,0
		C546.3,692.8,541.6,692.1,536.7,692.1z"/>
	<path class="st2" d="M559.6,687.9l-6.6,64.3l-6.6-64.3c-0.5-3.7,2.2-6.9,5.7-7.4c3.7-0.5,6.9,2.2,7.4,5.7v0.2
		C559.6,687.2,559.6,687.7,559.6,687.9z"/>
</g>
</svg>
