<?xml version="1.0" encoding="utf-8"?>
<!-- Generator: Adobe Illustrator 24.0.0, SVG Export Plug-In . SVG Version: 6.00 Build 0)  -->
<svg version="1.1" id="Layer_1" xmlns="http://www.w3.org/2000/svg" xmlns:xlink="http://www.w3.org/1999/xlink" x="0px" y="0px"
	 viewBox="0 0 1200 1200" style="enable-background:new 0 0 1200 1200;" xml:space="preserve">
<style type="text/css">
	.st0{fill:#BE9A71;}
	.st1{fill:#D9A993;}
	.st2{fill:#683A32;}
	.st3{fill:#FFFFFF;}
	.st4{fill:#F78C8B;}
	.st5{fill:#1D1D1B;}
	.st6{fill:#FDAC49;}
	.st7{fill:#191919;}
	.st8{fill:#333333;}
	.st9{fill:#14192C;}
	.st10{fill:#3E3D4F;}
	.st11{fill:#A15225;}
	.st12{fill:#895834;}
	.st13{fill:#1A0A14;}
	.st14{fill:#672E28;}
	.st15{fill:#111B1D;}
	.st16{fill:#EBEBEB;}
	.st17{fill:#494859;}
	.st18{fill:#2F2627;}
	.st19{fill:#C7B6AC;}
	.st20{fill:#E2D9D4;}
	.st21{fill:#D6CDCA;}
	.st22{fill:#674043;}
	.st23{fill:#3D3834;}
	.st24{fill:#E4DACE;}
	.st25{fill:#554E46;}
	.st26{fill:#E8E8E8;}
	.st27{fill:#AEE9FA;}
	.st28{fill:#4D4D4D;}
	.st29{fill:#FDFDFD;}
	.st30{fill:#FAAF5E;}
	.st31{fill:#F8FCFC;}
	.st32{fill:#DBCFB5;}
	.st33{fill:#6D6D6D;}
	.st34{fill:#C69C6D;}
	.st35{fill:#F0B965;}
	.st36{fill:#DA7B45;}
	.st37{fill:#FAE7D6;}
	.st38{fill:#FDF8F2;}
	.st39{fill:#E2C4AA;}
	.st40{fill:#BC8571;}
	.st41{fill:#2F322A;}
	.st42{fill:#444741;}
	.st43{fill:#46282D;}
	.st44{fill:#986858;}
	.st45{fill:#F0C7A2;}
	.st46{fill:#FCE9C8;}
	.st47{fill:#808080;}
	.st48{fill:#4E4E4E;}
	.st49{fill:#E8CBA9;}
	.st50{fill:#956B50;}
</style>
<g>
	<path class="st7" d="M814.5,599.2c-3.2-27.9-9.6-55.4-19.2-82c-4.3-11.5-9.2-22.6-14.9-33.5c-2.1-158.1-53.3-196.2-55.6-197.7
		c-1.3-0.9-2.8-1.3-4-1.1c-7.7,1.3-16.2,7.9-27.1,21.1c-9.6,12.4-18.5,25.4-26.4,38.8c-8.9,14.7-16.8,29.6-22.4,40.1
		c-19.2-3.2-38.8-4.5-58.2-3.6c-19.6-0.9-39.2,0.2-58.6,3.6c-5.5-10.4-13.4-25.1-22.4-40.1c-7.9-13.4-16.6-26.4-26.2-38.8
		c-10.7-13.2-19.4-20-27.1-21.1c-1.5-0.2-3,0.2-4,1.1c-2.1,1.5-53.7,39.8-55.6,198.8c-5.5,10.4-10.4,21.3-14.5,32.6
		c-9.6,26.4-16,53.9-19.2,82c-3.8,30.5-4.5,61.2-1.9,91.6c0.2,3.2,3,5.3,6.2,5.1c3-0.2,5.1-2.8,5.1-5.8h437c0,3,2.1,5.3,5.1,5.5h0.6
		c3,0,5.3-2.1,5.5-5.1C819,660.3,818.4,629.7,814.5,599.2z"/>
	<path class="st3" d="M758.5,464.7c0,0,2.6-130.8-44.5-150.9c0,0-9.2,0.2-58,86.1L758.5,464.7z"/>
	<path class="st3" d="M414.6,464.7c0,0-2.6-130.8,44.5-150.9c0,0,9.2,0.2,58,86.1L414.6,464.7z"/>
	<path class="st3" d="M588,408.5c0,0,0.2,1.3,0.4,3.6c0.2,1.3,0.2,2.6,0.4,4.3c0.2,1.7,0.4,3.4,0.6,5.5s0.4,4.3,0.6,6.4
		c0.2,2.1,0.4,4.7,0.6,7.2s0.4,5.1,0.6,7.7s0.4,5.3,0.6,7.9c0.2,2.6,0.4,5.3,0.9,8.1c0.2,1.3,0.2,2.6,0.4,3.8
		c0.2,1.3,0.2,2.6,0.2,3.8c0,2.3,0,4.9-0.4,7.2c-0.2,2.3-0.6,4.5-0.9,6.4c-0.6,3.2-1.5,6.6-2.6,9.6c-0.4,1.3-0.9,2.1-1.1,2.8
		s-0.4,0.9-0.4,0.9c-0.2,0.2-0.4,0.4-0.9,0.2l0,0c-0.2,0-0.2-0.2-0.2-0.2s-0.2-0.4-0.4-0.9c-0.2-0.4-0.6-1.5-1.1-2.8
		c-1.1-3.2-1.9-6.4-2.6-9.6c-0.4-1.9-0.6-4.3-0.9-6.4c-0.2-2.3-0.4-4.9-0.4-7.2c0-1.3,0-2.6,0.2-3.8c0.2-1.3,0.2-2.6,0.4-3.8
		c0.2-2.6,0.6-5.3,0.9-8.1c0.2-2.8,0.4-5.3,0.6-7.9s0.4-5.1,0.6-7.7s0.4-4.9,0.6-7.2c0.2-2.3,0.4-4.5,0.6-6.4s0.4-3.8,0.6-5.5
		c0.2-1.7,0.2-3,0.4-4.3c0.2-2.3,0.4-3.6,0.4-3.6c0-0.2,0.4-0.4,0.6-0.4C587.8,408.1,588,408.3,588,408.5L588,408.5z"/>
	<path class="st3" d="M718.7,486c0,0-1.9-40.5-56.7-39.2c-4.3,0-8.7,0.4-13,1.1c0.2-2.1-0.6-4.3-2.1-6c-4.5-4.5-15.1-1.3-23.4,7
		c-6.6,6.6-10,14.5-8.9,19.8c-0.4,1.3-0.9,2.6-1.1,4c-16.8-5.3-34.9-5.5-51.8-0.4c-0.2-1.1-0.6-2.3-1.1-3.4
		c1.1-5.3-2.3-13.2-8.9-19.8c-8.5-8.5-19-11.7-23.4-7c-1.5,1.5-2.3,3.6-2.1,6c-4.3-0.6-8.7-0.9-13-1.1
		c-54.8-1.5-56.7,39.2-56.7,39.2c-101.2,26.4-74.8,202.6-74.8,202.6h411.7C793.4,688.7,819.9,512.5,718.7,486z"/>
	<path class="st7" d="M702,575.3c-0.2,0.4-0.4,1.3-0.6,2.3c-0.9,2.8-2.1,5.5-3.6,8.1c-2.1,3.8-4.9,7.2-8.3,10.2
		c-4.3,3.4-9.4,5.8-14.9,6.4c-3.2,0.4-6.4,0.4-9.4,0.2l-2.6-0.2h-0.2h-0.2l-0.6-0.2l-1.3-0.2c-0.9,0-1.7-0.2-2.6-0.4l-1.3-0.2
		l-1.3-0.2c-3.4-0.9-6.6-2.1-9.8-3.8c-3.2-1.7-6.2-4-8.9-6.4c-1.5-1.3-3-2.8-4.5-4c-1.5-1.3-3.2-3-4.9-4.3s-3.4-3-5.5-4.3
		c-1.9-1.5-4-2.6-6.2-3.6c-2.1-1.1-4.5-2.1-6.6-2.8c-1.3-0.4-2.3-0.6-3.4-1.1l-1.7-0.4l-0.9-0.2l-0.9-0.2c-2.8-0.4-5.8-0.9-8.5-1.1
		v-13.8c23.2-4.5,41.1-35.8,41.1-51.1c0-16.6-20.9-23.9-46.7-23.9c-25.8,0-46.7,7.2-46.7,23.9c0,15.3,17.9,46.4,41.1,51.1v13.6
		c-7.7,0.4-15.3,2.3-22.2,5.8c-2.1,1.1-4.3,2.3-6.2,3.6c-1.9,1.3-3.6,2.8-5.5,4.3c-1.9,1.5-3.2,3-4.9,4.5c-1.7,1.5-3,2.8-4.5,4
		c-2.8,2.3-5.8,4.5-8.9,6.4c-3,1.7-6.4,3-9.8,3.8l-1.3,0.4l-1.3,0.2c-0.9,0.2-1.7,0.4-2.6,0.4l-2.3,0.4l-2.8,0.2c-0.4,0-0.9,0-1.3,0
		h-1.3c-0.9,0-1.5,0-2.3,0h-1.1l-1.1-0.2c-0.9,0-1.5,0-2.3-0.2c-5.5-0.6-10.7-3-14.9-6.4c-3.4-2.8-6.2-6.2-8.3-10.2
		c-1.5-2.6-2.6-5.3-3.6-8.1c-0.2-1.1-0.6-1.7-0.6-2.3l-0.2-0.9c0,0,0,0.2,0,0.9c0,0.6,0,1.3,0.2,2.3c0.4,3,1.1,6,2.1,8.7
		c0.6,2.1,1.7,4,2.8,6c1.3,2.3,2.8,4.5,4.7,6.4c0.2,0.4,0.6,0.6,1.1,1.1c1.5,14.3,12.8,69.9,104,69.9l0,0
		c91.2,0,102.5-55.6,104-69.9l1.1-1.1c1.7-1.9,3.4-4,4.7-6.4c1.1-1.9,1.9-3.8,2.8-6c1.1-2.8,1.7-5.8,2.1-8.7
		c0.2-1.1,0.2-1.9,0.2-2.3s0-0.9,0-0.9C702,574.7,702,574.9,702,575.3z"/>
	<path class="st7" d="M989.3,694.2H185.1c-3.2,0.2-5.8-2.1-6-5.3c-0.2-3.2,2.1-5.8,5.3-6c0.2,0,0.4,0,0.6,0h804.1
		c3.2-0.2,5.8,2.1,6,5.3s-2.1,5.8-5.3,6C989.7,694.2,989.5,694.2,989.3,694.2z"/>
	<path class="st7" d="M587.4,735.1L587.4,735.1c-3.2,0-5.8-2.6-5.8-5.5s2.6-5.8,5.5-5.8h0.4c3.2,0,5.5,2.6,5.5,5.8
		C593.2,732.6,590.6,735.1,587.4,735.1L587.4,735.1z"/>
	<path class="st4" d="M634.3,627.1c-15.8-18.8-46.7,0-46.7,0l0,0c0,0-31.1-18.8-46.7,0c-15.6,18.8-33.5,102.3,46.7,102.3
		S649.8,645.8,634.3,627.1z"/>
	<path class="st7" d="M587.4,735.1L587.4,735.1c-37.1,0-53.1-17.3-59.7-31.7c-7.5-16-6.6-33.7-4.7-45.8c2.3-14.1,7.5-27.1,13.4-34.3
		c5.8-6.8,14.5-10.7,23.4-10.4c11.5,0,22.6,4.9,27.7,7.7c5.1-2.6,16.2-7.7,27.7-7.7c8.9-0.2,17.7,3.6,23.4,10.4
		c6,7.2,11.1,20.2,13.4,34.3c1.9,11.9,2.8,29.6-4.7,45.8C640.5,717.9,624.7,734.9,587.4,735.1z M559.7,624.3
		c-5.5-0.2-11.1,2.1-14.7,6.4c-8.7,10.7-18.1,44.3-7.2,68c7.9,16.8,24.5,25.4,49.6,25.4s41.8-8.5,49.4-25.1
		c11.1-23.4,1.7-57.3-7.2-68c-3.6-4.3-9.2-6.6-14.7-6.4c-12.1,0-24.5,7.5-24.7,7.5c-1.7,1.1-4,1.1-6,0
		C584.4,631.8,571.8,624.3,559.7,624.3L559.7,624.3z"/>
	<path class="st3" d="M393.3,701c0,0,7.5,21.3,26.2,10c18.8-11.3,14.7-31.3,11.3-43c-3.4-11.7-19.6-57.7-75.9-49.6
		c-56.5,8.1-66.1,54.3-60.7,86.5c5.3,32.2,30.3,22.6,30.3,22.6c9.4-2.3,15.8-10.9,15.6-20.5c0,0,3.4,31.3,31.7,22.4
		C400.1,720.4,392.4,706.8,393.3,701z"/>
	<path class="st7" d="M362.2,736.6L362.2,736.6c-9.2,0-17.7-4.9-22.2-12.8c-3.6,4.5-8.5,7.7-14.1,9.2c-3.2,1.1-6.4,1.5-9.6,1.5
		c-6,0-11.7-1.9-16.4-5.8c-6-4.9-9.8-12.6-11.5-23c-1.9-11.3-4.3-40.3,13-63.9c11.5-15.8,29.2-25.6,52.4-29
		c4.5-0.6,9.2-1.1,13.6-1.1c21.3,0,38.8,7.9,52,23.2c7.7,9.2,13.2,19.8,16.6,31.1c2.6,7.7,3.6,16,2.8,24.1
		c-1.1,10.7-7.2,20.2-16.6,25.6c-3.8,2.6-8.5,4-13.2,4c-4,0-7.9-1.3-11.3-3.6c-2.3,6.4-8.7,13.4-24.5,18.3
		C369.9,736,366,736.6,362.2,736.6z M340,701.5c2.8,0,5.3,2.1,5.5,5.1c0,0.9,2.3,19,16.6,19l0,0c2.6,0,5.3-0.4,7.7-1.3
		c19-6,18.3-12.8,17.9-18.8c-0.2-1.7-0.2-3.4,0-5.1c0.6-3,3.4-5.1,6.6-4.5c1.9,0.4,3.6,1.7,4.3,3.6c0,0,3.6,9.6,10.4,9.6
		c2.6-0.2,5.1-1.1,7.2-2.6c11.3-6.8,14.3-18.5,8.7-36.6c-4.3-14.1-18.1-46.4-57.7-46.4c-4,0-8.1,0.4-11.9,0.9
		c-20,3-35.2,11.1-45,24.5c-14.9,20.2-12.6,45.6-10.9,55.6c2.1,12.8,7.7,19.2,16.6,19.2c2.1,0,4-0.2,6-0.9c0.2,0,0.4-0.2,0.6-0.2
		c6.8-1.7,11.5-8.1,11.3-15.1c0-3,2.3-5.5,5.3-5.5L340,701.5z"/>
	<path class="st3" d="M781.3,701c0,0-7.5,21.3-26.2,10c-18.8-11.3-14.7-31.3-11.3-43c3.4-11.7,19.6-57.7,75.9-49.6
		c56.3,8.1,66.1,54.3,60.7,86.5s-30.3,22.6-30.3,22.6c-9.4-2.3-15.8-10.9-15.6-20.5c0,0-3.4,31.3-31.7,22.4
		C774.5,720.4,782.2,706.8,781.3,701z"/>
	<path class="st7" d="M812.4,736.6c-3.8,0-7.5-0.6-11.1-1.9c-16-4.9-22.2-11.9-24.5-18.3c-3.2,2.3-7.2,3.6-11.3,3.6
		c-4.7-0.2-9.2-1.5-13.2-4c-9.4-5.3-15.6-14.9-16.6-25.6c-0.9-8.1,0.2-16.2,2.8-24.1c3.4-11.5,8.9-22.2,16.6-31.3
		c13.2-15.3,30.7-23.2,52-23.2c4.5,0,9.2,0.4,13.6,1.1c23.2,3.4,40.9,13,52.4,29c17.3,23.7,14.9,52.6,13,63.9
		c-1.7,10.4-5.5,18.1-11.5,23c-4.7,3.8-10.4,5.8-16.4,5.8c-3.2,0-6.4-0.4-9.6-1.5c-5.5-1.5-10.4-4.7-14.1-9.2
		C830.1,731.7,821.6,736.6,812.4,736.6z M781.3,695.5h0.4c2.6,0.2,4.7,2.1,5.1,4.7c0.2,1.7,0.2,3.4,0,5.1c-0.4,6-1.1,12.8,17.9,18.8
		c2.6,0.9,5.1,1.3,7.7,1.3c6,0,10.4-3,13.4-8.9c1.5-3.2,2.6-6.6,3.2-10c0.4-3.2,3.2-5.3,6.4-4.9c2.8,0.4,4.9,2.8,4.9,5.5
		c-0.2,7,4.5,13.2,11.3,15.1l0.9,0.2l0,0c1.9,0.6,4,0.9,6,0.9c8.9,0,14.5-6.4,16.6-19.2c1.7-10,3.8-35.2-10.9-55.6
		c-9.8-13.2-24.9-21.5-45-24.5c-4-0.6-7.9-0.9-11.9-0.9c-39.6,0-53.5,32.6-57.7,46.4c-5.3,18.1-2.6,29.8,8.7,36.6
		c2.1,1.5,4.7,2.3,7.5,2.6c7,0,10.4-9.4,10.4-9.6C776.8,697,779,695.5,781.3,695.5z"/>
	<path class="st7" d="M698,501.8l-0.4-0.4l-0.6-0.4l-0.9-0.6c-0.4-0.2-0.6-0.4-1.1-0.6c-0.9-0.4-1.7-1.1-2.8-1.5
		c-2.1-1.1-4.5-2.1-7-3.2l-4-1.5l-4.3-1.5c-3.6-1.3-7.2-2.3-10.4-3.4l0.4-0.2c1.1-0.6,2.1-1.5,3.4-1.9l0.9-0.4l0.9-0.4
		c0.6-0.2,1.3-0.6,1.9-0.9c0.6-0.2,1.3-0.4,2.1-0.6c0.9-0.2,1.5-0.4,2.1-0.6c0.6-0.2,1.5-0.4,2.1-0.4s1.5-0.2,2.1-0.4l2.1-0.2
		l2.1-0.2c1.3,0,2.6-0.2,3.8-0.2c1.9,0,3.8,0,5.8,0.2c1.3,0.2,2.1,0.2,2.1,0.2c-2.3-1.3-4.9-2.1-7.5-3c-1.3-0.4-2.3-0.6-3.8-1.1
		c-0.6-0.2-1.3-0.2-2.1-0.4l-2.3-0.4c-0.9-0.2-1.5-0.2-2.3-0.4c-0.9-0.2-1.7-0.2-2.3-0.2s-1.7,0-2.6-0.2h-2.6c-0.9,0-1.7,0-2.6,0.2
		l-1.3,0.2l-1.3,0.2c-1.7,0.2-3.4,0.6-5.1,1.1c-0.9,0.2-1.7,0.6-2.3,0.9c-0.6,0.2-1.5,0.6-2.3,0.9c-1.5,0.6-2.8,1.3-4,2.1l-0.9,0.6
		l-0.9,0.6l-1.5,1.1l-0.9,0.6c-1.3,0.4-2.6,1.1-3.6,2.1c-1.7-1.9-3.4-3.8-5.3-5.5c-0.9-0.9-1.9-1.5-2.8-2.3c-0.9-0.9-1.9-1.5-3-2.1
		c-1.9-1.3-4-2.6-6.2-3.6c-2.1-1.1-4.3-2.1-6.6-3c-2.3-0.9-4.5-1.7-6.8-2.3c-1.1-0.4-2.3-0.6-3.4-1.1c-1.1-0.4-2.3-0.6-3.4-0.9
		c-2.3-0.6-4.7-1.1-7-1.5c-2.3-0.4-4.9-0.6-7.2-0.9c-2.3-0.2-4.9-0.4-7.5-0.4h-1.9h-2.1c-1.3,0-2.3,0.2-3.6,0.2
		c-2.3,0.2-4.9,0.4-7.2,0.9c-2.3,0.4-4.7,0.9-7,1.5c-1.3,0.2-2.3,0.6-3.4,0.9c-1.1,0.2-2.3,0.6-3.4,1.1c-2.3,0.6-4.5,1.5-6.8,2.3
		c-2.3,0.9-4.5,1.9-6.6,3c-2.1,1.1-4.3,2.3-6.2,3.6c-1.1,0.6-1.9,1.3-3,2.1c-1.1,0.9-1.9,1.5-2.8,2.3c-1.9,1.7-3.6,3.6-5.3,5.5
		c-1.1-1.1-2.3-1.7-3.6-2.1l-0.9-0.6l-1.5-1.1l-0.9-0.6l-0.9-0.6c-1.3-0.9-2.8-1.5-4-2.1c-0.9-0.2-1.5-0.6-2.3-0.9
		c-0.9-0.2-1.7-0.6-2.3-0.9c-1.7-0.4-3.4-0.9-5.1-1.1l-1.3-0.2l-1.3-0.2c-0.9-0.2-1.7-0.2-2.6-0.2h-2.6c-0.9,0-1.7,0-2.6,0.2
		c-0.9,0.2-1.7,0.2-2.3,0.2s-1.7,0.2-2.3,0.4l-2.1,0.4c-0.6,0.2-1.5,0.2-2.1,0.4c-1.3,0.4-2.6,0.6-3.8,1.1c-2.6,0.9-5.1,1.7-7.5,3
		c0,0,0.9-0.2,2.1-0.2c1.9-0.2,3.8-0.2,5.8-0.2c1.3,0,2.3,0,3.8,0.2l1.9,0.2l2.1,0.2c0.6,0.2,1.5,0.2,2.1,0.4
		c0.6,0.2,1.5,0.2,2.1,0.4c0.6,0.2,1.5,0.4,2.1,0.6c0.6,0.2,1.3,0.4,2.1,0.6c0.9,0.2,1.3,0.4,1.9,0.9l0.9,0.4l0.9,0.4
		c1.3,0.6,2.3,1.3,3.4,1.9l0.4,0.2c-3.2,1.1-6.8,2.1-10.4,3.4l-4.3,1.5l-4,1.5c-2.6,1.1-5.1,2.1-7,3.2c-1.1,0.4-1.9,1.1-2.8,1.5
		c-0.4,0.2-0.9,0.4-1.1,0.6l-0.9,0.6l-0.6,0.4l-0.4,0.4l-0.4,0.4l0.4-0.2l0.6-0.2l0.9-0.2c0.4-0.2,0.6-0.2,1.1-0.2l1.3-0.2
		c0.9-0.2,1.9-0.2,3-0.4c2.1-0.2,4.7-0.4,7.5-0.6c1.3,0,2.8-0.2,4.3-0.2s3,0,4.3,0c5.8,0,11.7,0.2,16,0.6l3.4,0.2
		c0.6,0.6,1.5,0.9,2.3,1.3l-0.4,1.5l-0.2,0.9l-0.2,0.6c-0.2,0.9-0.4,1.9-0.9,2.8l-0.9,2.6l-0.9,2.6c-0.2,0.9-0.6,1.7-1.1,2.6
		c-1.3,3.2-3,6.2-4.7,9.2c-1.5,2.8-3.4,5.5-5.1,8.1c-1.7,2.6-3.6,4.9-5.3,7c-3,3.6-6.4,7.2-9.8,10.4c-3,2.8-5.3,4.9-6.8,6.2
		c-1.5,1.3-2.6,2.1-2.6,2.1l0.9-0.4c0.4-0.2,1.3-0.6,2.1-1.3s2.1-1.3,3.4-2.1c1.3-0.9,3-1.9,4.5-3c4-2.8,7.9-6,11.5-9.4
		c4.7-4.5,8.9-9.2,12.8-14.5c2.1-3,4.3-6.2,6-9.6c0.4-0.9,0.9-1.7,1.3-2.6l1.3-2.8l1.3-3c0.4-0.9,0.6-1.9,1.1-2.8l0.2-0.4l0,0v-0.2
		v-0.2l0.2-0.6l0.4-1.3c0.2-0.4,0.2-0.9,0.4-1.3l0.6-1.3c0.2-0.4,0.4-0.9,0.6-1.3l0.6-1.3c0.4-0.9,1.1-1.5,1.5-2.3
		c2.1-3,4.7-5.8,7.7-8.3c0.6-0.6,1.5-1.3,2.3-1.7c0.4-0.2,0.9-0.6,1.3-0.9l1.3-0.9c1.7-1.1,3.4-2.1,5.3-3c3.8-1.7,7.7-3.2,11.7-4.5
		s8.3-2.1,12.6-2.8c2.1-0.4,4.3-0.6,6.4-0.9c1.1-0.2,2.1-0.2,3.2-0.2h1.5h1.7c2.1,0,4.3,0.2,6.4,0.2c2.1,0,4.3,0.4,6.4,0.9
		c4.3,0.6,8.5,1.5,12.6,2.8c4,1.1,7.9,2.6,11.7,4.5c3.6,1.7,7,3.8,10,6.4c3,2.3,5.5,5.1,7.7,8.3c0.4,0.9,1.1,1.5,1.5,2.3l0.6,1.3
		c0.2,0.4,0.4,0.9,0.6,1.3l0.6,1.1c0.2,0.4,0.4,0.9,0.6,1.3l1.1,2.8c2.6,7.5,6.2,14.3,10.9,20.7c3.8,5.3,8.1,10,12.8,14.5
		c3.6,3.4,7.5,6.4,11.5,9.4c1.7,1.3,3.2,2.1,4.5,3c1.3,0.9,2.6,1.5,3.4,2.1c0.9,0.6,1.7,0.9,2.1,1.3l0.9,0.4c0,0-0.9-0.6-2.6-2.1
		c-1.7-1.5-4-3.4-7-6.2c-3.4-3.4-6.6-6.8-9.8-10.4c-1.7-2.1-3.6-4.5-5.3-7c-1.7-2.6-3.6-5.1-5.1-8.1c-1.7-3-3.2-6.2-4.7-9.2
		c-0.2-0.9-0.6-1.7-1.1-2.6l-0.9-2.6l-0.9-2.6c-0.2-0.9-0.4-1.7-0.9-2.8l-0.9-3c0.9-0.2,1.7-0.6,2.3-1.3l3.4-0.2
		c4.3-0.2,10.2-0.6,16-0.6c1.5,0,3,0,4.3,0s2.8,0,4.3,0.2c2.8,0.2,5.3,0.2,7.5,0.6c1.1,0.2,2.1,0.2,3,0.4l1.3,0.2
		c0.4,0,0.6,0.2,1.1,0.2l0.9,0.2l0.6,0.2l0.4,0.2H698z"/>
	<path class="st7" d="M593.2,627.1l-5.5,87.6l-5.5-87.6c-0.2-3.2,2.1-5.8,5.3-6c3.2-0.2,5.8,2.1,6,5.3l0,0
		C593.2,626.5,593.2,626.9,593.2,627.1z"/>
</g>
</svg>
