<?xml version="1.0" encoding="utf-8"?>
<!-- Generator: Adobe Illustrator 24.0.0, SVG Export Plug-In . SVG Version: 6.00 Build 0)  -->
<svg version="1.1" id="Layer_1" xmlns="http://www.w3.org/2000/svg" xmlns:xlink="http://www.w3.org/1999/xlink" x="0px" y="0px"
	 viewBox="0 0 1200 1200" style="enable-background:new 0 0 1200 1200;" xml:space="preserve">
<style type="text/css">
	.st0{fill:#BE9A71;}
	.st1{fill:#D9A993;}
	.st2{fill:#683A32;}
	.st3{fill:#FFFFFF;}
	.st4{fill:#F78C8B;}
	.st5{fill:#1D1D1B;}
	.st6{fill:#FDAC49;}
	.st7{fill:#191919;}
	.st8{fill:#333333;}
	.st9{fill:#14192C;}
	.st10{fill:#3E3D4F;}
	.st11{fill:#A15225;}
	.st12{fill:#895834;}
	.st13{fill:#1A0A14;}
	.st14{fill:#672E28;}
	.st15{fill:#111B1D;}
	.st16{fill:#EBEBEB;}
	.st17{fill:#494859;}
	.st18{fill:#2F2627;}
	.st19{fill:#C7B6AC;}
	.st20{fill:#E2D9D4;}
	.st21{fill:#D6CDCA;}
	.st22{fill:#674043;}
	.st23{fill:#3D3834;}
	.st24{fill:#E4DACE;}
	.st25{fill:#554E46;}
	.st26{fill:#E8E8E8;}
	.st27{fill:#AEE9FA;}
	.st28{fill:#4D4D4D;}
	.st29{fill:#FDFDFD;}
	.st30{fill:#FAAF5E;}
	.st31{fill:#F8FCFC;}
	.st32{fill:#DBCFB5;}
	.st33{fill:#6D6D6D;}
	.st34{fill:#C69C6D;}
	.st35{fill:#F0B965;}
	.st36{fill:#DA7B45;}
	.st37{fill:#FAE7D6;}
	.st38{fill:#FDF8F2;}
	.st39{fill:#E2C4AA;}
	.st40{fill:#BC8571;}
	.st41{fill:#2F322A;}
	.st42{fill:#444741;}
	.st43{fill:#46282D;}
	.st44{fill:#986858;}
	.st45{fill:#F0C7A2;}
	.st46{fill:#FCE9C8;}
	.st47{fill:#808080;}
	.st48{fill:#4E4E4E;}
	.st49{fill:#E8CBA9;}
	.st50{fill:#956B50;}
</style>
<g>
	<path class="st32" d="M519.2,354.3c0,0-20.1-9.7-26.6,5.2c-6.5-14.9-26.6-5.2-26.6-5.2c-299.4,17.9-218.5,336.2-218.5,336.2h490.6
		C738.2,690.5,818.8,372.2,519.2,354.3z"/>
	<path class="st7" d="M738.2,696.9c-0.5,0-1,0-1.5-0.2c-3.5-1-5.5-4.5-4.7-7.9l0,0l0,0c6.2-28.3,9.7-57.1,9.7-86.2
		c0.2-44.4-7-108-43.4-158.1c-37-50.6-97.3-79-179-83.7c-0.7,0-1.7-0.2-2.5-0.7c-2.2-1-9.4-3.5-13.9-2c-1.7,0.7-3,2-3.7,3.7
		c-1.5,3.2-5.2,4.7-8.7,3.2c-1.5-0.7-2.7-1.7-3.2-3.2c-0.7-1.7-2-3-3.7-3.7c-4.7-1.7-11.9,0.7-13.9,2c-0.7,0.2-1.7,0.5-2.5,0.7
		c-81.7,5-142,33-179,83.9c-36.7,50.2-43.9,113.7-43.4,158.4c0.2,28.8,3.5,57.6,9.7,85.9c1,3.5-0.7,7.2-4.2,8.2
		c-3.5,1-7.2-0.7-8.2-4.2c0-0.2-0.2-0.5-0.2-0.7c-6.7-29.3-9.9-59.1-10.2-88.9c-0.5-27.8,2.5-55.6,8.7-82.7
		c6.7-30,19.4-58.3,37.2-83.4c39.5-53.9,102.5-83.7,187.7-89.1c3.7-1.5,13.9-5.2,22.8-1.7c1.7,0.7,3.5,1.7,5.2,3
		c1.5-1.2,3.2-2.2,5.2-3c8.9-3.5,19.4,0.2,22.8,1.7c85.2,5.5,148.5,35.3,187.7,89.1c17.9,25.1,30.5,53.4,37.2,83.4
		c6.2,27.1,9.2,54.9,8.7,82.7c0,29.8-3.5,59.8-10.2,88.9C743.6,694.7,741.1,696.9,738.2,696.9z"/>
	<path class="st33" d="M539.8,456.8c0,0-12.7-64.6,49.4-51.4c62.1,13.2,70.5,87.4-12.2,94.8S539.8,456.8,539.8,456.8z"/>
	<path class="st33" d="M446.2,456.8c0,0,12.7-64.6-49.4-51.4c-62.1,13.2-70.5,87.4,12.2,94.8S446.2,456.8,446.2,456.8z"/>
	<path class="st33" d="M707.4,572.3c-11.2-78.5-45.4-79.4-74.2-67.5c-28.6,11.9-57.6,3.2-61.3-16.1c-3-16.9-30.8-53.4-78.7-53.4
		h-0.5c-47.9,0-75.7,36.5-78.7,53.4c-3.7,19.6-32.5,28.3-61.3,16.1c-28.8-11.9-62.8-10.9-74.2,67.5
		c-11.4,78.5,63.3,118.2,63.3,118.2h302.1C644.1,690.5,718.5,651,707.4,572.3z"/>
	<path class="st7" d="M644.1,696.9c-3.5,0-6.5-3-6.5-6.5c0-2.5,1.2-4.5,3.5-5.7c12.9-7.4,24.6-17.1,34.3-28.6
		c21.4-24.6,30-52.4,25.6-82.9c-5-34.3-14.6-55.9-28.8-63.8c-9.4-5.5-21.4-5-36.5,1.5c-18.9,7.9-39.5,7.9-53.9,0.2
		c-8.4-4.2-14.4-11.9-16.4-21.4c-1.2-7-8.2-18.9-20.4-29.3c-14.6-12.4-33-19.1-52.1-18.9h-0.5c-19.1-0.2-37.5,6.5-52.1,18.9
		c-12.2,10.2-19.1,22.3-20.4,29.3c-2,9.2-7.9,17.1-16.4,21.4c-14.4,7.7-35,7.7-53.9-0.2c-15.1-6.2-27.1-6.7-36.5-1.5
		c-14.2,8.2-23.8,29.5-28.8,63.8c-4.5,30.5,4.5,58.6,25.8,83.4c9.7,11.2,21.4,20.6,34.3,28.1c3.2,1.7,4.5,5.7,2.7,8.7
		c-1.7,3.2-5.7,4.5-8.7,2.7c-14.2-8.2-27.1-18.6-37.7-31c-23.8-27.3-33.8-59.6-29-93.8c5.7-39,17.1-63.1,35.3-73.2
		c13.2-7.4,28.8-7.2,47.9,0.7c15.4,6.5,31.8,6.7,42.7,0.7c5-2.5,8.4-7,9.7-12.2c2-11.4,11.9-25.8,24.6-36.7
		c16.9-14.4,38.2-22.1,60.3-21.8h0.5c22.1-0.2,43.4,7.7,60.3,21.8c12.9,10.9,22.6,25.3,24.8,36.7c1.2,5.2,4.7,9.9,9.7,12.2
		c10.9,6,27.3,5.7,42.7-0.7c19.1-7.9,34.8-8.2,47.9-0.7c18.1,10.2,29.5,34.3,35.3,73.2c5,34-5.2,66.5-29,93.8
		c-10.7,12.4-23.6,22.8-37.7,31C646.3,696.7,645.1,696.9,644.1,696.9z"/>
	<circle class="st7" cx="592.2" cy="448.9" r="30.3"/>
	<circle class="st3" cx="601.4" cy="436.2" r="6.2"/>
	<circle class="st7" cx="393.6" cy="448.9" r="30.3"/>
	<circle class="st3" cx="402.7" cy="436.5" r="6.2"/>
	<path class="st33" d="M683.5,356.3c-24.8,7.2-53.6,3.7-74.7-2.5s-13.9,21.1-13.9,21.1c3.7,16.4,63.3,50.9,77.5,60.8
		c14.2,9.9,12.4,51.9,38.2,61.6c25.8,9.7,30.8-7,26.8-21.4c-4-14.4,8.4-47.7,21.8-85.2C772.9,353.3,708.6,349.1,683.5,356.3z"/>
	<path class="st7" d="M724.3,506.7c-5.5-0.2-10.7-1.2-15.6-3.2c-18.1-6.7-24.6-26.1-29.8-41.7c-3-8.7-6-17.9-9.9-20.6
		c-2.7-2-7.9-5.2-13.9-8.9c-34.3-21.8-62.8-41.2-66-55.6c-0.7-3-3.7-16.4,2.5-24.6c3-3.7,7.4-5.7,12.2-5.7c2.5,0,5,0.5,7.4,1.2
		c13.7,4,27.8,6.2,42.2,6.2c9.7,0,19.4-1.2,28.8-3.7c8.7-2.2,17.6-3.5,26.6-3.2c10.4,0,20.6,1.2,30.5,4c11.2,3.2,19.4,8.4,24.1,15.1
		c3.7,5.2,7.2,14.2,2.5,27.1l-2,5.7c-11.2,31.5-22.8,64.1-19.6,75.7c2.7,9.7,1.5,18.9-3,24.8C736.9,504.3,730.7,507,724.3,506.7z
		 M603.3,359.5c-1.5,0-1.7,0.2-1.7,0.5c-1.5,2-1.2,8.7,0,13.4v0.2c0.2,1.5,2.7,7.2,21.8,21.4c12.4,9.4,27.6,19.1,38.7,26.1
		c6.2,4,11.2,7.2,14.4,9.4c7.4,5.2,10.9,15.9,14.6,27.1c4.7,14.2,9.7,29,21.8,33.5c3.5,1.5,7.4,2.2,11.2,2.5c4.5,0,6-1.7,6.2-2.5
		c2-2.7,2.2-7.9,0.7-13.4c-4.2-15.6,6.5-45.7,19.9-83.4l2-5.7c2.2-6.2,2-11.2-1-15.1c-6-8.2-23.1-13.7-43.9-13.7
		c-7.7,0-15.4,0.7-22.8,2.7c-10.7,3-21.6,4.5-32.5,4.5c-15.6,0-31-2.5-45.9-7C605.8,359.8,604.6,359.5,603.3,359.5L603.3,359.5z"/>
	<path class="st33" d="M374.4,353.8c-21.1,6.2-49.7,9.7-74.7,2.5c-25.1-7.2-89.1-3-75.7,34.5c13.4,37.5,25.8,70.8,21.8,85.2
		c-4,14.4,1,30.8,26.8,21.4s24.1-51.4,38.2-61.6c14.2-10.2,74-44.4,77.5-60.8C388.1,374.9,395.5,347.6,374.4,353.8z"/>
	<path class="st7" d="M259,506.7L259,506.7c-6.5,0.2-12.7-2.5-16.6-7.4c-4.5-6-5.7-15.1-3-24.8c3.2-11.7-8.4-44.2-19.6-75.7l-2-5.7
		c-4.5-12.7-1-21.8,2.5-27.1c4.7-6.7,12.9-11.9,24.1-15.1c9.9-2.7,20.1-4,30.5-4c8.9-0.2,17.9,1,26.6,3.2c9.4,2.7,19.1,4,28.8,3.7
		c14.4,0,28.6-2.2,42.2-6.2c2.5-0.7,5-1.2,7.4-1.2c4.7-0.2,9.2,1.7,12.2,5.5c6.2,8.2,3.2,21.6,2.5,24.6c-3.5,14.4-32,33.5-66,55.6
		c-6,3.7-10.9,7-13.9,8.9c-4,3-7,11.9-9.9,20.6c-5.2,15.6-11.7,35-29.8,41.7C269.9,505.5,264.5,506.5,259,506.7z M274.9,360
		c-20.9,0-38,5.5-43.9,13.7c-2.7,4-3.2,8.9-1,15.1l2,5.7c13.7,38,24.3,67.8,19.9,83.4c-1.5,5.7-1.2,10.9,0.7,13.4
		c0.5,0.5,1.7,2.5,6.2,2.5c4-0.2,7.7-1,11.2-2.5c12.4-4.7,17.1-19.4,21.8-33.5c3.7-11.2,7.2-21.8,14.6-27.1
		c3.2-2.2,7.9-5.5,14.4-9.4c11.2-7.2,26.3-16.9,38.7-26.1c18.9-14.2,21.4-19.9,21.8-21.4v-0.2c1.2-4.7,1.5-11.2-0.2-13.4
		c0-0.2-0.5-0.5-1.7-0.5c-1.2,0-2.5,0.2-3.7,0.7c-14.9,4.5-30.3,6.7-45.9,7c-10.9,0-21.8-1.5-32.5-4.5
		C290.3,360.8,282.6,359.8,274.9,360L274.9,360z"/>
	<path class="st7" d="M959.1,698.9H23.6c-3.5,0.2-6.7-2.5-7-6.2c-0.2-3.7,2.5-6.7,6.2-7c0.2,0,0.5,0,0.7,0h935.5
		c3.5-0.2,6.7,2.5,7,6.2s-2.5,6.7-6.2,7C959.6,698.9,959.4,698.9,959.1,698.9z"/>
	<path class="st7" d="M643.6,567.3c-3.2,6.7-8.4,11.9-15.1,14.9c-3.2,1.5-6.7,2.5-10.2,3.2c-3.5,0.7-7.2,1-10.7,1
		c-1.7,0-3.7,0-5.5,0h-2.7l-2.7-0.2h-1.2h-0.5h-0.7l-2.7-0.2c-1,0-1.7-0.2-2.7-0.5l-2.5-0.5c-3.5-0.7-7-1.7-10.2-2.7
		c-3.2-1.2-6.5-2.7-9.4-4.5c-3-1.7-6-3.7-8.7-6c-2.7-2.2-5.7-4.7-8.4-7.2c-3-2.5-6.2-5-9.7-7.2c-3.5-2.2-7.2-4.2-10.9-6
		c-3.7-1.5-7.7-2.7-11.9-3.7l-3.2-1.2c-1-0.2-2-0.2-3-0.5c-2-0.2-4-0.5-6-0.7c-1,0-2-0.2-3-0.2l-3-0.2h-2l-2.2-10.4
		c30.8-1.2,55.4-37,55.4-56.6s-25.6-36-56.9-36s-56.9,16.1-56.9,36c0,18.9,23.3,53.4,52.6,56.4l-2.2,10.7l-2.5,0.2c-1,0-2,0-3,0.2
		c-2,0.2-4,0.5-6,0.7c-1,0.2-2,0.2-3,0.5l-3,0.7c-4,1-7.9,2.2-11.9,3.7c-3.7,1.7-7.4,3.7-10.9,6c-3.2,2.2-6.5,4.7-9.4,7.2
		s-5.7,5-8.4,7.2s-5.7,4.2-8.7,6c-3,1.7-6.2,3.2-9.4,4.5c-3.2,1.2-6.7,2-10.2,2.7l-2.7,0.5c-1,0.2-1.7,0.2-2.7,0.5l-2.7,0.2h-0.7
		h-0.5h-1.5l-2.7,0.2l-2.7,0.2c-1.7,0-3.5,0-5.5,0c-3.5,0-7.2-0.5-10.7-1c-3.5-0.7-7-1.7-10.2-3.2c-3.2-1.5-6.2-3.5-8.7-6
		c-2.7-2.5-4.7-5.5-6.2-8.7c-1.7-3.5-2.7-7-3.2-10.7c-0.2,2-0.2,3.7,0,5.7c0.2,2,0.5,3.7,1.2,5.7c0.5,2,1.2,3.7,2.2,5.5
		c0.2,0.5,0.5,0.7,0.7,1.2s0.5,0.7,0.7,1.2l0.7,1.2c0.2,0.5,0.7,0.7,1,1.2c2.5,3,5.2,5.7,8.7,7.7l-0.7-0.2c-0.5-0.2-1-0.2-1.5-0.5
		c5.5,27.3,29.8,79.4,139.3,76.5c108.2,3,133.3-47.7,139-75.5c3.5-2.2,6.5-4.7,8.9-7.9c0.2-0.5,0.5-0.7,1-1.2l0.7-1.2
		c0.2-0.5,0.5-0.7,0.7-1.2c0.2-0.5,0.5-0.7,0.7-1.2c1-1.7,1.7-3.5,2.2-5.5c0.5-2,1-3.7,1.2-5.7c0.5-2,0.5-3.7,0.5-5.7
		C646.3,560.4,645.3,563.8,643.6,567.3z"/>
	<path class="st7" d="M463.6,402l-12.9-1.7l0,0c0.2-4-1.2-7.7-4-10.4c-4-3.7-13.4-7.7-34.8-4c-3.5,0.7-7-1.7-7.7-5.2
		c-0.7-3.5,1.7-7,5.2-7.7c0,0,0,0,0.2,0c21.6-3.7,37-1.2,46.2,7.4C461.6,386.3,464.6,394,463.6,402z M535.1,400.2L535.1,400.2
		c-0.2-4,1.2-7.7,4-10.4c4.2-3.7,13.4-7.7,34.8-4c3.5,0.5,7-2,7.4-5.5c0.5-3.5-1.7-6.7-5.2-7.2c-21.6-3.7-37-1.2-46.2,7.4
		c-5.7,5.5-8.4,13.4-7.7,21.4L535.1,400.2z"/>
	<path class="st4" d="M549.5,617.7c-21.4-19.1-54.6-0.7-56.6,0.2c-2-1-35.5-19.6-56.6-0.2c-21.8,19.6-22.1,112.2,56.1,113h1
		C571.6,729.9,571.3,637.3,549.5,617.7z"/>
	<path class="st7" d="M493.4,737.1h-1.2c-44.9-0.5-62.6-29-69-46.2c-10.7-27.8-6.5-64.3,8.9-78c7.9-7,18.1-10.7,28.6-10.2
		c11.4,0.2,22.3,3.2,32.5,8.2c10.2-5,21.4-7.7,32.5-8.2c10.4-0.2,20.6,3.5,28.6,10.2c15.1,13.7,19.4,50.2,8.7,78
		c-6.5,17.1-23.8,45.7-69,46.2H493.4z M492.9,724.2h0.5c35.8-0.2,50.9-20.6,57.4-37.7c4.5-12.4,6-25.6,4.5-38.7
		c-1.5-11.4-5.2-20.9-9.9-25.1c-5.5-4.7-12.7-7.2-19.9-7c-14.6,0-28.8,7.7-29.3,8.2c-2,1-4.5,1-6.5,0c-0.5-0.2-14.6-8.2-29.3-8.2
		c-7.2-0.2-14.4,2.2-19.9,7c-4.7,4.2-8.4,13.9-9.9,25.1c-1.5,13.2,0,26.3,4.5,38.7c6.5,17.1,21.6,37.5,57.4,37.7h0.2H492.9z"/>
	<path class="st32" d="M270.9,703.9c0,0,9.9,25.8,32.3,8.9c22.3-16.9,15.9-112.5-76.7-104c-92.6,8.4-70.5,91.9-67,106.8
		c3.5,14.9,34.8,34,49.9-5.2c0,0,0,34.3,35,24.3C279.4,724.7,270.9,703.9,270.9,703.9z"/>
	<path class="st7" d="M232.9,743.3L232.9,743.3c-7.4,0.2-14.9-2.5-20.4-7.9c-2.2-2.2-4-4.7-5.2-7.4c-8.2,10.4-17.6,12.2-23.3,12.2
		c-14.9,0-28.1-11.9-30.5-23.1l-0.2-0.7c-3-11.2-4.5-22.6-4.7-34c-0.2-19.4,4.2-35.8,13.4-48.7c12.9-18.1,34.5-28.6,64.3-31.3
		c4-0.2,7.9-0.5,11.9-0.5c20.9,0,38.7,5.5,52.6,16.1c11.9,9.2,20.9,22.1,25.6,36.5c4,11.9,5.2,24.6,3.7,37
		c-1.7,12.2-6.2,21.6-12.7,26.6c-5.2,4.2-11.4,6.7-18.1,7c-4.7,0-9.4-1.5-13.2-4.5c0,0.2-0.2,0.2-0.2,0.5
		c-4.7,9.2-14.6,15.9-29.5,20.1C241.9,742.6,237.4,743.1,232.9,743.3z M209.6,704.1c3.5,0,6.5,2.7,6.5,6.2c0,0,0,0,0,0.2
		c0,2,0.5,19.6,16.9,19.6l0,0c3.2,0,6.7-0.5,9.7-1.5c10.9-3,18.4-7.7,21.4-13.4c1.5-3,2-6.2,1-9.4c-1.2-3.5,0.5-7.2,4-8.4
		c3.2-1.2,7,0.5,8.2,3.7c0,0,4.2,10.7,11.9,10.7c3.7-0.2,7.4-2,10.4-4.5c7-5.2,11.9-26.6,4.5-49.2c-5.5-16.4-21.4-43.7-66-43.7
		c-3.5,0-7,0.2-10.7,0.5c-25.8,2.2-44.4,11.2-54.9,25.8c-11.9,16.6-14.2,41-6.5,72l0.2,1c1.2,5.2,9.2,13.2,18.1,13.2
		c10.2,0,16.1-10.4,19.6-18.9C204.4,705.6,206.9,704.1,209.6,704.1z"/>
	<path class="st32" d="M714.8,703.9c0,0-9.9,25.8-32.3,8.9c-22.3-16.9-15.9-112.5,76.7-104c92.6,8.4,70.5,91.9,67,106.8
		c-3.5,14.9-34.8,34-49.9-5.2c0,0,0,34.3-35,24.3C706.4,724.7,714.8,703.9,714.8,703.9z"/>
	<path class="st7" d="M753.1,743.3c-4.5,0-8.9-0.7-13.2-2c-14.9-4.2-24.8-10.9-29.5-20.1l-0.2-0.5c-3.7,2.7-8.4,4.5-13.2,4.5l0,0
		c-6.7-0.2-13.2-2.7-18.1-7c-6.5-5-11.2-14.4-12.7-26.6c-1.5-12.4-0.2-25.1,3.7-37c4.7-14.4,13.7-27.1,25.6-36.5
		c13.9-10.7,31.8-16.1,52.6-16.1c3.7,0,7.9,0.2,11.9,0.5c29.8,2.7,51.4,13.2,64.3,31.3c9.2,12.9,13.7,29.3,13.4,48.7
		c-0.2,11.4-2,22.8-4.7,34l-0.2,1c-2.7,11.2-15.6,23.1-30.8,23.1l0,0c-5.7,0-15.1-2-23.3-12.2c-1.2,2.7-3.2,5.2-5.2,7.4
		C768,740.6,760.5,743.6,753.1,743.3z M721,706.1c-1,3.2-0.5,6.5,1,9.4c3,5.7,10.2,10.2,21.1,13.4c3.2,1,6.5,1.5,9.7,1.5
		c4.2,0.2,8.2-1.2,11.2-4c5.7-5.7,5.7-15.6,5.7-15.6c0-3.5,3-6.5,6.5-6.5c2.7,0,5,1.7,6,4.2c3.2,8.7,9.4,18.9,19.6,18.9l0,0
		c8.9,0,16.9-7.9,18.1-13.2l0.2-1c7.7-31,5.5-55.4-6.5-72c-10.7-14.9-29-23.6-54.9-25.8c-3.7-0.2-7.2-0.5-10.7-0.5
		c-44.7,0-60.6,27.3-65.8,43.7c-7.4,22.6-2.5,43.9,4.5,49.2c3,2.5,6.5,4,10.4,4.5c7.7,0,11.9-10.4,11.9-10.7
		c1.5-3.2,5.2-4.7,8.4-3.5C720.5,699.4,722,702.9,721,706.1L721,706.1z"/>
	<path class="st7" d="M499.3,618.2l-6.5,64.8l-6.5-64.8c-0.2-3.5,2.5-6.7,6.2-7c3.5-0.2,6.5,2.2,7,5.7
		C499.3,617.2,499.3,617.7,499.3,618.2z"/>
</g>
</svg>
