<?xml version="1.0" encoding="utf-8"?>
<!-- Generator: Adobe Illustrator 24.0.0, SVG Export Plug-In . SVG Version: 6.00 Build 0)  -->
<svg version="1.1" id="Layer_1" xmlns="http://www.w3.org/2000/svg" xmlns:xlink="http://www.w3.org/1999/xlink" x="0px" y="0px"
	 viewBox="0 0 1200 1200" style="enable-background:new 0 0 1200 1200;" xml:space="preserve">
<style type="text/css">
	.st0{fill:#BE9A71;}
	.st1{fill:#D9A993;}
	.st2{fill:#683A32;}
	.st3{fill:#FFFFFF;}
	.st4{fill:#F78C8B;}
	.st5{fill:#1D1D1B;}
	.st6{fill:#FDAC49;}
	.st7{fill:#191919;}
	.st8{fill:#333333;}
	.st9{fill:#14192C;}
	.st10{fill:#3E3D4F;}
	.st11{fill:#A15225;}
	.st12{fill:#895834;}
	.st13{fill:#1A0A14;}
	.st14{fill:#672E28;}
	.st15{fill:#111B1D;}
	.st16{fill:#EBEBEB;}
	.st17{fill:#494859;}
	.st18{fill:#2F2627;}
	.st19{fill:#C7B6AC;}
	.st20{fill:#E2D9D4;}
	.st21{fill:#D6CDCA;}
	.st22{fill:#674043;}
	.st23{fill:#3D3834;}
	.st24{fill:#E4DACE;}
	.st25{fill:#554E46;}
	.st26{fill:#E8E8E8;}
	.st27{fill:#AEE9FA;}
	.st28{fill:#4D4D4D;}
	.st29{fill:#FDFDFD;}
	.st30{fill:#FAAF5E;}
	.st31{fill:#F8FCFC;}
	.st32{fill:#DBCFB5;}
	.st33{fill:#6D6D6D;}
	.st34{fill:#C69C6D;}
	.st35{fill:#F0B965;}
	.st36{fill:#DA7B45;}
	.st37{fill:#FAE7D6;}
	.st38{fill:#FDF8F2;}
	.st39{fill:#E2C4AA;}
	.st40{fill:#BC8571;}
	.st41{fill:#2F322A;}
	.st42{fill:#444741;}
	.st43{fill:#46282D;}
	.st44{fill:#986858;}
	.st45{fill:#F0C7A2;}
	.st46{fill:#FCE9C8;}
	.st47{fill:#808080;}
	.st48{fill:#4E4E4E;}
	.st49{fill:#E8CBA9;}
	.st50{fill:#956B50;}
</style>
<g>
	<path class="st18" d="M1079.8,828H153.6c-4.5,0-7.9-4.7-7.9-10.1s3.5-10.4,7.9-10.4h925.9c4.5,0,7.9,4.7,7.9,10.4
		C1087.4,823.5,1084.2,828,1079.8,828z"/>
	<path class="st3" d="M782.2,767.9c-39.8,62.8,7.4,76.7,7.4,76.7c10.6,37.4,47,20.3,47,20.3c30.7,12.6,46-20.5,46-20.5
		c36.6,1.2,32.4-51.7,19.3-73.5C887.8,747.6,811.3,721.9,782.2,767.9z"/>
	<path class="st18" d="M918.5,800.3c-1-11.4-4.5-22.5-9.9-32.7c-10.6-17.6-44.8-32.4-74.7-32.4c-10.9-0.2-21.8,2-31.9,6.4
		c-10.6,4.7-19.5,12.6-26,22.5c-15.8,25-20.8,46.3-14.6,63.1c4,10.4,12.1,18.6,22.3,23c5.9,16.8,18.1,26,34.9,26
		c6.2,0,12.4-1.2,18.1-3.5c4.5,1.5,8.9,2.2,13.6,2.5l0,0c20,0,32.2-15.8,36.9-23.5c10.9-0.5,20.5-6.7,25.5-16.1
		C917.7,826.8,919.7,814.1,918.5,800.3z M900.2,828.5c-2.7,5.2-7.9,8.4-13.6,8.7c-1.2-1.7-2.2-3.7-2.7-5.7c0.7-4-1.5-7.7-5.4-8.7
		c-4-0.7-7.7,1.5-8.7,5.4c-1.5,5.7,1.7,12.1,4.7,16.6c-3.5,5.4-11.9,15.6-24,15.6l0,0c-2.2,0-4.2-0.2-6.4-0.7
		c-0.2-3.7-0.2-7.4,0-11.4c0.5-4-2.5-7.4-6.4-7.9c-3.7-0.2-7.2,2.2-7.9,6.2c-0.2,4.5-0.5,8.9-0.2,13.4c-3.5,1-7.2,1.5-10.9,1.7
		c-10.4,0-17.3-5.4-21.3-16.3l0.2-0.5c2-4,4.2-7.7,6.9-10.9c3-2.7,3-7.4,0.2-10.1c-2.7-2.7-7.4-3-10.1-0.2l0,0
		c-3.2,3.5-5.9,7.4-8.2,11.6c-5.2-3-9.2-7.7-11.4-13.4c-4.5-12.1,0-29.4,13.1-50c11.6-18.3,31.2-22.3,45.5-22.3
		c29.2,0,55.9,14.8,62.3,25.5C904.1,788.7,907.8,814.9,900.2,828.5z"/>
	<path class="st3" d="M422.5,767.9c40.1,62.8-7.4,76.7-7.4,76.7c-10.6,37.4-47,20.3-47,20.3c-30.7,12.6-46-20.5-46-20.5
		c-36.6,1.2-32.4-51.7-19.3-73.5C316.6,747.6,393,721.9,422.5,767.9z"/>
	<path class="st18" d="M428.4,764.2c-6.2-9.9-15.1-17.6-25.7-22.5c-10.1-4.5-21-6.7-31.9-6.4c-29.9,0-64.1,14.8-74.7,32.4
		c-5.4,10.1-8.9,21.3-9.9,32.7c-1.5,13.9,0.7,26.5,5.7,35.4c5.2,9.4,14.8,15.6,25.5,16.1c4.7,7.7,16.8,23.5,36.9,23.5l0,0
		c4.7,0,9.2-0.7,13.4-2.5c5.9,2.2,11.9,3.2,18.1,3.5c16.6,0,28.9-9.2,34.9-26c10.1-4.5,18.3-12.9,22.3-23
		C449.2,810.4,444.5,789.1,428.4,764.2z M429.4,821.8c-2.2,5.7-6.2,10.4-11.4,13.4c-2.2-4.2-4.9-8.2-8.2-11.6
		c-3-2.7-7.4-2.7-10.1,0.2c-2.7,3-2.7,7.4,0.2,10.1c2.7,3.5,5.2,7.2,6.9,10.9l0.2,0.5c-4,10.9-10.9,16.3-21.3,16.3
		c-3.7,0-7.2-0.5-10.9-1.7c0.2-4.5,0.2-8.9,0-13.4c-0.7-4-4.5-6.7-8.4-5.9c-3.7,0.5-6.4,4-6.2,7.9c0.2,3.7,0.2,7.4,0,11.4
		c-2,0.5-4.2,0.7-6.4,0.7l0,0c-12.4,0-20.5-10.1-24-15.6c3-4.5,5.9-11.1,4.7-16.6c-0.7-4-4.7-6.4-8.7-5.4c-4,0.7-6.4,4.7-5.4,8.7
		c-0.5,2-1.5,4-2.7,5.7c-5.7-0.2-10.9-3.7-13.6-8.7c-7.7-13.6-4.2-40.1,4.2-53.4c6.4-10.6,33.1-25.5,62.3-25.5
		c14.3,0,33.9,4,45.5,22.3C429.4,792.4,433.8,809.7,429.4,821.8L429.4,821.8z"/>
	<path class="st19" d="M687.9,843.8c-4-18.8-5.2-77.4,0.5-96c1.7-5.4,4.2-10.6,7.7-15.1c-9.4-8.2-19.5-15.6-30.4-22
		c-18.8-11.1-38.3-20.5-59.1-27.7c-38.3,1.7-73.5,40.3-97.7,73c1.5,9.9,2.5,19.5,3,29.4c1.5,36.4,38.6,87.6,71.5,79.2
		c8.4-1.5,17.1-2,25.7-1.2c15.8,3.7,33.4,5.7,50.2,1.7c9.6-2.5,31.2-50,37.8-68.3C696.8,796.8,687.9,843.8,687.9,843.8z"/>
	<path class="st20" d="M633,399.5c0,0-137.3,7.4-153.9,46.3s-43.8,143.7-14.8,198.9s45.3,85.1,47.5,141
		c5.7,148.9,80.2,25.7,94.3,1.7c0,0,14.6,47.5,33.6,53.4c19,5.9,42.1,9.6,42.5,8.9c0.5-0.7,16.6-117.8,33.6-135.8
		c17.1-18.1,91.5-85.3,52.2-219.4C744.6,413.9,660.2,405,633,399.5z"/>
	<path class="st18" d="M552.1,780.7c4,3,10.1,4.2,13.6,0.5c2.5-2.7,2.7-7.2,6.2-8.4l-4.2-6.9c-8.2-1.2-16.6-1.5-24.7-0.5
		C543.9,771.6,547.1,777,552.1,780.7z"/>
	<path class="st21" d="M710.7,608.6c-44.8,11.4-43.5,61.4-64.6,94.7c-15.1,24-61.1,33.4-77.2-0.7c-10.1-21.5-15.1-41.8-19.8-65.1
		c-12.1-60.9-64.1-33.1-83.4,9.9c28,53.2,44,83.4,46,138c5.7,148.9,79.9,25.7,94.3,1.7c0,0,11.1,47.7,32.7,55.9
		c11.9,4.5,43.5,6.4,43.5,6.4c32.4-23.7,16.6-117.8,33.6-135.8c19-20.8,35.4-43.5,48.5-68.3C755.9,624.9,739.4,601.1,710.7,608.6z"
		/>
	<path class="st18" d="M611.2,467.3c-1.7-3.2-1-6.9,1.7-9.2s5.7-3.7,9.2-4.5l14.3-4.5c0.5,7.2,9.2,9.9,14.6,14.6
		c7.4,6.7,8.2,18.1,1.5,25.5c-3.7,4.2-9.4,6.4-15.3,5.9c-1,0-2.2-0.2-3-1c-1-1-1.7-2.2-2.2-3.5C628,480.9,620.9,472.5,611.2,467.3z
		 M757.2,512.6c-0.5-5.9-4.5-12.1-10.4-13.1c-4.5-0.2-8.7,1-12.1,3.7c-6.2,4.5-11.1,10.4-14.3,17.6c4.2-1.2,7.7,3.5,8.7,7.7
		s1.2,8.9,4.5,11.9c3.5,2.5,8.2,2.2,11.6-0.2c3.2-2.7,5.7-5.9,7.4-9.9C755.7,524.5,757.2,518.8,757.2,512.6L757.2,512.6z
		 M525.6,497.2c-1.5-1.7-3.5-3-5.4-4c-5.7-2.2-12.4,2.2-14.6,7.9s-1.5,12.1-0.5,18.1c1,5.9,2.2,12.4,0.5,18.3
		c8.4,2,17.1-2.7,23.7-8.4c3-2.2,5.2-5.2,6.4-8.4C539,512.1,532.3,503.7,525.6,497.2L525.6,497.2z M540,415.6c0,3,1,5.7,2.5,8.2
		c1.5,2,3.5,3.5,5.9,4.5c12.4,4.7,27.7-6.7,26.7-19.8c-0.2-0.7-0.2-1.7-0.5-2.5c-11.1,1.7-23,4-34.4,6.9
		C540.2,413.6,540,414.6,540,415.6L540,415.6z M650.1,653.8c5.9-8.2,9.2-18.1,9.2-28c0.2-2.2-0.5-4.5-2-6.2c-3.5-3-8.7,0.7-13.1,2.2
		c-3.7,1.2-7.7,0.5-11.6,0.7c-4,0.2-8.2,1.7-9.6,5.4c-1.5,4.5,2,8.9,5.4,12.4l13.1,13.1c1.7,1.7,4,3.5,6.2,2.5
		C648.6,655.6,649.3,654.8,650.1,653.8L650.1,653.8z M727,662.2c-0.5-1-1.2-1.7-2-2.5c-7.7-7.7-17.8-12.6-28.4-14.1
		c-10.9-1-22.3,3.2-28.4,12.1c-1,1.2-1.5,2.7-1.5,4.2c0.2,2.5,2.5,4,4.7,5.4l15.6,9.4c4.7,3.2,9.9,5.4,15.3,6.7
		c11.6,1.5,22.5-6.2,25-17.6C727.2,664.7,727.2,663.5,727,662.2L727,662.2z M489.3,646.9c-7.2-2.7-14.3,1.5-20.3,6.7
		c6.9,13.1,13.1,25,18.3,36.4c1.2-1.5,2.5-3.2,3.5-4.7c3.7-6.4,7.4-12.9,8.2-20.3C499.7,657.5,496.2,649.6,489.3,646.9L489.3,646.9z
		"/>
	<path class="st13" d="M657.2,578.4c0,0,7.2-38.1,42.5-39.1c23.5-0.5,41.8,26.2,41.8,26.2s-17.3,38.3-43,39.1
		C672.8,605.3,657.2,578.4,657.2,578.4z"/>
	<path class="st22" d="M726.3,571.2c0.5,15.8-11.9,29.2-27.7,29.4c-15.8,0.5-29.2-11.9-29.4-27.7c-0.5-15.8,11.9-29.2,27.7-29.4l0,0
		C712.6,543,725.8,555.4,726.3,571.2z"/>
	<path class="st15" d="M714.6,571.7c0.2,9.4-7.2,17.3-16.6,17.6s-17.3-7.2-17.6-16.6s7.2-17.3,16.6-17.6l0,0
		C706.5,554.9,714.4,562.3,714.6,571.7z"/>
	<path class="st16" d="M721.1,559.6c0.2,6.7-4.9,12.1-11.6,12.4c-6.7,0.2-12.1-4.9-12.4-11.6c-0.2-6.4,4.9-11.9,11.4-12.4
		C715.4,547.7,720.8,552.9,721.1,559.6L721.1,559.6z"/>
	<path class="st13" d="M583.3,576.4c0,0-9.6-37.6-44.8-36.4c-23.5,1-40.1,28.7-40.1,28.7s19.5,37.4,45.3,36.6
		C569.4,604.6,583.3,576.4,583.3,576.4z"/>
	<path class="st22" d="M572.4,571.7c0.5,15.8-11.9,28.9-28,29.4c-15.8,0.5-28.9-11.9-29.4-28c-0.5-15.8,11.9-28.9,27.7-29.4
		C558.8,543.5,571.9,555.9,572.4,571.7L572.4,571.7z"/>
	<path class="st15" d="M560.8,571.9c0.2,9.4-7.2,17.3-16.6,17.6c-9.4,0.2-17.3-7.2-17.6-16.6c-0.2-9.4,7.2-17.1,16.6-17.6
		C552.6,555.1,560.5,562.5,560.8,571.9L560.8,571.9z"/>
	<path class="st16" d="M567.2,559.8c0.2,6.4-4.9,12.1-11.6,12.1s-12.1-4.9-12.1-11.6c-0.2-6.4,4.9-12.1,11.6-12.1
		C561.5,548.2,566.9,553.4,567.2,559.8L567.2,559.8z"/>
	<path class="st7" d="M699.5,779c-26.2,125.2-49.5,35.9-88.1,5.7c20.8-8.4,54.4-35.6,56.4-71c2.2-40.3-76.7-58.1-114.3-26.5
		c-32.2,27.2,4,74,20,86.8c7.9,6.4,20,11.1,24.5,12.6c-42.1,30.4-57.1,117.5-85.6-5.9c-0.2,0-0.7,0-1,0.2c0,1.5,0.2,3,0.2,4.5
		c5.9,148.7,76.7,29.4,94.3,6.4c16.1,20.3,91,143,94.3-8.4c0-1.5,0.2-3,0.2-4.5C700.3,779,699.8,779,699.5,779z"/>
	<path class="st18" d="M500.9,425.5c0,0,4.2-18.8-46.3,1.2c-50.5,20-87.3,37.6-126.4,49.5c-39.1,11.9-42.3,74-23,113.8
		c19.3,39.8,60.6,93.5,70,119c9.4,25.5,14.6,19.5,36.1-5.4c21.5-25,45.3-75.9,40.6-125.9C447.2,527.7,475.4,447.5,500.9,425.5z"/>
	<path class="st18" d="M714.9,430.2c0,0-5.4-18.8,46.3-1.2s89.6,33.4,129.4,43c39.8,9.6,47.2,72.7,30.4,114s-54.4,98.2-62.1,124.4
		c-7.7,26.2-13.1,20.5-36.4-3.5c-23.3-24-50-74.5-48.7-125.4C775,530.6,741.6,451.2,714.9,430.2z"/>
	<path class="st20" d="M814.1,481.9c9.9,0,19.5,5.9,19.3,13.4c-0.2,7.4-12.1,13.4-21.5,10.9c-1-0.2-1.7-0.5-2.5-1.2
		c-0.5-0.5-0.7-1.2-1-2c-1.2-4.5-1.7-8.9-2-13.4c-0.5-3,1-5.9,3.7-7.2C811.3,481.9,812.6,481.7,814.1,481.9z M795.3,609.1
		c1.5,0.7,3,1,4.5,0.5c12.9-2.7,19.3-15.6,23.7-27c1.2-3,2-6.9-1-8.4c-1.2-0.5-2.7-0.5-4-0.2c-15.3,2.2-27.2,17.1-25.2,31.4
		C793.3,606.6,794,608.1,795.3,609.1z M913,553.9c-4.7,0.5-9.4,1.5-12.4,4.7c-4.2,4.7-3,11.6-1.2,17.3l4.7,17.6
		c0.5,2.7,1.7,5.4,3.5,7.7c0,0,0,0,0.2,0.2c2.2,0.2,4.2,0.2,6.4,0.2c2.5-5.4,4.9-10.9,7.2-15.8c4-10.1,6.4-20.8,7.4-31.7
		C923.2,553.6,918,553.4,913,553.9L913,553.9z M853.9,646.2c-5.4-0.2-10.9,1.2-15.6,4.2c-4.2,3.2-6.4,9.2-4.2,13.9
		c2,3,4.7,5.4,8.2,7.2l21.3,12.6c1.7,1,3.5,1.7,5.2,2.5c4.5-8.7,9.6-18.6,15.1-28.7C875.9,650.4,865.3,646.2,853.9,646.2z"/>
	<path class="st20" d="M380.4,457.2c10.9-4.5,22-8.9,33.9-13.9c5.9,3.2,10.6,8.2,13.6,14.1c3.2,7.4,0.7,17.1-6.7,20.8
		c-5.2,2-10.9,2.2-16.1,0.7c-9.9-2.5-19.3-8.2-23.3-16.8C380.9,460.4,380.7,458.9,380.4,457.2z M294.6,525.9
		c-0.7,6.2-0.7,12.6-0.5,19c1.7-0.5,3.2-1.2,4.7-2c6.2-4,9.4-11.1,8.2-18.3l-2.5,0.2L294.6,525.9z M385.1,580.4
		c-0.2,2.7,1.7,4.9,3,7.2c2.5,4.5,2.7,9.9,0.2,14.6c5.7,2,11.9,0.7,16.3-3.2c4.2-4,5.4-9.9,3.2-15.1c-2.7-5.4-8.7-8.9-14.8-8.7
		C389.6,575.2,385.4,577.1,385.1,580.4L385.1,580.4z M341.8,651.4c8.4,13.1,16.3,25.5,22.8,36.4c4.7,0,9.2-2,12.6-5.2
		c6.4-7.2,3-18.8-4.9-24.5c-7.9-5.7-18.6-6.9-28.7-6.9C342.8,651.1,342.3,651.4,341.8,651.4z"/>
</g>
</svg>
