<?xml version="1.0" encoding="utf-8"?>
<!-- Generator: Adobe Illustrator 24.0.0, SVG Export Plug-In . SVG Version: 6.00 Build 0)  -->
<svg version="1.1" id="Layer_1" xmlns="http://www.w3.org/2000/svg" xmlns:xlink="http://www.w3.org/1999/xlink" x="0px" y="0px"
	 viewBox="0 0 1200 1200" style="enable-background:new 0 0 1200 1200;" xml:space="preserve">
<style type="text/css">
	.st0{fill:#BE9A71;}
	.st1{fill:#D9A993;}
	.st2{fill:#683A32;}
	.st3{fill:#FFFFFF;}
	.st4{fill:#F78C8B;}
	.st5{fill:#1D1D1B;}
	.st6{fill:#FDAC49;}
	.st7{fill:#191919;}
	.st8{fill:#333333;}
	.st9{fill:#14192C;}
	.st10{fill:#3E3D4F;}
	.st11{fill:#A15225;}
	.st12{fill:#895834;}
	.st13{fill:#1A0A14;}
	.st14{fill:#672E28;}
	.st15{fill:#111B1D;}
	.st16{fill:#EBEBEB;}
	.st17{fill:#494859;}
	.st18{fill:#2F2627;}
	.st19{fill:#C7B6AC;}
	.st20{fill:#E2D9D4;}
	.st21{fill:#D6CDCA;}
	.st22{fill:#674043;}
	.st23{fill:#3D3834;}
	.st24{fill:#E4DACE;}
	.st25{fill:#554E46;}
	.st26{fill:#E8E8E8;}
	.st27{fill:#AEE9FA;}
	.st28{fill:#4D4D4D;}
	.st29{fill:#FDFDFD;}
	.st30{fill:#FAAF5E;}
	.st31{fill:#F8FCFC;}
	.st32{fill:#DBCFB5;}
	.st33{fill:#6D6D6D;}
	.st34{fill:#C69C6D;}
	.st35{fill:#F0B965;}
	.st36{fill:#DA7B45;}
	.st37{fill:#FAE7D6;}
	.st38{fill:#FDF8F2;}
	.st39{fill:#E2C4AA;}
	.st40{fill:#BC8571;}
	.st41{fill:#2F322A;}
	.st42{fill:#444741;}
	.st43{fill:#46282D;}
	.st44{fill:#986858;}
	.st45{fill:#F0C7A2;}
	.st46{fill:#FCE9C8;}
	.st47{fill:#808080;}
	.st48{fill:#4E4E4E;}
	.st49{fill:#E8CBA9;}
	.st50{fill:#956B50;}
</style>
<g>
	<path class="st48" d="M993.4,269.1c-38.8,8.6-191.1,104.7-231.4,130.4c-28.6-10.2-64.8-15.1-111.7-15.1
		c-46.9,0-82.8,4.9-111.7,15.1c-40.4-25.8-192.6-121.8-231.4-130.4c-43.5-9.6,7.5,243.4,100.5,343.4
		c-0.3,76.8,48.2,134.6,74.2,171.8c2.6,3.9,4.9,8.1,7,12.2h322.5c1.8-4.4,4.2-8.3,7-12.2c26-37.2,74.2-95,74.2-171.8
		C985.8,512.5,1036.8,259.5,993.4,269.1z"/>
	<path class="st1" d="M412.6,550.3c8.3-24.7,19.5-48.9,35.1-70c10.9-14.8,21.6-31.5,36.7-42.4c-47.6-53.9-177-193.9-172.6-111.7
		c4.9,90.6,54.7,193.2,94,249.9C407.4,567.4,409.4,558.9,412.6,550.3z"/>
	<path class="st1" d="M815.8,438.8c7.3,4.9,13.5,11.2,18.5,18.2c3.4,4.4,6.2,9.1,9.1,13.8c1.3,2.1,2.6,4.4,4.2,6.5
		c0.8,1,1.6,2.3,2.6,3.4l0.5,0.5l1.6,2.1c5.2,6.8,10.7,13.3,15.4,20.6c4.4,6.8,7.5,14.3,9.6,22.1c1.8,7.3,3.1,14.8,3.9,22.4
		c1.3,7.8,3.1,15.6,4.4,23.4c1,4.7,1.8,9.6,2.3,14.3c40.1-54.1,95.5-163.7,101-259.8C993.9,243.6,862.7,385.7,815.8,438.8z"/>
	<path class="st7" d="M1010.8,271.7c-4.2-7.8-10.9-11.2-19-9.6c-39.3,8.6-185.9,101-230.7,129.4c-29.4-9.9-65.3-14.3-110.6-14.3
		s-81.2,4.7-110.6,14.3c-44.8-28.6-191.6-120.8-230.7-129.4c-7.8-1.8-14.8,1.8-19,9.6c-6,11.2-7,32.8-3.4,63.5
		c4.7,33.6,12,66.6,22.1,98.9c23.4,77.1,56.5,141.6,92.2,180.9c0,1,0,2.1,0,3.1c0.8,21.6,4.9,43,12.5,63.3
		c13.8,38.5,36.2,69.2,54.1,94.2c3.1,4.4,6.2,8.6,8.9,12.5c2.3,3.4,4.7,7.3,6.2,11.2c1,2.6,3.6,4.2,6.5,4.2c1,0,2.1-0.3,2.9-0.5
		c3.6-1.6,5.2-5.7,3.6-9.4c-2.1-4.7-4.7-9.4-7.5-13.5c-2.9-3.9-5.7-8.1-8.9-12.5c-34.6-48.2-87-120.8-52.6-217.9
		c39.6-111.7,79.4-158.3,224.1-158.3s184.6,46.6,224.1,158.3c34.4,97.1-18,169.7-52.6,217.9c-3.1,4.4-6.2,8.6-9.1,12.5
		c-2.9,4.2-5.5,8.9-7.5,13.5c-1.6,3.6,0.3,7.8,3.9,9.4c3.4,1.3,7.3-0.3,9.1-3.4c1.8-3.9,3.9-7.5,6.2-11.2c2.6-3.9,5.7-8.1,8.9-12.5
		c18-24.7,40.4-55.7,54.1-94.2c7.5-20.3,11.7-41.7,12.5-63.3c0-1,0-2.1,0-3.1c35.4-39.3,68.5-103.9,92.2-180.9
		c10.2-32.3,17.4-65.3,22.1-98.9C1017.8,304.5,1016.8,283.2,1010.8,271.7z M412.8,545.1c-2.3,6.8-4.4,13.3-6,20.3
		c-38.3-57.5-83.3-155.4-88-239.5c-0.8-11.5,1.8-15.4,2.9-16.4s2.6-1.6,3.9-1.3c7.3,0,31.8,7.3,99.2,76.3
		c17.7,18,34.1,35.9,46.9,50.2C445.9,462,429.2,499.2,412.8,545.1L412.8,545.1z M481.8,424.5c-12.8-14.3-29.2-32.3-46.9-50
		c-18.5-19.3-38.3-37.5-59.1-54.4c-22.1-17.4-38.5-26-50.5-26c-5.5-0.3-10.7,2.1-14.3,5.7c-5.2,5.5-7.3,14.3-6.8,27.1
		c3.4,58.1,24,116.1,40.9,154.6c15.6,36.4,34.9,71.1,57.5,103.6c-0.5,3.1-0.8,6.2-1,9.4c-30.5-38.3-58.6-96.3-79.4-164.3
		c-23.7-77.8-27.9-136.4-19.8-151.8c1.6-2.6,2.3-2.6,3.1-2.3c34.4,7.5,165,89,217.1,122.1c-12.5,5.5-24.2,12.8-35.1,21.1
		C486,420.9,483.9,422.7,481.8,424.5z M887.9,545.1c-16.4-45.8-33.1-83-58.8-110.6c12.8-14.1,29.2-32.3,46.9-50
		c67.7-68.7,91.9-76.3,99.2-76.3c1.6-0.3,2.9,0.3,3.9,1.3c1,1,3.4,4.9,2.9,16.4c-4.7,84.1-49.7,181.7-88,239.5
		C892.4,558.6,890.3,551.8,887.9,545.1L887.9,545.1z M978.3,430.3c-20.8,67.9-48.9,126-79.4,164.3c-0.3-3.1-0.8-6.2-1-9.4
		c22.6-32.5,41.9-67.2,57.5-103.6c16.9-38.5,37.5-96.8,40.9-154.6c0.8-12.8-1.6-21.6-6.8-27.1c-3.6-3.9-8.9-6-14.3-5.7
		c-11.7,0-28.4,8.6-50.5,26c-20.8,16.9-40.4,35.1-59.1,54.4c-17.4,18-34.1,35.9-46.9,50c-2.1-1.8-4.2-3.6-6.2-5.2
		c-10.7-8.6-22.4-15.6-35.1-21.1c52.1-33.1,183-114.3,217.4-122.1c1-0.3,1.8-0.5,3.1,2.3C1006.4,293.8,1002.2,352.4,978.3,430.3
		L978.3,430.3z"/>
	<path class="st49" d="M513.1,796.5h274.4c0,0,115.3-116.9-5.5-180.7c-109.6-58.1-128.9-65.3-131.5-66.1l0,0h-0.3H650l0,0
		c-2.6,0.8-21.9,8.3-131.5,66.1C397.7,679.9,513.1,796.5,513.1,796.5z"/>
	<path class="st49" d="M784.3,616.9c0,0-28.9-13-42.4-40.1c-13.5-27.1-30.5-67.9-91.4-67.9h-0.3c-60.9,0-78.1,40.9-91.4,67.9
		c-13.3,27.1-42.4,40.1-42.4,40.1"/>
	<path class="st7" d="M791.1,547.9c-1.6-0.8-3.1-1.8-4.9-2.6c-1.8-0.8-3.6-1.8-5.5-2.6s-4.2-1.6-6.2-2.3c-2.1-0.8-4.4-1.6-6.8-2.1
		l-3.4-0.8c-1-0.3-2.3-0.5-3.4-0.8c-2.3-0.3-4.7-0.8-6.8-1l-2.9-0.3c0.8-1,1.6-2.1,2.6-3.1c1.3-1.6,2.9-3.1,4.4-4.7
		c1.6-1.6,3.4-3.1,5.2-4.4l1.3-1l1.3-1c1-0.8,1.8-1.3,2.9-1.8l0.8-0.5l0.8-0.5l1.6-0.8c1-0.5,2.1-1,2.9-1.6s2.1-0.8,2.9-1.3l2.9-1
		c1-0.3,1.8-0.5,2.9-0.8c0.5-0.3,0.8-0.3,1.3-0.3l1.3-0.3l1.3-0.3l1.3-0.3c0.8,0,1.6-0.3,2.3-0.3c1.6-0.3,2.9-0.3,3.9-0.3h3.4
		l-3.4-1c-1-0.3-2.3-0.5-3.9-0.8l-2.3-0.3l-1.3-0.3h-1.3h-1.6c-0.5,0-1,0-1.6,0c-1,0-2.1,0-3.1,0s-2.3,0.3-3.4,0.3s-2.3,0.3-3.6,0.5
		s-2.3,0.5-3.6,0.8l-1.8,0.5l-1,0.3l-1,0.3c-1.3,0.3-2.6,0.8-3.6,1.3l-1.8,0.8l-1.8,0.8c-2.3,1-4.7,2.1-7,3.4s-4.4,2.6-6.5,3.9
		c-2.1,1.3-4.2,2.9-6,4.2c-1.8,1.3-3.4,2.9-4.9,4.2s-2.9,2.6-4.2,3.6c-1.3,1-2.3,2.3-3.1,3.1l-0.5,0.5c-2.9-3.9-6.2-7.8-9.6-11.2
		c-1-1-2.1-2.1-3.1-2.9c-1-0.8-2.3-1.8-3.4-2.9c-1-1-2.3-1.8-3.6-2.6c-1.3-0.8-2.3-1.6-3.6-2.3l-1.8-1c-0.8-0.3-1.3-0.8-2.1-1
		l-2.1-1l-1-0.5l-1-0.5c-2.9-1.3-5.5-2.3-8.3-3.4c-5.7-2.1-11.7-3.4-17.7-4.2s-12-1.3-18-1.3h-4.4c-1.3,0-2.9,0.3-4.4,0.3l-2.3,0.3
		c-0.8,0-1.6,0.3-2.3,0.3l-2.3,0.3c-0.8,0-1.6,0.3-2.3,0.3c-6,0.8-12,2.3-17.7,4.4c-2.9,1-5.7,2.1-8.3,3.4l-1,0.5l-1,0.5l-1.6,0.3
		c-0.8,0.3-1.3,0.8-2.1,1l-1.8,1c-4.9,3.1-9.6,6.8-13.8,10.7c-3.6,3.4-6.8,7.3-9.6,11.2l-0.5-0.5c-0.8-0.8-1.8-2.1-3.1-3.1
		c-1.3-1-2.6-2.3-4.2-3.6s-3.1-2.9-4.9-4.2c-1.8-1.3-3.9-2.9-6-4.2c-2.1-1.3-4.2-2.6-6.5-3.9s-4.7-2.3-7-3.4l-1.8-0.8l-1.8-0.8
		c-1.3-0.5-2.6-0.8-3.6-1.3l-1-0.3l-1-0.3l-1.8-0.5c-1.3-0.3-2.3-0.5-3.6-0.8s-2.3-0.3-3.6-0.5s-2.3-0.3-3.4-0.3c-1,0-2.1,0-3.1,0
		c-0.5,0-1,0-1.6,0h-1.6h-1.3l-1.3,0.3l-2.3,0.3c-1.6,0.3-2.9,0.5-3.9,0.8l-3.4,0.8h3.4c1,0,2.3,0.3,3.9,0.3c0.8,0,1.6,0.3,2.3,0.3
		l1.3,0.3l1.3,0.3l1.3,0.3c0.5,0,1,0.3,1.3,0.3c1,0.3,1.8,0.5,2.9,0.8l2.9,1c1,0.5,2.1,0.8,2.9,1.3s2.1,1,2.9,1.6l1.6,0.8l0.8,0.5
		l0.8,0.5c1,0.5,1.8,1.3,2.9,1.8l1.3,1l1.3,1c1.8,1.3,3.4,2.9,4.9,4.4c1.6,1.6,3.1,3.1,4.4,4.7c1,1,1.8,2.1,2.6,3.1l-2.9,0.3
		c-2.3,0.3-4.7,0.5-6.8,1c-1,0.3-2.3,0.5-3.4,0.8l-3.4,0.8c-2.3,0.5-4.4,1.3-6.8,2.1c-2.3,0.8-4.2,1.6-6.2,2.3
		c-2.1,0.8-3.9,1.6-5.5,2.6s-3.4,1.8-4.9,2.6c-3.1,1.8-6.2,3.9-9.4,6.2c0,0,1-0.5,2.9-1c1.8-0.5,4.4-1.3,7.5-2.1
		c1.6-0.3,3.4-0.8,5.2-1c1.8-0.3,3.6-0.5,5.7-0.8c2.1-0.3,4.2-0.3,6.2-0.5c2.1-0.3,4.2,0,6.2,0l3.1,0.3l3.1,0.3
		c2.1,0.3,3.9,0.5,5.7,1c1.8,0.5,3.6,0.8,5.2,1.3l2.3,0.8l2.1,0.8c0.8,0.3,1.3,0.5,1.8,0.8c0.5,0.3,1.3,0.5,1.8,0.8
		c1,0.5,2.1,1,2.9,1.3l1,0.5c-1.6,2.9-2.9,5.7-4.2,8.6c-1,2.1-1.8,4.2-2.6,6.2l-1.3,3.1l-0.3,0.8l-0.3,0.8l-0.8,1.6
		c-0.5,1-0.8,1.8-1.3,2.6c-0.5,0.8-1,1.8-1.3,2.6c-1,1.6-2.1,3.4-3.1,4.9c-2.1,2.9-4.2,5.7-6.5,8.3c-3.9,4.4-8.1,8.6-12.8,12.2
		c-3.9,3.1-7,5.5-9.1,6.8c-2.1,1.3-3.1,2.6-3.1,2.6l1-0.3c0.8-0.3,1.6-0.5,2.9-1c3.6-1.6,7-3.1,10.4-5.2c5.2-3.1,10.4-6.8,14.8-10.7
		c2.9-2.6,5.5-5.2,8.1-8.1c1.3-1.6,2.6-3.1,3.9-4.9c0.8-0.8,1.3-1.8,1.8-2.6s1.3-1.8,1.8-2.9l0.8-1.3l0.3-0.8l0.5-0.8l1.6-2.9
		c1-2.1,2.1-3.9,3.4-6c2.3-3.9,4.4-8.1,7-12l0.3-0.5c2.6-1.6,4.7-4.2,5.2-7.3c0,0,0,0,0-0.3c3.9-5.2,8.1-9.9,13-14.3
		c3.6-3.4,7.8-6.2,12-8.6l1.6-0.8c0.5-0.3,1-0.5,1.6-0.8l1.6-0.8l0.8-0.5l0.8-0.3c2.3-1,4.7-1.8,7-2.6c4.9-1.6,10.2-2.6,15.4-3.4
		l2.1-0.3l2.1-0.3c0.8,0,1.3-0.3,2.1-0.3l1.8-0.3c1.3,0,2.6-0.3,3.9-0.3h4.2c10.7-0.3,21.1,1.3,31.2,4.4c2.3,0.8,4.9,1.8,7,2.6
		l0.8,0.3l0.8,0.5l1.8,0.8c0.5,0.3,1,0.5,1.6,0.8l1.6,1c4.4,2.3,8.3,5.5,12,8.6c4.9,4.2,9.1,9.1,13,14.3c0.5,3.1,2.3,6,5.2,7.5
		c0,0.3,0.3,0.3,0.3,0.5c2.6,3.9,4.9,8.1,7,12c1,2.1,2.1,3.9,3.4,6l1.6,2.9c0.3,0.5,0.5,1,0.8,1.6l0.8,1.6c4.2,7,9.4,13,15.6,18.5
		c4.7,4.2,9.6,7.5,14.8,10.7c3.4,2.1,6.8,3.6,10.4,5.2c1.3,0.5,2.1,1,2.9,1l1,0.3c0,0-1.3-0.8-3.4-2.1c-2.1-1.3-5.5-3.6-9.1-6.8
		c-4.4-3.6-8.9-7.8-12.8-12.2c-4.9-5.5-9.1-11.7-12.2-18.5l-1.3-2.9l-1.3-3.1c-0.8-2.1-1.8-4.2-2.6-6.2c-1.3-2.9-2.6-5.7-4.2-8.6
		l1-0.5c0.8-0.3,1.6-0.8,2.9-1.3c0.5-0.3,1-0.5,1.8-0.8c0.8-0.3,1.3-0.5,1.8-0.8l2.1-0.8l2.3-0.8c1.6-0.5,3.4-1,5.2-1.3
		c1.8-0.3,3.9-0.8,5.7-1l3.1-0.3l3.1-0.3c2.1,0,4.2,0,6.2,0c2.1,0,4.2,0.3,6.2,0.5c2.1,0.3,3.9,0.5,5.7,0.8c1.8,0.3,3.6,0.8,5.2,1
		c3.1,0.8,5.7,1.6,7.5,2.1s2.9,1,2.9,1C797.6,551.8,794.5,549.7,791.1,547.9z"/>
	<path class="st49" d="M743.7,645.8c0,0-2.1,28.9-31.8,25.5c-29.7-3.4-25.8-26.8-61.4-26.8s-32,23.4-61.4,26.8
		c-29.7,3.4-31.8-25.8-31.8-25.8"/>
	<path class="st7" d="M742.1,648.4c-0.3,0.8-0.5,1.8-1,2.9c-0.5,1-1,2.3-1.8,3.6c-1.8,3.1-3.9,5.7-6.8,8.1
		c-3.4,2.6-7.5,4.2-11.7,4.4c-2.3,0.3-4.9,0-7.3-0.3l-1-0.3h-0.5l0,0h-0.3l-2.1-0.5l-1.8-0.5l-1.8-0.5c-2.6-0.8-4.9-2.1-7.3-3.6
		l-0.8-0.5l-0.8-0.5c-0.5-0.5-1-0.8-1.8-1.3c-1-1-2.3-1.8-3.4-3.1c-2.3-2.1-4.9-4.7-7.8-7c-1.6-1.3-3.1-2.3-4.7-3.6
		c-0.8-0.5-1.8-1-2.6-1.6c-1-0.5-1.8-1-2.9-1.3c-1-0.3-1.8-0.8-2.9-1.3c-1-0.5-2.1-0.8-2.9-1c-2.1-0.5-3.9-1-6-1.6
		c-1-0.3-2.1-0.3-3.1-0.5c-0.8,0-1.6-0.3-2.3-0.3l-3.1-25c31.2-2.3,56.2-38.8,56.2-59.4c0-21.3-26.6-30.5-59.4-30.5
		s-59.4,9.1-59.4,30.5c0,20.6,24.7,56.8,56,59.4l-3.1,24.7c-1,0-1.8,0.3-2.9,0.3c-1,0-2.1,0.3-2.9,0.5c-4.2,0.8-8.1,1.8-11.7,3.6
		c-1,0.5-1.8,0.8-2.9,1.3c-0.8,0.5-1.8,1-2.6,1.6c-1.6,1-3.1,2.3-4.7,3.6c-3.1,2.3-5.5,4.9-7.8,7c-1.3,1-2.3,2.1-3.4,3.1
		c-0.5,0.5-1,0.8-1.8,1.3l-1,1l-0.8,0.5c-2.3,1.6-4.7,2.6-7.3,3.4c-0.8,0.3-1.3,0.5-1.8,0.5l-2.1,0.5l-2.1,0.5H588h-0.5l-1,0.3
		l-1,0.3h-0.8c-0.5,0-1.3,0-1.8,0c-1.3,0-2.3,0-3.6,0c-4.2-0.3-8.3-1.8-11.7-4.4c-2.9-2.1-4.9-4.9-6.8-8.1c-0.8-1.3-1.3-2.3-1.8-3.6
		c-0.5-1-0.8-2.1-1-2.9c-0.5-1.6-0.8-2.6-0.8-2.6c0,0.8,0,1.8,0,2.6c0,2.6,0.5,4.9,1.3,7.5c0.5,1.8,1,3.6,1.8,5.2
		c1,2.1,2.1,3.9,3.6,5.7c0.8,1,1.6,1.8,2.6,2.6c0.8,14.6,9.9,52.8,83.8,52.8h0.3c73.9,0,83-38,83.8-52.8c1-0.8,1.8-1.8,2.6-2.6
		c1.6-1.8,2.6-3.6,3.6-5.7c0.8-1.6,1.6-3.4,1.8-5.2c0.8-2.3,1-4.9,1.3-7.5c0-0.8,0-1.8,0-2.6C743.2,646.6,742.7,647.6,742.1,648.4z"
		/>
	<path class="st4" d="M693.7,701.8c-15.9-14.6-43.2-6.8-43.2-6.8s-27.6-7.8-43.2,6.5c-15.6,14.3-19.5,68.2,43.2,68.2
		S709.3,716.1,693.7,701.8z"/>
	<path class="st7" d="M650.5,777c-39,0-52.3-19.5-57-31c-7.5-19-1.3-40.1,8.9-49.5c7.5-7,18.5-10.7,31.2-10.7
		c5.7,0,11.2,0.8,16.7,1.8c5.5-1.3,11.2-1.8,16.7-1.8c13,0,23.7,3.6,31.2,10.7c10.2,9.4,16.4,30.5,8.9,49.5
		C702.8,757.5,689.3,777,650.5,777z M633.6,700.2c-9.4,0-16.7,2.3-21.6,6.8c-5.5,5.2-10.7,20-5.2,33.8c5.7,14.3,20.8,22.1,43.7,22.1
		c22.9,0,38-7.5,43.7-22.1c5.5-13.8,0.3-28.6-5.2-33.8c-4.9-4.7-12.2-6.8-21.6-6.8c-4.9,0-9.9,0.5-14.8,1.8c-1.3,0.3-2.6,0.3-3.9,0
		C643.5,700.7,638.5,700.2,633.6,700.2z"/>
	<path class="st7" d="M657.5,695l-7,50l-7-50c-0.5-3.9,2.1-7.5,6-8.1s7.5,2.1,8.1,6C657.5,693.7,657.5,694.2,657.5,695z"/>
	<path class="st7" d="M1147.2,804.1h-996c-3.9-0.3-7-3.6-6.8-7.5c0.3-3.6,3.1-6.5,6.8-6.8H1147c3.9,0.3,7,3.6,6.8,7.5
		C1153.7,801,1150.9,803.8,1147.2,804.1z"/>
	<path class="st49" d="M449.5,802.8c0,0,6.5,21.9,28.1,11.2c21.6-10.7,28.6-118.7-75.8-101.3c-104.4,17.4-63,122.4-40.6,121.8
		c22.4-0.5,26.6-13.8,29.4-24.7c0,0,1.3,30.2,31.8,23.4C455.3,826.2,449.5,802.8,449.5,802.8z"/>
	<path class="st7" d="M361,841.8c-7.8,0-15.9-6.2-22.6-17.7c-6.2-11.2-10.2-23.7-11.2-36.4c-1.8-17.7,2.9-35.1,13.3-49.5
		c12.5-16.7,32.8-27.3,60.1-32c7.5-1.3,15.1-2.1,22.9-2.1c37.7,0,64,19.5,71.9,53.6c6.2,26.6-0.8,56-14.8,63
		c-4.4,2.3-9.1,3.6-14.1,3.6c-4.4,0-9.1-1.3-12.8-3.9c-0.5,0.8-0.8,1.8-1.6,2.6c-5.2,8.6-14.8,14.6-28.4,17.7
		c-3.4,0.8-6.8,1-10.2,1.3l0,0c-9.6,0.3-18.7-4.2-24.2-12.2C384.7,836.1,376.4,841.8,361,841.8L361,841.8z M423.5,718.2
		c-6.8,0-13.8,0.8-20.6,1.8c-57.8,9.9-63.3,45.8-61.7,66.4c0.8,10.7,4.2,21.1,9.4,30.5c4.7,8.1,9.1,10.7,10.2,10.7l0,0
		c17.4-0.3,20-9.6,22.9-19.5c1-3.9,4.9-6,8.9-4.9c2.9,0.8,5.2,3.4,5.2,6.5c0.3,3.4,1,6.5,2.6,9.6c2.3,5.2,7.8,8.3,13.5,7.8l0,0
		c2.3,0,4.7-0.3,7-0.8c9.6-2.1,16.1-6,19.3-11.2c2.1-3.4,2.9-7,2.1-10.9c-1-3.9,1.3-7.8,4.9-8.9c3.9-1,7.8,1.3,8.9,4.9
		c0,0.3,3.1,9.1,10.4,9.1c2.6,0,5.5-0.8,7.8-2.1c1.8-1,5.5-5.7,7.5-15.4c2.1-10.4,2.1-21.3-0.3-31.8
		C478.2,744.7,465.7,718.2,423.5,718.2L423.5,718.2z"/>
	<path class="st49" d="M851.2,802.8c0,0-6.5,21.9-28.1,11.2c-21.6-10.7-28.6-118.7,75.8-101.3c104.4,17.4,63,122.4,40.6,121.8
		s-26.6-13.8-29.7-24.7c0,0-1.3,30.2-31.8,23.4C845.5,826.2,851.2,802.8,851.2,802.8z"/>
	<path class="st7" d="M939.7,841.8L939.7,841.8c-15.4-0.3-23.7-5.7-28.9-12.5c-5.5,7.8-14.6,12.5-24,12.2c-3.4,0-6.8-0.5-10.2-1.3
		c-13.5-3.1-22.9-9.1-28.4-17.7c-0.5-0.8-1-1.8-1.3-2.6c-3.9,2.6-8.3,3.9-12.8,3.9c-4.9,0-9.6-1.3-14.1-3.6
		c-14.1-7-21.1-36.4-14.8-63c7.8-34.1,34.1-53.6,71.9-53.6c7.5,0,15.4,0.8,22.9,2.1c27.6,4.7,47.6,15.4,60.1,32
		c10.4,14.3,15.1,32,13.3,49.5c-1,12.8-4.9,25.3-11.2,36.4C955.6,835.6,947.5,841.8,939.7,841.8z M910.1,803c3.1,0,6,2.1,6.8,5.2
		c2.6,9.9,5.2,19,22.9,19.5c1.3,0,5.5-2.6,10.4-10.7c5.2-9.4,8.6-19.8,9.4-30.5c1.8-20.6-3.9-56.8-61.7-66.4
		c-6.8-1.3-13.5-1.8-20.6-1.8c-41.9,0-54.4,26.8-58.1,42.7c-2.3,10.4-2.6,21.1-0.3,31.8c2.1,9.6,5.7,14.3,7.5,15.4
		c2.3,1.3,5.2,2.1,7.8,2.1c7.5,0,10.4-9.1,10.4-9.1c1-3.6,4.9-6,8.9-4.9c3.6,1,6,4.9,4.9,8.6c-0.5,3.1,0,6.2,1,8.9
		c2.9,6.2,9.6,10.9,20.3,13.3c2.3,0.5,4.7,0.8,7,0.8c5.7,0.5,11.2-2.9,13.5-8.3c1.3-2.9,2.3-6,2.6-9.4c0.3-3.4,2.9-6.5,6.2-6.8
		L910.1,803z"/>
	
		<ellipse transform="matrix(0.3451 -0.9386 0.9386 0.3451 -81.38 848.3707)" class="st49" cx="567.2" cy="482.5" rx="20.6" ry="26.8"/>
	<path class="st49" d="M758.8,473.2c-3.9-10.7-18.5-15.1-32.3-9.9c-14.1,5.2-22.1,18-18.2,28.4c3.9,10.4,18.5,15.1,32.3,9.9
		C754.4,496.4,762.7,483.9,758.8,473.2z"/>
</g>
</svg>
