<?xml version="1.0" encoding="utf-8"?>
<!-- Generator: Adobe Illustrator 24.0.0, SVG Export Plug-In . SVG Version: 6.00 Build 0)  -->
<svg version="1.1" id="Layer_1" xmlns="http://www.w3.org/2000/svg" xmlns:xlink="http://www.w3.org/1999/xlink" x="0px" y="0px"
	 viewBox="0 0 1200 1200" style="enable-background:new 0 0 1200 1200;" xml:space="preserve">
<style type="text/css">
	.st0{fill:#BE9A71;}
	.st1{fill:#D9A993;}
	.st2{fill:#683A32;}
	.st3{fill:#FFFFFF;}
	.st4{fill:#F78C8B;}
	.st5{fill:#1D1D1B;}
	.st6{fill:#FDAC49;}
	.st7{fill:#191919;}
	.st8{fill:#333333;}
	.st9{fill:#14192C;}
	.st10{fill:#3E3D4F;}
	.st11{fill:#A15225;}
	.st12{fill:#895834;}
	.st13{fill:#1A0A14;}
	.st14{fill:#672E28;}
	.st15{fill:#111B1D;}
	.st16{fill:#EBEBEB;}
	.st17{fill:#494859;}
	.st18{fill:#2F2627;}
	.st19{fill:#C7B6AC;}
	.st20{fill:#E2D9D4;}
	.st21{fill:#D6CDCA;}
	.st22{fill:#674043;}
	.st23{fill:#3D3834;}
	.st24{fill:#E4DACE;}
	.st25{fill:#554E46;}
	.st26{fill:#E8E8E8;}
	.st27{fill:#AEE9FA;}
	.st28{fill:#4D4D4D;}
	.st29{fill:#FDFDFD;}
	.st30{fill:#FAAF5E;}
	.st31{fill:#F8FCFC;}
	.st32{fill:#DBCFB5;}
	.st33{fill:#6D6D6D;}
	.st34{fill:#C69C6D;}
	.st35{fill:#F0B965;}
	.st36{fill:#DA7B45;}
	.st37{fill:#FAE7D6;}
	.st38{fill:#FDF8F2;}
	.st39{fill:#E2C4AA;}
	.st40{fill:#BC8571;}
	.st41{fill:#2F322A;}
	.st42{fill:#444741;}
	.st43{fill:#46282D;}
	.st44{fill:#986858;}
	.st45{fill:#F0C7A2;}
	.st46{fill:#FCE9C8;}
	.st47{fill:#808080;}
	.st48{fill:#4E4E4E;}
	.st49{fill:#E8CBA9;}
	.st50{fill:#956B50;}
</style>
<g>
	<path class="st23" d="M1140.1,832H267.2c-4.1,0-7.5-4.3-7.5-9.7c0-5.3,3.4-9.7,7.5-9.7h872.9c4.2,0,7.5,4.3,7.5,9.7
		S1144.3,832,1140.1,832z"/>
	<path class="st3" d="M525.8,771.7c41.4,65.1-7.8,79.6-7.8,79.6c-11,38.7-48.8,21-48.8,21c-31.9,13-47.8-21.2-47.8-21.2
		c-37.8,1.4-33.7-53.6-20.1-76C416.3,750.7,495.5,724.1,525.8,771.7z"/>
	<path class="st23" d="M532.1,767.7c-6.4-10.2-15.7-18.4-26.7-23.3c-10.4-4.6-21.6-6.8-33-6.6c-30.9,0-66.4,15.3-77.4,33.5
		c-5.8,10.4-9.4,22-10.4,33.9c-1.4,14.4,0.7,27.4,5.9,36.7c5.3,9.9,15.3,16.3,26.5,16.8c4.9,8,17.4,24.3,38.2,24.3l0,0
		c4.8,0,9.5-0.8,14-2.3c6,2.2,12.4,3.4,18.8,3.5c17.3,0,30-9.5,36.1-26.9c10.6-4.7,18.8-13.3,23-24.1
		C553.7,815.6,548.6,793.6,532.1,767.7z M533.2,827.7c-2.2,5.8-6.3,10.7-11.7,13.9c-2.3-4.4-5.1-8.5-8.5-12.1
		c-3.1-2.8-7.8-2.5-10.6,0.6c-2.6,2.9-2.5,7.4,0.2,10.2c2.9,3.5,5.3,7.3,7.3,11.4l0.2,0.4c-4,11.4-11.2,16.9-22,16.9
		c-3.8,0-7.5-0.6-11.2-1.7c0.3-4.6,0.2-9.2-0.1-13.8c-0.3-4.1-3.9-7.2-8-6.9c-4.1,0.3-7.2,3.9-6.9,8c0,0.3,0.1,0.5,0.1,0.8
		c0.2,3.9,0.2,7.8,0,11.7c-2.2,0.6-4.4,0.9-6.6,0.9l0,0c-12.7,0-21.2-10.5-24.8-16.2c3-4.7,6.2-11.5,4.7-17.3
		c-1.3-3.9-5.5-6.1-9.5-4.8c-3.4,1.1-5.6,4.5-5.1,8.1c-0.6,2.1-1.5,4.1-2.8,5.9c-5.9-0.4-11.2-3.8-14-9.1c-8-14.1-4.2-41.4,4.3-55.5
		c6.6-11,34.4-26.3,64.5-26.3c14.8,0,35,4,47.1,23C533.1,797.1,537.8,815,533.2,827.7L533.2,827.7z"/>
	<path class="st3" d="M854.3,771.7c-41.4,65.1,7.8,79.6,7.8,79.6c11,38.7,48.8,21,48.8,21c31.9,13,47.8-21.2,47.8-21.2
		c37.8,1.4,33.7-53.6,20.1-76C963.9,750.7,884.7,724.1,854.3,771.7z"/>
	<path class="st23" d="M995.5,805.2c-1-11.9-4.6-23.5-10.4-33.9c-11-18.1-46.4-33.5-77.4-33.5c-11.3-0.2-22.6,2.1-32.9,6.6
		c-11,5-20.3,13.1-26.7,23.3c-16.5,25.9-21.5,47.9-15,65.3c4.2,10.7,12.5,19.4,23.1,24c6.1,17.4,18.8,26.9,36.1,26.9
		c6.4-0.1,12.8-1.3,18.8-3.5c4.5,1.5,9.2,2.3,14,2.3l0,0c20.8,0,33.3-16.3,38.2-24.3c11.2-0.5,21.2-6.9,26.5-16.7
		C994.8,832.6,996.9,819.6,995.5,805.2z M976.5,834.5c-2.7,5.3-8.1,8.7-14,9.1c-1.3-1.8-2.2-3.9-2.8-6c0.8-4.1-1.8-8-5.8-8.9
		c-4-0.8-7.9,1.7-8.8,5.7c-1.4,5.8,1.8,12.5,4.8,17.3c-3.7,5.7-12.2,16.2-24.8,16.2l0,0c-2.2,0-4.5-0.3-6.6-0.9
		c-0.2-3.9-0.2-7.8,0-11.7c0.7-4.1-2-8-6.1-8.7c-4.1-0.7-8,2-8.7,6.1c0,0.3-0.1,0.5-0.1,0.8c-0.4,4.6-0.4,9.2-0.1,13.8
		c-3.6,1.1-7.4,1.7-11.2,1.7c-10.8,0-18-5.5-22-16.9l0.2-0.4c1.9-4.1,4.4-7.9,7.3-11.4c3-2.9,3.1-7.6,0.2-10.6
		c-2.9-3-7.6-3.1-10.6-0.2c-3.3,3.6-6.2,7.7-8.5,12.1c-5.3-3.2-9.5-8.1-11.7-13.9c-4.7-12.6,0-30.5,13.7-51.9
		c12.1-19,32.3-23,47.1-23c30.1,0,57.9,15.3,64.5,26.3C980.8,793.1,984.5,820.4,976.5,834.5z"/>
	<path class="st24" d="M698.2,449.2c0,0-100.9-5.9-142.6,35.9s-99.9,108.6-70,200.3s135.5,150,191.2,155
		c90.2,8.1,173.8-78.7,194.6-101.4c20.8-22.7,92.4-132.9-12.8-228.8C757.9,418,752,468.3,698.2,449.2z"/>
	<path class="st23" d="M618.5,455.5c-21.2-7.3-43.9-8.9-65.9-4.5c-36.4,7.3-90.4,4.9-105.3,3.5c-14.9-1.4-45.3,22.3-52,71.4
		s36.4,102.4,74.1,122.6c37.7,20.1,13.8-70,53.8-111.3S628.1,466.6,618.5,455.5z"/>
	<path class="st23" d="M796,466.3c0,0,46.5,0.9,79.7,2.1s48-9.1,61.4-1s69.6,41.6,31.9,127.3c-40.9,92.8-36.6,46.2-60.1,28.4
		s-71-52.8-87.3-87.4S783.4,459.1,796,466.3z"/>
	<path class="st23" d="M772.9,632.6c0,0-56.1-54.3-17.8-94.7c5.3-5.4,13.8-5.6,19.3-0.4c15.4,14.4,47.3,43.4,70.1,58.3
		c31,20.2-5.6,93-30.2,72.7C789.8,648.1,772.9,632.6,772.9,632.6z"/>
	<path class="st25" d="M824.4,598.4c0.3,16.6-13,30.3-29.6,30.6s-30.3-13-30.6-29.6s13-30.3,29.6-30.6c0,0,0,0,0,0
		C810.5,568.6,824.2,581.8,824.4,598.4C824.4,598.4,824.4,598.4,824.4,598.4z"/>
	<path class="st7" d="M810.1,598.7c0.1,8.7-6.8,15.9-15.5,16c-8.7,0.1-15.9-6.8-16-15.5c-0.1-8.7,6.8-15.9,15.5-16
		C802.8,583,810,590,810.1,598.7C810.1,598.7,810.1,598.7,810.1,598.7z"/>
	<path class="st26" d="M815.3,582.8c0.1,5.7-4.5,10.4-10.2,10.5c-5.7,0.1-10.4-4.5-10.5-10.2c-0.1-5.7,4.5-10.4,10.2-10.5
		C810.5,572.5,815.2,577.1,815.3,582.8C815.3,582.8,815.3,582.8,815.3,582.8z"/>
	<path class="st23" d="M614.5,635.2c0,0,54.3-56.1,14.8-95.2c-5.4-5.2-14-5.1-19.3,0.2c-14.9,14.9-45.9,44.9-68.2,60.5
		c-30.3,21.2,8.5,92.8,32.5,71.7C598.1,651.2,614.5,635.2,614.5,635.2z"/>
	<path class="st25" d="M622.5,601.6c0.3,16.6-13,30.3-29.6,30.6c-16.6,0.3-30.3-13-30.6-29.6c-0.3-16.6,13-30.3,29.6-30.6
		C608.5,571.8,622.2,585,622.5,601.6z"/>
	<path class="st7" d="M608.2,601.9c0.1,8.7-6.8,15.9-15.5,16c-8.7,0.1-15.9-6.8-16-15.5c-0.1-8.7,6.8-15.9,15.5-16
		C600.9,586.2,608,593.2,608.2,601.9z"/>
	<path class="st26" d="M613.3,586c0.1,5.7-4.5,10.4-10.2,10.5c-5.7,0.1-10.4-4.5-10.5-10.2c-0.1-5.7,4.5-10.4,10.2-10.5
		C608.6,575.8,613.3,580.3,613.3,586C613.3,586,613.3,586,613.3,586z"/>
	<path class="st23" d="M768,614.3c-24.6-13.1-66.6-30.2-95.4-23.1c-44.5,10.9-100.3,58.6-121.4,85.7c-18,23.1-18.3,67.4,11.4,111.6
		c39.5,30.8,84.2,49.3,114.3,52c55.4,5,108.3-25.8,145.7-55.6c24.9-19.8,36.1-53,25.8-83.1C839,673.6,816.8,640.2,768,614.3z"/>
	<path class="st7" d="M678.5,645.8c0.2,10.5-5.5,19.2-12.6,19.3c-7.1,0.1-13-8.3-13.2-18.9s5.5-19.2,12.5-19.3
		C672.4,626.8,678.4,635.2,678.5,645.8z"/>
	<path class="st7" d="M728.9,645c0.2,10.5-5.5,19.2-12.6,19.3c-7.1,0.1-13-8.3-13.2-18.9s5.5-19.2,12.5-19.3
		C722.8,626,728.7,634.4,728.9,645z"/>
	<path class="st7" d="M564.1,758.8c0,0,41.5,1.8,75.2-18.7s53.9-55,49.7-122.2c0,0,1.5-8.7,7,0c0,0-7.2,96,38,120.7
		c45.2,24.8,81.8,19.2,81.8,19.2s-24.9,20.2-92.3-1.2c-20.5-6.4-42.4-6.9-63.2-1.5C635.8,761.5,600.2,766.8,564.1,758.8z"/>
</g>
</svg>
